<svg xmlns="http://www.w3.org/2000/svg" width="92" height="24" viewBox="0 0 92 24">
    <path fill="#D5C8FF" fill-rule="evenodd" d="M46.237 7.124c0 .2-1.6 4.43-1.69 4.464-.042.016-.355-.103-.694-.266-.707-.34-1.37-.505-2.014-.504-.802.002-1.698.297-2.052.677-.151.162-.152.172-.19 2.595-.037 2.4.043 5.327.178 6.504.115 1.003.382 1.496.932 1.726.184.077 1.345.236 1.725.237.028 0 .043.23.033.51l-.02.512-4.88.016c-2.685.008-4.92-.009-4.966-.04-.06-.037-.08-.19-.066-.51l.02-.455.23-.05c.127-.026.4-.08.606-.119.639-.119 1.006-.465 1.212-1.144.169-.553.243-2.323.246-5.876.005-4.345-.085-5.372-.525-5.953-.238-.316-.41-.405-.987-.516a70.373 70.373 0 0 1-.667-.13c-.132-.028-.149-.071-.149-.395 0-.314.02-.37.149-.423.197-.082 6.73-1.388 6.94-1.388h.162l-.032.973a295.85 295.85 0 0 1-.062 1.731l-.03.759.236-.427C40.64 8.266 41.49 7.417 42.62 6.9c.62-.285 1.034-.37 1.8-.37.909 0 1.817.297 1.817.594zm-27.433-.08l-.47.143c-.705.215-.701.217-1.019-.623-.78-2.065-1.675-3.255-2.9-3.856-.844-.414-1.234-.464-3.62-.464H8.72l-.035.346c-.068.65-.174 4.826-.173 6.793l.001 1.962.61-.003c.336-.002.997-.027 1.47-.055.711-.043.923-.08 1.22-.218.732-.339 1.229-1.084 1.534-2.297l.157-.626.538-.019.538-.02v7.926l-.538-.02-.538-.018-.153-.627c-.288-1.177-.84-2.02-1.523-2.322-.316-.14-1.096-.219-2.606-.265l-.709-.021v1.488c0 1.622.09 3.817.203 5.008.16 1.66.584 2.578 1.346 2.91.146.063.606.166 1.023.229.417.062.81.14.874.173.16.083.17.943.011 1.004-.125.048-11.764.044-11.882-.004-.055-.022-.083-.186-.083-.49 0-.547-.035-.522 1.022-.719.811-.15 1.101-.304 1.46-.773.693-.91.843-2.663.845-9.878.002-6.776-.13-8.202-.847-9.25-.319-.464-.855-.716-1.754-.824l-.693-.083-.019-.54L0 .47.217.431c.12-.02 4.312-.03 9.316-.02l9.1.02.043.263c.023.145.062 1.633.085 3.307l.043 3.044zM91.73 18.624c-.028.831-.054 1.002-.243 1.56-.617 1.819-2.008 3.016-4.158 3.578-.728.19-.832.2-2.28.215-.833.01-1.635.004-1.78-.011-1.175-.126-3.045-.536-3.667-.803l-.305-.13-.041-1.508c-.023-.828-.05-1.936-.058-2.462l-.017-.955.182-.088c.1-.048.302-.093.45-.1l.267-.012.227.56c.889 2.188 1.931 3.367 3.292 3.726.52.136 1.493.138 1.877.002 1.077-.38 1.668-1.196 1.673-2.31.006-1.318-.72-1.952-3.458-3.022-1.697-.663-2.29-1.004-2.994-1.725-.76-.779-1.125-1.664-1.194-2.898-.083-1.491.384-2.748 1.418-3.82 1.04-1.077 2.391-1.661 4.232-1.83 1.62-.147 4.107.197 5.41.749l.238.1.043 1.343c.023.739.047 1.729.053 2.2l.012.858-.32.118c-.504.188-.538.164-.819-.58-.787-2.086-1.701-3.072-3.126-3.374-.869-.184-1.594.014-2.122.578-.41.44-.571.83-.61 1.486-.043.71.085 1.094.519 1.57.535.585 1.411 1.09 3.158 1.82 2.139.894 3.16 1.653 3.714 2.762.36.72.463 1.296.427 2.403zm-18.987-5.341c-1.377.077-4.333.115-4.37.057-.049-.08.074-1.254.196-1.862.294-1.466.764-2.524 1.41-3.176.348-.35.507-.46.79-.544.196-.058.417-.105.492-.105.303 0 .66.155.926.4.713.658 1.121 2.07 1.202 4.16l.04 1.032-.686.038zm5.483-.057c-.305-2.964-1.505-5.005-3.544-6.027-1.811-.907-4.61-.842-6.656.156-1.94.945-3.274 2.523-4.019 4.748-.388 1.16-.51 2.093-.471 3.596.025.95.068 1.441.166 1.88.765 3.412 3.105 5.733 6.377 6.323.72.13 2.356.133 3.084.005 1.04-.182 2.238-.644 2.994-1.155.923-.623 1.87-1.56 1.87-1.85 0-.178-.318-.587-.456-.587-.06 0-.316.134-.57.298-.902.583-1.765.823-2.965.823-1.655 0-2.705-.413-3.76-1.478-.466-.471-.658-.725-.9-1.192-.531-1.028-.818-2.21-.861-3.545l-.019-.577 4.88-.017 4.881-.016.022-.33a8.664 8.664 0 0 0-.053-1.055zM57.164 17.31c-.303 1.922-.855 3.405-1.623 4.363-.372.464-.99.904-1.474 1.047-.312.093-.98.115-1.576.052-.133-.014-.276-.066-.317-.115-.113-.137-.235-9.09-.16-11.709l.06-2.077.528-.152c.778-.225 1.616-.19 2.21.092 1.193.565 1.977 1.962 2.384 4.248.133.744.113 3.33-.032 4.251zm4.914-4.812C61.421 9.488 59.541 7.41 57 6.883c-.388-.08-.74-.097-1.496-.07-1.138.039-1.921.21-2.771.602-.282.13-.528.237-.547.237-.019 0-.016-1.722.006-3.825C52.224.862 52.215 0 52.154 0c-.215-.004-6.95 1.281-7.024 1.34-.056.044-.079.186-.066.402.022.375-.023.345.798.53.247.055.536.162.643.238.274.195.502.618.66 1.223.124.478.141.82.199 4.05.058 3.299.047 6.69-.044 12.902l-.038 2.58.484.11c.698.16 2.697.492 3.352.558.96.098 3.197.084 3.909-.023 3.093-.466 5.424-2.26 6.51-5.01.289-.729.566-1.852.663-2.685.113-.978.05-2.93-.122-3.716zM27.57 17.4c-.217 3.078-.885 4.747-2.131 5.327-.452.21-1.25.222-1.687.024-1.084-.492-1.852-1.986-2.237-4.35-.244-1.498-.267-4.83-.045-6.462.313-2.293.972-3.648 2-4.105.704-.314 1.68-.129 2.307.438 1.393 1.26 2.097 4.84 1.793 9.128zm4.956-3.515c-.345-2.926-1.586-5.069-3.634-6.274-2.276-1.34-5.735-1.417-8.192-.184-1.774.89-3.224 2.607-3.868 4.578-.665 2.033-.664 4.703 0 6.779.426 1.33 1.004 2.3 1.895 3.182 1.068 1.059 2.467 1.735 4.066 1.968.573.084 2.379.085 2.97.003.28-.039.765-.145 1.077-.235 2.9-.84 4.878-3.067 5.557-6.256.166-.78.235-2.667.13-3.56z"/>
</svg>
