<svg xmlns="http://www.w3.org/2000/svg" width="205" height="24" viewBox="0 0 205 24">
    <g fill="none" fill-rule="evenodd">
        <path fill="#D5C8FF" d="M7.48 8.294l4.22-6.117C12.5 1.026 13.53.449 14.794.449c1.03 0 1.922.366 2.675 1.097.754.731 1.13 1.607 1.13 2.626 0 .754-.199 1.418-.598 1.995L14.194 11.7l4.654 5.9c.465.589.698 1.276.698 2.062 0 1.042-.366 1.936-1.097 2.684-.731.749-1.618 1.122-2.66 1.122-1.14 0-2.01-.37-2.609-1.114l-5.7-7.113v3.923c0 1.119-.195 1.989-.582 2.61-.71 1.13-1.74 1.694-3.092 1.694-1.23 0-2.183-.415-2.859-1.246C.315 21.458 0 20.444 0 19.18V4.637c0-1.196.321-2.182.964-2.958C1.64.86 2.57.45 3.756.45c1.13 0 2.072.41 2.826 1.23.42.455.687.914.798 1.38.066.288.1.825.1 1.612v3.623zm20.967-3.207v14.078c0 1.219-.316 2.22-.948 3.008-.676.864-1.612 1.296-2.809 1.296-1.097 0-2.022-.404-2.775-1.213-.632-.676-.948-1.707-.948-3.091V5.087c0-1.574.316-2.716.948-3.425.72-.81 1.645-1.213 2.775-1.213s2.056.399 2.776 1.197c.654.73.98 1.878.98 3.44zM41.907 0c2.759-.011 5.296.914 7.612 2.776 1.817 1.462 2.726 2.975 2.726 4.538 0 1.329-.554 2.36-1.662 3.091a3.637 3.637 0 0 1-2.06.632c-.61 0-1.192-.144-1.746-.432-.233-.122-.81-.682-1.729-1.68-.853-.93-1.923-1.396-3.208-1.396-1.24 0-2.28.43-3.116 1.289-.837.858-1.255 1.908-1.255 3.15 0 1.23.418 2.274 1.255 3.133.836.859 1.87 1.288 3.1 1.288 1.019 0 1.966-.343 2.842-1.03.542-.521 1.08-1.042 1.612-1.563.576-.499 1.308-.748 2.194-.748 1.02 0 1.903.357 2.65 1.072.749.714 1.123 1.582 1.123 2.601 0 1.385-.815 2.787-2.444 4.205-2.282 1.995-4.92 2.992-7.911 2.992-1.851 0-3.596-.393-5.236-1.18a11.79 11.79 0 0 1-4.945-4.397 11.617 11.617 0 0 1-1.836-6.34c0-3.435 1.274-6.36 3.823-8.776C35.946 1.097 38.682.022 41.906 0zm19.198 8.294l4.221-6.117c.798-1.151 1.828-1.728 3.092-1.728 1.03 0 1.922.366 2.676 1.097.753.731 1.13 1.607 1.13 2.626 0 .754-.2 1.418-.598 1.995L67.819 11.7l4.654 5.9c.466.588.698 1.275.698 2.062 0 1.042-.365 1.936-1.096 2.684-.732.748-1.618 1.122-2.66 1.122-1.141 0-2.01-.37-2.61-1.114l-5.7-7.113v3.923c0 1.119-.194 1.989-.582 2.61-.71 1.13-1.74 1.694-3.092 1.694-1.23 0-2.183-.415-2.859-1.246-.631-.765-.947-1.779-.947-3.042V4.637c0-1.196.322-2.182.964-2.958.676-.82 1.607-1.23 2.792-1.23 1.13 0 2.072.41 2.826 1.23.421.455.687.914.798 1.38.067.288.1.825.1 1.612v3.623z"/>
        <path fill="#BDA8FF" d="M77.852 14.726c.831 0 1.717.366 2.66 1.097 1.173.92 1.977 1.38 2.41 1.38.642 0 .963-.332.963-.997 0-.366-.188-.676-.565-.931-.2-.133-1.32-.559-3.358-1.28-3.335-1.174-5.002-3.346-5.002-6.516 0-2.392.88-4.282 2.642-5.667C79.142.605 81.05 0 83.32 0c1.961 0 3.667.469 5.12 1.404 1.45.937 2.176 2.142 2.176 3.616 0 .887-.274 1.626-.822 2.219-.549.592-1.26.889-2.136.889-.92 0-1.94-.438-3.058-1.313-.698-.543-1.225-.814-1.58-.814-.609 0-.914.299-.914.897 0 .565.754 1.08 2.261 1.546 2.083.654 3.695 1.451 4.836 2.393 1.519 1.263 2.278 3.037 2.278 5.319 0 2.483-.853 4.421-2.56 5.818-1.584 1.296-3.645 1.944-6.183 1.944s-4.637-.675-6.3-2.028c-1.329-1.074-1.994-2.332-1.994-3.773 0-.964.327-1.767.981-2.41.654-.642 1.463-.97 2.427-.98zM97.863 7.58h-1.977c-1.097 0-2.006-.3-2.726-.898-.765-.643-1.147-1.501-1.147-2.576 0-.643.18-1.26.54-1.854.36-.592.826-1.013 1.397-1.263.57-.25 1.925-.374 4.064-.374h7.546c1.85 0 3.047.111 3.59.333.598.243 1.083.662 1.454 1.254.371.593.557 1.217.557 1.87 0 1.03-.41 1.929-1.23 2.693-.587.543-1.546.815-2.875.815h-1.712v11.302c0 1.23-.21 2.182-.632 2.858-.71 1.13-1.734 1.696-3.075 1.696-1.34 0-2.37-.516-3.092-1.546-.454-.643-.681-1.617-.681-2.925V7.58zm18.184 12.781c-.355.842-.72 1.468-1.097 1.878-.753.82-1.668 1.23-2.742 1.23-1.319 0-2.344-.532-3.075-1.596a3.68 3.68 0 0 1-.648-2.127c0-.654.155-1.313.465-1.978l7.097-15.108c.687-1.474 1.834-2.211 3.44-2.211 1.63 0 2.798.759 3.508 2.277l7.164 15.225c.288.61.432 1.214.432 1.812a3.57 3.57 0 0 1-.865 2.36c-.753.898-1.717 1.346-2.891 1.346-.965 0-1.768-.299-2.41-.898-.478-.442-.953-1.18-1.43-2.21h-6.948zm31.073-5.8l1.762 2.825c.487.786.731 1.596.731 2.426 0 1.053-.363 1.926-1.089 2.618-.725.693-1.614 1.04-2.666 1.04-1.353 0-2.377-.577-3.076-1.73l-3.125-5.119v3.075c0 1.053-.346 1.945-1.039 2.676-.692.731-1.565 1.097-2.618 1.097-1.285 0-2.26-.46-2.925-1.38-.598-.808-.897-1.872-.897-3.191V4.92c0-2.87 1.546-4.305 4.637-4.305h4.754c1.562 0 3.013.452 4.354 1.355 1.341.903 2.322 2.075 2.942 3.516.465 1.085.698 2.176.698 3.273 0 2.05-.814 3.984-2.443 5.801zm8.889-6.981h-1.978c-1.098 0-2.006-.3-2.726-.898-.765-.643-1.147-1.501-1.147-2.576 0-.643.18-1.26.54-1.854.36-.592.825-1.013 1.396-1.263s1.925-.374 4.064-.374h7.546c1.85 0 3.047.111 3.59.333.598.243 1.084.662 1.455 1.254.37.593.557 1.217.557 1.87 0 1.03-.41 1.929-1.23 2.693-.588.543-1.546.815-2.875.815h-1.713v11.302c0 1.23-.21 2.182-.631 2.858-.71 1.13-1.735 1.696-3.075 1.696s-2.371-.516-3.092-1.546c-.455-.643-.681-1.617-.681-2.925V7.58zm22.172 8.709h3.4c1.404 0 2.449.288 3.134.864.808.687 1.212 1.574 1.212 2.66 0 1.108-.406 2.005-1.214 2.692-.632.532-1.668.798-3.108.798h-5.834c-1.374 0-2.316-.105-2.826-.316-.997-.41-1.657-1.08-1.978-2.011-.2-.598-.299-1.579-.299-2.942V5.702c0-1.031.034-1.723.1-2.078.121-.72.415-1.33.88-1.828.532-.566 1.209-.926 2.028-1.081.388-.066 1.175-.1 2.36-.1h4.472c1.218 0 1.928.011 2.127.034.798.077 1.451.31 1.961.697.909.688 1.363 1.585 1.363 2.693 0 1.197-.398 2.111-1.194 2.743-.708.565-1.674.848-2.902.848h-3.682v1.545h2.934c.86 0 1.574.227 2.138.682.596.487.895 1.157.895 2.01 0 1.807-1.1 2.71-3.3 2.71h-2.668v1.712zm24.064-1.729l1.762 2.826c.487.786.73 1.596.73 2.426 0 1.053-.363 1.926-1.088 2.618-.726.693-1.615 1.04-2.667 1.04-1.353 0-2.377-.577-3.075-1.73l-3.125-5.119v3.075c0 1.053-.347 1.945-1.04 2.676-.692.731-1.565 1.097-2.617 1.097-1.286 0-2.26-.46-2.925-1.38-.599-.808-.898-1.872-.898-3.191V4.92c0-2.87 1.546-4.305 4.638-4.305h4.753c1.563 0 3.014.452 4.355 1.355 1.34.903 2.32 2.075 2.942 3.516.465 1.085.698 2.176.698 3.273 0 2.05-.814 3.984-2.443 5.801z"/>
    </g>
</svg>
