<svg xmlns="http://www.w3.org/2000/svg" width="171" height="24" viewBox="0 0 171 24">
    <path fill="#D5C8FF" fill-rule="evenodd" d="M131.85 9.04c.897-.822 1.825-1.611 2.73-2.423.645.733 1.272 1.483 1.914 2.22.333-.261.631-.57 1-.786-.027.117-.059.239-.168.305-.276.229-.55.46-.828.682.004 1.9-.008 3.8.006 5.7.363.41.738.81 1.076 1.243.282-.172.517-.408.786-.6l.23.12a78.184 78.184 0 0 1-2.758 2.44c-.62-.745-1.257-1.478-1.892-2.213-.276.25-.507.554-.81.772l-.17-.162c.269-.254.522-.525.795-.778.022-1.726.002-3.454.01-5.18-.016-.24.062-.525-.126-.716-.332-.413-.637-.847-.99-1.241-.264.213-.514.444-.805.616zm6.03-.132c.867-.759 1.716-1.537 2.588-2.29.626.69 1.273 1.36 1.887 2.06.921-.666 1.805-1.38 2.717-2.06.64.684 1.266 1.38 1.91 2.06.904-.685 1.797-1.384 2.707-2.06.621.694 1.262 1.369 1.89 2.056.386-.246.74-.54 1.132-.776.03.229-.179.332-.323.459-.21.169-.414.346-.624.514-.017 1.897.004 3.794-.011 5.691.361.376.73.744 1.106 1.105.199-.207.403-.41.596-.622l.234.146c-.95.936-1.93 1.844-2.907 2.754-.688-.812-1.409-1.598-2.08-2.424.163-.15.321-.306.478-.462.002-1.637 0-3.273 0-4.908-.52-.58-1.037-1.162-1.573-1.726-.155.158-.31.315-.462.474-.002 2.046.008 4.091-.005 6.137.257.29.548.548.81.837-.704.624-1.383 1.278-2.083 1.909a96.02 96.02 0 0 1-1.93-2.092c.18-.222.541-.383.484-.721-.008-1.596.009-3.192-.008-4.786a19.544 19.544 0 0 0-1.43-1.75c-.148.157-.298.311-.448.465.004 1.981-.011 3.964.007 5.946.214.364.533.663.798.992a72.872 72.872 0 0 1-2.101 2.106c-.681-.811-1.386-1.6-2.072-2.406.214-.167.43-.33.645-.497-.006-1.674-.012-3.349.003-5.023-.401-.497-.841-.961-1.263-1.441-.3.222-.563.501-.906.658-.016-.156.138-.23.234-.325zm-37.805-2.28c.582.53 1.072 1.156 1.614 1.73a67.672 67.672 0 0 0 1.733-1.731c.413.265.844.637 1.375.53.374-.026.568-.393.886-.542.001.779-.178 1.598-.694 2.203-.59.707-1.708.914-2.499.43-.303-.148-.505-.432-.788-.606.007 2.132.004 4.262.002 6.393.42.323.84.645 1.272.953.314-.206.556-.585.952-.62-.931.886-1.907 1.73-2.878 2.574-.73-.688-1.476-1.358-2.197-2.054-.281.253-.541.528-.809.794l-.171-.199c.354-.393.748-.748 1.11-1.134-.014-1.824.007-3.647-.01-5.47-.193-.46-.53-.86-.773-1.3-.333.197-.576.606-.99.62.942-.87 1.927-1.695 2.865-2.571zm57.232 1.386c.78 1.153 1.464 2.37 2.196 3.556-.742.509-1.463 1.047-2.2 1.559.011-1.704 0-3.41.004-5.115zm2.224-1.556c-.648.395-1.299.788-1.938 1.195-.886.615-1.901.998-2.84 1.518.01 2.062 0 4.126.005 6.187-.324.214-.644.432-.968.642l.168.206c.279-.207.531-.453.833-.632.84.782 1.72 1.52 2.572 2.29.082.13.2-.003.283-.056 1.536-1.184 3.077-2.36 4.615-3.54-.18-.316-.385-.01-.565.12-.722.587-1.443 1.175-2.168 1.76-.74-.676-1.456-1.377-2.21-2.036a6.317 6.317 0 0 1-.003-.637c1.442-1.044 2.867-2.113 4.297-3.173a441.728 441.728 0 0 0-2.081-3.844zm-50.39 4.812c1.049-1.611 2.12-3.208 3.196-4.802a3.022 3.022 0 0 0 1.65.703c.595 0 1.102-.353 1.55-.706-.113.869-.402 1.772-1.07 2.376-.581.534-1.463.662-2.196.401a4.018 4.018 0 0 1-1.19-.659 2.93 2.93 0 0 0-.152.46c1.49 2.243 2.953 4.507 4.416 6.769.336-.218.63-.494.927-.761l.231.146c-1.052.939-2.138 1.84-3.217 2.748-1.387-2.222-2.743-4.463-4.146-6.675zM91.388 7.956c.728.684 1.468 1.357 2.196 2.043-.007 2.146-.005 4.292-.005 6.439-.746-.654-1.454-1.348-2.19-2.013v-6.47zm1.725-1.495c-.681.396-1.353.805-2.013 1.233-.775.472-1.622.808-2.447 1.179.019 2.164.005 4.328.007 6.492-.276.275-.554.55-.822.83.056-.002.168-.01.224-.014.195-.21.4-.413.6-.617.927.758 1.84 1.532 2.76 2.298.151.146.323-.072.47-.125 1.48-.81 2.878-1.762 4.402-2.489.023-2.016.007-4.032.01-6.05.275-.274.554-.548.823-.83l-.217.008c-.257.211-.516.416-.774.624-1.009-.845-2.013-1.698-3.023-2.54zM50.863 8.02c.713 1.161 1.366 2.361 2.025 3.555-.68.499-1.337 1.027-2.01 1.534-.032-1.696 0-3.393-.015-5.09zm2.063-1.564c-.62.408-1.245.812-1.88 1.197-.928.58-1.934 1.018-2.906 1.518.003 2.062-.006 4.125.002 6.187-.3.223-.63.4-.922.634.03.054.095.162.125.216.323-.217.642-.44.973-.644.835.798 1.681 1.583 2.522 2.374 1.572-1.168 3.114-2.377 4.671-3.566.2-.04.036-.365-.092-.24-.843.655-1.662 1.342-2.493 2.013-.652-.647-1.3-1.297-1.949-1.946-.21-.185-.085-.492-.096-.734 1.383-1.027 2.724-2.112 4.11-3.135-.638-1.314-1.386-2.58-2.065-3.874zM26.879 7.979c.728 1.195 1.459 2.386 2.178 3.586-.731.515-1.457 1.035-2.18 1.559-.007-1.715-.01-3.43.002-5.145zm2.221-1.52c-.88.509-1.73 1.064-2.592 1.601-.731.381-1.473.741-2.209 1.11.003 2.064-.003 4.127.005 6.19-.313.244-.68.419-.965.698l.219.133c.247-.213.49-.43.762-.612.911.758 1.772 1.58 2.682 2.341l.18-.094c1.54-1.194 3.097-2.37 4.639-3.563l-.191-.168c-.858.668-1.693 1.371-2.542 2.05-.702-.632-1.381-1.288-2.081-1.923-.239-.174-.105-.505-.123-.752a266.189 266.189 0 0 0 4.292-3.186A247.886 247.886 0 0 1 29.1 6.458zm137.578 5.295c.334.28.664.567.998.85.153.092.078.284.1.428-.01 1.104.014 2.21-.013 3.314-.25-.565-.623-1.09-1.151-1.424-.765-.5-1.817-.53-2.596-.043-.356.197-.642.492-.912.792.387-.754 1.01-1.349 1.598-1.946.67-.646 1.34-1.29 1.976-1.971zm-1.093-3.841c.43.616.997 1.216 1.776 1.342.775.182 1.526-.238 2.035-.797-.696 1.286-1.776 2.32-2.891 3.245-.302-.32-.626-.618-.925-.94.012-.95.002-1.9.005-2.85zm4.26-1.926c.072.188.096.397.004.583-.225.515-.838.712-1.36.703-.546-.049-.972-.441-1.34-.812-.617.413-1.238.824-1.854 1.238-.711.478-1.496.832-2.285 1.161-.003 1.013.001 2.024-.002 3.036.575.48 1.167.939 1.732 1.432-.433.458-.86.923-1.269 1.403-.42.505-.816 1.09-.84 1.768-.025.77.305 1.606.988 2.014.302.178.668.336 1.019.2-.436-.157-.973-.473-.935-1.004.121-.504.719-.84 1.215-.696.515.147.94.515 1.268.927a33.583 33.583 0 0 1 4.162-2.554c-.01-1.285.018-2.573-.012-3.857-.64-.448-1.248-.936-1.88-1.393.668-.847 1.34-1.742 1.62-2.802.104-.447.139-1.01-.232-1.347zM56.454 4.708c.412-.283.934-.265 1.41-.327-.359.285-.758.615-.807 1.105-.08.438.196.832.52 1.095.587.47 1.342.734 1.821 1.337.23.291.37.66.36 1.034-.003 1.976.002 3.952-.003 5.927.525.425 1.053.845 1.578 1.27l.46-.297c-.008-2.156.01-4.314-.01-6.47-.27-.32-.644-.547-.953-.832.758-.697 1.501-1.414 2.274-2.094.673.66 1.38 1.284 2.07 1.926-.262.277-.532.547-.808.81-.005 1.895 0 3.791-.003 5.687.688.534 1.377 1.07 2.073 1.595l.298-.17c-.01-2.315 0-4.63-.007-6.946-.319-.272-.649-.531-.963-.809.743-.703 1.496-1.393 2.244-2.091.745.582 1.49 1.165 2.231 1.753.257-.283.52-.564.813-.812l.153.217a75.074 75.074 0 0 0-1.878 1.722c-.053 1.846 0 3.698-.025 5.545-1.613 1.06-3.297 2.027-4.933 3.058-.863-.619-1.702-1.27-2.554-1.903-.764.614-1.529 1.23-2.298 1.838-.11.122-.223-.056-.314-.107-.72-.578-1.434-1.16-2.163-1.725-.306.267-.626.516-.933.783-.049-.047-.145-.14-.194-.185.374-.259.74-.531 1.114-.79.002-1.79.002-3.579 0-5.369a1.961 1.961 0 0 0-.496-1.318c-.36-.39-.844-.665-1.13-1.122-.317-.532-.345-1.191-.224-1.785.177-.671.71-1.183 1.276-1.55zm76.198-.619c.66-.579 1.281-1.2 1.956-1.763.57.603 1.171 1.175 1.751 1.768-.696.651-1.396 1.297-2.1 1.938-.533-.651-1.082-1.287-1.607-1.943zm-50.158 6.378c.403.01.713.312.922.63-.003 1.663 0 3.328 0 4.992.032.51-.32.947-.703 1.24-.371.295-.874.305-1.325.28-.025-2.173 0-4.35-.01-6.523.291-.317.66-.625 1.116-.619zm-1.116-1.55c.626.317 1.43.413 2.038.002-.002.596-.002 1.194 0 1.79-.247-.24-.564-.431-.917-.43-.416-.01-.798.187-1.12.43.001-.597-.002-1.195 0-1.793zm.762-5.431c.428.367.849.74 1.276 1.11 0 1.315-.003 2.629 0 3.943-.203.2-.425.41-.721.448-.483.102-.953-.137-1.317-.435.002-1.534.001-3.068 0-4.603.255-.152.51-.305.762-.463zm2.083-2.11c-.957.776-1.894 1.575-2.842 2.362-.01-.742.012-1.482-.013-2.224-.147-.007-.211.06-.191.2-.005 5.242.002 10.484-.002 15.727a46.695 46.695 0 0 1-1.55-.318c-.007-4.422 0-8.843-.002-13.265-.01-.56-.192-1.122-.56-1.549-.458-.543-1.175-.795-1.867-.843-.82-.023-1.572.407-2.145.963-.526.5-.809 1.273-.66 1.992.065-.446.21-.947.62-1.195.449-.192 1.047-.037 1.316.385.23.34.254.765.263 1.164.002 1.195-.001 2.39 0 3.586-.789.012-1.72.14-2.176.871-.458.573-.6 1.385-.285 2.058.207.666.9 1.01 1.544 1.116-.36-.234-.728-.644-.515-1.1.287-.46.937-.526 1.421-.393.02 2.121.01 4.241.006 6.363-.724.252-1.428.69-1.814 1.373-.281.485-.288 1.067-.265 1.612.087.955.717 1.828 1.564 2.264.64.3 1.36.309 2.053.285 1.966-.117 3.834-.897 5.805-.962.587-.044.93.604.777 1.113-.118.46-.503.77-.866 1.039.691-.147 1.38-.406 1.92-.876.61-.517.89-1.35.85-2.132-.045-.774-.67-1.35-1.319-1.684-.854-.501-1.886-.39-2.827-.288-1.766.204-3.488.765-5.272.813a1.249 1.249 0 0 1-1.292-.98c-.136-.572.328-1.072.798-1.317 1.016-.48 2.187-.303 3.247-.08 1.23.13 2.384.63 3.614.757.7.08 1.442-.055 2.015-.479.591-.364.858-1.075.874-1.744.007-4.174-.008-8.346.007-12.52.382-.33.802-.627 1.134-1.01-.465.115-.756.55-1.136.817-.751-.625-1.486-1.265-2.229-1.9zM14.053 3.269c1.052-.785 2.084-1.598 3.138-2.38.005 2.59-.001 5.182.003 7.772.891-.735 1.79-1.462 2.672-2.207.708.734 1.37 1.515 2.099 2.226.308-.221.624-.431.946-.629-.058.41-.549.551-.803.838.003 1.416 0 2.831 0 4.247.021 1.059-.132 2.11-.163 3.168-.048 1.147-.493 2.32-1.388 3.072-.727.65-1.722.885-2.67.963l-.069.092.026-.084c-.327 0-.653-.012-.98-.036.41-.212.874-.348 1.197-.698.37-.414.803-.808.985-1.35.299-.824.308-1.714.337-2.58-.008-1.94.01-3.883-.009-5.822-.432-.564-.95-1.061-1.408-1.605-.25.268-.55.493-.766.79-.017 2.004-.002 4.008-.007 6.01.26.26.518.52.78.777.21-.21.42-.423.63-.635l.186.184c-1.018.796-2.027 1.605-3.046 2.401-.645-.573-1.274-1.161-1.91-1.745-.212.159-.425.32-.639.477-.046-.047-.135-.143-.181-.191.489-.315.969-.644 1.453-.965V4.674c-.01-.272.003-.566-.14-.808-.096-.186-.31-.245-.47-.357-.035-.118.134-.168.197-.241zm91.29-.139c1.223-.797 2.443-1.6 3.67-2.39.01 4.7-.01 9.402.01 14.103.265.36.627.657.948.974.201-.216.411-.423.62-.632.048.049.146.147.196.195-.98.848-1.928 1.73-2.913 2.57-.62-.638-1.262-1.252-1.878-1.892-.276.246-.529.515-.788.777l-.212-.164c.47-.45.973-.861 1.448-1.307-.005-3.562.003-7.125-.005-10.687-.011-.667-.35-1.464-1.096-1.547zM48.47.72c.607 1.064.227 2.506-.687 3.272-.561.366-1.207.568-1.84.772.014 4.35.002 8.702.004 13.053.045.198-.137.354-.325.275-.37-.018-.467-.408-.624-.67-2.276-4.186-4.528-8.386-6.822-12.562-.044 3.072-.001 6.147-.022 9.22 1.084.204 2.14.727 2.849 1.589.329-.255.542-.703.964-.806-.107.195-.263.354-.412.518-.82.907-1.638 1.82-2.457 2.729-.38-.479-.887-.933-1.52-.998-.417-.017-.899.005-1.203.334-.35.312-.583.837-.334 1.283.293.638 1.028.811 1.648.964-.775.153-1.642.063-2.266-.455-.497-.425-.949-.964-1.078-1.622-.174-.907.097-1.915.774-2.557.741-.733 1.827-1.006 2.844-.948.027-1.339.015-2.677.006-4.016-.494-.079-1.168-.008-1.398.508-.133.419.18.772.491 1-.385-.066-.813-.14-1.091-.438-.328-.405-.583-.883-.678-1.398-.094-.663.08-1.42.632-1.846.578-.448 1.347-.509 2.052-.492v-2.83c-.256-.385-.501-.825-.94-1.024-.288-.119-.662-.162-.91.063-.342.29-.425.751-.56 1.156-.132-.987-.033-2.107.659-2.881C37.06.83 38.829.79 39.743 1.79c.395.407.666.908.935 1.402 1.691 3.012 3.35 6.043 5.058 9.044.01-2.489.015-4.98-.002-7.469-.294-.114-.62-.11-.92-.215-.556-.146-1.02-.505-1.43-.893-.258.301-.517.602-.756.917l-.223-.121c.876-1.105 1.816-2.16 2.728-3.235.477.503 1.101.915 1.812.96.742-.085 1.473-.679 1.525-1.46zm75.771 6.114c.012 2.156 0 4.31.005 6.467-.367.154-.73.316-1.097.47-.532-.747-.946-1.588-1.16-2.483-.235-1.171-.172-2.441.373-3.522.631-.302 1.254-.618 1.88-.932zM129.358 0a.791.791 0 0 0-.506.146c.366.084.754.12 1.097.292.306.147.508.45.614.765.057.339-.191.652-.489.78-.534.246-1.14.131-1.684-.016-1.304-.4-2.574-.916-3.904-1.228-.684-.146-1.4-.283-2.091-.102-.75.211-1.51.57-1.951 1.238-.571.737-.643 1.75-.365 2.616.23.578.694 1.146 1.35 1.22-.214-.275-.582-.553-.476-.945.06-.39.22-.784.532-1.037.312-.235.74-.232 1.1-.127 1.327.247 2.622.619 3.934.93.888.188 1.741.52 2.636.685.015 1.001.003 2.003.007 3.005-.48.425-.961.85-1.436 1.282.479.37.949.748 1.434 1.11.007 1.426-.003 2.853.007 4.28-.841.63-1.949.785-2.97.643-1.127-.067-2.114-.745-2.862-1.548.306-.214.657-.352.988-.525.931-.458 1.85-.938 2.789-1.38.03-2.245.003-4.49.013-6.735-1.582.674-3.15 1.379-4.738 2.038.363-.861.942-1.649 1.722-2.175.233-.213.47-.436.79-.51-.32.023-.652.012-.943.16-2.236.905-4.144 2.879-4.564 5.304-.16 1.23-.046 2.509.384 3.675.551 1.37 1.522 2.586 2.784 3.362a8.388 8.388 0 0 0 1.93.869c1.623.27 3.362.036 4.782-.825.936-.654 1.806-1.5 2.198-2.599.42-.932.59-1.95.611-2.967-.196.256-.31.56-.476.833-.54.905-1.237 1.724-2.086 2.351.01-1.421-.013-2.843.012-4.264.481-.347.933-.734 1.416-1.08-.446-.462-.952-.862-1.426-1.294-.01-.996.011-1.993-.01-2.99.932-.06 1.875-.478 2.376-1.296.522-.84.519-1.986.016-2.833-.397-.523-1.02-.86-1.664-.957-.288-.024-.59-.142-.88-.15zM4.913 6.835c-.004 2.16.013 4.32-.007 6.48-.36.142-.716.297-1.07.453-.654-.946-1.06-2.06-1.248-3.191-.051-.955.126-1.922.458-2.817.628-.299 1.242-.621 1.867-.925zM9.99.001a.93.93 0 0 0-.469.146c.622.124 1.35.207 1.742.774.197.209.136.53-.06.713-.373.443-1.011.582-1.557.44C7.795 1.639 6.044.789 4.142.568 3.122.432 2.127.922 1.424 1.632c-.65.65-.885 1.639-.757 2.531.144.706.667 1.44 1.424 1.544-.448-.487-.533-1.333-.068-1.84.262-.325.73-.37 1.118-.31 1.474.274 2.91.718 4.38 1.016.824.225 1.637.492 2.479.645.015 1.005.015 2.01 0 3.016-.543.405-1.062.842-1.595 1.26.52.389 1.054.752 1.59 1.116.035 1.422-.005 2.844.02 4.266-.877.678-2.052.788-3.12.663-1.134-.063-2.14-.74-2.883-1.56a96.467 96.467 0 0 1 3.787-1.9c.045-2.242.008-4.485.02-6.729-1.59.668-3.166 1.37-4.752 2.048.458-1.173 1.39-2.123 2.504-2.687-.29.017-.596-.004-.866.122-2.083.822-3.8 2.59-4.445 4.745-.432 1.37-.293 2.867.176 4.206.58 1.49 1.655 2.808 3.08 3.56.8.414 1.66.802 2.577.813 1.898.158 3.895-.558 5.176-1.987.559-.6.84-1.382 1.118-2.14.257-.745.373-1.539.346-2.327-.614 1.218-1.431 2.363-2.547 3.17.007-1.416-.002-2.833.003-4.25.485-.37.972-.74 1.441-1.129l-1.441-1.28c.002-.997-.003-1.996 0-2.991 1.085-.057 2.333-.63 2.626-1.768.203-.742.31-1.622-.146-2.295-.418-.476-.961-.89-1.6-1.006-.352-.03-.725-.17-1.08-.153z"/>
</svg>
