<svg xmlns="http://www.w3.org/2000/svg" width="48" height="48" viewBox="0 0 48 48">
    <g fill="none" fill-rule="evenodd">
        <path fill="#4F2A93" d="M6.492 35.154l7.358-7.359c1.05-4.274 2.135-8.752 2.22-9.226.072-.495.235-1.597 1.132-2.653.453-.53 1.008-.966 1.707-1.35L39.353 3.301l6.69-1.557-1.494 6.599-11.334 20.542c-.359.655-.768 1.185-1.248 1.615l-.083.073c-1.065.906-2.133 1.064-2.707 1.15-.447.081-5.02 1.19-9.185 2.212l-7.36 7.36.868 4.688-9.87-1.826-1.828-9.871 4.69.868z"/>
        <path fill="#4F2A93" d="M36.05 41.079l-7.358-7.359c-4.274-1.05-8.753-2.135-9.226-2.22-.495-.071-1.597-.234-2.653-1.13-.53-.454-.966-1.01-1.35-1.708L4.197 8.218 2.641 1.527 9.24 3.021 29.78 14.355c.656.36 1.186.768 1.616 1.248l.073.084c.906 1.064 1.064 2.133 1.15 2.707.081.446 1.19 5.019 2.212 9.184l7.36 7.361 4.688-.868-1.826 9.87-9.871 1.827.868-4.689z"/>
        <path fill="#C6B6E4" d="M18.141 27.193c.22.399.432.664.647.848l7.643-2.722L6.48 5.368c-.164.188.048.728.39 1.377"/>
        <path fill="#8966C7" d="M18.792 28.043c.39.332.78.386 1.181.447.622.091 10.277 2.468 10.277 2.468l.91-.91-4.73-4.728-7.638 2.723z"/>
        <path fill="#7A54C0" d="M28.306 17.029c.398.219.663.432.847.647l-2.721 7.642L6.482 5.37c.184-.163.714.036 1.353.363"/>
        <path fill="#6133B4" d="M29.155 17.68c.332.39.386.78.447 1.181.092.622 2.469 10.276 2.469 10.276l-.91.91-4.73-4.729 2.724-7.638z"/>
        <path fill="#8966C7" d="M35.402 36.111l-1.494-1.494.467-3.177 1.494 1.495zM38.39 39.1l-1.494-1.495.468-3.176 1.494 1.494zM32.07 29.137l.81.81-.467 3.174-2.164-2.162"/>
        <path fill="#6133B4" d="M33.908 34.617l-1.495-1.495.468-3.176 1.494 1.494zM36.896 37.605l-1.494-1.494.468-3.176 1.494 1.494zM39.885 40.594L38.39 39.1l.467-3.177 2.849 2.849z"/>
        <path fill="#C6B6E4" d="M30.25 30.959l.162-1.657 1.66-.165-.165 1.659zM39.632 38.52l-.637 3.436 2.037-2.037zM43.069 37.882l-3.437.637 1.4 1.4zM41.032 39.92l-2.037 2.036 3.437-.636zM42.432 41.32l.637-3.437-2.037 2.037z"/>
    </g>
</svg>
