<svg xmlns="http://www.w3.org/2000/svg" width="48" height="48" viewBox="0 0 48 48">
    <g fill="none" fill-rule="evenodd">
        <path fill="#1F6EA2" d="M24.462 1.151c-3.695 3.714-7.321 14.62-9.236 20.913-.84-1.062-1.799-2.076-3.158-3.326-4.806 3.514-7.357 7.25-10.646 11.816 8.916 7.926 11.233 9.256 22.995 16.005l.045-.025h.001l.045.025c11.76-6.749 14.079-8.08 22.994-16.005-3.287-4.566-5.841-8.302-10.645-11.816-1.361 1.25-2.317 2.264-3.158 3.326-1.915-6.294-5.543-17.2-9.236-20.913h-.001z"/>
        <path fill="#278ABF" d="M24.464 32.108l3.561-1.265c6.075-.605 8.425-2.281 9.426-3.498l6.053 2.707.002.013a.45.45 0 0 1-.105.286 4.97 4.97 0 0 1-.32.33c-3.405 3.315-18.237 11.981-18.617 12.202V32.108z"/>
        <path fill="#53B4E5" d="M36.406 23.041c.23-.188.292-.34.674-.336 1.183.067 5.169 5.175 6.064 6.461.194.278.366.61.36.885l-6.053-2.707c.236-.367.19-.92-.355-1.252-.818-.501-2.529.949-2.959.284-.599-.927 2.04-3.147 2.27-3.335"/>
        <path fill="#2AA0CF" d="M23.591 7.487c-5.39 15.419-8.227 23.817-8.227 23.817l9.097 4.76V6.839c-.36 0-.718.216-.87.648"/>
        <path fill="#278ABF" d="M25.332 7.487c-.152-.432-.51-.648-.87-.648v29.225l9.097-4.76s-2.837-8.398-8.227-23.817"/>
        <path fill="#4DB2D6" d="M24.462 32.108L20.9 30.843c-6.075-.605-8.342-2.352-9.425-3.498L5.42 30.052l-.002.013a.45.45 0 0 0 .106.286c.09.104.197.215.318.33 3.406 3.315 18.238 11.981 18.619 12.202V32.108z"/>
        <path fill="#6BC4E9" d="M12.519 23.041c-.23-.188-.292-.34-.674-.336-1.183.067-5.169 5.175-6.063 6.461-.194.278-.367.61-.361.885l6.053-2.707c-.236-.367-.19-.92.356-1.252.817-.501 2.528.949 2.958.284.6-.927-2.039-3.147-2.27-3.335"/>
        <path fill="#A9DBF6" d="M24.463 34.998v-5.101l-7.21-4.13-1.48 4.049z"/>
        <path fill="#84CFF2" d="M24.463 34.998v-5.101l7.207-4.13 1.483 4.049z"/>
    </g>
</svg>
