<svg xmlns="http://www.w3.org/2000/svg" xmlns:xlink="http://www.w3.org/1999/xlink" width="65" height="64" viewBox="0 0 65 64">
    <defs>
        <path id="a" d="M0 .11v9.836h8.584V.11H0z"/>
        <path id="c" d="M.169 6.905h10.056V.139H.169z"/>
        <path id="e" d="M.105 10.175h5.426V.165H.105v10.01z"/>
        <path id="g" d="M.268 8.722h5.158V.334H.268z"/>
        <path id="i" d="M0 .03v2.705h2.5V.03H0z"/>
    </defs>
    <g fill="none" fill-rule="evenodd">
        <path fill="#2995CD" d="M23.52 19.395l6.38-.14-3.07 5.626-3.07 5.627-3.31-5.486-3.31-5.487zM36.28 19.116l6.381-.14-3.07 5.625-3.07 5.627-3.31-5.486-3.31-5.487z"/>
        <path fill="#A9DCF6" d="M42.902 30.088l-6.38.14 3.07-5.626 3.07-5.626 3.31 5.485 3.31 5.487z"/>
        <path fill="#50B5E9" d="M30.141 30.368l-6.38.14 3.07-5.626 3.07-5.626 3.31 5.485 3.31 5.487z"/>
        <path fill="#46A7D9" d="M17.38 30.647l-6.38.14 3.07-5.625 3.07-5.627 3.31 5.486 3.31 5.487z"/>
        <path fill="#50B5E9" d="M11 30.787l19.461 18.297-6.7-18.576z"/>
        <path fill="#2995CD" d="M49.297 29.947L30.461 49.084l6.075-18.857z"/>
        <path fill="#A9DCF6" d="M23.761 30.507l6.7 18.577 6.06-18.856z"/>
        <path fill="#50B5E9" d="M30.141 11.884a1.59 1.59 0 0 1-1.585-1.594V1.958c0-.88.71-1.595 1.585-1.595a1.59 1.59 0 0 1 1.586 1.595v8.332c0 .88-.71 1.594-1.586 1.594"/>
        <path fill="#FFBE5D" d="M44.742 14.14a1.574 1.574 0 0 1-.71-.409 1.6 1.6 0 0 1-.01-2.254l5.833-5.919a1.58 1.58 0 0 1 2.242-.01 1.6 1.6 0 0 1 .01 2.255l-5.834 5.918c-.413.42-1 .56-1.53.42"/>
        <path fill="#3FDAA2" d="M15.54 14.14c.26-.068.507-.205.711-.409a1.6 1.6 0 0 0 .01-2.254l-5.833-5.919a1.58 1.58 0 0 0-2.242-.01 1.6 1.6 0 0 0-.01 2.255l5.833 5.918c.414.42 1.001.56 1.531.42"/>
        <path fill="#FFA623" d="M4.516 36.059l4.293-2.362-.113 4.918-.112 4.918-4.18-2.556-4.18-2.557z"/>
        <path fill="#FFA623" d="M13.1 31.336l4.293-2.361-.113 4.918-.112 4.918-4.18-2.557-4.18-2.557z"/>
        <path fill="#FFD9A0" d="M21.46 36.45l-4.292 2.36.112-4.918.112-4.917 4.18 2.556 4.18 2.557z"/>
        <path fill="#FFBE5D" d="M12.876 41.172l-4.292 2.361.112-4.918.112-4.918 4.18 2.557 4.18 2.557z"/>
        <g transform="translate(0 38.31)">
            <mask id="b" fill="#fff">
                <use xlink:href="#a"/>
            </mask>
            <path fill="#FFB445" d="M4.292 7.585L0 9.946l.112-4.918L.224.11l4.18 2.557 4.18 2.557z" mask="url(#b)"/>
        </g>
        <path fill="#FFBE5D" d="M0 48.256l19.669 5.537-11.085-10.26z"/>
        <path fill="#FFA623" d="M25.762 34.083l-6.093 19.71-2.491-14.988z"/>
        <path fill="#FFD9A0" d="M8.584 43.533l11.085 10.26-2.501-14.982z"/>
        <g>
            <path fill="#5296E8" d="M61.616 36.292l-3.042-2.561-.608 3.938-.609 3.937 3.65-1.376 3.65-1.376zM55.533 31.17l-3.042-2.561-.608 3.937-.609 3.938 3.65-1.376 3.65-1.377z"/>
            <path fill="#C1D9F7" d="M48.233 33.923l3.041 2.561.609-3.938.608-3.937-3.65 1.376-3.65 1.377z"/>
            <path fill="#7DB0EE" d="M54.316 39.045l3.041 2.562.609-3.938.608-3.938-3.65 1.376-3.65 1.377z"/>
            <path fill="#6EA7EC" d="M60.399 44.168l3.041 2.561.609-3.938.608-3.937-3.65 1.376-3.65 1.377z"/>
            <path fill="#7DB0EE" d="M63.44 46.73l-16.255 1.3 10.172-6.423z"/>
            <path fill="#5296E8" d="M45.184 31.356l2.001 16.674 4.083-11.552z"/>
            <path fill="#C1D9F7" d="M57.357 41.607L47.185 48.03l4.09-11.546z"/>
        </g>
        <g>
            <path fill="#24CC8F" d="M38.963 31.777l4.67.795-3.003 3.662-3.003 3.663-1.667-4.457-1.667-4.458z"/>
            <path fill="#24CC8F" d="M45.299 37.029l1.667 4.457 3.002-3.662 3.003-3.663-4.67-.795-4.669-.794z"/>
            <path fill="#A6FFDF" d="M49.968 37.824l-3.002 3.662 4.67.795 4.669.795-1.667-4.458-1.667-4.457z"/>
            <path fill="#5AE4B2" d="M42.297 40.692l-4.67-.795 3.003-3.662 3.002-3.663 1.667 4.457 1.667 4.457z"/>
            <path fill="#3FDAA2" d="M32.958 39.102l-4.67-.794 3.003-3.663 3.002-3.663 1.667 4.458 1.667 4.457z"/>
            <path fill="#5AE4B2" d="M28.288 38.308l11.696 16.048-2.357-14.459z"/>
            <path fill="#24CC8F" d="M56.315 43.077l-16.331 11.28 6.992-12.869z"/>
            <path fill="#A6FFDF" d="M37.627 39.897l2.357 14.46 6.982-12.87z"/>
        </g>
        <g>
            <path fill="#20B2BF" d="M26.7 44.313l2.58-.812-.592 2.652-.591 2.652-1.989-1.841-1.988-1.84z"/>
            <path fill="#20B2BF" d="M31.858 42.69l2.58-.81-.592 2.651-.59 2.652-1.989-1.84-1.988-1.841z"/>
            <path fill="#A5F7FF" d="M35.835 46.372l-2.58.81.591-2.65.592-2.652 1.988 1.84 1.988 1.84z"/>
            <path fill="#5EDDE9" d="M30.676 47.994l-2.58.81.592-2.65.591-2.652 1.988 1.84 1.988 1.84z"/>
            <path fill="#3BCAD7" d="M25.517 49.616l-2.58.81.592-2.651.591-2.651 1.989 1.84 1.988 1.84z"/>
            <g transform="translate(22.769 48.665)">
                <mask id="d" fill="#fff">
                    <use xlink:href="#c"/>
                </mask>
                <path fill="#5EDDE9" d="M.169 1.761l10.056 5.144L5.327.139z" mask="url(#d)"/>
            </g>
            <g transform="translate(32.889 45.395)">
                <mask id="f" fill="#fff">
                    <use xlink:href="#e"/>
                </mask>
                <path fill="#20B2BF" d="M5.531.164L.105 10.175l.268-8.389z" mask="url(#f)"/>
            </g>
            <g transform="translate(27.829 46.848)">
                <mask id="h" fill="#fff">
                    <use xlink:href="#g"/>
                </mask>
                <path fill="#A5F7FF" d="M.268 1.956l4.897 6.766.261-8.388z" mask="url(#h)"/>
            </g>
        </g>
        <g>
            <path fill="#6FD2E9" d="M45.591 57.977l1.435.265-.459-1.314-.46-1.314-.975 1.05-.975 1.048z"/>
            <path fill="#53C9E5" d="M44.673 55.349l-1.435-.265.46 1.314.458 1.314.976-1.049.976-1.05zM41.803 54.82l-1.435-.265.46 1.314.459 1.314.975-1.05.976-1.049z"/>
            <path fill="#C1ECF6" d="M39.852 56.918l1.434.265-.459-1.314-.459-1.315-.976 1.05-.975 1.05z"/>
            <path fill="#7ED7EC" d="M42.721 57.448l1.435.264-.459-1.314-.459-1.314-.976 1.05-.975 1.049zM47.026 58.242l-5.155 3.19 2.285-3.72z"/>
            <path fill="#53C9E5" d="M38.413 56.653l3.458 4.779-.588-4.25z"/>
            <path fill="#C1ECF6" d="M44.156 57.712l-2.285 3.72-.585-4.25z"/>
        </g>
        <g>
            <path fill="#2995CD" d="M8.881 48.824l1.473 1.059-1.644.718-1.643.718.171-1.777.17-1.778z"/>
            <path fill="#2995CD" d="M11.826 50.942l1.473 1.06-1.644.717-1.643.718.171-1.777.17-1.777z"/>
            <path fill="#A9DCF6" d="M11.484 54.496l-1.472-1.059 1.643-.718 1.644-.717-.171 1.777-.171 1.777z"/>
            <path fill="#50B5E9" d="M8.54 52.378l-1.473-1.06 1.643-.717 1.644-.718-.171 1.777-.171 1.777z"/>
            <path fill="#46A7D9" d="M5.594 50.26L4.122 49.2l1.643-.718 1.644-.717-.171 1.777-.171 1.777z"/>
            <path fill="#50B5E9" d="M4.122 49.2l1.342 7.365 1.603-5.246z"/>
            <path fill="#2995CD" d="M12.96 55.558l-7.496 1.007 4.551-3.125z"/>
            <path fill="#A9DCF6" d="M7.067 51.319l-1.603 5.246 4.548-3.128z"/>
        </g>
        <g>
            <path fill="#24CC8F" d="M20.235 56.645l1.587-.873.004 1.81.005 1.81-1.59-.937-1.592-.937zM23.413 56.709l1.59.936-.004-1.81-.005-1.81-1.586.874-1.586.873z"/>
            <path fill="#A6FFDF" d="M24.999 55.836l.005 1.81 1.586-.874 1.586-.873-1.591-.936-1.591-.937z"/>
            <path fill="#5AE4B2" d="M23.418 58.519l-1.587.873-.005-1.81-.005-1.81 1.592.937 1.59.936z"/>
            <path fill="#3FDAA2" d="M20.245 60.265l-1.586.873-.005-1.81-.005-1.81 1.591.937 1.591.937z"/>
            <path fill="#5AE4B2" d="M18.66 61.138l7.424 2.018-4.253-3.764z"/>
            <path fill="#24CC8F" d="M28.18 55.897l-2.096 7.259-1.077-5.512z"/>
            <path fill="#A6FFDF" d="M21.831 59.392l4.253 3.764-1.08-5.51z"/>
        </g>
        <g>
            <path fill="#FFA623" d="M57.174 51.365l1.004.988-1.297.387-1.296.387.292-1.375.293-1.375zM59.182 53.34l1.004.989-1.297.387-1.296.387.292-1.375.293-1.375z"/>
            <path fill="#FFD9A0" d="M58.596 56.09l-1.003-.987 1.296-.387 1.296-.387-.292 1.375-.293 1.375z"/>
            <path fill="#FFBE5D" d="M56.589 54.115l-1.004-.988 1.296-.387 1.297-.387-.293 1.375-.292 1.375z"/>
            <g transform="rotate(72 -6.53 63.814)">
                <mask id="j" fill="#fff">
                    <use xlink:href="#i"/>
                </mask>
                <path fill="#FFB445" d="M1.25 2.086L0 2.736l.033-1.353L.065.03l1.217.703 1.218.704z" mask="url(#j)"/>
            </g>
            <path fill="#FFBE5D" d="M53.577 51.15l.322 5.918 1.686-3.941z"/>
            <path fill="#FFA623" d="M59.603 57.08l-5.704-.012 3.696-1.963z"/>
            <path fill="#FFD9A0" d="M55.585 53.127l-1.686 3.941 3.694-1.965z"/>
        </g>
    </g>
</svg>
