<?xml version="1.0" encoding="utf-8"?>
<!-- Generator: Adobe Illustrator 19.0.0, SVG Export Plug-In . SVG Version: 6.00 Build 0)  -->
<svg version="1.1" id="Ebene_1" xmlns="http://www.w3.org/2000/svg" xmlns:xlink="http://www.w3.org/1999/xlink" x="0px" y="0px"
	 viewBox="-258 396.9 91.3 27.6" style="enable-background:new -258 396.9 91.3 27.6;" xml:space="preserve">
<style type="text/css">
	.st0{fill:#333E48;}
	.st1{fill:#F39719;}
</style>
<title>Zeichenfläche 1</title>
<g id="amazon_pay">
	<path class="st0" d="M-238.4,404.3c1.1,0.1,2,0.9,2.2,2c0,0.3,0,0.6,0,0.9c0,2.1,0,4.2,0,6.3c0,0.4-0.1,0.5-0.5,0.5h-1.4
		c-0.3,0-0.4-0.1-0.4-0.4c0-2,0-3.9,0-5.9c0-0.1,0-0.2,0-0.4c0-0.6-0.5-1-1.1-0.9c-0.1,0-0.2,0-0.3,0.1c-0.5,0.2-0.8,0.7-0.8,1.2
		c0,0.3,0,0.6,0,1c0,1.6,0,3.2,0,4.9c0,0.4-0.1,0.5-0.5,0.5h-1.6c-0.3,0-0.4-0.1-0.4-0.4c0-1.9,0-3.7,0-5.6c0-0.3,0-0.6-0.1-0.8
		c-0.1-0.4-0.4-0.7-0.8-0.7c-0.5-0.1-0.9,0.1-1.1,0.6c-0.2,0.4-0.3,0.8-0.2,1.2c0,1.8,0,3.5,0,5.3c0,0.1,0,0.1,0,0.2
		c0,0.2-0.1,0.3-0.3,0.4c0,0,0,0,0,0h-1.7c-0.2,0-0.3-0.1-0.3-0.3c0,0,0,0,0-0.1c0-3,0-5.9,0-8.8c0-0.2,0.1-0.3,0.3-0.4
		c0,0,0.1,0,0.1,0h1.5c0.2,0,0.3,0.1,0.4,0.3c0,0,0,0.1,0,0.1c0,0.4,0,0.7,0,1.1l0.1-0.1c0.3-0.8,1.1-1.4,2-1.5c1-0.1,2,0.4,2.4,1.3
		l0.1,0.3l0,0l0.1-0.1C-240.6,404.7-239.5,404.1-238.4,404.3z"/>
	<path class="st0" d="M-230.2,404.3c0.5,0,0.9,0.1,1.3,0.3c1,0.3,1.6,1.2,1.7,2.2c0,0.4,0,0.7,0,1.1c0,1,0,2,0,3
		c0,0.5,0.2,1.1,0.5,1.5c0.4,0.5,0.4,0.5-0.1,0.9l-1,0.9c-0.2,0.2-0.4,0.2-0.6,0c-0.2-0.2-0.5-0.5-0.7-0.8c-0.1-0.1-0.1-0.2-0.2-0.3
		l-0.4,0.3c-0.9,0.8-2.1,1.2-3.3,0.8c-0.9-0.2-1.6-0.9-1.8-1.8c-0.3-1.1,0-2.2,0.8-3c0.5-0.5,1.1-0.8,1.8-0.9
		c0.7-0.1,1.5-0.2,2.2-0.3c0.1,0,0.2-0.1,0.2-0.2c0-0.2,0-0.5,0-0.8c0-0.6-0.4-1-1-1c-0.7-0.1-1.4,0.3-1.6,1
		c-0.1,0.3-0.2,0.3-0.4,0.3l-1.5-0.2c-0.3,0-0.4-0.2-0.3-0.4c0.3-1.3,1.3-2.2,2.5-2.4C-231.3,404.3-230.7,404.2-230.2,404.3z
		 M-229.5,410.1c0-0.1,0-0.3,0-0.5c0-0.2,0-0.2-0.1-0.2c-0.3,0-0.7,0-1,0.1c-0.9,0.1-1.6,0.8-1.5,1.7c0,0.1,0,0.3,0.1,0.4
		c0.1,0.5,0.6,0.9,1.2,0.8c0,0,0,0,0.1,0c0.4-0.1,0.8-0.4,1-0.8C-229.6,411.1-229.5,410.6-229.5,410.1z"/>
	<path class="st0" d="M-253.1,404.2c0.3,0,0.6,0.1,0.9,0.2c0.5,0.1,1,0.4,1.4,0.7c0.5,0.5,0.8,1.1,0.8,1.8c0,1.2,0,2.5,0,3.7
		c0,0.6,0.2,1.2,0.6,1.7l0.1,0.2c0.1,0.1,0.1,0.3,0,0.4c0,0,0,0-0.1,0.1l-1.2,1c-0.2,0.2-0.4,0.2-0.6,0c-0.2-0.2-0.6-0.7-0.9-1
		l-0.1,0.1c-0.5,0.5-1.2,0.9-1.9,1c-0.5,0.1-1.1,0.1-1.7,0c-1-0.2-1.7-1.1-1.8-2.1c0-0.1,0-0.1,0-0.2v-0.6c0,0,0-0.1,0-0.1
		c0.1-0.7,0.4-1.3,0.9-1.8c0.6-0.6,1.4-0.9,2.2-1c0.6-0.1,1.3-0.2,1.9-0.2c0.1,0,0.2-0.1,0.2-0.2c0-0.1,0-0.4,0-0.7
		c0-0.4-0.2-0.7-0.5-0.9c-0.7-0.4-1.6-0.2-2,0.5c0,0.1-0.1,0.2-0.1,0.3c-0.1,0.4-0.2,0.4-0.5,0.4l-1.3-0.1c-0.3,0-0.4-0.2-0.4-0.5
		c0.2-1.2,1.2-2.1,2.4-2.4c0.4-0.1,0.8-0.1,1.1-0.2L-253.1,404.2z M-252.5,409.4c-0.5,0-0.9,0-1.4,0.1c-0.8,0.2-1.4,1-1.3,1.8
		c0,0.6,0.5,1.1,1.1,1.1c0.3,0,0.5-0.1,0.7-0.3c0.2-0.2,0.4-0.4,0.5-0.6C-252.5,410.9-252.4,410.2-252.5,409.4L-252.5,409.4z"/>
	<path class="st0" d="M-203.3,404.3l0.4,0.1c0.9,0.2,1.6,1,1.7,2c0.1,0.5,0.1,0.9,0.1,1.4c0,2,0,4,0,6c0,0.3-0.1,0.4-0.4,0.4h-1.6
		c-0.3,0-0.4-0.1-0.4-0.4c0-1.8,0-3.6,0-5.4c0-0.3,0-0.7-0.1-1c-0.1-0.5-0.6-0.9-1.2-0.8c-0.2,0-0.5,0.2-0.6,0.4
		c-0.3,0.3-0.4,0.7-0.5,1.1c0,0.4-0.1,0.7-0.1,1.1c0,1.5,0,3,0,4.5c0,0.4-0.1,0.5-0.5,0.5h-1.4c-0.3,0-0.4-0.1-0.4-0.4
		c0-2.9,0-5.8,0-8.8c0-0.3,0.1-0.4,0.4-0.4h1.5c0.3,0,0.4,0.1,0.4,0.4s0,0.8,0,1.2l0.1-0.1c0.2-0.3,0.3-0.6,0.5-0.9
		C-204.9,404.4-204.1,404.1-203.3,404.3z"/>
	<path class="st0" d="M-213.3,404.2c1.4,0.2,2.5,1,3.1,2.3c0.5,1.1,0.7,2.4,0.5,3.6c-0.1,1-0.4,1.9-1,2.6c-1.2,1.6-3.5,2-5.1,0.8
		c-0.2-0.1-0.3-0.2-0.4-0.4c-0.6-0.7-1-1.6-1.2-2.5c-0.2-1.1-0.2-2.2,0.1-3.3c0.2-1.1,0.9-2.1,1.9-2.7
		C-214.7,404.3-214,404.2-213.3,404.2z M-215,409.4c0,0.2,0,0.5,0,0.8c0,0.5,0.1,1.1,0.4,1.6c0.2,0.5,0.9,0.8,1.4,0.5
		c0.2-0.1,0.4-0.3,0.5-0.5c0.2-0.3,0.3-0.6,0.3-0.9c0.1-0.9,0.2-1.7,0.1-2.6c0-0.5-0.1-1-0.3-1.5c-0.1-0.4-0.5-0.8-1-0.8
		c-0.5,0-0.9,0.2-1.1,0.6c-0.1,0.2-0.2,0.3-0.2,0.5C-214.9,407.9-215,408.6-215,409.4L-215,409.4z"/>
	<path class="st1" d="M-234.8,421.2c-0.8,0-1.7-0.1-2.5-0.1c-1.2-0.1-2.4-0.4-3.6-0.7c-2.2-0.6-4.3-1.6-6.2-2.9
		c-0.8-0.6-1.6-1.2-2.4-1.8l-0.1-0.1c-0.1-0.1-0.1-0.2,0-0.3c0.1-0.1,0.2-0.1,0.3-0.1l1.1,0.6c2.1,1.1,4.3,1.9,6.6,2.5
		c1.1,0.3,2.1,0.5,3.2,0.6c0.8,0.1,1.6,0.1,2.4,0.2c0.6,0,1.1,0.1,1.7,0.1c0.6,0,1.4,0,2.1-0.1c1.4-0.1,2.7-0.3,4.1-0.6
		c1.7-0.4,3.4-0.9,5-1.6c0.1-0.1,0.2-0.1,0.4-0.1c0.2,0,0.3,0.1,0.4,0.3c0.1,0.2,0,0.4-0.1,0.4c-0.3,0.2-0.5,0.4-0.8,0.6
		c-2,1.2-4.1,2.1-6.4,2.6c-1,0.3-2.1,0.4-3.2,0.5l-1.2,0.1L-234.8,421.2z"/>
	<path class="st0" d="M-193.9,405.5c0.2-0.2,0.4-0.3,0.7-0.5c1.1-0.8,2.5-1,3.8-0.6c1.1,0.4,1.9,1.2,2.2,2.3
		c0.4,1.1,0.5,2.2,0.3,3.3c-0.1,0.9-0.3,1.7-0.8,2.4c-0.6,1.1-1.8,1.8-3.1,1.8c-1.1,0.1-2.1-0.3-2.9-1l-0.1-0.1v0.2c0,1.3,0,2.7,0,4
		c0,0.4-0.1,0.5-0.5,0.5h-0.8c-0.4,0-0.5-0.1-0.5-0.5c0-3.3,0-6.5,0-9.8c0-0.9,0-1.8,0-2.7c0-0.4,0.1-0.5,0.5-0.5h0.7
		c0.2,0,0.4,0.1,0.4,0.3c0,0,0,0,0,0C-194,405.1-194,405.3-193.9,405.5z M-193.8,409.3c0,0.8,0,1.6,0,2.5c0,0.1,0,0.2,0.1,0.2
		c0.7,0.5,1.5,0.8,2.3,0.8c1.1,0.1,2.1-0.5,2.4-1.6c0.4-1.2,0.4-2.6,0-3.8c-0.2-0.9-0.9-1.5-1.8-1.6c-1-0.1-2.1,0.1-2.9,0.8
		c-0.1,0.1-0.1,0.1-0.1,0.2C-193.8,407.6-193.8,408.4-193.8,409.3z"/>
	<path class="st0" d="M-222,410.9c0.4,0,0.7,0,1.1,0.1c0.8,0.1,1.5,0.3,2.2,0.6c0.2,0.1,0.4,0.4,0.4,0.6c0,0.4,0,0.8,0,1.2
		c0,0.4-0.2,0.5-0.5,0.3c-1.7-0.8-3.7-0.9-5.5-0.2c-0.2,0.1-0.3,0.1-0.5,0.2c-0.1,0.1-0.3,0-0.4-0.1c0,0,0-0.1,0-0.1
		c0-0.6,0-1.2,0-1.8c0-0.2,0.1-0.4,0.3-0.6c1.1-1.5,2.1-3.1,3.2-4.6l0.1-0.2h-2.9c-0.3,0-0.4-0.1-0.4-0.4c0-0.3,0-0.7,0-1.1
		c0-0.4,0.1-0.4,0.4-0.4h5.6c0.3,0,0.4,0.1,0.4,0.4s0,0.5,0,0.7c0,0.4-0.1,0.7-0.3,1c-1,1.4-2,2.8-2.9,4.2L-222,410.9z"/>
	<path class="st0" d="M-179.4,408.8c0-0.7,0-1.4-0.1-2.1c-0.2-0.6-0.7-1-1.4-1c-1.2-0.1-2.3,0.1-3.4,0.4c-0.4,0.1-0.5,0-0.5-0.4
		c0-0.1,0-0.3,0-0.4c0-0.3,0.1-0.5,0.4-0.6c0.7-0.3,1.5-0.5,2.3-0.5c0.8-0.1,1.6-0.1,2.4,0.1c1.1,0.2,2,1.2,2,2.3c0,0.3,0,0.5,0,0.8
		c0,2,0,4.1,0,6.1c0,0.4-0.1,0.5-0.5,0.5h-0.7c-0.2,0-0.4-0.1-0.4-0.3c0,0,0,0,0,0c0-0.1,0-0.2,0-0.3l-0.1-0.3l-0.2,0.2
		c-0.9,0.7-2,1.1-3.2,1.1c-1.3,0-2.4-0.9-2.6-2.2c-0.3-1.5,0.6-3.1,2.1-3.4c0.9-0.2,1.8-0.3,2.7-0.1
		C-180.2,408.7-179.8,408.7-179.4,408.8z M-179.4,411c0-0.3,0-0.5,0-0.8c0-0.1,0-0.2-0.1-0.2c0,0,0,0,0,0c-0.5-0.1-1-0.2-1.4-0.2
		c-0.5-0.1-1.1,0-1.6,0.1c-0.5,0.2-0.9,0.6-1,1.2c0,0.2,0,0.4,0,0.6c0,0.6,0.5,1.1,1,1.2c0.2,0,0.5,0,0.7,0c0.8-0.1,1.6-0.4,2.2-0.9
		c0.1-0.1,0.1-0.1,0.1-0.2C-179.4,411.5-179.4,411.3-179.4,411L-179.4,411z"/>
	<path class="st0" d="M-171.8,412.4l1-2.7l1.6-4.6c0-0.1,0.1-0.2,0.1-0.3c0.1-0.2,0.3-0.3,0.5-0.3h1.2c0.2,0,0.3,0.1,0.2,0.3
		c0,0.1,0,0.2-0.1,0.3l-4.3,10.9c-0.2,0.5-0.5,1-0.9,1.4c-0.4,0.5-1,0.8-1.6,0.8c-0.5,0.1-1,0-1.4-0.1c-0.3,0-0.4-0.2-0.4-0.5
		c0,0,0,0,0,0c0-0.2,0-0.4,0-0.6s0.1-0.3,0.3-0.3c0.2,0,0.7,0.1,1,0c0.5,0,1-0.2,1.2-0.7c0.3-0.6,0.5-1.2,0.7-1.8c0-0.1,0-0.1,0-0.2
		l-3.6-8.8c-0.1-0.1-0.1-0.3-0.1-0.4c0-0.2,0-0.3,0.2-0.3h1.3c0.2,0,0.4,0.2,0.4,0.4l0.8,2.1l1.8,5.1L-171.8,412.4z"/>
	<path class="st1" d="M-221.7,414.6c0.5,0,0.9,0.1,1.4,0.2c0.5,0.1,0.5,0.2,0.5,0.7c0,1.6-0.6,3.1-1.7,4.3c-0.1,0.1-0.2,0.2-0.3,0.2
		c-0.1,0-0.2,0-0.2,0c0,0,0-0.1,0-0.2c0.1-0.4,0.3-0.9,0.5-1.3c0.2-0.6,0.3-1.2,0.5-1.8c0-0.1,0-0.2,0-0.3c0-0.3-0.2-0.5-0.5-0.6
		c0,0,0,0,0,0c-0.5-0.1-1-0.1-1.5-0.1c-0.6,0-1.1,0.1-1.7,0.1c-0.1,0-0.3,0-0.4,0c-0.2,0-0.2-0.1-0.1-0.3c0.1-0.1,0.1-0.1,0.2-0.2
		c0.6-0.4,1.4-0.7,2.1-0.8C-222.5,414.5-222.1,414.5-221.7,414.6z"/>
</g>
</svg>
