<svg xmlns="http://www.w3.org/2000/svg" width="98" height="40" viewBox="0 0 98 40">
    <path fill="#000" fill-rule="nonzero" d="M17.744 5.137c-1.137 1.346-2.957 2.408-4.777 2.256-.228-1.82.663-3.753 1.706-4.948C15.81 1.062 17.801.075 19.413 0c.189 1.896-.55 3.754-1.669 5.137zm1.65 2.617c-2.636-.152-4.892 1.497-6.143 1.497-1.27 0-3.185-1.422-5.27-1.384-2.71.038-5.232 1.574-6.616 4.02C-1.48 16.776.625 24.018 3.375 28c1.345 1.972 2.957 4.133 5.08 4.057 2.01-.076 2.806-1.308 5.232-1.308 2.446 0 3.147 1.308 5.27 1.27 2.2-.038 3.583-1.972 4.93-3.943 1.535-2.237 2.16-4.417 2.198-4.531-.038-.038-4.246-1.65-4.284-6.502-.038-4.057 3.317-5.99 3.47-6.105-1.897-2.805-4.854-3.109-5.878-3.184zm15.222-5.498V31.81h4.588V21.706h6.35c5.801 0 9.877-3.98 9.877-9.744 0-5.763-4-9.706-9.725-9.706h-11.09zm4.588 3.867h5.289c3.98 0 6.256 2.123 6.256 5.858 0 3.735-2.275 5.877-6.275 5.877h-5.27V6.123zM63.81 32.038c2.882 0 5.555-1.46 6.768-3.773h.095v3.545h4.246V17.1c0-4.266-3.412-7.015-8.663-7.015-4.872 0-8.474 2.787-8.607 6.616h4.133c.341-1.82 2.028-3.014 4.341-3.014 2.806 0 4.38 1.308 4.38 3.716v1.63l-5.726.341c-5.327.323-8.208 2.503-8.208 6.294 0 3.83 2.976 6.37 7.241 6.37zm1.233-3.507c-2.446 0-4-1.176-4-2.976 0-1.858 1.497-2.939 4.36-3.11l5.1-.322v1.668c0 2.768-2.351 4.74-5.46 4.74zm15.545 11.317c4.474 0 6.578-1.706 8.417-6.881l8.057-22.597h-4.664l-5.403 17.46H86.9l-5.402-17.46H76.7l7.773 21.516-.417 1.308c-.702 2.218-1.839 3.071-3.867 3.071-.36 0-1.062-.038-1.346-.075v3.545c.265.075 1.402.113 1.744.113z"/>
</svg>
