<svg  viewBox="0 0 13 16" xmlns="http://www.w3.org/2000/svg">
    <path d="M8.841 2.564c-.567.672-1.474 1.202-2.382 1.126-.113-.908.331-1.873.851-2.47C7.877.53 8.87.039 9.673 0c.095.946-.274 1.873-.832 2.564zm.823 1.306c-1.314-.076-2.439.747-3.063.747-.633 0-1.588-.71-2.627-.69-1.352.018-2.609.785-3.299 2.005-1.418 2.441-.369 6.055 1.002 8.042.67.984 1.474 2.063 2.533 2.025 1.002-.038 1.399-.653 2.609-.653 1.219 0 1.569.653 2.627.634 1.097-.019 1.787-.984 2.458-1.968.765-1.116 1.077-2.204 1.096-2.261-.019-.019-2.117-.823-2.136-3.245-.019-2.025 1.654-2.99 1.73-3.047-.946-1.4-2.42-1.551-2.93-1.59z" fill="#1A181D" fill-rule="nonzero"/>
</svg>
