<svg width="176" height="67" viewBox="0 0 176 67" xmlns="http://www.w3.org/2000/svg">
    <g fill="none" fill-rule="evenodd">
        <path fill="#77F4C7" d="M35.667 11.667 40 9.5l-4.333-2.167L33.5 3l-2.167 4.333L27 9.5l4.333 2.167L33.5 16z"/>
        <path fill="#BDA8FF" d="M24.667 38.667 30 36l-5.333-2.667L22 28l-2.667 5.333L14 36l5.333 2.667L22 44z"/>
        <path fill="#8EEDF6" d="M35.667 63.667 39 62l-3.333-1.667L34 57l-1.667 3.333L29 62l3.333 1.667L34 67z"/>
        <path fill="#FFBE5D" d="M6.667 49.667 10 48l-3.333-1.667L5 43l-1.667 3.333L0 48l3.333 1.667L5 53z"/>
        <path fill="#FFB6B8" d="M5.667 20.667 8 19.5l-2.333-1.167L4.5 16l-1.167 2.333L1 19.5l2.333 1.167L4.5 23z"/>
        <g>
            <path fill="#77F4C7" d="M140.333 11.667 136 9.5l4.333-2.167L142.5 3l2.167 4.333L149 9.5l-4.333 2.167L142.5 16z"/>
            <path fill="#BDA8FF" d="M151.333 38.667 146 36l5.333-2.667L154 28l2.667 5.333L162 36l-5.333 2.667L154 44z"/>
            <path fill="#8EEDF6" d="M140.333 63.667 137 62l3.333-1.667L142 57l1.667 3.333L147 62l-3.333 1.667L142 67z"/>
            <path fill="#FFBE5D" d="M169.333 49.667 166 48l3.333-1.667L171 43l1.667 3.333L176 48l-3.333 1.667L171 53z"/>
            <path fill="#FFB6B8" d="M170.333 20.667 168 19.5l2.333-1.167L171.5 16l1.167 2.333L175 19.5l-2.333 1.167L171.5 23z"/>
        </g>
        <g>
            <path d="M81.117 13.904c-2.139-4.838-6.274-9.113-11.25-9.324-4.976-.211-7.828 3.779-6.367 7.309 1.461 3.53 4.94 4.177 16.227 7.202 3.204.858 3.528-.35 1.39-5.187z" stroke="#22AEB7" stroke-width="4"/>
            <path d="M93.833 13.904c2.138-4.838 6.273-9.113 11.25-9.324 4.975-.211 7.828 3.779 6.367 7.309-1.462 3.53-4.94 4.177-16.227 7.202-3.205.858-3.528-.35-1.39-5.187z" stroke="#38C9C6" stroke-width="4"/>
            <path d="M87.128 11c-9.738 0-3.907 11.145 0 11.145 3.908 0 9.74-11.145 0-11.145z" fill="#46DDDA"/>
            <path fill="#6133B4" d="M62 33h52v34H62zM56 21h64v12H56z"/>
            <path fill-opacity=".5" fill="#FFF" style="mix-blend-mode:soft-light" d="M32 30h26v34H32z" transform="translate(56 3)"/>
            <path fill="#8EEDF6" d="M88 33h6v34h-6z"/>
            <path fill="#3BCAD7" d="M82 33h6v34h-6zM76 21h12v12H76z"/>
            <path fill="#8EEDF6" d="M88 21h12v12H88z"/>
            <path fill-opacity=".2" fill="#000" style="mix-blend-mode:multiply" d="M6 30h26v6H6zM20 18h12v6H20zM0 24h20v6H0zM44 24h20v6H44zM32 18h12v6H32zM6 58h26v6H6zM32 30h26v6H32zM32 58h26v6H32z" transform="translate(56 3)"/>
        </g>
    </g>
</svg>
