<svg width="58" height="48" viewBox="0 0 58 48" fill="none" xmlns="http://www.w3.org/2000/svg">
    <path fill-rule="evenodd" clip-rule="evenodd" d="m16.853 4.36 7.959-1.453-2.71 7.556-2.708 7.557-5.25-6.103-5.25-6.103 7.959-1.453z" fill="#5DDEAB"/>
    <path fill-rule="evenodd" clip-rule="evenodd" d="M32.771 1.454 40.731 0l-2.71 7.556-2.709 7.556-5.25-6.102-5.25-6.103 7.96-1.453z" fill="#5DDEAB"/>
    <path fill-rule="evenodd" clip-rule="evenodd" d="m43.272 13.659-7.96 1.453 2.71-7.556L40.73 0l5.25 6.103 5.25 6.102-7.96 1.454z" fill="#38C38D"/>
    <path fill-rule="evenodd" clip-rule="evenodd" d="m27.353 16.566-7.96 1.453 2.71-7.556 2.709-7.556 5.25 6.103 5.25 6.102-7.96 1.454zM11.434 19.473l-7.959 1.453 2.71-7.556 2.708-7.556 5.25 6.103 5.25 6.102-7.959 1.454z" fill="#B0F1D7"/>
    <path fill-rule="evenodd" clip-rule="evenodd" d="m3.475 20.926 28.05 18.662L19.394 18.02 3.475 20.926z" fill="#38C38D"/>
    <path fill-rule="evenodd" clip-rule="evenodd" d="M51.249 12.202 31.525 39.588l3.805-24.48 15.919-2.906z" fill="#B0F1D7"/>
    <path fill-rule="evenodd" clip-rule="evenodd" d="m19.394 18.02 12.131 21.568 3.787-24.476-15.918 2.907z" fill="#5DDEAB"/>
    <path fill-rule="evenodd" clip-rule="evenodd" d="m51.904 26.44-3.832-.897 1.132 3.736 1.132 3.737 2.7-2.84 2.7-2.84-3.832-.896zM44.24 24.647l-3.832-.897 1.132 3.736 1.132 3.736 2.7-2.84 2.7-2.839-3.832-.896z" fill="#87E3E1"/>
    <path fill-rule="evenodd" clip-rule="evenodd" d="m38.84 30.326 3.832.896-1.132-3.736-1.132-3.736-2.7 2.84-2.7 2.839 3.832.897zM46.504 32.12l3.832.896-1.132-3.736-1.132-3.737-2.7 2.84-2.7 2.84 3.832.896z" fill="#C0FBFA"/>
    <path fill-rule="evenodd" clip-rule="evenodd" d="M54.168 33.912 58 34.81l-1.132-3.736-1.133-3.736-2.7 2.84-2.7 2.839 3.833.896z" fill="#5EC5C2"/>
    <path fill-rule="evenodd" clip-rule="evenodd" d="m58 34.81-14.084 8.395 6.42-10.19L58 34.81z" fill="#C0FBFA"/>
    <path fill-rule="evenodd" clip-rule="evenodd" d="m35 29.427 8.916 13.779-1.252-11.986L35 29.427z" fill="#5EC5C2"/>
    <path fill-rule="evenodd" clip-rule="evenodd" d="m50.336 33.016-6.42 10.19-1.244-11.984 7.664 1.794z" fill="#87E3E1"/>
    <path fill-rule="evenodd" clip-rule="evenodd" d="m16.877 22.666-5.078 1.971 4.262 3.372 4.262 3.37.816-5.341.816-5.343-5.078 1.971zM6.721 26.609l-5.078 1.97 4.262 3.372 4.262 3.371.816-5.342.816-5.343-5.078 1.972z" fill="#7BE3CF"/>
    <path fill-rule="evenodd" clip-rule="evenodd" d="m5.09 37.294 5.077-1.972-4.262-3.371-4.261-3.371-.817 5.342-.816 5.343 5.078-1.971z" fill="#C5F3EA"/>
    <path fill-rule="evenodd" clip-rule="evenodd" d="m15.245 33.351 5.078-1.971-4.262-3.371-4.262-3.371-.816 5.342-.816 5.342 5.078-1.97z" fill="#C5F3EA"/>
    <path fill-rule="evenodd" clip-rule="evenodd" d="m25.4 29.41 5.078-1.972-4.262-3.371-4.261-3.372-.816 5.343-.816 5.342 5.078-1.97z" fill="#41C7AF"/>
    <path fill-rule="evenodd" clip-rule="evenodd" d="M30.478 27.438 21.117 48l-.794-16.62 10.155-3.942z" fill="#C5F3EA"/>
    <path fill-rule="evenodd" clip-rule="evenodd" d="m0 39.269 21.117 8.73-10.961-12.672L0 39.269z" fill="#41C7AF"/>
    <path fill-rule="evenodd" clip-rule="evenodd" d="M20.323 31.38 21.117 48l-10.95-12.678 10.156-3.942z" fill="#7BE3CF"/>
</svg>
