<svg id="Layer_1" data-name="Layer 1" xmlns="http://www.w3.org/2000/svg" viewBox="0 0 30.49 32"><defs><style>.cls-1{fill-rule:evenodd;}</style></defs><title>body</title><path class="cls-1" d="M30.55,18.8C30.19,12.11,26.77,0,16.11,0A11.9,11.9,0,0,0,11,1.11l-0.12.05C4.35,4.32,2,13.19,1.69,18.64A1.85,1.85,0,1,0,4,19.05c0.09-1.31.83-9.79,5.5-14.14A53.73,53.73,0,0,0,7.94,16.5,76.9,76.9,0,0,0,9.37,29.66H7.59a1.17,1.17,0,0,0,0,2.34h3.21L11,32l0.1,0a1.13,1.13,0,0,0,.23-0.1l0.17-.11a1.12,1.12,0,0,0,.37-0.57,1.12,1.12,0,0,0,0-.2,0.33,0.33,0,0,0,0-.26,1.09,1.09,0,0,0,0-.11c0-.05-0.82-3.82-1.3-8.26a39.75,39.75,0,0,1,5.62-.45,33.72,33.72,0,0,1,5.21.43c-0.48,4.44-1.29,8.23-1.3,8.28a1.17,1.17,0,0,0,.9,1.39l0.25,0H24.6a1.17,1.17,0,0,0,0-2.34H22.74A76.9,76.9,0,0,0,24.17,16.5a54,54,0,0,0-1.6-11.72C27.16,8.91,28.05,17,28.2,18.84A1.85,1.85,0,1,0,30.55,18.8Zm-8.72-2.3c0,1.13-.05,2.3-0.14,3.46a35.84,35.84,0,0,0-5.42-.43,41.52,41.52,0,0,0-5.84.46c-0.09-1.17-.14-2.35-0.14-3.48A57.14,57.14,0,0,1,12.41,3a10.15,10.15,0,0,1,7.28,0A57.16,57.16,0,0,1,21.83,16.5Z" transform="translate(-0.76)"/></svg>
