<svg width="518" height="152" viewBox="0 0 518 152" fill="none" xmlns="http://www.w3.org/2000/svg">
    <path fill-rule="evenodd" clip-rule="evenodd" d="M144.48 65.487v5.042h-1.772v-5.042h1.772zm1.621 6.671h5.013v1.782h-5.013v-1.782zm-10.027 0h5.013v1.782h-5.013v-1.782zm8.406 3.412v5.041h-1.772V75.57h1.772z" fill="#36205D" style="mix-blend-mode:multiply" opacity=".5"/>
    <path opacity=".92" fill-rule="evenodd" clip-rule="evenodd" d="m9.504 29.894 2.707-4.715 1.658.962-2.707 4.715-1.658-.962zm2.066-7.12-4.689-2.722.958-1.667 4.688 2.723-.957 1.667zm9.378 5.445-4.689-2.722.957-1.667 4.69 2.722-.958 1.667zm-6.03-7.755 2.707-4.715 1.658.962-2.707 4.715-1.658-.962z" fill="#fff"/>
    <path fill-rule="evenodd" clip-rule="evenodd" d="m60.85 11.508.708-3.662 1.288.251-.708 3.662-1.288-.252zm-.24-5.076-3.642-.712.25-1.295 3.642.712-.25 1.295zm7.283 1.423-3.642-.711.25-1.295 3.642.712-.25 1.294zm-5.627-3.671.708-3.662 1.287.251-.708 3.662-1.287-.251z" fill="#36205D" style="mix-blend-mode:multiply" opacity=".81"/>
    <path opacity=".76" fill-rule="evenodd" clip-rule="evenodd" d="m107.034 22.162.493 5.675-1.995.175-.494-5.674 1.996-.176zm2.477 7.349 5.643-.497.175 2.007-5.644.496-.174-2.006zm-11.287.993 5.644-.497.174 2.007-5.643.496-.175-2.006zm9.797 3.008.494 5.675-1.996.175-.493-5.675 1.995-.175z" fill="#fff"/>
    <path fill-rule="evenodd" clip-rule="evenodd" d="m16.191 92.492-5.006 1.636-.575-1.78 5.006-1.636.575 1.78zm-6.098 3.792 1.626 5.034-1.77.578-1.626-5.034 1.77-.578zM6.839 86.215l1.627 5.035-1.77.578-1.627-5.034 1.77-.579zm-.66 9.549-5.006 1.635-.576-1.78 5.007-1.635.575 1.78z" fill="#36205D" style="mix-blend-mode:multiply" opacity=".91"/>
    <path opacity=".92" fill-rule="evenodd" clip-rule="evenodd" d="m35.176 59.176 5.102-1.97.692 1.814-5.101 1.97-.693-1.814zm6.118-4.264-1.958-5.13 1.803-.696 1.958 5.13-1.803.696zm3.916 10.26-1.958-5.13 1.804-.696 1.958 5.13-1.804.696zm.17-9.935 5.1-1.969.693 1.814-5.101 1.969-.693-1.814z" fill="#fff"/>
    <path fill-rule="evenodd" clip-rule="evenodd" d="m95.733 86.583-4.383 2.649-.931-1.559 4.383-2.648.93 1.558zm-4.949 4.93 2.634 4.407-1.55.936-2.633-4.407 1.55-.937zm-5.267-8.816 2.633 4.408-1.55.936-2.633-4.408 1.55-.936zm1.45 9.183-4.384 2.648-.93-1.558 4.382-2.648.931 1.558z" fill="#36205D" style="mix-blend-mode:multiply"/>
    <path opacity=".98" fill-rule="evenodd" clip-rule="evenodd" d="m24.804 132.406-2.1-3.015 1.06-.746 2.1 3.014-1.06.747zm-3.747-3.307-2.998 2.111-.742-1.066 2.998-2.111.742 1.066zm5.996-4.222-2.998 2.111-.742-1.066 2.998-2.11.742 1.065zm-6.447 1.5-2.1-3.015 1.06-.746 2.1 3.014-1.06.747z" fill="#fff"/>
    <path fill-rule="evenodd" clip-rule="evenodd" d="m60.65 142.295-1.594 3.144-1.105-.567 1.593-3.144 1.105.567zm-1.098 4.678 3.126 1.602-.563 1.112-3.127-1.602.564-1.112zm-6.254-3.204 3.127 1.602-.563 1.112-3.127-1.603.563-1.111zm4.165 4.814-1.593 3.144-1.106-.566 1.593-3.144 1.106.566z" fill="#36205D" style="mix-blend-mode:multiply" opacity=".82"/>
    <path opacity=".71" fill-rule="evenodd" clip-rule="evenodd" d="m110.507 140.233 2.321-4.582 1.611.826-2.321 4.581-1.611-.825zm1.599-6.817-4.556-2.335.821-1.62 4.556 2.335-.821 1.62zm9.112 4.669-4.556-2.335.821-1.62 4.556 2.335-.821 1.62zm-6.068-7.015 2.321-4.582 1.611.825-2.321 4.582-1.611-.825z" fill="#fff"/>
    <path fill-rule="evenodd" clip-rule="evenodd" d="M373.52 65.487v5.042h1.772v-5.042h-1.772zm-1.621 6.671h-5.013v1.782h5.013v-1.782zm10.027 0h-5.013v1.782h5.013v-1.782zm-8.406 3.412v5.041h1.772V75.57h-1.772z" fill="#36205D" style="mix-blend-mode:multiply" opacity=".5"/>
    <path opacity=".92" fill-rule="evenodd" clip-rule="evenodd" d="m508.496 29.894-2.707-4.715-1.658.962 2.707 4.715 1.658-.962zm-2.066-7.12 4.689-2.722-.958-1.667-4.689 2.723.958 1.667zm-9.378 5.445 4.689-2.722-.957-1.667-4.689 2.722.957 1.667zm6.03-7.755-2.707-4.715-1.658.962 2.707 4.715 1.658-.962z" fill="#fff"/>
    <path fill-rule="evenodd" clip-rule="evenodd" d="m457.15 11.508-.708-3.662-1.287.251.707 3.662 1.288-.252zm.24-5.076 3.642-.712-.25-1.295-3.642.712.25 1.295zm-7.283 1.423 3.642-.711-.251-1.295-3.641.712.25 1.294zm5.627-3.671-.708-3.662-1.287.251.708 3.662 1.287-.251z" fill="#36205D" style="mix-blend-mode:multiply" opacity=".81"/>
    <path opacity=".76" fill-rule="evenodd" clip-rule="evenodd" d="m410.966 22.162-.493 5.675 1.995.175.494-5.674-1.996-.176zm-2.477 7.349-5.643-.497-.175 2.007 5.644.496.174-2.006zm11.287.993-5.644-.497-.174 2.007 5.643.496.175-2.006zm-9.797 3.008-.494 5.675 1.996.175.493-5.675-1.995-.175z" fill="#fff"/>
    <path fill-rule="evenodd" clip-rule="evenodd" d="m501.809 92.492 5.006 1.636.575-1.78-5.006-1.636-.575 1.78zm6.098 3.792-1.626 5.034 1.77.578 1.626-5.034-1.77-.578zm3.254-10.069-1.627 5.035 1.77.578 1.627-5.034-1.77-.579zm.66 9.549 5.006 1.635.576-1.78-5.007-1.635-.575 1.78z" fill="#36205D" style="mix-blend-mode:multiply" opacity=".91"/>
    <path opacity=".92" fill-rule="evenodd" clip-rule="evenodd" d="m482.824 59.176-5.102-1.97-.692 1.814 5.101 1.97.693-1.814zm-6.118-4.264 1.958-5.13-1.803-.696-1.958 5.13 1.803.696zm-3.916 10.26 1.958-5.13-1.804-.696-1.958 5.13 1.804.696zm-.169-9.935-5.102-1.969-.692 1.814 5.101 1.969.693-1.814z" fill="#fff"/>
    <path fill-rule="evenodd" clip-rule="evenodd" d="m422.267 86.583 4.383 2.649.932-1.559-4.384-2.648-.931 1.558zm4.949 4.93-2.634 4.407 1.55.936 2.634-4.407-1.55-.937zm5.267-8.816-2.633 4.408 1.549.936 2.634-4.408-1.55-.936zm-1.449 9.183 4.383 2.648.931-1.558-4.383-2.648-.931 1.558z" fill="#36205D" style="mix-blend-mode:multiply"/>
    <path opacity=".98" fill-rule="evenodd" clip-rule="evenodd" d="m493.196 132.406 2.099-3.015-1.06-.746-2.099 3.014 1.06.747zm3.747-3.307 2.998 2.111.742-1.066-2.998-2.111-.742 1.066zm-5.996-4.222 2.998 2.111.742-1.066-2.998-2.11-.742 1.065zm6.447 1.5 2.1-3.015-1.06-.746-2.099 3.014 1.059.747z" fill="#fff"/>
    <path fill-rule="evenodd" clip-rule="evenodd" d="m457.351 142.295 1.593 3.144 1.105-.567-1.593-3.144-1.105.567zm1.097 4.678-3.126 1.602.563 1.112 3.127-1.602-.564-1.112zm6.254-3.204-3.127 1.602.563 1.112 3.127-1.603-.563-1.111zm-4.165 4.814 1.593 3.144 1.106-.566-1.593-3.144-1.106.566z" fill="#36205D" style="mix-blend-mode:multiply" opacity=".82"/>
    <path opacity=".71" fill-rule="evenodd" clip-rule="evenodd" d="m407.493 140.233-2.321-4.582-1.611.826 2.321 4.581 1.611-.825zm-1.599-6.817 4.556-2.335-.821-1.62-4.556 2.335.821 1.62zm-9.112 4.669 4.556-2.335-.821-1.62-4.556 2.335.821 1.62zm6.068-7.015-2.321-4.582-1.611.825 2.321 4.582 1.611-.825z" fill="#fff"/>
</svg>
