<svg  viewBox="0 0 16 16" fill="none" xmlns="http://www.w3.org/2000/svg">
    <g clip-path="url(#nw2v1izcda)">
        <path d="m8 4.01 2.2 5.4 3.8-3.4-2 6H4l-2-6 3.8 3.4L8 4.01zm0-2c-.81 0-1.55.49-1.85 1.25L5.02 6.03 3.33 4.52A1.98 1.98 0 0 0 2 4.01 2.002 2.002 0 0 0 .1 6.64l2 6A2 2 0 0 0 4 14.01h8a2 2 0 0 0 1.9-1.37l1.97-5.9a1.997 1.997 0 0 0-1.85-2.73h-.04c-.5.01-.95.2-1.3.51L11 6.02 9.87 3.25A2.012 2.012 0 0 0 8.02 2L8 2.01z" fill="#4E4A57"/>
    </g>
    <defs>
        <clipPath id="nw2v1izcda">
            <path fill="#fff" d="M0 0h16v16H0z"/>
        </clipPath>
    </defs>
</svg>
