<svg width="40" height="16" viewBox="0 0 40 16" fill="none" xmlns="http://www.w3.org/2000/svg">
<path fill-rule="evenodd" clip-rule="evenodd" d="M17.3333 5.33333L12 8L17.3333 10.6667L20 16L22.6667 10.6667L28 8L22.6667 5.33333L20 0L17.3333 5.33333Z" fill="#BDA8FF"/>
<path opacity="0.25" fill-rule="evenodd" clip-rule="evenodd" d="M25 7.99984L21.6667 9.6665L20 7.99984L25 7.99984Z" fill="white"/>
<path opacity="0.25" fill-rule="evenodd" clip-rule="evenodd" d="M20 3L21.6666 6.33333L20 8V3Z" fill="white"/>
<path opacity="0.25" fill-rule="evenodd" clip-rule="evenodd" d="M15 8L18.3333 6.33333L20 8L15 8Z" fill="white"/>
<path opacity="0.25" fill-rule="evenodd" clip-rule="evenodd" d="M20 13L18.3333 9.66667L20 8V13Z" fill="white"/>
<path opacity="0.25" fill-rule="evenodd" clip-rule="evenodd" d="M15 7.99984L18.3333 9.6665L20 7.99984L15 7.99984Z" fill="#925CF3"/>
<path opacity="0.5" fill-rule="evenodd" clip-rule="evenodd" d="M20 3L18.3333 6.33333L20 8V3Z" fill="#925CF3"/>
<path opacity="0.5" fill-rule="evenodd" clip-rule="evenodd" d="M25 8L21.6667 6.33333L20 8L25 8Z" fill="white"/>
<path opacity="0.5" fill-rule="evenodd" clip-rule="evenodd" d="M20 13L21.6666 9.66667L20 8V13Z" fill="white"/>
<path opacity="0.5" fill-rule="evenodd" clip-rule="evenodd" d="M20.7999 7.20041L22.3333 8.00041L20.7999 8.80041L19.9999 10.3337L19.1999 8.80041L17.6666 8.00041L19.1999 7.20041L19.9999 5.66707L20.7999 7.20041Z" fill="white"/>
<path fill-rule="evenodd" clip-rule="evenodd" d="M2.66667 6.66667L0 8L2.66667 9.33333L4 12L5.33333 9.33333L8 8L5.33333 6.66667L4 4L2.66667 6.66667Z" fill="#925CF3"/>
<path opacity="0.25" fill-rule="evenodd" clip-rule="evenodd" d="M6.49976 7.99967L4.83309 8.83301L3.99976 7.99967H6.49976Z" fill="white"/>
<path opacity="0.25" fill-rule="evenodd" clip-rule="evenodd" d="M3.99998 5.5L4.83331 7.16667L3.99998 8L3.99998 5.5Z" fill="white"/>
<path opacity="0.25" fill-rule="evenodd" clip-rule="evenodd" d="M1.5 8L3.16667 7.16667L4 8H1.5Z" fill="white"/>
<path opacity="0.25" fill-rule="evenodd" clip-rule="evenodd" d="M4 10.5L3.16667 8.83333L4 8V10.5Z" fill="white"/>
<path opacity="0.25" fill-rule="evenodd" clip-rule="evenodd" d="M1.50018 7.99967L3.16685 8.83301L4.00018 7.99967H1.50018Z" fill="#6133B4"/>
<path opacity="0.5" fill-rule="evenodd" clip-rule="evenodd" d="M4 5.5L3.16667 7.16667L4 8V5.5Z" fill="#6133B4"/>
<path opacity="0.5" fill-rule="evenodd" clip-rule="evenodd" d="M6.5 8L4.83333 7.16667L4 8H6.5Z" fill="white"/>
<path opacity="0.5" fill-rule="evenodd" clip-rule="evenodd" d="M3.99998 10.5L4.83331 8.83333L3.99998 8L3.99998 10.5Z" fill="white"/>
<path opacity="0.5" fill-rule="evenodd" clip-rule="evenodd" d="M4.40002 7.59935L5.16669 7.99935L4.40002 8.39935L4.00002 9.16602L3.60002 8.39935L2.83335 7.99935L3.60002 7.59935L4.00002 6.83268L4.40002 7.59935Z" fill="white"/>
<path fill-rule="evenodd" clip-rule="evenodd" d="M34.6667 6.66667L32 8L34.6667 9.33333L36 12L37.3333 9.33333L40 8L37.3333 6.66667L36 4L34.6667 6.66667Z" fill="#925CF3"/>
<path opacity="0.25" fill-rule="evenodd" clip-rule="evenodd" d="M38.4998 7.99967L36.8331 8.83301L35.9998 7.99967H38.4998Z" fill="white"/>
<path opacity="0.25" fill-rule="evenodd" clip-rule="evenodd" d="M36 5.5L36.8333 7.16667L36 8V5.5Z" fill="white"/>
<path opacity="0.25" fill-rule="evenodd" clip-rule="evenodd" d="M33.5 8L35.1667 7.16667L36 8H33.5Z" fill="white"/>
<path opacity="0.25" fill-rule="evenodd" clip-rule="evenodd" d="M36 10.5L35.1667 8.83333L36 8V10.5Z" fill="white"/>
<path opacity="0.25" fill-rule="evenodd" clip-rule="evenodd" d="M33.5002 7.99967L35.1668 8.83301L36.0002 7.99967H33.5002Z" fill="#6133B4"/>
<path opacity="0.5" fill-rule="evenodd" clip-rule="evenodd" d="M36 5.5L35.1667 7.16667L36 8V5.5Z" fill="#6133B4"/>
<path opacity="0.5" fill-rule="evenodd" clip-rule="evenodd" d="M38.5 8L36.8333 7.16667L36 8H38.5Z" fill="white"/>
<path opacity="0.5" fill-rule="evenodd" clip-rule="evenodd" d="M36 10.5L36.8333 8.83333L36 8V10.5Z" fill="white"/>
<path opacity="0.5" fill-rule="evenodd" clip-rule="evenodd" d="M36.4 7.59935L37.1667 7.99935L36.4 8.39935L36 9.16602L35.6 8.39935L34.8334 7.99935L35.6 7.59935L36 6.83268L36.4 7.59935Z" fill="white"/>
</svg>
