<svg width="138" height="12" viewBox="0 0 138 12" fill="none" xmlns="http://www.w3.org/2000/svg">
    <path fill-rule="evenodd" clip-rule="evenodd" d="m127.265 0 3.578 3.578-1.265 1.265L126 1.265 127.265 0zm5.892 3.578L136.735 0 138 1.265l-3.578 3.578-1.265-1.265zM126 10.735l3.578-3.578 1.265 1.265L127.265 12 126 10.735zm8.422-3.578L138 10.735 136.735 12l-3.578-3.578 1.265-1.265z" fill="#FFB445"/>
    <path d="M114.445 4.555 112.5 1l-1.945 3.555L107.914 6h-3.828l-1.349-.737L101.5 3l-1.237 2.263L98.914 6H0v1h98.914l1.349.737L101.5 10l1.237-2.263L104.086 7h3.828l2.641 1.445L112.5 12l1.945-3.555L118 6.5l-3.555-1.945z" fill="#36205D"/>
</svg>
