<svg xmlns="http://www.w3.org/2000/svg" width="162" height="24" viewBox="0 0 162 24">
    <path  fill-rule="evenodd" d="M17.08 7.351L15.46 12.65h3.352L17.08 7.35zm1.515 10.487v-.757c1.081 0 1.298-.324 1.298-.648 0-.433-.108-.757-.217-1.081 0 0-.216-.866-.432-1.514h-4.216l-.433 1.405c-.107.325-.215.65-.215 1.082 0 .433.432.756 1.08.756v.757h-4.215v-.757c1.08 0 1.513-.324 1.945-1.513l3.244-9.73c-.109-.433-.433-.757-1.081-.757v-.757h3.458c1.18 3.463 2.369 6.922 3.567 10.379.54 1.837 1.081 2.378 1.946 2.378v.757h-5.729zM66.162 6.162c-2.81 0-3.784 2.703-3.784 5.838 0 2.92.865 5.838 3.784 5.838 2.811 0 3.676-2.92 3.676-5.946 0-2.919-1.08-5.73-3.676-5.73zm0 12.973c-4.108 0-6.92-2.92-6.92-7.135 0-4 2.92-7.135 6.92-7.135 3.892 0 6.81 3.027 6.81 7.135.002 4-3.026 7.135-6.81 7.135zM102.81 2.27h-.54v11.134h.972c3.57 0 5.407-1.622 5.407-5.73 0-4.108-1.623-5.404-5.84-5.404zm1.08 12.757h-1.62v4.647c0 2.38.647 2.92 2.486 2.92v.864h-8.324v-.864c1.73 0 2.379-.648 2.379-3.027V4.325c0-2.378-.649-2.81-2.379-2.81V.757h6.27c6.054 0 9.62 1.838 9.62 6.81.001 5.19-4.322 7.46-8.431 7.46zM117.3 5.189l-3.028 9.839h6.27L117.3 5.189zm13.513 1.081v12.973c0 2.81.647 3.35 2.377 3.35v.866h-12.755v-.865c.974 0 1.837-.325 1.837-.973 0-.433-.107-1.19-.325-1.947l-.973-3.135h-7.134c-.11.434-1.405 4-1.405 4.974 0 .864.973 1.08 1.62 1.08v.866h-5.946v-.865c1.081 0 1.947-.108 2.703-2.378l5.514-17.622c-.325-.757-.756-.973-1.513-1.082V.756h4.866l5.836 18.487c.541 1.946 1.08 2.92 1.946 3.35 1.298-.431 1.623-.864 1.623-3.35V3.676c-.974-1.298-1.083-2.163-2.92-2.163V.757h5.514l9.081 15.46V4.432c0-2.379-.54-2.92-2.379-2.92V.757h12.108v.756c-.756 0-1.405.325-1.405 1.082 0 .54.217 1.08.433 1.73l3.46 7.46 3.351-7.244c.54-.973.65-1.513.65-2.054 0-.649-.435-.974-1.406-.974V.757h5.729v.756c-1.405 0-2.272 1.298-2.919 2.81l-4.432 9.082v5.946c0 2.596.648 3.244 2.378 3.244v.864h-8.217v-.864c1.73 0 2.38-.648 2.38-3.244v-5.08L145.73 4.216c-.864-1.945-1.189-2.378-1.73-2.703-1.082.433-1.406 1.19-1.406 2.92V21.08s.11 1.298.217 2.81l-1.405.109-10.595-17.73zM14.162 4.973h-.864c0-1.946-.865-2.702-2.595-2.702H5.838v8.54h3.135c1.622 0 1.947-.864 2.162-2.27h.757v6.054h-.757c-.215-1.621-.54-2.27-2.27-2.27H5.838v7.244c0 2.702.649 3.027 2.379 3.027v.864H0v-.864c2.054 0 2.378-.54 2.378-3.027V3.676c0-1.514-.649-2.163-2.378-2.163V.757h11.243C13.188.757 13.62.65 13.946 0h.757l-.54 4.973zM26.486 24c-1.513 0-2.703-.216-3.567-.54-.865-.216-1.514-.541-1.838-.757a5.804 5.804 0 0 0-.757.973l-.649-.216.54-5.08.758.108c.432 2.378 2.054 4.108 5.406 4.108 2.594 0 4.324-2.162 4.324-4.54 0-1.946-.757-2.92-3.351-4.866-.865-.54-1.622-.972-2.271-1.513-2.378-1.513-3.892-3.243-3.892-6.054 0-3.243 2.703-5.405 6.27-5.405 2.054 0 3.352.648 3.784.864l.756-.864.54.108L32 4.974l-.756-.108c0-2.161-1.298-3.135-3.46-3.135-2.054 0-3.567 1.081-3.567 3.135 0 1.838 1.405 3.027 3.026 4.109.865.54 1.514.973 2.162 1.405 3.784 2.702 4.648 4.432 4.648 7.027C34.054 21.19 31.135 24 26.486 24zM49.405 4.973h-.756c-.109-2.054-.757-2.702-2.38-2.702h-3.134v16.973c0 2.81.54 3.35 2.379 3.35v.865h-8.109v-.864c1.838 0 2.379-.54 2.379-3.46V2.27h-3.135c-2.054 0-2.38.54-2.92 2.702h-.756l.54-4.865.541.109c.216.54.65.54 1.946.54h10.486c1.947 0 2.38 0 2.812-.649h.648l-.541 4.865zm20.433 18.595c-.432-.109-.864-.109-1.297-.109-.865 0-2.38.433-4.217.433-7.027 0-12.216-4.217-12.216-12 0-6.595 4.865-11.675 12.324-11.675 1.729 0 3.676.324 5.297.972.324-.324.433-.54.757-.864h.648c-.108 1.19-.54 5.08-.54 5.08h-.65c-.431-2.269-1.62-3.783-5.405-3.783-4.54 0-8.648 3.567-8.648 10.162 0 7.46 4.216 10.703 8.865 10.703 3.028 0 4.865-1.73 6.054-3.892l.758.325-1.73 4.648zM76.65 6.487c0 3.243-.324 13.298-.324 13.298 0 1.945.648 2.81 2.487 2.81v.864h-7.244v-.864c1.838 0 2.81-.865 2.81-2.81l.65-16.433c-.541-1.298-1.082-1.73-2.487-1.838V.758h5.513l5.838 15.352L89.84.758h4.972v.756c-1.405 0-2.161.65-2.161 2.163l.649 15.892c0 2.379.432 3.027 2.379 3.027v.864h-8.325v-.864c1.621 0 2.38-.54 2.27-3.027 0 0-.325-11.136-.432-13.081l-3.999 11.027a41.15 41.15 0 0 0-1.514 4.757l-1.296.108c-.325-1.19-1.19-3.35-1.19-3.35S77.838 9.621 76.65 6.486z"/>
</svg>
