<svg xmlns="http://www.w3.org/2000/svg" width="16" height="16" viewBox="0 0 16 16">
    <path fill-rule="evenodd" d="M5 14a1 1 0 1 1 0-2 1 1 0 0 1 0 2m10-2H7.815A2.995 2.995 0 0 0 5 10a2.996 2.996 0 0 0-2.816 2H1a1 1 0 0 0 0 2h1.184A2.995 2.995 0 0 0 5 16a2.993 2.993 0 0 0 2.815-2H15a1 1 0 0 0 0-2m-4-3a1 1 0 1 1 0-2 1 1 0 0 1 0 2m4-2h-1.185A2.995 2.995 0 0 0 11 5a2.996 2.996 0 0 0-2.816 2H1a1 1 0 0 0 0 2h7.184A2.995 2.995 0 0 0 11 11a2.993 2.993 0 0 0 2.815-2H15a1 1 0 0 0 0-2M5 4a1 1 0 1 1 0-2 1 1 0 0 1 0 2m10-2H7.815A2.995 2.995 0 0 0 5 0a2.996 2.996 0 0 0-2.816 2H1a1 1 0 0 0 0 2h1.184A2.995 2.995 0 0 0 5 6a2.993 2.993 0 0 0 2.815-2H15a1 1 0 0 0 0-2"/>
</svg>
