<svg width="24px" height="24px" viewBox="0 0 24 24" version="1.1" xmlns="http://www.w3.org/2000/svg" xmlns:xlink="http://www.w3.org/1999/xlink">
    <g id="Icon/Currency/Gem/24x24" stroke="none" stroke-width="1" fill="none" fill-rule="evenodd">
        <g id="-g-Gem" transform="translate(0.000000, 2.000000)">
            <polygon id="Shape" fill="#24CC8F" points="0 7 5 0 19 0 24 7 12 20"></polygon>
            <polygon id="Shape" fill="#FFFFFF" opacity="0.25" points="7 6.8 6 2 12 2"></polygon>
            <polygon id="Shape" fill="#FFFFFF" opacity="0.25" points="17 6.8 18 2 12 2"></polygon>
            <polygon id="Shape" fill="#FFFFFF" opacity="0.5" points="7 6.8 12 2 17 6.8"></polygon>
            <polygon id="Shape" fill="#FFFFFF" opacity="0.5" points="2.6 6.8 6 2 7 6.8"></polygon>
            <polygon id="Shape" fill="#34313A" opacity="0.11" points="21.4 6.8 18 2 17 6.8"></polygon>
            <polygon id="Shape" fill="#34313A" opacity="0.11" points="2.6 6.8 7 6.8 12 17.1"></polygon>
            <polygon id="Shape" fill="#FFFFFF" opacity="0.5" points="21.4 6.8 17 6.8 12 17.1"></polygon>
            <polygon id="Shape" fill="#FFFFFF" opacity="0.25" points="7 6.8 17 6.8 12 17.1"></polygon>
        </g>
    </g>
</svg>