<svg xmlns="http://www.w3.org/2000/svg" width="52" height="62" viewBox="0 0 52 62">
    <g fill="none" fill-rule="evenodd">
        <path stroke="#FFA624" stroke-width="2" d="M18.286 6.252c.186-1.717-.286-3.6-1.658-4.473-1.373-.872-2.831-.21-2.994 1.027-.163 1.237.714 1.988 3.413 4.686.766.766 1.054.477 1.24-1.24z"/>
        <path stroke="#FFBE5D" stroke-width="2" d="M21.882 8.328c1.395-1.018 3.262-1.552 4.704-.8 1.441.753 1.597 2.347.607 3.107-.99.76-2.079.375-5.764-.613-1.047-.28-.941-.675.453-1.694z"/>
        <path fill="#EE9109" d="M20.698 6.227c-2.754-1.59-2.924 2.514-1.82 3.152 1.106.637 4.574-1.562 1.82-3.152z"/>
        <path fill="#F8F9F9" d="M19.167 8.88l10.18 5.878-2.939 5.09-10.18-5.878z"/>
        <path fill="#DDF3F3" d="M8.986 3.003l10.18 5.877-2.938 5.09-10.18-5.877z"/>
        <path fill="#FFBE5D" d="M15.773 6.921l6.787 3.918-2.939 5.09-6.787-3.918z"/>
        <path fill="#FFA624" d="M15.773 6.921l3.394 1.96-2.94 5.09-3.393-1.96z"/>
        <path fill="#FFA624" d="M19.167 8.88l3.393 1.96-.98 1.696-3.393-1.96z"/>
        <path fill="#EE9109" d="M15.773 6.921l3.394 1.96-.98 1.696-3.393-1.96z"/>
        <path fill="#F8F9F9" d="M16.228 13.97l8.483 4.898-6.857 11.877-8.483-4.898z"/>
        <path fill="#DDF3F3" d="M7.744 9.072l8.484 4.898L9.37 25.847.887 20.95z"/>
        <path fill="#FFA624" d="M14.531 12.99l1.697.98L9.37 25.847l-1.697-.98z"/>
        <path fill="#FFBE5D" d="M16.228 13.97l1.696.98-6.857 11.876-1.696-.98z"/>
        <path fill="#EE9109" d="M8.654 23.171l1.696.98-.98 1.696-1.696-.98zM14.531 12.99l1.697.98-.98 1.697-1.697-.98z"/>
        <path fill="#C1E9E9" d="M7.744 9.072l6.787 3.919-.98 1.696-6.786-3.918z"/>
        <path fill="#C1E9E9" d="M7.027 6.396l6.787 3.918-.98 1.697-6.786-3.918zM1.867 19.253l6.787 3.918-.98 1.697-6.787-3.919z"/>
        <path fill="#DDF3F3" d="M17.924 14.95l6.787 3.918-.98 1.697-6.786-3.918z"/>
        <path fill="#DDF3F3" d="M20.6 14.233l6.788 3.918-.98 1.697-6.787-3.918zM12.047 25.13l6.787 3.919-.98 1.696-6.787-3.918z"/>
        <path fill="#FFA624" d="M10.35 24.15l1.697.98-.98 1.697-1.696-.98zM16.228 13.97l1.696.98-.98 1.697-1.696-.98z"/>
        <path fill="#8EEDF6" d="M32.753 23.621l-.564 2.362 2.228-.966 2.361.564-.965-2.228.564-2.361-2.228.965-2.361-.564zM17.733 45.172l-.564 2.362 2.228-.966 2.361.564-.966-2.228.565-2.361-2.228.965-2.362-.564zM42.733 15.02l.769 2.958 1.905-2.39 2.96-.769-2.391-1.905-.769-2.96-1.906 2.391-2.958.769z"/>
        <g>
            <path fill="#F8F9F9" d="M37.688 45.676l9.462-2.536 3.55 13.247-9.463 2.536z"/>
            <path fill="#DDF3F3" d="M28.225 48.211l9.463-2.535 3.55 13.247-9.463 2.535z"/>
            <path fill="#FFA624" d="M35.795 46.183l1.893-.507 3.55 13.247-1.893.507z"/>
            <path fill="#FFBE5D" d="M37.688 45.676l1.892-.507 3.55 13.247-1.893.507z"/>
            <path fill="#EE9109" d="M38.838 57.537l1.892-.507.507 1.893-1.892.507zM35.795 46.183l1.893-.507.507 1.892-1.893.507z"/>
            <path fill="#C1E9E9" d="M28.225 48.211l7.57-2.028.507 1.892-7.57 2.028zM31.268 59.566l7.57-2.029.507 1.893-7.57 2.028z"/>
            <path fill="#DDF3F3" d="M39.58 45.169l7.57-2.029.507 1.893-7.57 2.028zM42.622 56.523l7.57-2.028.507 1.892-7.57 2.029z"/>
            <path fill="#FFA624" d="M40.73 57.03l1.892-.507.507 1.893-1.892.507zM37.688 45.676l1.892-.507.507 1.892-1.892.507z"/>
        </g>
        <g>
            <path stroke="#FFA624" stroke-width="2" d="M37.861 35.357c-.471-1.661-1.614-3.232-3.214-3.526-1.599-.294-2.703.866-2.39 2.074.311 1.208 1.407 1.575 4.92 3.066.996.423 1.156.047.684-1.614z"/>
            <path stroke="#FFBE5D" stroke-width="2" d="M41.973 35.935c.911-1.467 2.443-2.662 4.061-2.504 1.619.158 2.36 1.578 1.727 2.653-.633 1.075-1.787 1.126-5.574 1.591-1.075.132-1.125-.273-.214-1.74z"/>
            <path fill="#EE9109" d="M40.088 34.43c-3.15-.442-1.77 3.426-.506 3.604 1.263.177 3.655-3.161.506-3.604z"/>
            <path fill="#F8F9F9" d="M39.662 37.464l11.64 1.636-.818 5.82-11.64-1.636z"/>
            <path fill="#DDF3F3" d="M28.02 35.828l11.642 1.636-.818 5.82-11.641-1.636z"/>
            <path fill="#FFBE5D" d="M35.781 36.919l7.76 1.09-.817 5.82-7.76-1.09z"/>
            <path fill="#FFA624" d="M35.781 36.919l3.88.545-.817 5.82-3.88-.545zM39.662 37.464l3.88.545-.273 1.94-3.88-.545z"/>
            <path fill="#EE9109" d="M35.781 36.919l3.88.545-.272 1.94-3.88-.545z"/>
            <path fill="#C1E9E9" d="M27.476 39.708l7.76 1.09-.273 1.941-7.76-1.09z"/>
            <path fill="#DDF3F3" d="M42.997 41.89l7.76 1.09-.273 1.94-7.76-1.09z"/>
        </g>
    </g>
</svg>
