<svg xmlns="http://www.w3.org/2000/svg" width="100" height="40" viewBox="0 0 100 40">
    <g fill="none" fill-rule="evenodd">
        <path fill="#5F6368" fill-rule="nonzero" d="M47.131 19.561v11.6h-3.68V2.514h9.76a8.825 8.825 0 0 1 6.32 2.48 7.973 7.973 0 0 1 2.64 6.046 7.936 7.936 0 0 1-2.64 6.08c-1.706 1.627-3.813 2.44-6.32 2.439h-6.08v.002zm0-13.52v10h6.172a4.864 4.864 0 0 0 3.641-1.481 4.882 4.882 0 0 0 0-7.001 4.8 4.8 0 0 0-3.641-1.52H47.13v.002zM70.651 10.921c2.72 0 4.867.727 6.442 2.18 1.574 1.454 2.36 3.448 2.358 5.98v12.08h-3.52v-2.72h-.16c-1.523 2.24-3.55 3.36-6.08 3.36-2.159 0-3.965-.64-5.419-1.92a6.13 6.13 0 0 1-2.18-4.8c0-2.028.766-3.641 2.299-4.839 1.533-1.197 3.58-1.798 6.14-1.8 2.184 0 3.984.4 5.398 1.2V18.8a4.19 4.19 0 0 0-1.52-3.257 5.211 5.211 0 0 0-3.552-1.342c-2.055 0-3.682.867-4.88 2.601l-3.241-2.04c1.783-2.56 4.421-3.84 7.915-3.84zm-4.76 14.24a2.94 2.94 0 0 0 1.22 2.4 4.49 4.49 0 0 0 2.86.96 5.867 5.867 0 0 0 4.139-1.719c1.219-1.147 1.828-2.493 1.828-4.039-1.147-.914-2.747-1.371-4.8-1.371-1.495 0-2.741.36-3.74 1.081-1.007.732-1.508 1.62-1.508 2.688z"/>
        <path fill="#5F6368" d="M99.657 11.561L87.37 39.801H83.57l4.56-9.881-8.08-18.359h4l5.84 14.08h.08l5.68-14.08z"/>
        <path fill="#4285F4" d="M32.26 17.06a19.61 19.61 0 0 0-.283-3.346h-15.52v6.339h8.89a7.618 7.618 0 0 1-3.288 5v4.115h5.306c3.106-2.864 4.896-7.1 4.896-12.107z"/>
        <path fill="#34A853" d="M16.457 33.143c4.441 0 8.18-1.458 10.908-3.973l-5.306-4.114c-1.476 1.001-3.378 1.573-5.602 1.573-4.292 0-7.936-2.894-9.239-6.794H1.753v4.24a16.457 16.457 0 0 0 14.704 9.068z"/>
        <path fill="#FBBC04" d="M7.218 19.835a9.86 9.86 0 0 1 0-6.299v-4.24H1.753a16.457 16.457 0 0 0 0 14.78l5.465-4.24z"/>
        <path fill="#EA4335" d="M16.457 6.743A8.935 8.935 0 0 1 22.77 9.21l4.697-4.697A15.813 15.813 0 0 0 16.457.23 16.457 16.457 0 0 0 1.753 9.296l5.465 4.24c1.303-3.9 4.947-6.793 9.24-6.793z"/>
    </g>
</svg>
