<svg width="217" height="48" viewBox="0 0 217 48" fill="none" xmlns="http://www.w3.org/2000/svg">
<path d="M108.785 0.0195312C106.343 0.0195312 104.355 1.99967 104.355 4.44184C104.355 6.88401 106.343 8.86415 108.785 8.86415C111.227 8.86415 113.215 6.87668 113.215 4.44184C113.215 2.007 111.227 0.0195312 108.785 0.0195312Z" fill="#FF6165"/>
<path d="M148.564 0.0195312C146.121 0.0195312 144.134 1.99967 144.134 4.44184C144.134 6.88401 146.121 8.86415 148.564 8.86415C151.006 8.86415 152.993 6.87668 152.993 4.44184C152.993 2.007 151.006 0.0195312 148.564 0.0195312Z" fill="#50B5E9"/>
<path d="M184.2 42.1989C181.332 45.8879 177.005 48 172.319 48C164.355 48 157.776 41.8176 157.344 33.9264C157.322 33.5303 157.322 28.8367 157.322 28.7927C157.322 20.5788 164.047 13.8976 172.319 13.8976C176.411 13.8976 180.379 15.5917 183.195 18.54C184.053 19.4347 184.515 20.6154 184.478 21.8548C184.449 23.0943 183.928 24.2457 183.019 25.0964C181.156 26.8565 178.201 26.7759 176.426 24.9277C175.341 23.7983 173.881 23.1749 172.312 23.1749C169.188 23.1749 166.65 25.6904 166.65 28.7853C166.65 29.2694 166.65 32.995 166.665 33.5083C166.841 36.4052 169.327 38.7154 172.312 38.7154C174.087 38.7154 175.722 37.916 176.8 36.5225C178.369 34.4984 181.31 34.1244 183.342 35.6865C184.332 36.4419 184.962 37.5346 185.124 38.7667C185.285 39.9988 184.948 41.2162 184.192 42.1989H184.2ZM216.82 18.4739V43.4164C216.82 45.9392 214.774 47.9927 212.258 47.9927C210.916 47.9927 209.669 47.3986 208.819 46.4159C206.787 47.45 204.543 47.9927 202.262 47.9927C194.533 47.9927 188.145 41.9129 187.727 34.1464C187.705 33.7577 187.705 29.152 187.705 29.1007C187.705 21.0261 194.239 14.4623 202.262 14.4623C204.419 14.4623 206.545 14.9537 208.503 15.8924C209.332 14.6677 210.726 13.8903 212.266 13.8903C214.781 13.8903 216.827 15.9438 216.827 18.4666L216.82 18.4739ZM207.689 33.721C207.697 33.1196 207.704 29.5774 207.704 29.108C207.704 26.0791 205.262 23.6223 202.262 23.6223C199.263 23.6223 196.821 26.0865 196.821 29.108C196.821 29.5701 196.821 33.2443 196.836 33.7577C197.004 36.5812 199.395 38.84 202.262 38.84C205.13 38.84 207.506 36.5959 207.689 33.721ZM63.3042 18.4739V43.4164C63.3042 45.9392 61.2581 47.9927 58.7426 47.9927C57.4006 47.9927 56.1539 47.3986 55.3032 46.4159C53.2717 47.45 51.0276 47.9927 48.7469 47.9927C41.0099 47.9927 34.6296 41.9129 34.2115 34.1464C34.1895 33.8017 34.1895 30.2008 34.1895 29.1007C34.1895 21.0261 40.7238 14.4623 48.7469 14.4623C50.903 14.4623 53.0371 14.9537 54.9878 15.8924C55.8165 14.6677 57.2099 13.8903 58.75 13.8903C61.2654 13.8903 63.3115 15.9438 63.3115 18.4666L63.3042 18.4739ZM48.7469 23.6223C45.7474 23.6223 43.3053 26.0865 43.3053 29.108C43.3053 29.5847 43.3053 33.237 43.32 33.7503C43.4886 36.5812 45.8794 38.84 48.7469 38.84C51.6143 38.84 53.9904 36.5959 54.1738 33.721C54.1811 33.1196 54.1884 29.5847 54.1884 29.108C54.1884 26.0791 51.7463 23.6223 48.7469 23.6223ZM108.78 14.1396C106.338 14.1396 104.351 16.1931 104.351 18.716V43.4164C104.351 45.9392 106.338 47.9927 108.78 47.9927C111.222 47.9927 113.21 45.9392 113.21 43.4164V18.716C113.21 16.1931 111.222 14.1396 108.78 14.1396ZM148.558 14.1396C146.116 14.1396 144.129 16.1931 144.129 18.716V43.4164C144.129 45.9392 146.116 47.9927 148.558 47.9927C151 47.9927 152.988 45.9392 152.988 43.4164V18.716C152.988 16.1931 151 14.1396 148.558 14.1396ZM98.7551 28.866C98.7551 28.91 98.7551 33.5817 98.7331 33.9704C98.3151 41.8396 91.9275 48 84.1978 48C81.917 48 79.6729 47.45 77.6415 46.4012C76.7908 47.3986 75.5441 48 74.1947 48C71.6792 48 69.6331 45.9245 69.6331 43.3797V4.62032C69.6331 2.07548 71.6792 0 74.1947 0C76.7101 0 78.7562 2.07548 78.7562 4.62032V15.1224C80.487 14.411 82.3351 14.037 84.1978 14.037C92.2282 14.037 98.7551 20.6888 98.7551 28.866ZM84.1978 23.285C81.1983 23.285 78.7562 25.7858 78.7562 28.866C78.7562 29.35 78.7562 33.0536 78.7709 33.5743C78.9469 36.4565 81.3303 38.752 84.1978 38.752C87.0653 38.752 89.434 36.4712 89.6247 33.5523C89.6247 32.929 89.6394 29.328 89.6394 28.866C89.6394 25.7858 87.1973 23.285 84.1978 23.285ZM14.3887 14.037C12.6139 14.037 10.8612 14.3597 9.21109 14.9757V4.62766C9.21109 2.08281 7.14299 0.00733401 4.60554 0.00733401C2.06809 0.00733401 0 2.08281 0 4.62766V43.3797C0 45.9319 2.06809 48 4.60554 48C7.14299 48 9.21109 45.9245 9.21109 43.3797V26.5412C9.40176 26.3358 11.1178 23.285 14.3887 23.285C17.4395 23.285 19.9182 25.7858 19.9182 28.866C19.9182 29.482 19.9182 42.529 19.9036 43.2623C19.8376 45.7852 21.759 47.868 24.2524 47.9927C24.3404 47.9927 24.4211 47.9927 24.5091 47.9927C26.9586 47.9927 28.9753 46.0639 29.1 43.607C29.122 43.2257 29.122 29.0053 29.122 28.866C29.122 20.6888 22.5144 14.037 14.3887 14.037ZM136.399 14.037H133.7V4.62032C133.7 2.07548 131.61 0 129.036 0C126.462 0 124.372 2.07548 124.372 4.62032V14.037H121.673C119.106 14.037 117.009 16.1125 117.009 18.6646C117.009 21.2168 119.099 23.285 121.673 23.285H124.372V43.3797C124.372 45.9319 126.462 48 129.036 48C131.61 48 133.7 45.9245 133.7 43.3797V23.285H136.399C138.973 23.285 141.063 21.2095 141.063 18.6646C141.063 16.1198 138.973 14.037 136.399 14.037Z" fill="white"/>
</svg>
