<svg width="53" height="53" viewBox="0 0 53 53" fill="none" xmlns="http://www.w3.org/2000/svg">
<path fill-rule="evenodd" clip-rule="evenodd" d="M32.4728 37.2881L31.0401 40.6634C30.8722 41.0588 30.533 41.3618 30.1106 41.4581C25.4964 42.5161 15.7591 38.3829 13.3131 34.3281C13.0907 33.958 13.073 33.5035 13.2408 33.108L14.6735 29.7328C15.9802 26.6545 18.829 24.3765 21.9907 23.6412C22.9143 23.4268 23.3484 22.4041 22.8611 21.5907C21.1937 18.8056 20.8534 15.174 22.16 12.0957L23.5927 8.72043C23.7606 8.32501 24.0998 8.02203 24.5199 7.92663C29.1358 6.86935 38.8731 11.0026 41.3173 15.0567C41.5422 15.4259 41.5599 15.8804 41.392 16.2758L39.9593 19.651C38.6527 22.7293 35.8039 25.0073 32.6422 25.7426C31.7185 25.957 31.2844 26.9797 31.7718 27.7931C33.4392 30.5782 33.7795 34.2099 32.4728 37.2881Z" fill="#A9DCF6" fill-opacity="0.8"/>
<path fill-rule="evenodd" clip-rule="evenodd" d="M32.664 12.0938C29.7729 10.8666 27.3007 10.4316 25.8346 10.5102L24.7036 13.1747C23.7617 15.3938 23.9622 18.0859 25.2286 20.2007C25.9064 21.3331 26.0063 22.7223 25.4978 23.9203C24.9893 25.1182 23.9206 26.0114 22.6375 26.3096C20.2342 26.8686 18.1583 28.5945 17.2171 30.8118L16.0854 33.478C17.0473 34.5873 19.0775 36.0634 21.9686 37.2906C24.8596 38.5178 27.3318 38.9528 28.7979 38.8742L29.9297 36.208C30.8709 33.9906 30.6703 31.2985 29.4039 29.1837C28.7261 28.0513 28.6263 26.662 29.1348 25.4641C29.6433 24.2662 30.7119 23.3729 31.9957 23.0732C34.3983 22.5158 36.4742 20.7899 37.4162 18.5709L38.5472 15.9064C37.5853 14.7971 35.555 13.321 32.664 12.0938Z" fill="white" fill-opacity="0.9"/>
<path fill-rule="evenodd" clip-rule="evenodd" d="M31.5684 13.8635C33.7371 14.784 35.9512 15.9582 35.7471 16.4997C35.5853 16.9371 35.2218 17.7653 33.0852 17.902C31.0091 18.0368 30.0196 19.4736 29.0902 19.0791C28.0092 18.6202 28.3314 17.6878 27.3948 16.2289C26.429 14.7261 26.743 13.3826 26.9685 12.8935C27.2828 12.2137 29.3996 12.9429 31.5684 13.8635Z" fill="#9A62FF"/>
<path fill-rule="evenodd" clip-rule="evenodd" d="M27.3942 16.2291C26.4285 14.7263 26.7424 13.3828 26.9679 12.8937C27.2164 12.3553 28.5959 12.7006 30.2369 13.3243C29.6862 13.3623 28.8925 13.5984 28.6315 14.6159C28.3585 15.6755 29.4738 17.4486 28.8447 18.2192C28.7229 18.3703 28.5806 18.4714 28.4271 18.5381C28.0907 18.0153 28.0509 17.2522 27.3942 16.2291Z" fill="#4F2A93"/>
<path fill-rule="evenodd" clip-rule="evenodd" d="M26.3429 26.9852C27.003 27.2653 26.6667 28.5305 27.3103 29.6779C28.1003 31.0844 28.7422 32.6761 28.3659 34.4146C28.0561 35.8466 27.757 35.9145 27.4109 35.8779C27.0665 35.842 24.5481 35.2396 22.4522 33.773C20.3546 32.3057 19.4609 30.8532 20.0783 30.0166C20.6666 29.2207 21.6339 28.7393 23.1921 28.369C24.6835 28.0155 25.6829 26.705 26.3429 26.9852Z" fill="#9A62FF"/>
<path fill-rule="evenodd" clip-rule="evenodd" d="M27.4114 35.8785C27.0653 35.8419 24.5469 35.2396 22.451 33.773C20.7841 32.6066 19.878 31.4501 19.8876 30.6036C19.8956 30.5893 19.9037 30.575 19.9144 30.5637C20.2509 30.1316 22.3027 30.658 24.5368 32.0612C26.6666 33.3964 28.1998 34.9294 27.8338 35.7684C27.6986 35.8902 27.5598 35.8942 27.4114 35.8785Z" fill="#4F2A93"/>
<path fill-rule="evenodd" clip-rule="evenodd" d="M3.80368 18.2264L8.2016e-05 20.1109L3.80368 21.9953L5.70549 25.7643L7.60729 21.9953L11.4109 20.1109L7.60729 18.2264L5.70549 14.4574L3.80368 18.2264Z" fill="#925CF3"/>
<path opacity="0.25" fill-rule="evenodd" clip-rule="evenodd" d="M9.27148 20.1109L6.89423 21.2887L5.70561 20.1109H9.27148Z" fill="white"/>
<path opacity="0.25" fill-rule="evenodd" clip-rule="evenodd" d="M5.70542 16.5775L6.89404 18.933L5.70542 20.1108V16.5775Z" fill="white"/>
<path opacity="0.25" fill-rule="evenodd" clip-rule="evenodd" d="M2.13969 20.1108L4.51694 18.933L5.70557 20.1108H2.13969Z" fill="white"/>
<path opacity="0.25" fill-rule="evenodd" clip-rule="evenodd" d="M5.70557 23.6443L4.51694 21.2887L5.70557 20.1109V23.6443Z" fill="white"/>
<path opacity="0.25" fill-rule="evenodd" clip-rule="evenodd" d="M2.13969 20.1109L4.51694 21.2887L5.70557 20.1109H2.13969Z" fill="#6133B4"/>
<path opacity="0.5" fill-rule="evenodd" clip-rule="evenodd" d="M5.70557 16.5775L4.51694 18.933L5.70557 20.1108V16.5775Z" fill="#6133B4"/>
<path opacity="0.5" fill-rule="evenodd" clip-rule="evenodd" d="M9.27148 20.1108L6.89423 18.933L5.70561 20.1108H9.27148Z" fill="white"/>
<path opacity="0.5" fill-rule="evenodd" clip-rule="evenodd" d="M5.70542 23.6443L6.89404 21.2887L5.70542 20.1109V23.6443Z" fill="white"/>
<path opacity="0.5" fill-rule="evenodd" clip-rule="evenodd" d="M6.27609 19.5455L7.36963 20.1109L6.27609 20.6762L5.70555 21.7598L5.13501 20.6762L4.04148 20.1109L5.13501 19.5455L5.70555 18.4619L6.27609 19.5455Z" fill="white"/>
<path fill-rule="evenodd" clip-rule="evenodd" d="M12.8625 1.53112L11.3172 2.29668L12.8625 3.06225L13.6351 4.59338L14.4077 3.06225L15.9529 2.29668L14.4077 1.53112L13.6351 -1.81198e-05L12.8625 1.53112Z" fill="#BDA8FF"/>
<path opacity="0.25" fill-rule="evenodd" clip-rule="evenodd" d="M15.0837 2.29667L14.118 2.77515L13.6351 2.29667H15.0837Z" fill="white"/>
<path opacity="0.25" fill-rule="evenodd" clip-rule="evenodd" d="M13.635 0.861193L14.1179 1.81815L13.635 2.29663V0.861193Z" fill="white"/>
<path opacity="0.25" fill-rule="evenodd" clip-rule="evenodd" d="M12.1864 2.29663L13.1521 1.81815L13.635 2.29663H12.1864Z" fill="white"/>
<path opacity="0.25" fill-rule="evenodd" clip-rule="evenodd" d="M13.635 3.73218L13.1521 2.77522L13.635 2.29674V3.73218Z" fill="white"/>
<path opacity="0.25" fill-rule="evenodd" clip-rule="evenodd" d="M12.1864 2.29667L13.1521 2.77515L13.635 2.29667H12.1864Z" fill="#925CF3"/>
<path opacity="0.5" fill-rule="evenodd" clip-rule="evenodd" d="M13.635 0.861193L13.1521 1.81815L13.635 2.29663V0.861193Z" fill="#925CF3"/>
<path opacity="0.5" fill-rule="evenodd" clip-rule="evenodd" d="M15.0837 2.29663L14.118 1.81815L13.6351 2.29663H15.0837Z" fill="white"/>
<path opacity="0.5" fill-rule="evenodd" clip-rule="evenodd" d="M13.635 3.73218L14.1179 2.77522L13.635 2.29674V3.73218Z" fill="white"/>
<path opacity="0.5" fill-rule="evenodd" clip-rule="evenodd" d="M13.8668 2.06701L14.311 2.29668L13.8668 2.52635L13.635 2.96655L13.4032 2.52635L12.959 2.29668L13.4032 2.06701L13.635 1.62681L13.8668 2.06701Z" fill="white"/>
<path fill-rule="evenodd" clip-rule="evenodd" d="M48.2455 29.7042L45.8682 30.882L48.2455 32.0598L49.4341 34.4154L50.6227 32.0598L53 30.882L50.6227 29.7042L49.4341 27.3486L48.2455 29.7042Z" fill="#925CF3"/>
<path opacity="0.25" fill-rule="evenodd" clip-rule="evenodd" d="M51.6628 30.882L50.1771 31.6182L49.4342 30.882H51.6628Z" fill="white"/>
<path opacity="0.25" fill-rule="evenodd" clip-rule="evenodd" d="M49.4341 28.6737L50.177 30.146L49.4341 30.8821V28.6737Z" fill="white"/>
<path opacity="0.25" fill-rule="evenodd" clip-rule="evenodd" d="M47.2054 30.8821L48.6912 30.146L49.4341 30.8821H47.2054Z" fill="white"/>
<path opacity="0.25" fill-rule="evenodd" clip-rule="evenodd" d="M49.4341 33.0903L48.6912 31.6181L49.4341 30.882V33.0903Z" fill="white"/>
<path opacity="0.25" fill-rule="evenodd" clip-rule="evenodd" d="M47.2054 30.882L48.6912 31.6182L49.4341 30.882H47.2054Z" fill="#6133B4"/>
<path opacity="0.5" fill-rule="evenodd" clip-rule="evenodd" d="M49.4341 28.6737L48.6912 30.146L49.4341 30.8821V28.6737Z" fill="#6133B4"/>
<path opacity="0.5" fill-rule="evenodd" clip-rule="evenodd" d="M51.6628 30.8821L50.1771 30.146L49.4342 30.8821H51.6628Z" fill="white"/>
<path opacity="0.5" fill-rule="evenodd" clip-rule="evenodd" d="M49.4341 33.0903L50.177 31.6181L49.4341 30.882V33.0903Z" fill="white"/>
<path opacity="0.5" fill-rule="evenodd" clip-rule="evenodd" d="M49.7907 30.5287L50.4741 30.882L49.7907 31.2354L49.4341 31.9126L49.0775 31.2354L48.394 30.882L49.0775 30.5287L49.4341 29.8515L49.7907 30.5287Z" fill="white"/>
<path fill-rule="evenodd" clip-rule="evenodd" d="M39.9456 43.5776L35.1911 45.9332L39.9456 48.2888L42.3228 53L44.7001 48.2888L49.4546 45.9332L44.7001 43.5776L42.3228 38.8665L39.9456 43.5776Z" fill="#6133B4"/>
<path opacity="0.25" fill-rule="evenodd" clip-rule="evenodd" d="M46.7803 45.9333L43.8087 47.4055L42.3229 45.9333H46.7803Z" fill="white"/>
<path opacity="0.25" fill-rule="evenodd" clip-rule="evenodd" d="M42.3228 41.5165L43.8086 44.461L42.3228 45.9332V41.5165Z" fill="white"/>
<path opacity="0.25" fill-rule="evenodd" clip-rule="evenodd" d="M37.8654 45.9332L40.837 44.461L42.3228 45.9332H37.8654Z" fill="white"/>
<path opacity="0.25" fill-rule="evenodd" clip-rule="evenodd" d="M42.3228 50.35L40.837 47.4055L42.3228 45.9332V50.35Z" fill="white"/>
<path opacity="0.25" fill-rule="evenodd" clip-rule="evenodd" d="M37.8654 45.9333L40.837 47.4055L42.3228 45.9333H37.8654Z" fill="#4F2A93"/>
<path opacity="0.5" fill-rule="evenodd" clip-rule="evenodd" d="M42.3228 41.5165L40.837 44.461L42.3228 45.9332V41.5165Z" fill="#4F2A93"/>
<path opacity="0.5" fill-rule="evenodd" clip-rule="evenodd" d="M46.7803 45.9332L43.8087 44.461L42.3229 45.9332H46.7803Z" fill="white"/>
<path opacity="0.5" fill-rule="evenodd" clip-rule="evenodd" d="M42.3228 50.35L43.8086 47.4055L42.3228 45.9332V50.35Z" fill="white"/>
<path opacity="0.5" fill-rule="evenodd" clip-rule="evenodd" d="M43.0359 45.2266L44.4028 45.9332L43.0359 46.6399L42.3227 47.9944L41.6096 46.6399L40.2426 45.9332L41.6096 45.2266L42.3227 43.8721L43.0359 45.2266Z" fill="white"/>
</svg>
