<svg width="16" height="16" viewBox="0 0 16 16" xmlns="http://www.w3.org/2000/svg">
    <g fill="none" fill-rule="evenodd">
        <path d="M3 12.606v1.778c0 .208.093.408.262.53 1.842 1.347 6.923 1.347 8.766 0a.655.655 0 0 0 .26-.53v-1.778c0-1.621-.831-3.177-2.091-4.104a.666.666 0 0 1 0-1.08c1.26-.927 2.092-2.483 2.092-4.105V1.54a.652.652 0 0 0-.261-.53c-1.843-1.346-6.924-1.346-8.766 0A.65.65 0 0 0 3 1.54v1.777c0 1.622.832 3.178 2.092 4.105.368.27.368.81 0 1.08C3.832 9.429 3 10.985 3 12.606" fill="#F19595"/>
        <path d="M7.644 1.327c1.51 0 2.684.274 3.318.587v1.403c0 1.169-.594 2.332-1.551 3.036a2.006 2.006 0 0 0-.818 1.609c0 .63.305 1.232.817 1.608.958.705 1.552 1.868 1.552 3.036v1.404c-.634.313-1.809.587-3.318.587-1.508 0-2.683-.274-3.317-.587v-1.404c0-1.168.594-2.331 1.551-3.035.513-.377.817-.978.817-1.609 0-.63-.304-1.232-.816-1.609-.958-.704-1.552-1.867-1.552-3.036V1.914c.634-.313 1.809-.587 3.317-.587" fill-opacity=".9" fill="#FFF"/>
        <path d="M7.797 2.324c-1.132 0-2.331.105-2.343.385-.01.226-.005.664.914 1.13.893.453 1.06 1.282 1.546 1.282.564 0 .596-.477 1.284-.95.71-.488.823-1.148.815-1.408-.011-.363-1.084-.439-2.216-.439" fill="#DE3F3F"/>
        <path d="M9.198 4.17c.71-.487.823-1.146.815-1.407-.009-.288-.684-.395-1.526-.427.236.12.543.377.467.88-.078.525-.904 1.105-.77 1.568.025.09.069.162.124.221.247-.17.408-.502.89-.835" fill="#B01515"/>
        <path d="M7.644 9.17c-.344 0-.433.628-.933 1.018-.613.478-1.196 1.067-1.356 1.914-.131.698-.012.785.148.834.16.049 1.386.257 2.588 0 1.203-.258 1.87-.737 1.755-1.227-.111-.466-.448-.865-1.068-1.325-.593-.44-.79-1.214-1.134-1.214" fill="#DE3F3F"/>
        <path d="M5.503 12.936c.16.05 1.386.257 2.588 0 .956-.205 1.574-.55 1.729-.929a.096.096 0 0 0-.005-.023c-.067-.256-1.073-.41-2.325-.207-1.192.192-2.158.586-2.153 1.03.037.08.097.108.166.129" fill="#B01515"/>
    </g>
</svg>
