<svg width="16" height="16" viewBox="0 0 16 16" xmlns="http://www.w3.org/2000/svg" xmlns:xlink="http://www.w3.org/1999/xlink">
    <defs>
        <path d="M11.2 13.2c0-1.231-.467-2.35-1.23-3.2h1.23c1.765 0 3.2 1.435 3.2 3.2h-3.2zm-9.6 0c0-1.765 1.435-3.2 3.2-3.2h1.6c1.765 0 3.2 1.435 3.2 3.2h-8zm4-9.6a2.4 2.4 0 1 1 0 4.8 2.4 2.4 0 0 1 0-4.8zm3.452.415a2.4 2.4 0 1 1 0 3.97c.34-.587.548-1.26.548-1.985 0-.726-.209-1.398-.548-1.985zm4.154 4.829A3.986 3.986 0 0 0 14.4 6c0-2.206-1.794-4-4-4-.904 0-1.73.313-2.4.82A3.959 3.959 0 0 0 5.6 2c-2.206 0-4 1.794-4 4 0 1.112.458 2.118 1.194 2.844A4.795 4.795 0 0 0 0 13.2a1.6 1.6 0 0 0 1.6 1.6h12.8a1.6 1.6 0 0 0 1.6-1.6 4.795 4.795 0 0 0-2.794-4.356z" id="2aa2jluu5a"/>
    </defs>
    <g fill="none" fill-rule="evenodd">
        <mask id="hhgg3a2mqb" fill="#fff">
            <use xlink:href="#2aa2jluu5a"/>
        </mask>
        <use fill="#878190" xlink:href="#2aa2jluu5a"/>
        <g mask="url(#hhgg3a2mqb)" fill="#878190">
            <path d="M0 0h16v16H0z"/>
        </g>
    </g>
</svg>
