<svg xmlns="http://www.w3.org/2000/svg" viewBox="0 0 24 24">
  <path d="M14.67,12A2.67,2.67,0,1,1,12,9.33,2.67,2.67,0,0,1,14.67,12Zm3.89,0c0,1.16.1,3.66-.32,4.71a2.7,2.7,0,0,1-1.52,1.52c-1.06.42-3.55.33-4.72.33s-3.66.09-4.71-.33a2.65,2.65,0,0,1-1.52-1.52c-.42-1.05-.33-3.55-.33-4.71s-.09-3.67.33-4.72A2.65,2.65,0,0,1,7.29,5.76c1-.42,3.55-.32,4.71-.32a18,18,0,0,1,4.72.32,2.7,2.7,0,0,1,1.52,1.52C18.66,8.34,18.56,10.83,18.56,12ZM16.1,12A4.1,4.1,0,1,0,12,16.1,4.09,4.09,0,0,0,16.1,12Zm1.13-4.27a1,1,0,1,0-1,1A1,1,0,0,0,17.23,7.73ZM24,4V20a4,4,0,0,1-4,4H4a4,4,0,0,1-4-4V4A4,4,0,0,1,4,0H20A4,4,0,0,1,24,4ZM19.94,8.7a4.71,4.71,0,0,0-1.29-3.35A4.71,4.71,0,0,0,15.3,4.06C14,4,10,4,8.7,4.06A4.76,4.76,0,0,0,5.35,5.34,4.75,4.75,0,0,0,4.06,8.7C4,10,4,14,4.06,15.3a4.73,4.73,0,0,0,1.29,3.35A4.77,4.77,0,0,0,8.7,19.94c1.32.08,5.28.08,6.6,0a4.71,4.71,0,0,0,3.35-1.29,4.73,4.73,0,0,0,1.29-3.35C20,14,20,10,19.94,8.7Z" />
</svg>
