<?xml version="1.0" encoding="UTF-8"?>
<svg width="24px" height="24px" viewBox="0 0 24 24" version="1.1" xmlns="http://www.w3.org/2000/svg" xmlns:xlink="http://www.w3.org/1999/xlink">
    <title>Instagram</title>
    <g id="Navigation-&amp;-Footer" stroke="none" stroke-width="1" fill="none" fill-rule="evenodd">
        <g id="Footer---Desktop-HD" transform="translate(-1086.000000, -224.000000)" fill="#878190">
            <path d="M1106,224 C1108.20914,224 1110,225.790861 1110,228 L1110,244 C1110,246.209139 1108.20914,248 1106,248 L1090,248 C1087.79086,248 1086,246.209139 1086,244 L1086,228 C1086,225.790861 1087.79086,224 1090,224 L1106,224 Z M1094.70006,228.056219 C1093.4222,228.116899 1092.28712,228.409593 1091.34835,229.344785 C1090.40959,230.279978 1090.12047,231.415059 1090.05622,232.696486 C1089.98126,234.017178 1089.98126,237.975683 1090.05622,239.296375 C1090.1169,240.577803 1090.40959,241.712883 1091.34835,242.648076 C1092.28712,243.583268 1093.41863,243.875962 1094.70006,243.940212 C1096.02075,244.01517 1099.97925,244.01517 1101.29994,243.940212 C1102.58137,243.879532 1103.71645,243.586838 1104.65165,242.648076 C1105.58684,241.712883 1105.87953,240.577803 1105.94378,239.296375 C1106.01874,237.975683 1106.01874,234.020747 1105.94378,232.700056 C1105.8831,231.418628 1105.59041,230.283547 1104.65165,229.348355 C1103.71645,228.413162 1102.58137,228.120468 1101.29994,228.056219 C1099.97925,227.98126 1096.02075,227.98126 1094.70006,228.056219 Z M1098.00178,229.44116 C1099.16542,229.44116 1101.6676,229.348355 1102.71701,229.762409 C1103.41662,230.040825 1103.95561,230.57981 1104.23759,231.282989 C1104.65521,232.335973 1104.55884,234.834579 1104.55884,235.998215 C1104.55884,237.161852 1104.65521,239.664027 1104.23759,240.713441 C1103.95917,241.413051 1103.42019,241.952036 1102.71701,242.234021 C1101.66403,242.651645 1099.16542,242.55527 1098.00178,242.55527 C1096.83815,242.55527 1094.33597,242.648076 1093.28656,242.234021 C1092.58695,241.955605 1092.04796,241.41662 1091.76598,240.713441 C1091.34835,239.660457 1091.44473,237.161852 1091.44473,235.998215 C1091.44473,234.834579 1091.35192,232.332404 1091.76598,231.282989 C1092.04439,230.58338 1092.58338,230.044395 1093.28656,229.762409 C1094.33954,229.344785 1096.83815,229.44116 1098.00178,229.44116 Z M1098.00178,231.896933 C1095.73162,231.896933 1093.9005,233.728054 1093.9005,235.998215 C1093.9005,238.268377 1095.73162,240.099498 1098.00178,240.099498 C1100.27195,240.099498 1102.10307,238.268377 1102.10307,235.998215 C1102.10307,233.728054 1100.27195,231.896933 1098.00178,231.896933 Z M1098.00178,233.331846 C1099.47239,233.331846 1100.66815,234.527607 1100.66815,235.998215 C1100.66815,237.468823 1099.46882,238.664584 1098.00178,238.664584 C1096.53475,238.664584 1095.33542,237.468823 1095.33542,235.998215 C1095.33542,234.527607 1096.53118,233.331846 1098.00178,233.331846 Z M1102.27083,230.77256 C1101.74255,230.77256 1101.31422,231.200892 1101.31422,231.729169 C1101.31422,232.257446 1101.73898,232.685778 1102.27083,232.685778 C1102.79911,232.685778 1103.22744,232.261015 1103.22744,231.729169 C1103.22744,231.200892 1102.79911,230.77256 1102.27083,230.77256 Z" id="Instagram"></path>
        </g>
    </g>
</svg>