<svg  viewBox="0 0 16 16" fill="none" xmlns="http://www.w3.org/2000/svg">
    <g clip-path="url(#464rik5fna)">
        <path d="M12 2c1.1 0 2 .9 2 2v6c0 1.1-.9 2-2 2l-4 2v-2H4c-1.1 0-2-.9-2-2V4c0-1.1.9-2 2-2h8zm0-2H4C1.79 0 0 1.79 0 4v6c0 2.21 1.79 4 4 4h2c0 .69.36 1.34.95 1.7a1.993 1.993 0 0 0 1.94.09l3.65-1.83A4 4 0 0 0 15.99 10V4c0-2.21-1.79-4-4-4H12zM9.41 7l1.29-1.29A.996.996 0 1 0 9.29 4.3L8 5.59 6.71 4.3A.996.996 0 1 0 5.3 5.71L6.59 7 5.3 8.29a.996.996 0 0 0 .71 1.7c.26 0 .51-.1.71-.29l1.29-1.29L9.3 9.7c.2.2.45.29.71.29.26 0 .51-.1.71-.29a.996.996 0 0 0 0-1.41L9.43 7h-.02z" fill="#4E4A57"/>
    </g>
    <defs>
        <clipPath id="464rik5fna">
            <path fill="#fff" d="M0 0h16v16H0z"/>
        </clipPath>
    </defs>
</svg>
