<svg xmlns="http://www.w3.org/2000/svg" width="150" height="48" viewBox="0 0 150 48">
    <defs>
        <filter id="a" width="225%" height="225%" x="-62.5%" y="-62.5%" filterUnits="objectBoundingBox">
            <feOffset dy="2" in="SourceAlpha" result="shadowOffsetOuter1"/>
            <feGaussianBlur in="shadowOffsetOuter1" result="shadowBlurOuter1" stdDeviation="4"/>
            <feColorMatrix in="shadowBlurOuter1" result="shadowMatrixOuter1" values="0 0 0 0 0.101960784 0 0 0 0 0.0941176471 0 0 0 0 0.11372549 0 0 0 0.32 0"/>
            <feMerge>
                <feMergeNode in="shadowMatrixOuter1"/>
                <feMergeNode in="SourceGraphic"/>
            </feMerge>
        </filter>
    </defs>
    <g fill="none" fill-rule="evenodd">
        <g fill="#FFA624">
            <path d="M125.45 35.414l3.346-2.967-4.382-.896-2.967-3.347-.896 4.382-3.347 2.967 4.382.896 2.967 3.347z" opacity=".75"/>
            <path d="M136.43 30.407l3.325-.442-2.348-2.395-.442-3.325-2.395 2.348-3.325.442 2.348 2.395.442 3.325z" opacity=".5"/>
            <path d="M146.901 35.41l2.067.854-.557-2.165.853-2.067-2.165.557-2.067-.853.557 2.165-.853 2.067z" opacity=".25"/>
            <path d="M138.353 39.874l1.488-.093-.967-1.134-.093-1.488-1.134.967-1.488.093.967 1.134.093 1.488z" opacity=".35"/>
        </g>
        <g fill="#FFA624">
            <path d="M24.55 35.414l-3.346-2.967 4.382-.896 2.967-3.347.896 4.382 3.347 2.967-4.382.896-2.967 3.347z" opacity=".75"/>
            <path d="M13.57 30.407l-3.325-.442 2.348-2.395.442-3.325 2.395 2.348 3.325.442-2.348 2.395-.442 3.325z" opacity=".5"/>
            <path d="M3.099 35.41l-2.067.854.557-2.165-.853-2.067 2.165.557 2.067-.853-.557 2.165.853 2.067z" opacity=".25"/>
            <path d="M11.647 39.874l-1.488-.093.967-1.134.093-1.488 1.134.967 1.488.093-.967 1.134-.093 1.488z" opacity=".35"/>
        </g>
        <g opacity=".5" transform="translate(83 22)">
            <circle cx="12" cy="12" r="12" fill="#FFA623"/>
            <path fill="#FFF" d="M6.3 17.7c-3.1-3.1-3.1-8.2 0-11.3 3.1-3.1 8.2-3.1 11.3 0" opacity=".5"/>
            <path fill="#FFF" d="M17.7 6.3c3.1 3.1 3.1 8.2 0 11.3-3.1 3.1-8.2 3.1-11.3 0" opacity=".25"/>
            <path fill="#BF7D1A" d="M12 2C6.5 2 2 6.5 2 12s4.5 10 10 10 10-4.5 10-10S17.5 2 12 2zm0 18c-4.4 0-8-3.6-8-8s3.6-8 8-8 8 3.6 8 8-3.6 8-8 8z" opacity=".5"/>
            <path fill="#BF7D1A" d="M13 9v2h-2V9H9v6h2v-2h2v2h2V9z" opacity=".75"/>
        </g>
        <g opacity=".5" transform="translate(43 22)">
            <circle cx="12" cy="12" r="12" fill="#FFA623"/>
            <path fill="#FFF" d="M6.3 17.7c-3.1-3.1-3.1-8.2 0-11.3 3.1-3.1 8.2-3.1 11.3 0" opacity=".5"/>
            <path fill="#FFF" d="M17.7 6.3c3.1 3.1 3.1 8.2 0 11.3-3.1 3.1-8.2 3.1-11.3 0" opacity=".25"/>
            <path fill="#BF7D1A" d="M12 2C6.5 2 2 6.5 2 12s4.5 10 10 10 10-4.5 10-10S17.5 2 12 2zm0 18c-4.4 0-8-3.6-8-8s3.6-8 8-8 8 3.6 8 8-3.6 8-8 8z" opacity=".5"/>
            <path fill="#BF7D1A" d="M13 9v2h-2V9H9v6h2v-2h2v2h2V9z" opacity=".75"/>
        </g>
        <g transform="translate(59 6)">
            <circle cx="16" cy="16" r="16" fill="#FFA623"/>
            <path fill="#FFF" d="M8.4 23.6c-4.133-4.133-4.133-10.933 0-15.067 4.133-4.133 10.933-4.133 15.067 0" opacity=".5"/>
            <path fill="#FFF" d="M23.6 8.4c4.133 4.133 4.133 10.933 0 15.067-4.133 4.133-10.933 4.133-15.067 0" opacity=".25"/>
            <path fill="#BF7D1A" d="M16 2.667c-7.333 0-13.333 6-13.333 13.333s6 13.333 13.333 13.333 13.333-6 13.333-13.333S23.333 2.667 16 2.667zm0 24c-5.867 0-10.667-4.8-10.667-10.667S10.133 5.333 16 5.333 26.667 10.133 26.667 16 21.867 26.667 16 26.667z" opacity=".5"/>
            <path fill="#BF7D1A" d="M17.333 12v2.667h-2.666V12H12v8h2.667v-2.667h2.666V20H20v-8z" opacity=".75"/>
        </g>
    </g>
</svg>
