<svg xmlns="http://www.w3.org/2000/svg" width="149" height="40" viewBox="0 0 149 40">
    <g fill="none" fill-rule="evenodd">
        <path fill="#283B82" fill-rule="nonzero" d="M17.806.284H6.265c-.79 0-1.462.574-1.585 1.354L.012 31.234a.96.96 0 0 0 .952 1.11h5.51c.79 0 1.461-.574 1.585-1.355l1.259-7.982A1.602 1.602 0 0 1 10.9 21.65h3.653c7.603 0 11.99-3.679 13.137-10.97.516-3.189.022-5.695-1.472-7.45C24.58 1.304 21.67.284 17.806.284zm1.332 10.81c-.631 4.141-3.796 4.141-6.855 4.141H10.54l1.222-7.734a.962.962 0 0 1 .95-.812h.798c2.085 0 4.05 0 5.067 1.188.606.709.791 1.762.56 3.217zM52.306 10.96H46.78a.963.963 0 0 0-.95.812l-.245 1.546-.387-.56c-1.196-1.737-3.865-2.317-6.528-2.317-6.107 0-11.323 4.625-12.34 11.114-.528 3.237.223 6.332 2.06 8.49 1.684 1.985 4.094 2.812 6.961 2.812 4.921 0 7.65-3.164 7.65-3.164l-.246 1.536a.961.961 0 0 0 .948 1.113h4.978c.792 0 1.46-.573 1.585-1.355l2.987-18.916a.958.958 0 0 0-.947-1.11zm-7.704 10.757c-.533 3.158-3.039 5.278-6.235 5.278-1.605 0-2.888-.515-3.711-1.49-.817-.97-1.128-2.348-.868-3.884.498-3.13 3.047-5.32 6.194-5.32 1.57 0 2.845.522 3.686 1.506.842.994 1.176 2.381.934 3.91z"/>
        <path fill="#283B82" d="M81.742 10.96h-5.554a1.61 1.61 0 0 0-1.328.704L67.2 22.948l-3.247-10.843a1.608 1.608 0 0 0-1.54-1.145h-5.457a.962.962 0 0 0-.913 1.273l6.118 17.953-5.752 8.119a.962.962 0 0 0 .785 1.519h5.547a1.6 1.6 0 0 0 1.318-.689l18.473-26.664a.961.961 0 0 0-.79-1.51"/>
        <path fill="#469BDB" fill-rule="nonzero" d="M100.13.284H88.587c-.788 0-1.46.574-1.583 1.354l-4.668 29.596a.96.96 0 0 0 .949 1.11h5.923c.55 0 1.021-.401 1.107-.948l1.325-8.39a1.602 1.602 0 0 1 1.583-1.355h3.652c7.604 0 11.99-3.679 13.138-10.97.518-3.189.02-5.695-1.473-7.45-1.639-1.927-4.547-2.947-8.41-2.947zm1.332 10.81c-.63 4.141-3.794 4.141-6.855 4.141h-1.74l1.223-7.734a.958.958 0 0 1 .949-.812h.798c2.083 0 4.05 0 5.066 1.188.606.709.79 1.762.559 3.217zM134.629 10.96h-5.524a.957.957 0 0 0-.948.812l-.245 1.546-.388-.56c-1.197-1.737-3.863-2.317-6.526-2.317-6.108 0-11.322 4.625-12.338 11.114-.527 3.237.22 6.332 2.057 8.49 1.688 1.985 4.094 2.812 6.961 2.812 4.921 0 7.65-3.164 7.65-3.164l-.246 1.536a.962.962 0 0 0 .952 1.113h4.977c.788 0 1.46-.573 1.583-1.355l2.988-18.916a.964.964 0 0 0-.953-1.11zm-7.704 10.757c-.53 3.158-3.04 5.278-6.236 5.278-1.602 0-2.888-.515-3.711-1.49-.817-.97-1.124-2.348-.867-3.884.5-3.13 3.046-5.32 6.193-5.32 1.57 0 2.845.522 3.686 1.506.845.994 1.18 2.381.935 3.91z"/>
        <path fill="#469BDB" d="M141.145 1.096l-4.738 30.138a.96.96 0 0 0 .949 1.11h4.762c.792 0 1.464-.574 1.585-1.355l4.671-29.594a.961.961 0 0 0-.948-1.112h-5.333a.964.964 0 0 0-.948.813"/>
    </g>
</svg>
