<svg xmlns="http://www.w3.org/2000/svg" xmlns:xlink="http://www.w3.org/1999/xlink" width="16" height="16" viewBox="-2 -1.5 16 16">
	<path id="prefix__a" d="M9.748 4.127l-3.27 4.205-2.31-2.31 4.205-3.27 1.375 1.375zm2.484-.091l-.554-.554V3.43l-.102-.051L8.463.267C8.293.095 8.063 0 7.82 0c-.244 0-.472.095-.644.267-.173.172-.267.401-.267.644 0 .195.061.382.174.536L2.87 4.724l-.06-.06c-.355-.354-.932-.354-1.288 0-.355.356-.355.933 0 1.288l1.87 1.869-3.126 3.125c-.355.355-.355.933 0 1.286.17.173.4.268.643.268.244 0 .474-.095.645-.267L4.68 9.108l1.87 1.87c.342.343.94.344 1.287 0 .355-.356.355-.933 0-1.289l-.06-.06 3.277-4.212c.345.252.87.215 1.18-.093.354-.356.354-.933 0-1.288z"/>
</svg>
