<svg  viewBox="0 0 16 16" fill="none" xmlns="http://www.w3.org/2000/svg">
    <g clip-path="url(#mzh0y8jf2a)">
        <path d="M12 2c1.1 0 2 .9 2 2v6c0 1.1-.9 2-2 2l-4 2v-2H4c-1.1 0-2-.9-2-2V4c0-1.1.9-2 2-2h8zm0-2H4C1.79 0 0 1.79 0 4v6c0 2.21 1.79 4 4 4h2c0 .69.36 1.34.95 1.7a1.993 1.993 0 0 0 1.94.09l3.65-1.83A4 4 0 0 0 15.99 10V4c0-2.21-1.79-4-4-4H12zm-.17 7c0-.55-.45-1-1-1H5.17c-.55 0-1 .45-1 1s.45 1 1 1h5.66c.55 0 1-.45 1-1z" fill="#4E4A57"/>
    </g>
    <defs>
        <clipPath id="mzh0y8jf2a">
            <path fill="#fff" d="M0 0h16v16H0z"/>
        </clipPath>
    </defs>
</svg>
