<svg id="Layer_1" data-name="Layer 1" xmlns="http://www.w3.org/2000/svg" viewBox="0 0 31.8 28.4"><defs><style>.cls-1{}</style></defs><title>skin</title><path class="cls-1" d="M31.8,28.52a7.44,7.44,0,0,0-3.69-3.63,8.72,8.72,0,0,0-3.82-.26c-1.21.09-2.57,0.19-3.08-.3-0.72-.71-0.15-2.6.24-3.4a1.13,1.13,0,0,0,0-.18,12,12,0,0,0,3.75-8.41c0-6.2-3.84-10.53-9.33-10.53S6.58,6.13,6.58,12.33a12.19,12.19,0,0,0,3.94,8.46,1.13,1.13,0,0,0,0,.13c0.39,0.8,1,2.7.24,3.41-0.5.5-1.87,0.39-3.08,0.3a8.75,8.75,0,0,0-3.82.26A7.43,7.43,0,0,0,.2,28.52a1.2,1.2,0,1,0,2.2,1,5,5,0,0,1,2.37-2.36A7.3,7.3,0,0,1,7.53,27c1.72,0.13,3.66.28,4.94-1a3.9,3.9,0,0,0,1-3.11,5.72,5.72,0,0,0,2.39.64,6.15,6.15,0,0,0,2.57-.67,3.92,3.92,0,0,0,1,3.14c1.28,1.26,3.22,1.12,4.94,1a7.34,7.34,0,0,1,2.76.1,5,5,0,0,1,2.37,2.36A1.2,1.2,0,1,0,31.8,28.52ZM9,12.33C9,7.39,11.7,4.2,15.91,4.2s6.93,3.19,6.93,8.13-4.62,8.84-6.93,8.84C14,21.17,9,17.25,9,12.33Z" transform="translate(-0.1 -1.8)"/></svg>
