<svg xmlns="http://www.w3.org/2000/svg" width="23" height="28" viewBox="0 0 23 28">
    <g fill="none" fill-rule="evenodd">
        <path fill="#50B5E9" d="M11.074 8.485l4.26-2.121-4.26-2.122L8.944 0l-2.13 4.242-4.258 2.122 4.259 2.12 2.13 4.243z"/>
        <path fill="#9A62FF" d="M5.111 19.09l2.556-1.272-2.556-1.273L3.833 14l-1.277 2.545L0 17.818l2.556 1.273 1.277 2.545z"/>
        <path fill="#FF6165" d="M12.778 25.455l2.555-1.273-2.555-1.273-1.278-2.545-1.278 2.545-2.555 1.273 2.555 1.273L11.5 28z"/>
        <path fill="#FFB445" d="M19.593 15.697L23 14l-3.407-1.697-1.704-3.394-1.704 3.394L12.778 14l3.407 1.697 1.704 3.394z"/>
    </g>
</svg>
