<svg xmlns="http://www.w3.org/2000/svg" width="40" height="64" viewBox="0 0 40 64">
    <g fill="none" fill-rule="evenodd">
        <path fill="#77F4C7" d="M35.667 8.667L40 6.5 35.667 4.333 33.5 0 31.333 4.333 27 6.5 31.333 8.667 33.5 13z" transform="matrix(-1 0 0 1 40 0)"/>
        <path fill="#BDA8FF" d="M24.667 35.667L30 33 24.667 30.333 22 25 19.333 30.333 14 33 19.333 35.667 22 41z" transform="matrix(-1 0 0 1 40 0)"/>
        <path fill="#8EEDF6" d="M35.667 60.667L39 59 35.667 57.333 34 54 32.333 57.333 29 59 32.333 60.667 34 64z" transform="matrix(-1 0 0 1 40 0)"/>
        <path fill="#FFBE5D" d="M6.667 46.667L10 45 6.667 43.333 5 40 3.333 43.333 0 45 3.333 46.667 5 50z" transform="matrix(-1 0 0 1 40 0)"/>
        <path fill="#FFB6B8" d="M5.667 17.667L8 16.5 5.667 15.333 4.5 13 3.333 15.333 1 16.5 3.333 17.667 4.5 20z" transform="matrix(-1 0 0 1 40 0)"/>
    </g>
</svg>
