<svg width="41" height="61" viewBox="0 0 41 61" fill="none" xmlns="http://www.w3.org/2000/svg">
<path fill-rule="evenodd" clip-rule="evenodd" d="M8.53642 4.26827L12.8046 6.40237L8.53642 8.53648L6.40232 12.8047L4.26821 8.53648L0 6.40237L4.26821 4.26827L6.40232 5.72205e-05L8.53642 4.26827Z" fill="#6133B4"/>
<path opacity="0.25" fill-rule="evenodd" clip-rule="evenodd" d="M2.40088 6.40239L5.06851 7.73621L6.40233 6.40239H2.40088Z" fill="white"/>
<path opacity="0.25" fill-rule="evenodd" clip-rule="evenodd" d="M6.4023 2.4009L5.06848 5.06853L6.4023 6.40234V2.4009Z" fill="white"/>
<path opacity="0.25" fill-rule="evenodd" clip-rule="evenodd" d="M10.4038 6.40234L7.73616 5.06853L6.40234 6.40234L10.4038 6.40234Z" fill="white"/>
<path opacity="0.25" fill-rule="evenodd" clip-rule="evenodd" d="M6.40234 10.4038L7.73616 7.73618L6.40234 6.40236L6.40234 10.4038Z" fill="white"/>
<path opacity="0.25" fill-rule="evenodd" clip-rule="evenodd" d="M10.4038 6.40239L7.73616 7.73621L6.40234 6.40239H10.4038Z" fill="#4F2A93"/>
<path opacity="0.5" fill-rule="evenodd" clip-rule="evenodd" d="M6.40234 2.4009L7.73616 5.06853L6.40234 6.40234L6.40234 2.4009Z" fill="#4F2A93"/>
<path opacity="0.5" fill-rule="evenodd" clip-rule="evenodd" d="M2.40088 6.40234L5.06851 5.06853L6.40233 6.40234L2.40088 6.40234Z" fill="white"/>
<path opacity="0.5" fill-rule="evenodd" clip-rule="evenodd" d="M6.4023 10.4038L5.06848 7.73618L6.4023 6.40236V10.4038Z" fill="white"/>
<path opacity="0.5" fill-rule="evenodd" clip-rule="evenodd" d="M5.76208 5.7622L4.53497 6.40243L5.76208 7.04267L6.40232 8.26978L7.04255 7.04267L8.26966 6.40243L7.04255 5.7622L6.40232 4.53509L5.76208 5.7622Z" fill="white"/>
<path fill-rule="evenodd" clip-rule="evenodd" d="M37.5385 14.2663L39.8368 15.4154L37.5385 16.5645L36.3894 18.8628L35.2402 16.5645L32.942 15.4154L35.2402 14.2663L36.3894 11.968L37.5385 14.2663Z" fill="#925CF3"/>
<path opacity="0.25" fill-rule="evenodd" clip-rule="evenodd" d="M34.2347 15.4153L35.6712 16.1335L36.3894 15.4153H34.2347Z" fill="white"/>
<path opacity="0.25" fill-rule="evenodd" clip-rule="evenodd" d="M36.3894 13.2608L35.6711 14.6972L36.3894 15.4154V13.2608Z" fill="white"/>
<path opacity="0.25" fill-rule="evenodd" clip-rule="evenodd" d="M38.544 15.4154L37.1076 14.6972L36.3893 15.4154H38.544Z" fill="white"/>
<path opacity="0.25" fill-rule="evenodd" clip-rule="evenodd" d="M36.3893 17.5701L37.1076 16.1337L36.3893 15.4154V17.5701Z" fill="white"/>
<path opacity="0.25" fill-rule="evenodd" clip-rule="evenodd" d="M38.544 15.4153L37.1076 16.1335L36.3893 15.4153H38.544Z" fill="#6133B4"/>
<path opacity="0.5" fill-rule="evenodd" clip-rule="evenodd" d="M36.3893 13.2608L37.1076 14.6972L36.3893 15.4154V13.2608Z" fill="#6133B4"/>
<path opacity="0.5" fill-rule="evenodd" clip-rule="evenodd" d="M34.2347 15.4154L35.6712 14.6972L36.3894 15.4154H34.2347Z" fill="white"/>
<path opacity="0.5" fill-rule="evenodd" clip-rule="evenodd" d="M36.3894 17.5701L35.6711 16.1337L36.3894 15.4154V17.5701Z" fill="white"/>
<path opacity="0.5" fill-rule="evenodd" clip-rule="evenodd" d="M36.0446 15.0707L35.3839 15.4154L36.0446 15.7601L36.3893 16.4209L36.7341 15.7601L37.3948 15.4154L36.7341 15.0707L36.3893 14.4099L36.0446 15.0707Z" fill="white"/>
<path fill-rule="evenodd" clip-rule="evenodd" d="M20.5354 28.2693L25.7885 30.8959L20.5354 33.5225L17.9088 38.7756L15.2822 33.5225L10.029 30.8959L15.2822 28.2693L17.9088 23.0161L20.5354 28.2693Z" fill="#BDA8FF"/>
<path opacity="0.25" fill-rule="evenodd" clip-rule="evenodd" d="M12.9839 30.8959L16.2671 32.5375L17.9087 30.8959H12.9839Z" fill="white"/>
<path opacity="0.25" fill-rule="evenodd" clip-rule="evenodd" d="M17.9088 25.971L16.2672 29.2543L17.9088 30.8959V25.971Z" fill="white"/>
<path opacity="0.25" fill-rule="evenodd" clip-rule="evenodd" d="M22.8336 30.8959L19.5504 29.2543L17.9088 30.8959H22.8336Z" fill="white"/>
<path opacity="0.25" fill-rule="evenodd" clip-rule="evenodd" d="M17.9088 35.8207L19.5504 32.5374L17.9088 30.8958V35.8207Z" fill="white"/>
<path opacity="0.25" fill-rule="evenodd" clip-rule="evenodd" d="M22.8336 30.8959L19.5504 32.5375L17.9088 30.8959H22.8336Z" fill="#925CF3"/>
<path opacity="0.5" fill-rule="evenodd" clip-rule="evenodd" d="M17.9088 25.971L19.5504 29.2543L17.9088 30.8959V25.971Z" fill="#925CF3"/>
<path opacity="0.5" fill-rule="evenodd" clip-rule="evenodd" d="M12.9839 30.8959L16.2671 29.2543L17.9087 30.8959H12.9839Z" fill="white"/>
<path opacity="0.5" fill-rule="evenodd" clip-rule="evenodd" d="M17.9088 35.8207L16.2672 32.5374L17.9088 30.8958V35.8207Z" fill="white"/>
<path opacity="0.5" fill-rule="evenodd" clip-rule="evenodd" d="M17.1208 30.1078L15.6105 30.8958L17.1208 31.6838L17.9087 33.1941L18.6967 31.6838L20.207 30.8958L18.6967 30.1078L17.9087 28.5976L17.1208 30.1078Z" fill="white"/>
<path fill-rule="evenodd" clip-rule="evenodd" d="M7.53742 54.2673L10.8207 55.9089L7.53742 57.5505L5.8958 60.8337L4.25419 57.5505L0.970947 55.9089L4.25419 54.2673L5.8958 50.984L7.53742 54.2673Z" fill="#925CF3"/>
<path opacity="0.25" fill-rule="evenodd" clip-rule="evenodd" d="M2.81775 55.9089L4.86977 56.9349L5.89579 55.9089H2.81775Z" fill="white"/>
<path opacity="0.25" fill-rule="evenodd" clip-rule="evenodd" d="M5.89582 52.8309L4.86981 54.8829L5.89582 55.9089V52.8309Z" fill="white"/>
<path opacity="0.25" fill-rule="evenodd" clip-rule="evenodd" d="M8.97385 55.9089L6.92183 54.8829L5.89581 55.9089H8.97385Z" fill="white"/>
<path opacity="0.25" fill-rule="evenodd" clip-rule="evenodd" d="M5.89581 58.9869L6.92183 56.9349L5.89581 55.9089V58.9869Z" fill="white"/>
<path opacity="0.25" fill-rule="evenodd" clip-rule="evenodd" d="M8.97385 55.9089L6.92183 56.9349L5.89581 55.9089H8.97385Z" fill="#6133B4"/>
<path opacity="0.5" fill-rule="evenodd" clip-rule="evenodd" d="M5.89581 52.8309L6.92183 54.8829L5.89581 55.9089V52.8309Z" fill="#6133B4"/>
<path opacity="0.5" fill-rule="evenodd" clip-rule="evenodd" d="M2.81775 55.9089L4.86977 54.8829L5.89579 55.9089H2.81775Z" fill="white"/>
<path opacity="0.5" fill-rule="evenodd" clip-rule="evenodd" d="M5.89582 58.9869L4.86981 56.9349L5.89582 55.9089V58.9869Z" fill="white"/>
<path opacity="0.5" fill-rule="evenodd" clip-rule="evenodd" d="M5.40334 55.4164L4.45941 55.9089L5.40334 56.4014L5.89583 57.3453L6.38831 56.4014L7.33225 55.9089L6.38831 55.4164L5.89583 54.4725L5.40334 55.4164Z" fill="white"/>
<path fill-rule="evenodd" clip-rule="evenodd" d="M37.5374 44.2673L40.8207 45.9089L37.5374 47.5505L35.8958 50.8337L34.2542 47.5505L30.9709 45.9089L34.2542 44.2673L35.8958 40.984L37.5374 44.2673Z" fill="#6133B4"/>
<path opacity="0.25" fill-rule="evenodd" clip-rule="evenodd" d="M32.8177 45.9089L34.8698 46.9349L35.8958 45.9089H32.8177Z" fill="white"/>
<path opacity="0.25" fill-rule="evenodd" clip-rule="evenodd" d="M35.8958 42.8309L34.8698 44.8829L35.8958 45.9089V42.8309Z" fill="white"/>
<path opacity="0.25" fill-rule="evenodd" clip-rule="evenodd" d="M38.9738 45.9089L36.9218 44.8829L35.8958 45.9089H38.9738Z" fill="white"/>
<path opacity="0.25" fill-rule="evenodd" clip-rule="evenodd" d="M35.8958 48.9869L36.9218 46.9349L35.8958 45.9089V48.9869Z" fill="white"/>
<path opacity="0.25" fill-rule="evenodd" clip-rule="evenodd" d="M38.9738 45.9089L36.9218 46.9349L35.8958 45.9089H38.9738Z" fill="#4F2A93"/>
<path opacity="0.5" fill-rule="evenodd" clip-rule="evenodd" d="M35.8958 42.8309L36.9218 44.8829L35.8958 45.9089V42.8309Z" fill="#4F2A93"/>
<path opacity="0.5" fill-rule="evenodd" clip-rule="evenodd" d="M32.8177 45.9089L34.8698 44.8829L35.8958 45.9089H32.8177Z" fill="white"/>
<path opacity="0.5" fill-rule="evenodd" clip-rule="evenodd" d="M35.8958 48.9869L34.8698 46.9349L35.8958 45.9089V48.9869Z" fill="white"/>
<path opacity="0.5" fill-rule="evenodd" clip-rule="evenodd" d="M35.4033 45.4164L34.4594 45.9089L35.4033 46.4014L35.8958 47.3453L36.3883 46.4014L37.3322 45.9089L36.3883 45.4164L35.8958 44.4725L35.4033 45.4164Z" fill="white"/>
</svg>
