<svg width="48" height="20" viewBox="0 0 48 20" fill="none" xmlns="http://www.w3.org/2000/svg">
    <path fill-rule="evenodd" clip-rule="evenodd" d="M48 10.334c0-3.418-1.653-6.115-4.813-6.115-3.174 0-5.094 2.697-5.094 6.088 0 4.019 2.267 6.048 5.52 6.048 1.587 0 2.787-.36 3.694-.868v-2.67c-.907.454-1.947.735-3.267.735-1.293 0-2.44-.454-2.587-2.03h6.52c0-.173.027-.868.027-1.188zm-6.587-1.268c0-1.51.92-2.137 1.76-2.137.813 0 1.68.628 1.68 2.136h-3.44zM32.947 4.22c-1.307 0-2.147.613-2.614 1.04l-.173-.827h-2.933V20l3.333-.707.013-3.779c.48.347 1.187.841 2.36.841 2.387 0 4.56-1.922 4.56-6.155-.013-3.871-2.213-5.98-4.546-5.98zm-.8 9.198c-.787 0-1.254-.28-1.574-.627l-.013-4.954c.347-.387.827-.654 1.587-.654 1.213 0 2.053 1.362 2.053 3.11 0 1.79-.827 3.125-2.053 3.125zM22.64 3.431l3.346-.72V0L22.64.708V3.43z" fill="#635BFF"/>
    <path fill="#635BFF" d="M22.64 4.446h3.347v11.682H22.64z"/>
    <path fill-rule="evenodd" clip-rule="evenodd" d="m19.053 5.434-.213-.988h-2.88v11.682h3.333V8.211c.787-1.028 2.12-.841 2.534-.694V4.446c-.427-.16-1.987-.454-2.774.988zM12.387 1.549l-3.254.694-.013 10.694c0 1.976 1.48 3.431 3.453 3.431 1.094 0 1.894-.2 2.334-.44v-2.71c-.427.173-2.534.787-2.534-1.189V7.29h2.534V4.447h-2.534l.014-2.897zM3.373 7.837c0-.52.427-.72 1.134-.72 1.013 0 2.293.306 3.306.854V4.833a8.783 8.783 0 0 0-3.306-.614C1.8 4.22 0 5.634 0 7.997c0 3.685 5.067 3.098 5.067 4.687 0 .614-.534.814-1.28.814-1.107 0-2.52-.454-3.64-1.068v3.178a9.233 9.233 0 0 0 3.64.76c2.773 0 4.68-1.375 4.68-3.764-.014-3.98-5.094-3.271-5.094-4.767z" fill="#635BFF"/>
</svg>
