<svg xmlns="http://www.w3.org/2000/svg" width="39" height="44" viewBox="0 0 39 44">
    <g fill="none" fill-rule="evenodd">
        <path fill="#24CC8F" d="M2.782 35.927l1.867-8.397 12.887-5.47 7.338 4.49-5.967 16.655z"/>
        <path fill="#FFF" d="M9.147 33.008L6.351 28.98l5.523-2.344zM18.352 29.1l-.955-4.808-5.523 2.344z" opacity=".25"/>
        <path fill="#FFF" d="M9.147 33.008l2.727-6.372 6.478 2.465zM5.097 34.727L6.35 28.98l2.796 4.028z" opacity=".5"/>
        <path fill="#1B996B" d="M22.402 27.382l-5.005-3.09.955 4.809zM5.097 34.727l4.05-1.719 8.627 7.528z" opacity=".35"/>
        <path fill="#FFF" d="M22.402 27.382l-4.05 1.719-.578 11.435z" opacity=".5"/>
        <path fill="#FFF" d="M9.147 33.008l9.205-3.907-.578 11.435z" opacity=".25"/>
        <g>
            <path fill="#24CC8F" d="M23.248 7.266l4.784-3.162 8.714 3.345 1.44 5.55-10.575 5.225z"/>
            <path fill="#FFF" d="M27.653 8.814l.524-3.227 3.734 1.434zM33.876 11.203l1.77-2.749-3.735-1.433z" opacity=".25"/>
            <path fill="#FFF" d="M27.653 8.814L31.91 7.02l1.965 4.182zM24.914 7.763l3.263-2.176-.524 3.227z" opacity=".5"/>
            <path fill="#1B996B" d="M36.615 12.254l-.97-3.8-1.769 2.749zM24.914 7.763l2.739 1.05.65 7.606z" opacity=".35"/>
            <path fill="#FFF" d="M36.615 12.254l-2.739-1.051-5.572 5.216z" opacity=".5"/>
            <path fill="#FFF" d="M27.653 8.814l6.223 2.389-5.572 5.216z" opacity=".25"/>
        </g>
        <g>
            <path fill="#24CC8F" d="M.815 5.996l1.58-4L9.185.301l3.273 2.791-4.25 7.758z"/>
            <path fill="#FFF" d="M4.187 5.052L3.121 2.845l2.911-.726zM9.039 3.843l-.096-2.45-2.91.726z" opacity=".25"/>
            <path fill="#FFF" d="M4.187 5.052L6.032 2.12 9.04 3.843zM2.053 5.585l1.068-2.74 1.066 2.207z" opacity=".5"/>
            <path fill="#1B996B" d="M11.173 3.31l-2.23-1.917.096 2.45zM2.053 5.585l2.134-.533L7.86 9.445z" opacity=".35"/>
            <path fill="#FFF" d="M11.173 3.31l-2.134.533-1.18 5.602z" opacity=".5"/>
            <path fill="#FFF" d="M4.187 5.052l4.852-1.21-1.18 5.603z" opacity=".25"/>
        </g>
    </g>
</svg>
