<svg width="54" height="54" viewBox="0 0 54 54" fill="none" xmlns="http://www.w3.org/2000/svg">
<path fill-rule="evenodd" clip-rule="evenodd" d="M4.89107 26.3989L14.4076 18.6441L33.6795 23.9114L37.9287 35.4286L16.5188 48.8092L4.89107 26.3989Z" fill="#24CC8F"/>
<path opacity="0.25" fill-rule="evenodd" clip-rule="evenodd" d="M14.6023 28.7572L15.0317 21.7734L23.2911 24.0309L14.6023 28.7572Z" fill="white"/>
<path opacity="0.25" fill-rule="evenodd" clip-rule="evenodd" d="M28.368 32.5196L31.5505 26.2883L23.2911 24.0309L28.368 32.5196Z" fill="white"/>
<path opacity="0.5" fill-rule="evenodd" clip-rule="evenodd" d="M14.6023 28.7573L23.2911 24.031L28.368 32.5197L14.6023 28.7573Z" fill="white"/>
<path opacity="0.5" fill-rule="evenodd" clip-rule="evenodd" d="M8.54539 27.1018L15.0317 21.7735L14.6023 28.7572L8.54539 27.1018Z" fill="white"/>
<path opacity="0.35" fill-rule="evenodd" clip-rule="evenodd" d="M34.4249 34.1751L31.5505 26.2883L28.368 32.5196L34.4249 34.1751Z" fill="#1B996B"/>
<path opacity="0.35" fill-rule="evenodd" clip-rule="evenodd" d="M8.54541 27.1018L14.6023 28.7572L17.6099 44.8171L8.54541 27.1018Z" fill="#1B996B"/>
<path opacity="0.5" fill-rule="evenodd" clip-rule="evenodd" d="M34.4249 34.175L28.368 32.5196L17.6099 44.8171L34.4249 34.175Z" fill="white"/>
<path opacity="0.25" fill-rule="evenodd" clip-rule="evenodd" d="M14.6023 28.7573L28.368 32.5197L17.6099 44.8172L14.6023 28.7573Z" fill="white"/>
<path fill-rule="evenodd" clip-rule="evenodd" d="M11.2974 3.46554L14.2627 0.349942L21.1938 1.32978L23.1792 5.14526L16.3285 10.7414L11.2974 3.46554Z" fill="#24CC8F"/>
<path opacity="0.25" fill-rule="evenodd" clip-rule="evenodd" d="M14.7769 3.85639L14.6178 1.41003L17.5882 1.82996L14.7769 3.85639Z" fill="white"/>
<path opacity="0.25" fill-rule="evenodd" clip-rule="evenodd" d="M19.7277 4.55627L20.5587 2.24989L17.5883 1.82996L19.7277 4.55627Z" fill="white"/>
<path opacity="0.5" fill-rule="evenodd" clip-rule="evenodd" d="M14.7769 3.85647L17.5882 1.83004L19.7277 4.55636L14.7769 3.85647Z" fill="white"/>
<path opacity="0.5" fill-rule="evenodd" clip-rule="evenodd" d="M12.5986 3.54849L14.6178 1.41008L14.7769 3.85644L12.5986 3.54849Z" fill="white"/>
<path opacity="0.35" fill-rule="evenodd" clip-rule="evenodd" d="M21.906 4.86425L20.5587 2.24992L19.7277 4.5563L21.906 4.86425Z" fill="#1B996B"/>
<path opacity="0.35" fill-rule="evenodd" clip-rule="evenodd" d="M12.5986 3.54846L14.7769 3.85641L16.5314 9.30565L12.5986 3.54846Z" fill="#1B996B"/>
<path opacity="0.5" fill-rule="evenodd" clip-rule="evenodd" d="M21.906 4.86431L19.7277 4.55636L16.5314 9.30572L21.906 4.86431Z" fill="white"/>
<path opacity="0.25" fill-rule="evenodd" clip-rule="evenodd" d="M14.7769 3.85645L19.7277 4.55633L16.5314 9.30568L14.7769 3.85645Z" fill="white"/>
<path fill-rule="evenodd" clip-rule="evenodd" d="M30.8389 13.9788L33.0633 6.97062L44.4487 3.28717L50.3566 7.66432L44.0181 21.3937L30.8389 13.9788Z" fill="#24CC8F"/>
<path opacity="0.25" fill-rule="evenodd" clip-rule="evenodd" d="M36.4789 11.9744L34.4028 8.33398L39.2822 6.75536L36.4789 11.9744Z" fill="white"/>
<path opacity="0.25" fill-rule="evenodd" clip-rule="evenodd" d="M44.6113 9.3434L44.1617 5.17675L39.2822 6.75537L44.6113 9.3434Z" fill="white"/>
<path opacity="0.5" fill-rule="evenodd" clip-rule="evenodd" d="M36.4789 11.9745L39.2822 6.75541L44.6113 9.34344L36.4789 11.9745Z" fill="white"/>
<path opacity="0.5" fill-rule="evenodd" clip-rule="evenodd" d="M32.9007 13.1321L34.4028 8.33396L36.4789 11.9744L32.9007 13.1321Z" fill="white"/>
<path opacity="0.35" fill-rule="evenodd" clip-rule="evenodd" d="M48.1896 8.18571L44.1617 5.17672L44.6113 9.34337L48.1896 8.18571Z" fill="#1B996B"/>
<path opacity="0.35" fill-rule="evenodd" clip-rule="evenodd" d="M32.9007 13.1321L36.4789 11.9744L43.2551 19.0353L32.9007 13.1321Z" fill="#1B996B"/>
<path opacity="0.5" fill-rule="evenodd" clip-rule="evenodd" d="M48.1896 8.18576L44.6113 9.34342L43.2551 19.0353L48.1896 8.18576Z" fill="white"/>
<path opacity="0.25" fill-rule="evenodd" clip-rule="evenodd" d="M36.4789 11.9745L44.6113 9.34345L43.2551 19.0353L36.4789 11.9745Z" fill="white"/>
</svg>
