<svg xmlns="http://www.w3.org/2000/svg" width="35" height="47" viewBox="0 0 35 47">
    <g fill="none" fill-rule="evenodd">
        <path fill="#A9DCF6" fill-opacity=".8" d="M25.955 43.329l-.999 2.352a.939.939 0 0 1-.644.555c-3.194.747-9.918-2.107-11.6-4.923a.941.941 0 0 1-.047-.85l.998-2.351c.911-2.146 2.886-3.738 5.074-4.257a.957.957 0 0 0 .607-1.429c-1.147-1.934-1.374-4.46-.463-6.606l.998-2.352a.937.937 0 0 1 .643-.555c3.195-.746 9.919 2.108 11.6 4.924a.935.935 0 0 1 .049.848l-.999 2.353c-.91 2.145-2.886 3.737-5.074 4.256a.957.957 0 0 0-.606 1.429c1.146 1.934 1.373 4.46.463 6.606"/>
        <path fill="#FFF" fill-opacity=".9" d="M26.145 25.795c-1.997-.848-3.705-1.145-4.72-1.087l-.788 1.857c-.656 1.547-.524 3.42.347 4.889.466.786.532 1.753.178 2.588a2.881 2.881 0 0 1-1.983 1.669c-1.664.395-3.103 1.6-3.76 3.146l-.788 1.858c.663.77 2.063 1.792 4.06 2.64 1.996.847 3.705 1.144 4.719 1.086l.789-1.858c.656-1.545.523-3.418-.348-4.887a2.883 2.883 0 0 1-.178-2.588 2.886 2.886 0 0 1 1.984-1.67c1.663-.394 3.103-1.6 3.759-3.146l.788-1.857c-.662-.77-2.063-1.793-4.06-2.64"/>
        <path fill="#9A62FF" d="M25.383 27.029c1.497.636 3.026 1.448 2.883 1.825-.112.305-.366.882-1.844.982-1.436.098-2.123 1.1-2.765.828-.746-.317-.521-.966-1.166-1.98-.664-1.043-.444-1.979-.287-2.32.219-.473 1.681.03 3.179.665"/>
        <path fill="#4F2A93" d="M22.491 28.685c-.664-1.044-.444-1.98-.287-2.32.173-.376 1.126-.139 2.26.292-.382.027-.93.194-1.114.902-.19.738.576 1.97.14 2.507a.755.755 0 0 1-.29.223c-.231-.363-.257-.894-.709-1.604"/>
        <path fill="#9A62FF" d="M21.74 36.173c.455.193.22 1.074.662 1.871.543.978.984 2.084.72 3.294-.218.998-.425 1.046-.664 1.021-.238-.024-1.979-.438-3.425-1.454-1.447-1.016-2.062-2.025-1.633-2.608.409-.556 1.079-.893 2.157-1.154 1.032-.25 1.727-1.164 2.182-.97"/>
        <path fill="#4F2A93" d="M22.458 42.36c-.24-.025-1.98-.439-3.425-1.455-1.15-.807-1.774-1.61-1.766-2.2a.138.138 0 0 1 .019-.027c.233-.302 1.651.06 3.193 1.031 1.47.925 2.526 1.988 2.271 2.573-.093.085-.19.088-.292.077"/>
        <g>
            <path fill="#A9DCF6" fill-opacity=".8" d="M12.754 15.163l.61 1.59a.626.626 0 0 1-.052.565c-1.185 1.837-5.732 3.582-7.843 3.01a.627.627 0 0 1-.415-.385l-.61-1.59c-.558-1.45-.348-3.129.461-4.39a.638.638 0 0 0-.37-.967c-1.446-.397-2.725-1.503-3.282-2.954l-.61-1.59a.625.625 0 0 1 .05-.564c1.187-1.837 5.734-3.582 7.844-3.01a.623.623 0 0 1 .416.384l.61 1.59c.557 1.45.347 3.129-.462 4.39a.638.638 0 0 0 .371.967c1.446.397 2.725 1.503 3.282 2.954"/>
            <path fill="#FFF" fill-opacity=".9" d="M4.725 6.666c-1.35.518-2.307 1.167-2.767 1.665l.482 1.255c.402 1.046 1.333 1.883 2.43 2.184a1.922 1.922 0 0 1 1.284 1.159 1.92 1.92 0 0 1-.178 1.719c-.615.96-.747 2.204-.346 3.249l.483 1.256c.674.062 1.82-.096 3.17-.614 1.349-.518 2.306-1.167 2.765-1.664l-.482-1.257c-.401-1.044-1.332-1.881-2.43-2.182a1.922 1.922 0 0 1-1.284-1.16 1.924 1.924 0 0 1 .178-1.72c.615-.958.747-2.203.346-3.248l-.482-1.256c-.674-.062-1.82.096-3.17.614"/>
            <path fill="#9A62FF" d="M4.93 7.61c1.013-.388 2.122-.706 2.229-.46.087.199.233.593-.43 1.325-.643.713-.508 1.512-.942 1.678-.505.194-.698-.222-1.476-.41-.802-.192-1.13-.743-1.212-.979-.115-.328.82-.765 1.832-1.153"/>
            <path fill="#4F2A93" d="M4.31 9.744c-.801-.193-1.129-.743-1.211-.98-.091-.26.476-.587 1.219-.906-.17.19-.357.524-.116.948.25.443 1.188.678 1.228 1.138a.503.503 0 0 1-.036.241c-.28-.067-.537-.31-1.083-.44"/>
            <path fill="#9A62FF" d="M7.418 13.683c.308-.118.603.413 1.185.59.713.218 1.436.544 1.87 1.247.358.58.28.698.154.797-.125.099-1.15.706-2.315.889-1.165.183-1.926-.016-1.991-.495-.061-.455.104-.927.5-1.552.38-.598.289-1.358.597-1.476"/>
            <path fill="#4F2A93" d="M10.628 16.317c-.126.1-1.152.707-2.316.89-.926.144-1.597.048-1.866-.238a.092.092 0 0 1-.004-.022c-.027-.253.82-.736 2.01-.984 1.132-.237 2.132-.217 2.28.182-.006.084-.05.13-.104.172"/>
        </g>
        <g>
            <path fill="#A9DCF6" fill-opacity=".8" d="M32.605 10.804l-.31 1.24a.47.47 0 0 1-.275.324c-1.518.619-5.062-.265-6.113-1.524a.47.47 0 0 1-.09-.416l.31-1.24c.281-1.13 1.132-2.07 2.172-2.498a.479.479 0 0 0 .188-.753c-.718-.866-1.027-2.096-.745-3.226l.309-1.24a.469.469 0 0 1 .274-.324c1.519-.619 5.063.265 6.113 1.524.097.114.127.27.09.415l-.308 1.24c-.282 1.13-1.133 2.071-2.173 2.498a.479.479 0 0 0-.188.754c.718.865 1.027 2.095.746 3.226"/>
            <path fill="#FFF" fill-opacity=".9" d="M31.327 2.13c-1.052-.262-1.92-.276-2.416-.168l-.244.98c-.203.814.009 1.729.554 2.386.292.352.4.824.29 1.264a1.44 1.44 0 0 1-.849.98 2.762 2.762 0 0 0-1.61 1.847l-.244.98c.387.328 1.16.723 2.211.986 1.052.262 1.92.275 2.416.167l.244-.98a2.761 2.761 0 0 0-.554-2.385 1.442 1.442 0 0 1-.29-1.265c.11-.44.427-.806.849-.98a2.76 2.76 0 0 0 1.61-1.847l.244-.979c-.387-.328-1.159-.724-2.211-.986"/>
            <path fill="#9A62FF" d="M31.047 2.799c.79.197 1.608.478 1.567.676-.032.159-.112.464-.834.629-.701.16-.962.71-1.3.625-.394-.098-.334-.436-.731-.886-.41-.464-.375-.943-.324-1.124.071-.25.833-.117 1.622.08"/>
            <path fill="#4F2A93" d="M29.749 3.843c-.41-.464-.375-.943-.324-1.124.056-.198.546-.156 1.139-.032-.186.044-.444.169-.48.533-.036.38.44.927.266 1.227a.378.378 0 0 1-.126.133c-.143-.161-.197-.422-.475-.737"/>
            <path fill="#9A62FF" d="M29.963 7.6c.24.06.193.513.474.872.344.44.648.952.613 1.57-.03.51-.128.55-.248.556-.12.007-1.012-.061-1.805-.45-.794-.388-1.177-.838-1.01-1.16.158-.306.462-.525.974-.739.49-.204.762-.71 1.002-.65"/>
            <path fill="#4F2A93" d="M30.802 10.599c-.12.006-1.012-.062-1.806-.45-.63-.31-1.002-.657-1.043-.949a.069.069 0 0 1 .007-.015c.091-.167.82-.1 1.657.26.798.341 1.403.784 1.323 1.092-.04.05-.087.059-.138.062"/>
        </g>
    </g>
</svg>
