<svg width="39" height="54" viewBox="0 0 39 54" fill="none" xmlns="http://www.w3.org/2000/svg">
<path fill-rule="evenodd" clip-rule="evenodd" d="M29.2715 47.841L27.8997 51.0729C27.7389 51.4515 27.4157 51.7423 27.014 51.8357C22.6266 52.8619 13.3878 48.9402 11.0765 45.0707C10.8663 44.7175 10.8509 44.283 11.0117 43.9044L12.3835 40.6724C13.6347 37.7249 16.3485 35.5378 19.3549 34.8248C20.2332 34.6169 20.6488 33.6376 20.1883 32.8614C18.6128 30.2035 18.3009 26.732 19.552 23.7844L20.9239 20.5525C21.0846 20.1739 21.4079 19.8832 21.8073 19.7906C26.1963 18.7652 35.4351 22.6868 37.7447 26.5557C37.9572 26.9079 37.9726 27.3425 37.8119 27.7211L36.4401 30.953C35.1889 33.9005 32.475 36.0876 29.4687 36.8006C28.5904 37.0086 28.1747 37.9879 28.6352 38.7641C30.2107 41.4219 30.5227 44.8934 29.2715 47.841Z" fill="#A9DCF6" fill-opacity="0.8"/>
<path fill-rule="evenodd" clip-rule="evenodd" d="M29.5322 23.7497C26.7892 22.5854 24.4416 22.1772 23.0484 22.257L21.9654 24.8083C21.0635 26.9331 21.2456 29.5067 22.4422 31.5248C23.0826 32.6056 23.1732 33.9336 22.6863 35.0807C22.1994 36.2277 21.1812 37.0852 19.9611 37.3743C17.6759 37.9164 15.6981 39.5731 14.7969 41.6963L13.7132 44.2492C14.6236 45.3069 16.548 46.712 19.2911 47.8764C22.0341 49.0407 24.3817 49.4489 25.7749 49.3691L26.8586 46.8162C27.7598 44.693 27.5777 42.1194 26.3811 40.1013C25.7407 39.0206 25.6501 37.6925 26.137 36.5454C26.6239 35.3984 27.6421 34.541 28.8628 34.2503C31.1474 33.7098 33.1252 32.053 34.0271 29.9282L35.1101 27.3769C34.1996 26.3192 32.2753 24.9141 29.5322 23.7497Z" fill="white" fill-opacity="0.9"/>
<path fill-rule="evenodd" clip-rule="evenodd" d="M28.4856 25.4452C30.5433 26.3187 32.6433 27.4344 32.4477 27.9529C32.2926 28.3716 31.9446 29.1647 29.9141 29.3021C27.9411 29.4375 26.9965 30.8145 26.1146 30.4401C25.089 30.0048 25.3981 29.1122 24.5127 27.7201C23.5998 26.2862 23.9023 25.0005 24.1181 24.5322C24.4189 23.8812 26.4279 24.5718 28.4856 25.4452Z" fill="#9A62FF"/>
<path fill-rule="evenodd" clip-rule="evenodd" d="M24.5124 27.7203C23.5995 26.2864 23.902 25.0008 24.1178 24.5324C24.3555 24.0168 25.6652 24.3427 27.2224 24.9339C26.699 24.9719 25.9442 25.2001 25.693 26.1739C25.4303 27.188 26.4845 28.8798 25.8843 29.6187C25.7681 29.7636 25.6326 29.8607 25.4865 29.925C25.1685 29.4261 25.1331 28.6965 24.5124 27.7203Z" fill="#4F2A93"/>
<path fill-rule="evenodd" clip-rule="evenodd" d="M23.4797 38.0086C24.1059 38.2744 23.7824 39.4852 24.3904 40.5804C25.1366 41.9228 25.7414 43.4428 25.3785 45.1063C25.0797 46.4765 24.7953 46.5424 24.4665 46.5084C24.1394 46.4752 21.7484 45.9071 19.7617 44.5113C17.7733 43.1149 16.9287 41.7288 17.518 40.9269C18.0793 40.164 19 39.7007 20.4816 39.3417C21.8998 38.999 22.8534 37.7428 23.4797 38.0086Z" fill="#9A62FF"/>
<path fill-rule="evenodd" clip-rule="evenodd" d="M24.467 46.509C24.1383 46.4751 21.7473 45.907 19.7605 44.5113C18.1804 43.4012 17.3231 42.2982 17.3349 41.4887C17.3426 41.475 17.3503 41.4613 17.3605 41.4506C17.6815 41.0363 19.6294 41.5332 21.7477 42.8679C23.7671 44.138 25.2191 45.599 24.8686 46.4024C24.7398 46.5193 24.6079 46.5236 24.467 46.509Z" fill="#4F2A93"/>
<path fill-rule="evenodd" clip-rule="evenodd" d="M12.8803 22.4748L13.0712 24.6344C13.0936 24.8874 13.0019 25.1397 12.8101 25.3073C10.7172 27.1406 4.54355 27.6865 2.16031 26.249C1.9432 26.1175 1.80861 25.8852 1.78624 25.6322L1.59529 23.4726C1.42114 21.5029 2.26494 19.5229 3.69621 18.2613C4.11444 17.893 4.05658 17.2386 3.5802 16.9493C1.94977 15.9584 0.771638 14.1572 0.597488 12.1876L0.406536 10.0279C0.384166 9.77492 0.475899 9.52258 0.666679 9.35616C2.76071 7.52275 8.93431 6.97689 11.3165 8.41452C11.5346 8.54479 11.6692 8.77712 11.6915 9.03012L11.8825 11.1898C12.0566 13.1594 11.2128 15.1394 9.78156 16.401C9.36333 16.7693 9.42119 17.4238 9.89756 17.713C11.528 18.7039 12.7061 20.5051 12.8803 22.4748Z" fill="#A9DCF6" fill-opacity="0.8"/>
<path fill-rule="evenodd" clip-rule="evenodd" d="M6.02615 9.27039C4.19318 9.43245 2.79533 9.89173 2.05923 10.3398L2.20997 12.0447C2.33551 13.4645 3.18214 14.8141 4.4203 15.5665C5.08317 15.9694 5.51817 16.6668 5.58595 17.4333C5.65372 18.1998 5.34784 18.9628 4.76693 19.4746C3.67901 20.4337 3.08233 21.9109 3.20777 23.3297L3.35861 25.0356C4.16191 25.3476 5.61866 25.5545 7.45163 25.3924C9.2846 25.2303 10.6825 24.7711 11.4186 24.323L11.2677 22.617C11.1423 21.1983 10.2956 19.8487 9.05748 19.0963C8.39461 18.6934 7.95961 17.996 7.89184 17.2295C7.82406 16.463 8.12994 15.7 8.71076 15.1871C9.79877 14.2291 10.3955 12.7519 10.2699 11.332L10.1192 9.62718C9.31587 9.31519 7.85912 9.10832 6.02615 9.27039Z" fill="white" fill-opacity="0.9"/>
<path fill-rule="evenodd" clip-rule="evenodd" d="M5.94818 10.4983C7.32318 10.3767 8.7916 10.3749 8.83559 10.7142C8.87266 10.9875 8.91336 11.5207 7.84673 12.1853C6.81082 12.832 6.69593 13.8567 6.10664 13.9088C5.42128 13.9694 5.33053 13.3933 4.44377 12.8918C3.52987 12.3754 3.32137 11.587 3.30294 11.2691C3.27784 10.8269 4.57319 10.6199 5.94818 10.4983Z" fill="#9A62FF"/>
<path fill-rule="evenodd" clip-rule="evenodd" d="M4.44368 12.892C3.52978 12.3757 3.32128 11.5872 3.30285 11.2693C3.28266 10.9193 4.09102 10.7165 5.1113 10.5865C4.83716 10.7592 4.49205 11.1028 4.63795 11.7064C4.78931 12.3353 5.8551 12.9512 5.74257 13.5281C5.72134 13.6408 5.6757 13.7331 5.61477 13.8105C5.29657 13.631 5.06544 13.2437 4.44368 12.892Z" fill="#4F2A93"/>
<path fill-rule="evenodd" clip-rule="evenodd" d="M6.86862 18.7985C7.2871 18.7615 7.46241 19.5152 8.11175 19.9355C8.90824 20.4504 9.67927 21.103 9.96455 22.115C10.1996 22.9484 10.0638 23.067 9.87478 23.1439C9.68684 23.2208 8.21892 23.6056 6.73087 23.4219C5.24175 23.2383 4.37897 22.7283 4.46722 22.1201C4.55161 21.5413 4.91878 21.0215 5.62194 20.3956C6.29524 19.797 6.45015 18.8355 6.86862 18.7985Z" fill="#9A62FF"/>
<path fill-rule="evenodd" clip-rule="evenodd" d="M9.87521 23.1441C9.68621 23.2211 8.21829 23.6059 6.73023 23.4222C5.54676 23.2762 4.75927 22.924 4.53061 22.4795C4.53083 22.4698 4.53104 22.4601 4.53349 22.4512C4.58813 22.1323 5.79395 21.8374 7.33593 21.9495C8.80526 22.0553 10.0208 22.4298 10.0631 22.9694C10.0269 23.0705 9.95622 23.1111 9.87521 23.1441Z" fill="#4F2A93"/>
<path fill-rule="evenodd" clip-rule="evenodd" d="M33.9597 9.01912L34.5713 10.2909C34.6429 10.4399 34.6449 10.6147 34.5665 10.7608C33.7119 12.3575 30.0762 14.1058 28.2947 13.7765C28.1323 13.7463 27.9971 13.6356 27.9254 13.4866L27.3139 12.2148C26.7561 11.0549 26.8161 9.65517 27.3987 8.5584C27.569 8.2381 27.3837 7.85272 27.0272 7.78575C25.8067 7.55599 24.676 6.72887 24.1182 5.56895L23.5066 4.29712C23.435 4.14812 23.433 3.97336 23.5111 3.82823C24.3663 2.23116 28.002 0.48293 29.7828 0.812446C29.9456 0.841791 30.0808 0.952458 30.1525 1.10146L30.764 2.37329C31.3218 3.53321 31.2618 4.93289 30.6792 6.02966C30.5089 6.34996 30.6942 6.73535 31.0507 6.80232C32.2712 7.03207 33.4019 7.85919 33.9597 9.01912Z" fill="#A9DCF6" fill-opacity="0.8"/>
<path fill-rule="evenodd" clip-rule="evenodd" d="M26.7563 2.54696C25.6769 3.06602 24.9306 3.66635 24.585 4.10812L25.0678 5.11213C25.4698 5.94828 26.2951 6.5763 27.2218 6.75067C27.7181 6.84413 28.143 7.16925 28.36 7.62065C28.5771 8.07205 28.5657 8.60697 28.3292 9.05198C27.8864 9.8857 27.8617 10.9224 28.2634 11.758L28.7465 12.7626C29.3074 12.7685 30.2423 12.5604 31.3217 12.0414C32.4012 11.5223 33.1474 10.922 33.4931 10.4802L33.01 9.47556C32.6082 8.64004 31.783 8.01202 30.8562 7.83765C30.36 7.74419 29.9351 7.41907 29.718 6.96767C29.5009 6.51628 29.5123 5.98136 29.7485 5.53571C30.1917 4.70262 30.2164 3.66588 29.8143 2.82973L29.3315 1.82572C28.7706 1.81987 27.8358 2.0279 26.7563 2.54696Z" fill="white" fill-opacity="0.9"/>
<path fill-rule="evenodd" clip-rule="evenodd" d="M26.9904 3.31291C27.8001 2.92355 28.6943 2.58571 28.7989 2.78233C28.8841 2.94028 29.0312 3.25581 28.5338 3.90522C28.051 4.53676 28.216 5.18735 27.869 5.35422C27.4654 5.5483 27.278 5.21811 26.6228 5.11596C25.9476 5.011 25.6398 4.57848 25.5557 4.38904C25.439 4.12546 26.1806 3.70228 26.9904 3.31291Z" fill="#9A62FF"/>
<path fill-rule="evenodd" clip-rule="evenodd" d="M26.6228 5.11609C25.9476 5.01113 25.6398 4.57861 25.5557 4.38917C25.4631 4.18057 25.9091 3.8717 26.5008 3.55853C26.3734 3.72661 26.242 4.01506 26.4692 4.3493C26.7057 4.69772 27.4962 4.82848 27.5599 5.20575C27.5728 5.27927 27.5662 5.34594 27.5468 5.40711C27.3118 5.37072 27.0822 5.18777 26.6228 5.11609Z" fill="#4F2A93"/>
<path fill-rule="evenodd" clip-rule="evenodd" d="M29.4545 8.15813C29.7009 8.03962 29.9806 8.4586 30.4725 8.56572C31.0758 8.69672 31.6951 8.91751 32.101 9.46854C32.4353 9.92237 32.3797 10.0257 32.2823 10.116C32.1854 10.2059 31.3794 10.7769 30.4308 11.0062C29.4815 11.2359 28.839 11.123 28.7533 10.7323C28.672 10.3604 28.7764 9.9595 29.0613 9.41694C29.3342 8.89791 29.208 8.27663 29.4545 8.15813Z" fill="#9A62FF"/>
<path fill-rule="evenodd" clip-rule="evenodd" d="M32.2826 10.1159C32.1851 10.2062 31.3791 10.7772 30.4305 11.0065C29.676 11.1889 29.1155 11.155 28.8743 10.9366C28.8722 10.9307 28.8701 10.9247 28.8696 10.9188C28.8297 10.7119 29.4967 10.2558 30.4617 9.97051C31.3811 9.69797 32.2074 9.64738 32.3569 9.96638C32.3581 10.0363 32.3243 10.0773 32.2826 10.1159Z" fill="#4F2A93"/>
</svg>
