<svg xmlns="http://www.w3.org/2000/svg" xmlns:xlink="http://www.w3.org/1999/xlink" width="16" height="16" viewBox="0 0 16 16">
    <defs>
        <path id="a" d="M10.464 2.917L8.2 5.197v2.02l2.264-2.173V2.917z"/>
    </defs>
    <g fill="none" fill-rule="evenodd" transform="matrix(-1 0 0 1 16 .32)">
        <path fill="#F06166" d="M6.13 9.204l2.111.934c.176.078.29.235.333.415.073.304.295 1.01.313 1.386.01.21-.214.356-.414.27l-3.529-1.623a.582.582 0 0 1-.254-.244L3 6.955c-.09-.192.063-.407.281-.397.391.017 1.112.218 1.444.3.186.045.351.15.432.319l.973 2.027z"/>
        <path fill="#878190" d="M1.024 14.107l.91.875 2.363-.179.121-1.49 1.356-1.3 2.467 1.126 1.846-.477-.774-3.196 5.171-4.633.99-4.596h-.002V.235l-4.786.95L5.86 6.15l-3.33-.743-.497 1.77 1.174 2.37-1.355 1.3-1.552.118-.186 2.267.91.875z"/>
        <path fill="#F06166" d="M2.976 13.366l-1.182-1.134 2.923-2.805 1.18 1.134z"/>
        <path fill="#F06166" d="M1.126 12.874l.085-1.035 1.078-.082 1.182 1.135-.085 1.035-1.078.082z"/>
        <path fill="#FFF" d="M11.312 2.088l.1 2.046 2.702-2.595c-.05-.045-2.086.18-2.802.55"/>
        <path fill="#EDECEE" d="M11.262 2.113L5.553 7.862l1.463.492 4.396-4.22-.1-2.046-.05.025M5.553 7.862l-.05.052.622 1.294.89-.854-1.462-.492z"/>
        <path fill="#EDECEE" d="M13.541 4.23l-2.13-.096 2.703-2.594c.046.048-.189 2.003-.573 2.69"/>
        <path fill="#E1E0E3" d="M13.516 4.278l-5.989 5.48-.512-1.404 4.396-4.22 2.13.096-.025.048M7.527 9.758l-.054.048-1.348-.597.89-.854.512 1.403z"/>
        <path fill="#D5C8FF" d="M2.289 11.757l-.25.878-.829-.796zM3.469 12.89l-.914.24.828.795z"/>
        <path fill="#BDA8FF" d="M2.289 11.757l1.182 1.135-.916.237-.516-.494z"/>
        <path fill="#BDA8FF" d="M1.127 12.876l.914-.24-.828-.796zM2.307 14.008l.25-.877.829.796z"/>
        <path fill="#D5C8FF" d="M1.127 12.876L2.31 14.01l.247-.88-.516-.495z"/>
        <path fill="#B36213" d="M4.9 11.523l-1.184-1.137.715-.685 1.184 1.136z"/>
        <path fill="#E38F3D" d="M4.187 12.208l-1.184-1.136.714-.685L4.9 11.523z"/>
        <path fill="#B36213" d="M3.473 12.894l-1.184-1.137.714-.685 1.184 1.136z"/>
        <path fill="#C3C0C7" d="M6.132 9.205l-.974-2.027a.526.526 0 0 0-.153-.185.718.718 0 0 0-.279-.135c-.331-.08-1.052-.282-1.443-.3a.295.295 0 0 0-.242.108L4.46 7.829 5.503 9.81l.63-.605h-.001z"/>
        <path fill="#A5A1AC" d="M4.46 7.829L3.04 6.666a.27.27 0 0 0-.039.29l1.69 3.387c.029.053.066.1.11.142l.702-.675L4.46 7.83z"/>
        <path fill="#C3C0C7" d="M8.891 11.94c-.018-.375-.228-1.068-.312-1.385a.668.668 0 0 0-.14-.268.54.54 0 0 0-.193-.147l-2.111-.935v-.002l-.631.606 2.064 1.001 1.211 1.363a.275.275 0 0 0 .112-.233"/>
        <path fill="#A5A1AC" d="M7.568 10.81l1.211 1.363a.3.3 0 0 1-.301.037l-3.53-1.622a.588.588 0 0 1-.147-.105l.703-.674 2.064 1.001z"/>
        <mask id="b" fill="#fff">
            <use xlink:href="#a"/>
        </mask>
        <path fill="#FFF" d="M9.824 7.45h.329V1.865h-.329zM8.2 8.862h.974V3.277H8.2z" mask="url(#b)"/>
    </g>
</svg>
