<svg xmlns="http://www.w3.org/2000/svg" width="24" height="24" viewBox="0 0 24 24">
    <path fill-rule="evenodd" d="M20.043 1a1 1 0 0 1 1.002 1v5h-5.011a1 1 0 0 1 0-2h1.607a8.998 8.998 0 0 0-1.502-1 8.971 8.971 0 0 0-4.114-1c-5.06 0-9.16 4.179-9.017 9.26.133 4.692 4.053 8.603 8.756 8.736 4.794.136 8.787-3.482 9.24-8.119a.986.986 0 0 1 .988-.877c.594 0 1.062.513 1.003 1.102C22.44 18.652 17.731 23 12.025 23 5.272 23-.083 16.91 1.188 9.946 1.983 5.585 5.47 2.067 9.83 1.215c3.044-.595 5.918.083 8.21 1.577.352.23.68.493 1.002.76V2a1 1 0 0 1 1.002-1z"/>
</svg>
