<svg xmlns="http://www.w3.org/2000/svg" viewBox="0 0 24 24">
  <path d="M20,0H4A4,4,0,0,0,0,4V20a4,4,0,0,0,4,4H20a4,4,0,0,0,4-4V4A4,4,0,0,0,20,0ZM16.68,19a4.47,4.47,0,0,1-3,1C9.86,20,9,17.22,9,15.61v-4.5H7.56a.31.31,0,0,1-.31-.32V8.67a.52.52,0,0,1,.35-.5,4,4,0,0,0,2.63-3.66c0-.34.21-.51.51-.51H13a.31.31,0,0,1,.32.31v3.6h2.59a.31.31,0,0,1,.31.31v2.55a.31.31,0,0,1-.31.32H13.25v4.16c0,1.07.74,1.67,2.13,1.12a.67.67,0,0,1,.4-.07.36.36,0,0,1,.23.25l.68,2C16.75,18.71,16.8,18.89,16.68,19Z" fill-rule="evenodd"/>
</svg>
