<svg width="24" height="24" viewBox="0 0 24 24" xmlns="http://www.w3.org/2000/svg">
    <path d="M20 0a4 4 0 0 1 4 4v16a4 4 0 0 1-4 4H4a4 4 0 0 1-4-4V4a4 4 0 0 1 4-4h16zm-7.294 4h-2.215c-.3 0-.478.166-.504.51-.087 1.284-.696 2.978-2.634 3.659a.529.529 0 0 0-.353.5v2.125c0 .172.14.312.313.312h1.484v4.5c0 1.619.819 4.394 4.594 4.394 1.48 0 2.618-.537 3.043-.99.116-.123.07-.297.013-.454l-.688-2.01c-.05-.14-.121-.218-.23-.246-.117-.031-.248.01-.398.069-1.384.556-2.125-.05-2.125-1.119v-4.162h2.606c.172 0 .313-.141.313-.313V8.222a.31.31 0 0 0-.313-.31H13.02v-3.6A.313.313 0 0 0 12.706 4z" fill="#878190" fill-rule="evenodd"/>
</svg>
