<svg xmlns="http://www.w3.org/2000/svg" viewBox="0 0 24 24">
  <path d="M20,0H4A4,4,0,0,0,0,4V20a4,4,0,0,0,4,4H20a4,4,0,0,0,4-4V4A4,4,0,0,0,20,0ZM18.36,8.74c0,.14,0,.29,0,.43A9.34,9.34,0,0,1,4,17a6.85,6.85,0,0,0,.79,0,6.57,6.57,0,0,0,4.07-1.4A3.29,3.29,0,0,1,5.8,13.39a4.1,4.1,0,0,0,.62,0,3.49,3.49,0,0,0,.86-.11,3.28,3.28,0,0,1-2.63-3.22v0a3.35,3.35,0,0,0,1.48.42A3.29,3.29,0,0,1,4.67,7.76,3.22,3.22,0,0,1,5.12,6.1a9.3,9.3,0,0,0,6.76,3.43,3.67,3.67,0,0,1-.08-.75,3.28,3.28,0,0,1,5.67-2.24,6.54,6.54,0,0,0,2.08-.79,3.22,3.22,0,0,1-1.44,1.8A6.67,6.67,0,0,0,20,7.05,7.31,7.31,0,0,1,18.36,8.74Z" fill-rule="evenodd"/>
</svg>
