<?xml version="1.0" standalone="no"?>
<!DOCTYPE svg PUBLIC "-//W3C//DTD SVG 20010904//EN"
 "http://www.w3.org/TR/2001/REC-SVG-20010904/DTD/svg10.dtd">
<svg version="1.0" xmlns="http://www.w3.org/2000/svg"
 width="75.000000pt" height="75.000000pt" viewBox="0 0 75.000000 75.000000"
 preserveAspectRatio="xMidYMid meet">

<g transform="translate(0.000000,75.000000) scale(0.100000,-0.100000)"
fill="#000000" stroke="none">
<path d="M63 730 c-61 -37 -63 -50 -63 -357 0 -397 -24 -373 375 -373 305 0
318 2 355 63 19 30 20 52 20 312 0 400 25 375 -377 375 -258 0 -280 -1 -310
-20z m288 -215 c28 -41 55 -75 59 -75 4 0 35 34 70 75 38 45 70 75 82 75 15 0
2 -20 -53 -82 -39 -46 -73 -88 -76 -95 -3 -7 32 -64 76 -128 45 -64 81 -118
81 -120 0 -3 -27 -5 -59 -5 l-60 0 -53 77 c-29 42 -57 78 -63 79 -5 2 -39 -33
-75 -76 -36 -43 -73 -79 -83 -79 -23 -1 -22 0 68 105 l74 87 -73 106 c-40 58
-76 112 -80 119 -5 9 8 12 53 12 l60 0 52 -75z"/>
<path d="M301 458 c39 -57 96 -140 127 -185 47 -72 59 -83 84 -83 28 0 28 0
-53 117 -45 65 -102 148 -127 186 -38 56 -49 67 -73 67 l-29 0 71 -102z"/>
</g>
</svg>
