<svg width="24" height="24" viewBox="0 0 24 24" xmlns="http://www.w3.org/2000/svg">
    <path id="Path" fill="#000000" stroke="#ffffff" stroke-width="0.028037" d="M 21.199627 24.010376 L 2.795888 24.010376 C 1.250467 24.010376 -0.002243 22.757664 -0.002243 21.212242 L -0.002243 2.808504 C -0.002243 1.263084 1.250467 0.010374 2.795888 0.010374 L 21.199345 0.010374 C 22.744766 0.010374 23.997478 1.263084 23.997478 2.808504 L 23.997478 21.211962 C 23.997759 22.757664 22.745047 24.010376 21.199627 24.010376 Z"/>
    <g id="layer1">
        <path id="path1009" fill="#ffffff" stroke="none" d="M 3.684676 4.191628 L 10.135235 12.816769 L 3.644021 19.829197 L 5.105049 19.829197 L 10.788227 13.689572 L 15.379908 19.829197 L 20.3515 19.829197 L 13.537853 10.719011 L 19.579908 4.191628 L 18.118881 4.191628 L 12.885142 9.845926 L 8.656263 4.191628 L 3.684676 4.191628 Z M 5.833179 5.267984 L 8.117105 5.267984 L 18.202713 18.753124 L 15.918787 18.753124 L 5.833179 5.267984 Z"/>
    </g>
</svg>
