<svg width="24" height="24" viewBox="0 0 24 24" xmlns="http://www.w3.org/2000/svg">
    <path d="M20 0a4 4 0 0 1 4 4v16a4 4 0 0 1-4 4H4a4 4 0 0 1-4-4V4a4 4 0 0 1 4-4h16zm-4.924 6a3.278 3.278 0 0 0-3.28 3.28c0 .253.031.507.082.75A9.321 9.321 0 0 1 5.117 6.6a3.255 3.255 0 0 0-.447 1.655c0 1.137.579 2.142 1.462 2.73a3.302 3.302 0 0 1-1.482-.415v.04a3.28 3.28 0 0 0 2.63 3.218 3.468 3.468 0 0 1-.864.112c-.213 0-.416-.02-.62-.05a3.285 3.285 0 0 0 3.067 2.273 6.567 6.567 0 0 1-4.071 1.401c-.274 0-.528-.01-.792-.04a9.267 9.267 0 0 0 5.036 1.472c6.03 0 9.33-4.995 9.33-9.33 0-.142 0-.284-.01-.426A7.05 7.05 0 0 0 20 7.543a6.574 6.574 0 0 1-1.888.508 3.27 3.27 0 0 0 1.441-1.807c-.63.375-1.34.65-2.08.792A3.271 3.271 0 0 0 15.075 6z" fill="#878190" fill-rule="evenodd"/>
</svg>
