<svg xmlns="http://www.w3.org/2000/svg" xmlns:xlink="http://www.w3.org/1999/xlink" width="16" height="16" viewBox="0 0 16 16">
    <defs>
        <path id="rt3mruthma" d="M11.2 13.2c0-1.231-.467-2.35-1.23-3.2h1.23c1.765 0 3.2 1.435 3.2 3.2h-3.2zm-9.6 0c0-1.765 1.435-3.2 3.2-3.2h1.6c1.765 0 3.2 1.435 3.2 3.2h-8zm4-9.6C6.926 3.6 8 4.674 8 6c0 1.326-1.074 2.4-2.4 2.4-1.326 0-2.4-1.074-2.4-2.4 0-1.326 1.074-2.4 2.4-2.4zm3.452.415C9.436 3.754 9.9 3.6 10.4 3.6c1.326 0 2.4 1.074 2.4 2.4 0 1.326-1.074 2.4-2.4 2.4-.5 0-.964-.154-1.348-.415.34-.587.548-1.26.548-1.985 0-.726-.209-1.398-.548-1.985zm4.154 4.829C13.942 8.118 14.4 7.112 14.4 6c0-2.206-1.794-4-4-4-.904 0-1.73.313-2.4.82C7.33 2.314 6.504 2 5.6 2c-2.206 0-4 1.794-4 4 0 1.112.458 2.118 1.194 2.844C1.146 9.604 0 11.266 0 13.2c0 .884.716 1.6 1.6 1.6h12.8c.884 0 1.6-.716 1.6-1.6 0-1.934-1.146-3.596-2.794-4.356z"/>
    </defs>
    <g fill="none" fill-rule="evenodd">
        <g>
            <g>
                <g transform="translate(-1228 -1456) translate(1216 1416) translate(12 40)">
                    <mask id="6szqyv7o1b" fill="#fff">
                        <use xlink:href="#rt3mruthma"/>
                    </mask>
                    <use fill="#878190" xlink:href="#rt3mruthma"/>
                    <g fill="#878190" mask="url(#6szqyv7o1b)">
                        <path d="M0 0H16V16H0z"/>
                    </g>
                </g>
            </g>
        </g>
    </g>
</svg>
