<svg xmlns="http://www.w3.org/2000/svg" viewBox="0 0 16 12.8"><path d="M11.2,12.8A4.79,4.79,0,0,0,10,9.6H11.2a3.21,3.21,0,0,1,3.2,3.2Zm-9.6,0A3.21,3.21,0,0,1,4.8,9.6H6.4a3.21,3.21,0,0,1,3.2,3.2Zm4-9.6A2.4,2.4,0,1,1,3.2,5.6,2.39,2.39,0,0,1,5.6,3.2Zm3.45.42A2.35,2.35,0,0,1,10.4,3.2a2.4,2.4,0,1,1,0,4.8,2.35,2.35,0,0,1-1.35-.42,3.84,3.84,0,0,0,0-4Zm4.16,4.82A4,4,0,0,0,8,2.42,4,4,0,0,0,5.6,1.6,4,4,0,0,0,2.79,8.44,4.82,4.82,0,0,0,0,12.8a1.6,1.6,0,0,0,1.6,1.6H14.4A1.6,1.6,0,0,0,16,12.8a4.82,4.82,0,0,0-2.79-4.36Z" transform="translate(0 -1.6)" fill-rule="evenodd"/></svg>