<svg xmlns="http://www.w3.org/2000/svg" xmlns:xlink="http://www.w3.org/1999/xlink" width="444" height="528" viewBox="0 0 444 528">
    <defs>
        <linearGradient id="b" x1="100%" x2="0%" y1="100%" y2="0%">
            <stop offset="0%" stop-color="#4F2A93"/>
            <stop offset="100%" stop-color="#6133B4"/>
        </linearGradient>
        <rect id="a" width="216" height="384" rx="2"/>
        <path id="c" d="M236.147 458.522c0 .69-.558 1.249-1.246 1.249H13.769a1.247 1.247 0 0 1-1.246-1.25V63.268c0-.69.557-1.249 1.246-1.249H234.9c.688 0 1.246.56 1.246 1.25v395.254z"/>
    </defs>
    <g fill="none" fill-rule="evenodd">
        <g transform="translate(196 24)">
            <rect width="243.6" height="480" fill="#D5C8FF" stroke="#9A62FF" stroke-width="8" rx="16"/>
            <path fill="#9A62FF" d="M166.8 24a4.805 4.805 0 0 0-4.8 4.8c0 2.647 2.153 4.8 4.8 4.8s4.8-2.153 4.8-4.8-2.153-4.8-4.8-4.8m0 2.743a2.057 2.057 0 1 1 0 4.114 2.057 2.057 0 0 1 0-4.114"/>
            <rect width="218.4" height="386.4" x="12.6" y="46.8" fill="#4F2A93" rx="2"/>
            <rect width="42" height="4.8" x="100.8" y="14.4" fill="#9A62FF" rx="2.4"/>
            <rect width="18" height="8.4" x="72" y="24.6" fill="#9A62FF" rx="4.2"/>
            <rect width="42" height="4.8" x="100.8" y="460.8" fill="#9A62FF" rx="2.4"/>
        </g>
        <use fill="url(#b)" transform="translate(209.8 72)" xlink:href="#a"/>
        <g fill="#FFF">
            <path d="M347.027 292.118c1.58 2.1 1.695 3.312.125 3.312h-10.15c-3.058 0-3.692.362-3.644-.965.066-1.85.663-1.923 2.607-2.465 1.612-.451 1.033-3.32-.795-5.829-1.272-1.747-3.855-3.78-7.249-2.2-2.203 1.027-3.5 2.076-4.519 3.489-1.667 2.313-1.577 4.504 1.019 4.504 2.453 0 5.342-1.486 6.18.63 1.037 2.623.325 2.866-.182 2.866H314.15l.012.015c-8.715 0-17.42-.069-19.44-5.576-2.794-7.62 7.372-10.556 7.684-15.337.126-1.935-.961-2.83-2.318-2.83h-5.965v-3.626h-3.625V257.233h3.625v3.625h3.624v3.624h3.624v5.034s3.153 1.564 3.046 5.008c-.17 5.47-9.422 8.5-7.727 14.233 1.55 5.246 13.26 3.99 12.85.735l-.204-1.854c-.057-2.597-.462-6.071.08-9.147.853-4.836 3.861-9.02 9.102-9.058.955-.007 1.764-.203 1.764-1.006 0-.848-1.536-.828-2.617-.937-3.74-.381-8.394-1.634-12.46-4.979-2.408-1.98-6.158-8.227-3.706-7.77 1.514.284 2.849.4 4.023.396 1.23-.003 4.406-.348 4.406-1.1 0-1.04-1.836-.413-4.53-.677-3.22-.314-10.046-1.694-13.568-12.082-1.32-3.892-2.191-11.175-.048-8.818 12.357 13.59 16.555 11.377 23.642 16.024 3.12 2.045 5.15 6.93 6.969 6.523 1.185-.267.46-1.356.636-3.897.159-2.27 1.238-2.763-1.538-3.449-3.235-.799-6.464-4.345-4.353-4.295 2.11.051 3.637.045 5.487-.756 1.85-.8 6.372-4.244 9.108-2.865 2.735 1.38 5.035-.6 6.885-.25 2.686.51 3.378 4.207 3.03 6.37-.22 1.37-.22 1.368-1.97 1.267-3.585-.211-4.497 2.645-1.976 4.219 3.837 2.397 5.468 4.194 6.51 9.504.508 2.576.096 3.176-.758 2.702-.853-.474-2.322-.71-.284 3.983 2.038 4.693-1.28 10.195-2.37 10.811-1.091.617-.901 1.328-.901 1.328-.021 11.325 0 12.174 1.9 12.378 2.88.31 4.105-1.431 5.227.06z"/>
            <path d="M286.875 256.725h3.624V253.1h-3.624z"/>
        </g>
        <g>
            <g transform="translate(4 4)">
                <path fill="#D5C8FF" d="M248.67 481.737c0 21.132-17.15 38.263-38.305 38.263H38.305C17.15 520 0 502.869 0 481.737V38.263C0 17.131 17.15 0 38.305 0h172.06c21.155 0 38.305 17.131 38.305 38.263v443.474z"/>
                <path stroke="#9A62FF" stroke-width="8" d="M248.67 481.737c0 21.132-17.15 38.263-38.305 38.263H38.305C17.15 520 0 502.869 0 481.737V38.263C0 17.131 17.15 0 38.305 0h172.06c21.155 0 38.305 17.131 38.305 38.263v443.474z"/>
                <path fill="#4F2A93" d="M237.34 459.707c0 .694-.564 1.256-1.26 1.256H12.59c-.696 0-1.26-.562-1.26-1.256V62.082c0-.694.564-1.256 1.26-1.256h223.49c.696 0 1.26.562 1.26 1.256v397.625z"/>
                <path fill="#9A62FF" d="M145.505 32.202c0 1.317-.876 2.385-1.957 2.385h-37.83c-1.08 0-1.957-1.068-1.957-2.385 0-1.318.876-2.385 1.957-2.385h37.83c1.08 0 1.957 1.067 1.957 2.385M84.679 27.431c-2.63 0-4.77 2.14-4.77 4.77 0 2.632 2.14 4.771 4.77 4.771 2.63 0 4.77-2.14 4.77-4.77 0-2.63-2.14-4.77-4.77-4.77m0 2.725a2.044 2.044 0 1 1 0 4.09 2.044 2.044 0 0 1 0-4.09"/>
                <path fill="#878190" d="M127.615 14.908a2.982 2.982 0 1 0-5.964 0 2.982 2.982 0 0 0 5.964 0"/>
                <path stroke="#9A62FF" stroke-width="4" d="M140.734 487.798c0-8.892-7.209-16.1-16.101-16.1s-16.1 7.208-16.1 16.1c0 8.892 7.208 16.101 16.1 16.101 8.892 0 16.1-7.209 16.1-16.1"/>
                <use fill="url(#b)" xlink:href="#c"/>
            </g>
            <g fill="#FFF">
                <path d="M165.284 295.147c1.975 2.626 2.119 4.14.156 4.14h-12.688c-3.822 0-4.615.453-4.555-1.206.083-2.313.83-2.403 3.259-3.081 2.015-.564 1.292-4.15-.993-7.286-1.59-2.184-4.819-4.726-9.062-2.75-2.753 1.283-4.375 2.595-5.648 4.36-2.084 2.892-1.972 5.631 1.273 5.631 3.066 0 6.678-1.858 7.725.788 1.297 3.278.406 3.582-.228 3.582H124.19l.015.019c-10.894 0-21.776-.086-24.3-6.97-3.493-9.525 9.215-13.195 9.605-19.172.157-2.418-1.202-3.538-2.898-3.538h-7.456v-4.531h-4.532v-13.592h4.531v4.531h4.53v4.53h4.532V266.895s3.94 1.955 3.806 6.26c-.213 6.837-11.777 10.624-9.658 17.79 1.938 6.559 16.575 4.99 16.061.92l-.253-2.317c-.072-3.247-.579-7.59.099-11.434 1.067-6.045 4.827-11.275 11.378-11.323 1.194-.009 2.204-.254 2.204-1.257 0-1.06-1.92-1.035-3.271-1.172-4.675-.476-10.492-2.042-15.574-6.223-3.01-2.476-7.698-10.284-4.633-9.712 1.893.354 3.56.5 5.028.495 1.538-.004 5.508-.436 5.508-1.375 0-1.3-2.295-.517-5.661-.846-4.025-.393-12.559-2.118-16.962-15.103-1.65-4.865-2.739-13.97-.06-11.023 15.447 16.987 20.695 14.222 29.553 20.03 3.9 2.556 6.438 8.663 8.711 8.154 1.482-.334.575-1.695.796-4.871.198-2.84 1.547-3.454-1.923-4.311-4.044-.999-8.08-5.432-5.441-5.37 2.637.065 4.546.056 6.858-.945 2.313-1 7.966-5.305 11.385-3.58 3.42 1.724 6.294-.75 8.607-.312 3.357.637 4.222 5.257 3.786 7.96-.273 1.715-.273 1.712-2.46 1.584-4.482-.263-5.623 3.307-2.472 5.275 4.797 2.996 6.836 5.243 8.139 11.88.634 3.22.12 3.97-.948 3.378-1.066-.593-2.902-.89-.355 4.978 2.548 5.866-1.6 12.744-2.963 13.514-1.364.77-1.126 1.66-1.126 1.66-.026 14.156 0 15.217 2.374 15.472 3.601.388 5.132-1.789 6.535.076z"/>
                <path d="M90.094 250.906h4.53v-4.53h-4.53z"/>
            </g>
        </g>
    </g>
</svg>
