<svg xmlns="http://www.w3.org/2000/svg" width="117" height="32" viewBox="0 0 117 32">
    <path fill="#D5C8FF" fill-rule="evenodd" d="M7.007 8.077v19.4h4.28V8.319l-4.28-.242zm4.58-3.687v-.008l-.001-.001c-.003-.023-.008-.044-.01-.066v-.007c-.008-.055-.015-.109-.026-.163v-.004l-.022-.084v-.002l-.017-.065c-.006-.025-.011-.048-.02-.072-.008-.03-.02-.062-.03-.093l-.001-.001a1.748 1.748 0 0 0-.035-.093l-.012-.033v-.002l-.026-.06-.002-.002a2.65 2.65 0 0 0-.065-.136v-.002l-.033-.059-.055-.09c-.013-.02-.025-.042-.038-.06v-.002l-.001-.002-.018-.028v-.001a2.4 2.4 0 0 0-.126-.168v-.001l-.003-.002c-.011-.015-.025-.029-.037-.044-.035-.04-.07-.08-.107-.117l-.02-.02-.028-.029-.025-.022-.098-.09-.038-.032c-.027-.023-.057-.042-.085-.064-.029-.022-.056-.044-.085-.063-.013-.01-.026-.018-.04-.026-.034-.023-.07-.044-.105-.064a1.008 1.008 0 0 0-.098-.057 3.068 3.068 0 0 0-.145-.07l-.053-.023c-.05-.02-.099-.038-.15-.055l-.053-.02a2.273 2.273 0 0 0-.213-.055L9.6 2.218l-.087-.013-.074-.011-.066-.009h-.008a2.467 2.467 0 0 0-.218-.01h-.003c-.08 0-.16.004-.24.012-.028.002-.055.008-.08.011a2.285 2.285 0 0 0-.159.024l-.093.024c-.042.01-.085.02-.126.033l-.009.003c-.033.01-.066.022-.098.033l-.12.044h-.002c-.032.014-.063.03-.095.045l-.058.027a1.244 1.244 0 0 0-.15.082l-.1.06-.007.004-.088.062a2.085 2.085 0 0 0-.096.073l-.003.001a2.574 2.574 0 0 0-.08.07l-.026.021a2.48 2.48 0 0 0-.225.23l-.05.06-.017.022-.037.05a1.44 1.44 0 0 0-.037.049l-.032.047-.027.041c-.02.03-.038.06-.055.09-.004.006-.008.011-.01.017l-.002.001a2.42 2.42 0 0 0-.052.093c-.007.014-.012.028-.02.042-.01.024-.023.047-.034.071v.003a1.976 1.976 0 0 0-.042.094v.002c-.017.039-.03.079-.044.119l-.001.003c-.011.032-.023.064-.032.097v.002c-.007.022-.012.044-.018.067l-.015.059v.002c-.005.02-.012.04-.016.06l-.007.04v.001l-.006.033-.014.1v.003c-.006.034-.01.067-.013.1v.002c-.002.01-.002.021-.002.032a2.261 2.261 0 0 0 .002.413c0 .018.003.036.006.054.007.066.017.131.03.196l.003.023c.015.07.034.14.054.209l.017.05c.018.057.04.112.062.167l.015.04c.035.079.074.156.117.231.013.025.028.047.042.07.015.026.03.053.047.078l.025.037a2.343 2.343 0 0 0 .274.332l.026.027a2.376 2.376 0 0 0 .337.28l.024.017c.127.083.26.156.398.217l.016.007c.066.028.133.053.202.075l.042.013a2.272 2.272 0 0 0 .432.089l.043.004c.158.017.317.016.474-.001.012 0 .023-.004.036-.006.068-.008.135-.017.201-.03.022-.004.043-.012.065-.016.055-.014.11-.027.164-.043l.076-.027c.049-.016.097-.034.144-.053.027-.011.053-.024.08-.037.044-.02.088-.04.13-.063a2.7 2.7 0 0 0 .199-.119 3.016 3.016 0 0 0 .186-.136c.026-.02.05-.042.076-.063.033-.029.065-.059.096-.089.025-.023.048-.048.071-.072a2.349 2.349 0 0 0 .404-.565 1.95 1.95 0 0 0 .14-.329c.012-.035.024-.07.034-.105.012-.04.022-.08.032-.12l.025-.11a2.43 2.43 0 0 0 .019-.126l.014-.114.002-.045c.004-.057.009-.114.009-.171 0-.078-.003-.157-.01-.235zM4.28.91V.92L.184.657 0 .645v26.832h4.28V.91zM22.01.72l-.001.045.001-.045.013-.27a1.006 1.006 0 0 0-.118-.064c-.01-.006-.024-.01-.035-.016l.037.016-.044-.019-.037-.016-.016-.007c-.017-.007-.035-.015-.053-.021l-.068-.025a2.896 2.896 0 0 0-.1-.036l-.01-.002c-.04-.014-.085-.027-.13-.041L21.42.211l-.006-.002-.01-.002-.058-.016c-.013-.004-.027-.008-.04-.01l-.029-.009-.03-.007L21.23.16a3.812 3.812 0 0 0-.098-.023l-.036-.008-.12-.025-.028-.005-.031-.006a5.357 5.357 0 0 0-.104-.019L20.784.07l-.01-.002-.133-.02h-.001l-.035-.004h-.008l-.002-.001h-.011a3.743 3.743 0 0 0-.122-.015c-.017-.003-.033-.003-.05-.005a3.471 3.471 0 0 0-.137-.011L20.248.01l-.034-.002h-.004a6.36 6.36 0 0 0-.124-.007h-.068L20.004 0h-.122c-.092 0-.184.003-.275.008L19.57.01l-.052.005a2.825 2.825 0 0 0-.186.016l-.102.012a4.876 4.876 0 0 0-.445.076c-.031.007-.064.013-.095.021a4.533 4.533 0 0 0-.262.068c-.086.025-.17.052-.255.08L18.1.317c-.06.02-.119.042-.178.066l-.097.041-.15.066-.093.042a8.706 8.706 0 0 0-.219.11l-.059.031a4.992 4.992 0 0 0-.258.15h-.002l-.075.048c.017-.01.033-.023.05-.033-.017.01-.033.022-.05.033-.02.011-.037.024-.056.037l-.134.088-.076.053a9.51 9.51 0 0 0-.24.178l-.05.04.04-.032c-.014.01-.027.023-.04.033-.033.026-.063.054-.095.08-.031.025-.063.05-.093.077l-.029.025-.047.042a6.047 6.047 0 0 0-.18.17l-.046.042-.11.116-.098.1-.063.072v.001h-.001c-.051.057-.1.113-.149.172v.001l-.059.072c-.037.045-.072.093-.108.14-.026.033-.053.064-.077.098a.244.244 0 0 0-.015.022l-.029.04-.032.047-.104.15-.03.047a.607.607 0 0 0-.025.038h-.001a8.959 8.959 0 0 0-.142.23l-.021.036a5.963 5.963 0 0 0-.146.27l-.011.02-.031.063v.001c-.036.072-.07.143-.103.216v.002l-.034.074-.03.072c-.03.07-.059.14-.086.212l-.004.013-.022.059c-.014.036-.025.072-.037.108-.015.041-.03.083-.043.126a.46.46 0 0 0-.01.031l-.018.058c-.025.08-.046.16-.068.242l-.017.059v.002l-.006.023.006-.023-.013.058.008-.035c-.026.107-.05.215-.072.323l-.002.012-.003.017c-.02.102-.036.206-.049.31-.005.035-.008.07-.012.106a5.51 5.51 0 0 0-.04.659l-.002.017V32l.185-.01 4.096-.23V16.258h3.21v-4.28h-3.21v-5.8c0-.897.724-1.622 1.587-1.622h1.968l.158-3.748.003-.088.012-.271-.012.27zm6.018 14.985v-2.003a1.62 1.62 0 0 1 1.622-1.622l.026.002c.04 0 .078.002.116.006l.058.007.086.014.058.012c.029.007.058.014.087.023.016.005.033.008.05.014a1.594 1.594 0 0 1 .252.109c.016.009.032.017.047.027.04.024.08.05.12.076.027.02.054.04.08.062.01.008.02.015.03.025.036.029.07.06.102.093l.025.027c.024.025.047.05.07.077l.03.038a1.49 1.49 0 0 1 .15.227l.008.01a1.872 1.872 0 0 1 .074.165c.009.022.02.045.027.068v.001l.011.034.015.05c.013.049.025.099.036.149l.016.106c.008.066.013.133.013.2v2.002h-3.025l-.184.001zm7.488-2.069v-.003c0-.075-.002-.15-.006-.225v-.017c0-.006 0-.012-.002-.019l-.008-.106v-.002c-.005-.061-.009-.124-.015-.183l-.017-.133v-.002c-.008-.058-.015-.115-.024-.172l-.021-.119a5.966 5.966 0 0 0-.035-.183l-.025-.11-.006-.024-.02-.08-.02-.081-.019-.067-.018-.066-.049-.159a4.87 4.87 0 0 0-.1-.284c-.016-.042-.032-.084-.05-.126a3.883 3.883 0 0 0-.103-.238l-.023-.052c-.01-.023-.021-.044-.032-.066a6.493 6.493 0 0 0-.098-.193l-.02-.038h.001c-.045-.08-.09-.16-.137-.239l-.022-.035a5.296 5.296 0 0 0-.108-.169 2.623 2.623 0 0 0-.101-.146 5.562 5.562 0 0 0-.242-.322l-.044-.052c-.041-.051-.085-.101-.128-.15v-.001l-.029-.032-.014-.016-.058-.061c-.039-.042-.077-.084-.116-.123l-.008-.007-.02-.02a5.603 5.603 0 0 0-.157-.151l-.053-.048a6.785 6.785 0 0 0-.115-.101l-.042-.037-.036-.03c-.045-.038-.092-.074-.137-.11l-.063-.049a4.047 4.047 0 0 0-.044-.033h-.001c-.054-.041-.11-.08-.165-.118v-.001l-.058-.04c-.066-.044-.134-.089-.202-.13h-.001a.059.059 0 0 0-.01-.008h-.001a5.42 5.42 0 0 0-.16-.093c-.02-.012-.04-.025-.062-.036v-.001a.957.957 0 0 1-.045-.024l-.013-.008-.095-.048c-.028-.015-.055-.03-.084-.044l-.03-.015-.028-.013-.193-.089-.042-.02-.01-.003-.01-.004-.004-.002v-.001h-.001a7.347 7.347 0 0 0-.213-.085l-.068-.024h-.001a4.004 4.004 0 0 0-.198-.068l-.051-.017A5.228 5.228 0 0 0 31.164 8l-.029-.008-.052-.013h-.001l-.04-.01a13.09 13.09 0 0 0-.166-.038c-.012-.003-.025-.005-.036-.009l-.037-.007a5.74 5.74 0 0 0-.427-.068h-.002a4.714 4.714 0 0 0-.372-.035c-.015 0-.028-.003-.042-.004h-.032l-.107-.004c-.056-.001-.112-.004-.168-.004-.056 0-.111.002-.167.004h-.003l-.027.001-.064.001-.049.002-.162.012h-.006l-.097.008-.035.003c-.058.006-.115.014-.173.023-.041.005-.083.008-.124.015-.058.01-.116.02-.174.032l-.074.013-.044.008c-.042.008-.082.018-.123.028l-.038.009a2.694 2.694 0 0 0-.126.029L28 8.035l-.01.004-.103.029-.018.006-.128.044-.03.01-.09.03a.047.047 0 0 1-.01.003l-.081.033-.051.02-.041.017-.094.037a1.372 1.372 0 0 0-.044.02c-.033.015-.069.03-.103.047l-.032.014-.081.037a3.02 3.02 0 0 0-.135.07l-.044.023-.076.038-.002.001-.095.055a3.922 3.922 0 0 0-.081.048c-.023.013-.046.025-.068.04h-.002a3.629 3.629 0 0 0-.077.05l-.005.003-.02.013-.079.05-.056.037-.002.001a3.8 3.8 0 0 0-.092.066l-.091.064-.047.033-.001.002-.023.018-.029.023a4.455 4.455 0 0 0-.13.103l-.039.03a.012.012 0 0 0-.002.003l-.008.007-.035.03-.14.121-.029.026-.002.002-.01.009c-.059.055-.117.11-.174.167l-.018.018-.085.089-.046.05-.049.051c-.004.005-.01.009-.014.015-.054.06-.105.123-.157.184a.047.047 0 0 1-.008.008l-.044.053-.025.03c-.042.052-.081.108-.122.16-.03.043-.064.084-.095.127-.061.088-.121.179-.178.27l-.02.03-.026.047c-.02.03-.036.063-.054.095-.04.068-.077.137-.114.207l-.028.05a3.738 3.738 0 0 0-.091.19c-.028.059-.057.119-.083.18-.056.13-.107.262-.153.397l-.041.114v.001c-.004.013-.008.025-.01.04a5.042 5.042 0 0 0-.102.352l-.001.003a5.906 5.906 0 0 0-.174 1.423v8.161c0 .113.005.225.01.337l.008.105c.007.095.016.19.027.283l.008.074c.015.114.033.227.054.34l.02.095c.018.09.038.178.059.265l.023.094a5.85 5.85 0 0 0 .213.664l.038.098c.042.106.086.21.133.31l.017.038c.044.092.092.186.14.277l.018.033.04.072c.033.06.068.12.104.18l.058.096c.056.087.112.176.172.26a8.352 8.352 0 0 0 .19.256l.066.081c.047.056.092.111.141.167.024.026.048.056.073.082.054.059.11.116.165.173l.056.057c.075.073.15.142.228.21.022.02.044.037.066.056.059.05.119.097.18.145l.089.067a5.017 5.017 0 0 0 .523.342c.01.007.022.012.033.018.084.046.168.091.255.131l.099.046c.065.03.131.058.197.085.037.014.073.03.11.042.072.027.144.052.218.076.03.008.059.02.09.028.1.03.203.058.307.082l.097.02c.076.016.152.03.23.043.041.007.083.012.124.018.074.01.148.017.222.025.04.003.08.008.122.01.101.007.204.01.307.01l.035.002c.15 0 .302-.006.456-.02.155-.012.31-.032.464-.058l3.573-.543.293-.043-.081-2.121-.043-1.135-.005-.136-.006-.142-.004-.093h-4.137a1.99 1.99 0 0 1-.163-.01l-.069-.01a1.22 1.22 0 0 1-.18-.039l-.006-.001c-.039-.01-.076-.025-.113-.037-.02-.008-.04-.013-.06-.023a1.371 1.371 0 0 1-.156-.072c-.007-.004-.013-.009-.02-.012a1.604 1.604 0 0 1-.136-.086c-.015-.01-.031-.023-.047-.036a1.89 1.89 0 0 1-.141-.117l-.09-.092-.034-.039a1.445 1.445 0 0 1-.105-.138l-.004-.005a2.104 2.104 0 0 1-.071-.118c-.008-.013-.014-.026-.021-.04-.016-.03-.03-.06-.044-.092l-.018-.042c-.017-.04-.031-.08-.044-.121l-.005-.013a2 2 0 0 1-.035-.137l-.008-.047a1.37 1.37 0 0 1-.016-.1l-.006-.05a1.657 1.657 0 0 1-.007-.136v-1.874h5.35a2.129 2.129 0 0 0 2.14-2.14v-4.143c0-.015 0-.037-.002-.06zm14.015.306c0-.088-.003-.176-.007-.264v-.003l-.008-.102v-.01a5.74 5.74 0 0 0-.016-.188l-.001-.004-.013-.116v-.008c-.009-.058-.015-.115-.025-.173v-.004l-.003-.015-.018-.106v-.004a9.326 9.326 0 0 0-.033-.17l-.001-.004c-.006-.026-.01-.052-.017-.076l-.008-.042-.002-.003c-.014-.06-.027-.12-.044-.18l-.002-.008-.025-.097-.001-.003a6.314 6.314 0 0 0-.078-.257l-.001-.004-.016-.043v-.001a4.893 4.893 0 0 0-.075-.207c-.006-.014-.01-.03-.017-.044l-.02-.05-.017-.04a7.011 7.011 0 0 0-.078-.185l-.025-.053a7.042 7.042 0 0 0-.157-.317c-.006-.008-.01-.018-.015-.026-.042-.079-.088-.155-.134-.232l-.034-.057-.01-.017a1.694 1.694 0 0 1-.025-.039c-.021-.034-.044-.066-.066-.1l-.026-.038-.018-.027c-.014-.022-.027-.043-.042-.064a5.123 5.123 0 0 0-.256-.34h-.001a5.67 5.67 0 0 0-.216-.246s0-.002-.002-.002a1.438 1.438 0 0 0-.034-.037l-.027-.029a5.182 5.182 0 0 0-.193-.193l-.046-.044a6.507 6.507 0 0 0-.306-.261 6.187 6.187 0 0 0-.213-.163c-.023-.015-.043-.03-.065-.046a5.755 5.755 0 0 0-.278-.18l-.026-.015a6.278 6.278 0 0 0-.263-.146l-.074-.037a5.27 5.27 0 0 0-.285-.13l-.018-.009a5.474 5.474 0 0 0-.314-.116l-.032-.01-.038-.011a4.536 4.536 0 0 0-.272-.078l-.032-.008-.03-.009a4.557 4.557 0 0 0-.335-.067l-.05-.007a4.5 4.5 0 0 0-.374-.043h-.021c-.08-.007-.161-.01-.242-.012l-.089-.002H44.285c-.082 0-.168.002-.257.004H44.007l-.029.002h-.019a6.587 6.587 0 0 0-.259.011l-.016.001h-.019l-.003.001c-.103.005-.207.012-.31.02h-.011l-.161.015.159-.015-.013.001a6.882 6.882 0 0 0-.282.027h-.015a1.157 1.157 0 0 1-.034.004h-.003l-.213.025-.115.013c-.002 0-.004 0-.004.002h-.01l-.121.019a6.45 6.45 0 0 0-.204.03l-.002.001a1.471 1.471 0 0 0-.147.027c-.058.01-.115.02-.17.032h-.002c-.092.02-.184.042-.276.066h-.001l-.018.005a4.111 4.111 0 0 0-.177.051l-.008.002V.45h-2.76v27.027h2.76V11.322h2.648c.075.001.147.005.22.012.029.002.057.006.086.009a2.98 2.98 0 0 1 .43.087l.047.013c.075.023.146.048.218.077l.07.03c.05.022.098.045.147.07l.072.038c.052.028.102.058.15.09l.05.03c.064.043.126.088.185.135l.047.041c.044.037.087.075.127.114l.056.055c.04.04.078.082.115.126.014.016.029.03.042.047.049.06.095.12.139.182l.028.043c.033.05.065.103.095.155l.038.069c.025.048.05.098.072.15l.03.065.011.026c.014.036.027.073.039.11.012.034.026.07.037.106.016.05.028.102.041.155.008.031.017.062.024.095.012.062.021.126.028.19.004.024.009.046.01.069.01.089.014.178.014.269v13.497h2.692V13.98a.57.57 0 0 0 0-.038zm6.531 9.726c-.018-.03-.033-.06-.05-.09l-.025-.046a2.872 2.872 0 0 1-.098-.207l-.018-.047a2.596 2.596 0 0 1-.063-.178l-.02-.059a2.928 2.928 0 0 1-.056-.225l-.008-.044a2.363 2.363 0 0 1-.029-.193l-.008-.073a2.777 2.777 0 0 1-.01-.225l-.001-.016V20.26a2.653 2.653 0 0 1 .772-1.886 2.65 2.65 0 0 1 1.886-.773h2.658v4.661c0 .31-.054.606-.148.882a2.65 2.65 0 0 1-3.047 1.756l-.019-.005a2.154 2.154 0 0 1-.225-.06l-.039-.013a2.583 2.583 0 0 1-.427-.181c-.015-.009-.03-.015-.045-.025a2.799 2.799 0 0 1-.192-.118c-.01-.009-.02-.014-.03-.023a2.333 2.333 0 0 1-.16-.12l-.037-.03a2.268 2.268 0 0 1-.165-.154 2.394 2.394 0 0 1-.161-.177l-.027-.034a2.866 2.866 0 0 1-.133-.181l-.028-.042-.045-.072c0 .003 0 .002-.002.002zm7.62-9.72c0-.052 0-.104-.003-.156a4.979 4.979 0 0 0-.008-.11l-.007-.104-.004-.05c-.003-.041-.008-.08-.012-.121v-.003c-.006-.047-.01-.095-.017-.142v-.002c-.006-.036-.01-.073-.017-.109l-.001-.008a2.548 2.548 0 0 0-.013-.084c-.005-.02-.007-.042-.01-.063v-.001l-.02-.098-.003-.015-.013-.063c-.007-.029-.011-.057-.018-.085v-.002l-.026-.11-.02-.077c-.008-.024-.012-.047-.018-.07l-.002-.002-.026-.095-.003-.012-.029-.092c-.007-.019-.012-.038-.017-.056l-.035-.106.025.077-.025-.077-.051-.143a4.164 4.164 0 0 0-.042-.107l-.046-.11c-.003-.009-.007-.016-.008-.023l-.05-.116a.919.919 0 0 0-.021-.042l-.017-.037a5.472 5.472 0 0 0-.124-.249l-.025-.05a5.557 5.557 0 0 0-.184-.32l-.027-.039a4.78 4.78 0 0 0-.164-.245l-.025-.035-.03-.04a4.255 4.255 0 0 0-.21-.272 5.775 5.775 0 0 0-.224-.251 8.299 8.299 0 0 0-.226-.226c-.01-.008-.019-.018-.027-.026l-.001-.001-.065-.06a6.193 6.193 0 0 0-.255-.218l-.046-.034-.015-.011a4.399 4.399 0 0 0-.218-.161 7.154 7.154 0 0 0-.349-.225l-.014-.008-.016-.01a5.126 5.126 0 0 0-.647-.315l-.024-.01a5.698 5.698 0 0 0-.388-.141c-.026-.009-.053-.016-.079-.024h-.001c-.027-.009-.056-.015-.083-.023a4.747 4.747 0 0 0-.196-.054c-.005-.001-.01-.001-.014-.003l-.086-.02c-.03-.008-.063-.012-.094-.02-.09-.018-.179-.038-.272-.052v-.003h-.003l-.022-.003c-.14-.02-.28-.036-.42-.047-.012 0-.022-.002-.033-.003-.04-.003-.082-.003-.122-.006-.074-.004-.147-.009-.222-.009l-.08-.002h-.139c-.307.011-.614.04-.917.085l-.024.004c-.15.022-.3.047-.45.076h-.004l-.016.004a12.65 12.65 0 0 0-.386.082l-.064.013-.023.006c-.208.048-.414.1-.62.159l-.008.004a8.723 8.723 0 0 0-.27.08c-.005 0-.008 0-.01.002l-.017.005a9.857 9.857 0 0 0-.27.087l-.037.013-.09.03-.044.015-.051.019a3.256 3.256 0 0 0-.116.04c.001.05.005.095.006.14l.001.019.003.063.008.143c.006.107.01.208.017.308l.018.306v.006l.007.136.004.067c0 .017.002.034.003.05l.004.087.001.033.006.116.004.07.003.068.003.065.003.076.003.071.004.087.002.067c.003.053.004.108.006.164l.17-.01c.047-.003.095-.007.143-.009l.226-.016.282-.02.155-.01.96-.073.132-.01.319-.023.214-.014.236-.015.268-.015.17-.01c.144-.006.284-.012.419-.016h-.035a3.97 3.97 0 0 1 .415-.023c.092 0 .18.005.265.012l.065.006a2.228 2.228 0 0 1 .467.092l.055.018c.069.023.135.047.198.076.003 0 .005.002.008.004.063.028.123.061.18.096l.047.028c.055.035.108.071.158.11l.008.008c.052.041.098.084.144.13.013.013.025.025.037.04.046.048.09.099.132.151.038.05.073.104.109.16l.028.048c.03.052.06.106.086.161.004.008.008.015.01.022.021.044.041.09.06.136l.001.005.007.023c.068.176.12.365.153.562.006.03.01.06.014.09.01.074.02.15.027.226l.008.092c.008.104.012.21.012.318v2.173a3.165 3.165 0 0 1-.104-.029l-.066-.018-.034-.009c-.013-.004-.026-.008-.041-.01l-.002-.001a.945.945 0 0 0-.052-.014l-.057-.014a.397.397 0 0 1-.02-.005c-.02-.005-.04-.009-.058-.015l-.015-.003a2.137 2.137 0 0 1-.12-.029 3.418 3.418 0 0 1-.073-.016h-.001c-.022-.005-.044-.008-.066-.014a2.541 2.541 0 0 1-.07-.013c-.024-.006-.048-.01-.073-.014l-.067-.013-.08-.013a1.805 1.805 0 0 0-.061-.01l-.033-.004a10.23 10.23 0 0 1-.113-.017h-.002l-.014-.001a1.784 1.784 0 0 0-.09-.012l-.045-.005-.045-.005c-.025-.003-.048-.007-.075-.009l-.034-.003a10.322 10.322 0 0 0-.14-.012l-.012-.001h-.001c-.069-.007-.14-.01-.213-.014a3.587 3.587 0 0 1-.087-.005h-.004c-.047-.002-.099-.005-.15-.006h-.004c-.025-.001-.047-.004-.073-.004l-.17-.004h-.098c-.01-.002-.023-.002-.034-.002h-.164l-.097.002c-.062 0-.125.001-.188.004h-.03c-.035.001-.069.004-.102.007h-.003l-.152.009c-.018 0-.035.003-.052.005-.028.001-.055.006-.082.008l-.084.008-.061.007-.095.013-.037.004-.09.015c-.017.002-.035.004-.051.008h-.001l-.126.02-.074.016c-.024.006-.048.01-.071.014h-.006l-.11.025c-.036.008-.07.018-.104.025-.02.006-.04.012-.062.016l-.005.002a4.713 4.713 0 0 0-.318.093c-.034.01-.066.023-.099.034l-.005.001-.135.048-.001.001a1.627 1.627 0 0 0-.102.04s-.002 0-.003.002c-.042.016-.085.033-.126.052h-.001l-.098.043-.002.002h-.002l-.05.024-.07.033-.005.002c-.03.016-.062.03-.093.047h-.001l-.061.034-.062.033-.006.003c-.027.015-.055.03-.08.046h-.002l-.11.067-.032.02a4.242 4.242 0 0 0-.252.167h-.002l-.058.044-.008.006c-.04.03-.08.06-.12.092l-.002.002-.068.055-.004.004-.106.09-.004.004-.065.06c-.036.03-.07.063-.104.097l-.004.004-.06.06-.004.003-.088.092a.09.09 0 0 0-.011.014l-.007.006-.05.054-.002.003c-.04.043-.077.089-.115.134-.003.005-.008.01-.013.015a6.694 6.694 0 0 0-.161.209l-.002.002-.025.038-.008.011a.392.392 0 0 0-.017.025c-.027.04-.054.076-.08.116v.001c-.014.022-.026.042-.04.061l-.004.009-.078.126-.002.004-.04.07-.002.004a2.363 2.363 0 0 0-.07.132h-.002l-.002.004-.036.07-.001.003-.006.012a2.534 2.534 0 0 0-.061.129c-.002 0-.003.005-.004.007l-.028.062a5.75 5.75 0 0 0-.076.181l-.005.009-.01.026-.002.004c-.028.075-.056.15-.081.227l-.01.03-.004.013a2.983 2.983 0 0 0-.022.071c-.011.038-.024.076-.034.114l-.001.002c-.007.02-.011.041-.017.062a.029.029 0 0 0-.002.007v.005c-.01.031-.017.066-.026.097l-.016.063v.002l-.019.08v.004c-.006.026-.01.053-.017.078l-.013.06c-.008.053-.019.106-.026.158l-.019.12c-.008.056-.015.114-.021.17-.004.038-.009.075-.012.113-.007.064-.01.128-.015.193-.002.032-.005.063-.006.096a5.882 5.882 0 0 0-.007.293v1.694c0 .106.003.21.009.314l.008.1.021.217.014.109c.01.07.022.142.035.213l.018.094c.02.1.042.2.067.299l.006.018c.024.092.052.183.08.274l.032.093c.023.066.046.132.071.195l.042.102c.025.064.054.128.082.19l.04.09c.043.09.088.176.135.263l.01.017.008.012c.046.085.095.165.145.247l.056.087c.043.065.088.13.134.194l.053.075c.062.084.126.166.193.244.017.022.035.041.053.062a6.015 6.015 0 0 0 .234.256c.06.059.118.118.179.176l.053.05c.099.09.202.179.31.262.061.048.125.095.188.141l.081.059c.087.059.175.118.264.173.007.004.01.007.016.009a4.24 4.24 0 0 0 .35.192c.074.039.15.076.226.11.024.01.048.023.072.032.1.043.2.084.303.123.016.005.034.01.05.017.088.03.177.06.266.086l.085.025c.092.025.187.049.282.07.014.004.027.008.041.01.11.024.222.043.334.06l.07.008c.091.012.184.022.277.029l.08.007a5.267 5.267 0 0 0 3.415-.971 5.448 5.448 0 0 0 1.64-1.863 5.455 5.455 0 0 0 .642-2.573V14.05c.002-.035 0-.068 0-.101zm11.957.197l.064-.002.134-.004.18-.005.104-.003.261-.006h.004c.337-.008.694-.013 1.076-.022l.274-.008h.056l.391-.012v-.345c0-.066-.003-.132-.006-.197v-.038l-.008-.14a3.726 3.726 0 0 0-.025-.267c0-.008 0-.014-.002-.02-.005-.04-.01-.08-.017-.12-.005-.042-.012-.085-.019-.126l-.025-.137a3.319 3.319 0 0 0-.027-.126c-.008-.044-.019-.089-.029-.134l-.033-.124c0-.003 0-.005-.002-.008-.01-.042-.025-.084-.037-.125-.011-.04-.025-.08-.037-.12a5.88 5.88 0 0 0-.044-.126 3.032 3.032 0 0 0-.088-.233l-.005-.01-.05-.12-.032-.067-.012-.029a6.222 6.222 0 0 0-.154-.309l-.002-.002a3.698 3.698 0 0 0-.175-.296l-.03-.049-.013-.02a4.747 4.747 0 0 0-.176-.253l-.022-.033a8.91 8.91 0 0 0-.214-.268 5.537 5.537 0 0 0-.254-.278l-.017-.016a4.883 4.883 0 0 0-.55-.49c-.015-.011-.027-.023-.042-.033-.003-.002-.004-.004-.008-.005a5.357 5.357 0 0 0-.586-.387l-.06-.035a5.713 5.713 0 0 0-.308-.158l-.039-.018-.01-.004c-.068-.031-.14-.06-.21-.09l-.065-.029c-.025-.009-.05-.02-.074-.028a5.207 5.207 0 0 0-.329-.113l-.008-.003-.037-.01a5.13 5.13 0 0 0-.297-.079l-.084-.02a5.775 5.775 0 0 0-.329-.061c-.006 0-.012-.002-.017-.003a.43.43 0 0 1-.03-.004c-.025-.004-.052-.006-.076-.009-.083-.01-.165-.02-.249-.028l-.093-.007a5.065 5.065 0 0 0-.36-.014c-.05 0-.098.003-.146.004h-.003l-.123.003h-.01c-.046.003-.092.008-.136.01l-.006.001-.13.01-.133.017-.008.001c-.043.006-.086.01-.13.017l-.082.015a1.207 1.207 0 0 1-.054.009l-.02.003-.107.019-.001.001c-.049.01-.096.022-.143.033l-.009.003-.108.024c-.04.01-.077.023-.116.034a.708.708 0 0 0-.037.01c-.033.01-.068.018-.1.028h-.002l-.022.008-.092.031-.048.017c-.03.01-.059.019-.088.03-.011.003-.023.009-.034.013-.033.012-.064.025-.097.039l-.045.017a1.424 1.424 0 0 0-.066.027h-.002l-.003.002-.14.063-.05.022c-.014.007-.03.013-.043.021h-.002c-.056.027-.111.057-.167.086l-.034.018-.03.016H70.2l-.123.071-.007.004-.089.052a.013.013 0 0 0-.005.002l-.002.002c-.003 0-.003.002-.005.002-.064.04-.126.08-.189.122-.037.024-.07.049-.106.074-.043.031-.089.061-.131.094l-.076.06c-.043.034-.087.067-.128.102-.027.023-.054.045-.08.07l-.117.101-.063.061c-.043.04-.086.08-.126.122l-.048.05c-.044.046-.088.091-.13.138a5.955 5.955 0 0 0-.19.224c-.022.026-.043.055-.063.083-.042.052-.081.104-.12.158-.007.008-.012.017-.018.025l-.05.074a4.639 4.639 0 0 0-.138.21l-.028.045c-.033.053-.063.108-.094.164l-.027.049c-.008.015-.02.031-.027.048-.048.09-.092.18-.134.272-.004.004-.005.008-.008.012-.008.023-.019.045-.028.067a9.71 9.71 0 0 0-.088.207l-.032.087-.003.007a6.778 6.778 0 0 0-.076.215l-.025.083a4.62 4.62 0 0 0-.079.277c0 .007-.003.013-.005.02v.003c-.107.429-.16.868-.16 1.31V22.408c.001.092.005.185.01.275 0 .04.006.078.009.119.005.067.01.136.019.203.004.04.008.08.015.12.008.071.02.141.033.211.006.032.01.065.018.098.02.102.041.2.067.299l.014.054c.05.183.11.364.179.541.011.03.024.06.035.092.032.076.064.15.098.225.01.019.017.037.025.056.044.092.09.183.14.274l.01.018a4.923 4.923 0 0 0 .155.261c.062.1.128.197.197.293l.035.05c.078.107.16.21.248.31.053.06.107.12.161.178l.068.072a4.595 4.595 0 0 0 .464.424c.025.022.05.041.076.062l.185.139a5.506 5.506 0 0 0 .617.382c.03.016.06.032.09.046.074.038.145.072.22.106.025.01.05.023.075.034a6.062 6.062 0 0 0 .366.14c.08.027.16.055.24.078.033.009.065.019.097.026.088.025.175.046.263.065l.056.013a5.068 5.068 0 0 0 .411.067c.117.015.234.026.35.035a4.333 4.333 0 0 0 .6.003l.085-.006c.059-.003.116-.006.174-.012l.101-.012c.051-.007.104-.011.155-.02.036-.005.072-.011.107-.018l.146-.025.109-.023.14-.032c.037-.009.073-.02.108-.028l.138-.038c.037-.01.07-.023.106-.034a3.52 3.52 0 0 0 .135-.044l.106-.038a6.082 6.082 0 0 0 .233-.093c.042-.018.085-.036.128-.056l.1-.046.125-.062.096-.05c.042-.024.082-.045.123-.07l.094-.054.12-.074.092-.06c.04-.024.077-.052.116-.079l.088-.061.113-.085c.028-.023.057-.042.083-.065.039-.03.076-.06.112-.092l.078-.067c.037-.032.074-.065.109-.099l.075-.069c.036-.034.07-.07.106-.105l.07-.07.103-.113.063-.07.103-.122c.018-.024.04-.046.057-.07.036-.044.07-.09.104-.136l.046-.06c.038-.052.073-.106.11-.158l.03-.048a4.57 4.57 0 0 0 .131-.209l.002-.002a5.219 5.219 0 0 0 .34-.678c.008-.022.015-.043.025-.064.023-.057.044-.112.065-.17l.027-.078c.017-.053.037-.108.053-.162l.025-.085c.016-.053.03-.107.043-.16l.022-.092.038-.158a8.1 8.1 0 0 0 .045-.255l.013-.097.013-.105.004-.042c.009-.078.014-.156.02-.233a.602.602 0 0 0 .005-.053c0-.01.003-.021.003-.032-.062 0-.562-.025-1.248-.069-.228-.015-.477-.03-.736-.05-.242-.016-.492-.035-.744-.054-.002.06-.008.119-.012.176-.004.03-.004.062-.008.093a2.53 2.53 0 0 1-.124.523c-.365 1.041-1.377 1.764-2.549 1.764-.08 0-.16-.005-.239-.012l-.058-.006a2.665 2.665 0 0 1-.23-.034l-.015-.004a2.164 2.164 0 0 1-.21-.053l-.047-.013-.005-.002a3.272 3.272 0 0 1-.212-.076l-.023-.01a2.45 2.45 0 0 1-.186-.088l-.045-.023a3.36 3.36 0 0 1-.19-.116c-.01-.005-.017-.011-.025-.017a2.378 2.378 0 0 1-.196-.149 1.91 1.91 0 0 1-.166-.15c-.009-.008-.017-.015-.024-.024a2.284 2.284 0 0 1-.138-.152l-.025-.028a2.922 2.922 0 0 1-.135-.183l-.02-.03-.051-.077-.003-.005c-.018-.03-.034-.061-.051-.092l-.02-.037a3.116 3.116 0 0 1-.1-.21 2.483 2.483 0 0 1-.157-.512l-.004-.023a2.868 2.868 0 0 1-.033-.225l-.005-.054a2.654 2.654 0 0 1-.012-.255v-8.624c.001-.789.35-1.537.954-2.045a2.583 2.583 0 0 1 1.917-.6l.074.008.175.027.076.015c.067.014.133.03.2.051.01.004.023.006.034.009.235.075.458.18.665.315l.043.027c.063.044.126.09.186.139l.043.038c.109.092.21.193.303.3l.041.045c.049.06.096.122.14.186.009.01.015.023.023.035.036.054.07.108.102.164l.034.063c.028.052.053.103.075.156l.028.059.012.03c.004.006.004.01.007.015.011.032.023.064.033.097.011.034.025.067.037.101l.037.145c.009.035.02.068.025.103.012.053.02.11.025.165.006.03.012.059.015.089.009.087.013.174.013.262v.414l.18-.006zm26.532-.372v2.899h-5.316v-2.9c0-1.205.775-2.229 1.86-2.57a2.67 2.67 0 0 1 1.04-.11c.025.002.049.006.073.009.058.007.116.016.172.026l.073.014c.069.016.139.034.207.055l.02.006c.151.048.297.11.436.185l.064.034c.057.033.111.067.166.103.01.007.022.013.031.02.064.044.126.092.185.14.016.013.031.028.049.042.042.038.085.076.126.116l.052.053c.042.044.083.09.123.136l.034.04a2.946 2.946 0 0 1 .26.385l.04.07c.027.05.052.103.075.156.009.02.019.04.026.059l.008.015.005.014c.011.032.022.065.035.098.012.04.028.078.04.118.015.047.026.094.038.142.01.037.02.074.028.111.011.058.018.116.026.174.004.03.01.06.013.09.007.088.011.178.011.27zm2.72-.28a.244.244 0 0 1-.002-.03c-.006-.079-.01-.158-.018-.235v-.007c-.002-.013-.005-.025-.006-.038a6.951 6.951 0 0 0-.015-.132c-.006-.028-.008-.056-.011-.084l-.012-.075c-.009-.06-.021-.12-.032-.179a4.045 4.045 0 0 0-.05-.224c0-.008-.003-.015-.005-.024-.008-.028-.012-.055-.02-.082-.008-.033-.02-.067-.027-.1-.009-.026-.015-.051-.023-.077-.006-.021-.012-.042-.02-.064l-.008-.028c-.023-.07-.044-.138-.069-.206-.007-.016-.012-.032-.02-.048-.023-.06-.044-.12-.069-.18l-.036-.084a4.87 4.87 0 0 0-.042-.094l-.014-.033c-.048-.1-.096-.2-.15-.297-.008-.015-.015-.03-.024-.043a4.107 4.107 0 0 0-.149-.254c-.017-.027-.033-.054-.052-.082a4.1 4.1 0 0 0-.15-.218.88.88 0 0 0-.043-.063 5.167 5.167 0 0 0-.206-.26l-.06-.07a4.494 4.494 0 0 0-.2-.22l-.013-.014-.017-.018a4.322 4.322 0 0 0-.22-.209l-.022-.022a2.435 2.435 0 0 0-.058-.05l-.008-.008a5.063 5.063 0 0 0-.22-.182l-.047-.038a6.092 6.092 0 0 0-.273-.195l-.06-.039-.006-.005a4.59 4.59 0 0 0-.284-.171c-.007-.005-.012-.009-.02-.013a5.015 5.015 0 0 0-.3-.156l-.025-.011a6.527 6.527 0 0 0-.239-.104l-.06-.025-.076-.031a4.623 4.623 0 0 0-.322-.112c-.02-.006-.039-.01-.058-.017a5.12 5.12 0 0 0-.282-.076l-.089-.02a5.23 5.23 0 0 0-.34-.065l-.04-.005a5.027 5.027 0 0 0-.315-.035l-.093-.008h-.018a4.835 4.835 0 0 0-.318-.013h-.023a5.06 5.06 0 0 0-.22.005c-.05.003-.104.005-.154.01-.06.003-.116.006-.175.012l-.098.012-.121.016c-.016.002-.032.003-.047.006a2.782 2.782 0 0 0-.11.02 3.096 3.096 0 0 0-.11.019l-.042.007-.113.026c-.049.01-.097.021-.145.034-.039.009-.076.02-.114.031-.047.013-.093.025-.14.04l-.11.036h-.003a.38.38 0 0 1-.04.015l-.095.032c-.037.013-.073.028-.11.042l-.132.053a3.688 3.688 0 0 0-.11.048l-.093.042c-.01.006-.022.01-.033.016l-.106.051-.125.066c-.035.018-.07.038-.104.058a2.94 2.94 0 0 0-.121.07l-.101.062-.116.075c-.034.022-.064.044-.097.067l-.013.009-.101.072a5.283 5.283 0 0 0-.203.158l-.09.074-.106.093c-.028.025-.058.051-.084.077-.035.032-.07.065-.103.1h-.002l-.08.078-.02.024a2.045 2.045 0 0 0-.077.08l-.002.002-.074.082h-.001a3.748 3.748 0 0 0-.093.11l-.003.002-.07.084-.036.047-.052.067a3.251 3.251 0 0 1-.068.09l-.026.037-.059.082a.021.021 0 0 1-.004.006l-.059.086v.002l-.03.046c-.016.026-.033.05-.048.076l-.006.008a3.673 3.673 0 0 0-.053.086c-.002 0-.002.001-.003.002l-.045.081-.026.047c-.001.004-.004.007-.007.01-.015.028-.03.056-.047.084 0 .002 0 .003-.002.003a.75.75 0 0 1-.03.06l-.035.072c-.003.006-.007.01-.008.017l-.042.08-.001.003-.059.13c0 .003-.003.006-.003.008l-.003.005a.128.128 0 0 0-.008.017c-.01.025-.024.05-.033.074l-.001.003c-.02.049-.04.098-.058.147l-.038.097c-.02.054-.037.108-.054.163a5.689 5.689 0 0 0-.107.37v.002h-.002l-.001.015c-.018.07-.035.14-.049.21l-.02.106v.006c-.01.05-.02.1-.027.152l-.016.121v.002l-.001.007c-.007.045-.011.091-.018.137a2.096 2.096 0 0 0-.009.132.995.995 0 0 0-.008.12l-.002.017c-.007.1-.01.201-.01.302v8.562a5.605 5.605 0 0 0 .044.702l.006.051c.014.107.03.214.051.32l.017.086c.018.087.038.173.059.258l.016.073c.028.104.059.207.091.31.007.024.017.049.025.074a6.248 6.248 0 0 0 .269.668c.04.083.08.165.125.246.007.01.01.02.016.03l.026.048a7.644 7.644 0 0 0 .348.548c.042.06.088.122.133.18l.06.075c.043.053.087.106.132.158l.06.066a4.594 4.594 0 0 0 .41.404c.019.017.038.032.059.048.054.047.11.092.168.138l.07.052c.059.044.122.088.184.13.017.011.035.025.053.036.083.054.167.105.252.154l.013.007c.101.058.205.11.311.158.07.032.141.06.211.09l.068.026c.086.034.173.062.26.09l.021.009c.113.033.227.063.342.087.11.025.22.044.333.059.084.011.168.021.254.027l.06.006a5.006 5.006 0 0 0 1.185-.064l3.313-.518c-.009-.07-.015-.14-.023-.21-.004-.041-.009-.082-.012-.124a3.23 3.23 0 0 0-.008-.089c-.004-.047-.008-.093-.01-.142a8.359 8.359 0 0 1-.018-.229l-.005-.068c-.004-.056-.008-.11-.01-.169a39.448 39.448 0 0 1-.037-.741v-.007c-.005-.09-.009-.18-.012-.272l-.003-.069v-.022h-3.486c-.1 0-.198-.006-.297-.018a2.187 2.187 0 0 1-.243-.038h-.002a2.723 2.723 0 0 1-.23-.06l-.008-.002-.035-.01a3.027 3.027 0 0 1-.237-.09 1.936 1.936 0 0 1-.2-.097l-.036-.019a2.1 2.1 0 0 1-.22-.137 2.904 2.904 0 0 1-.171-.131l-.028-.024a2.336 2.336 0 0 1-.17-.158c-.009-.007-.015-.016-.024-.025a2.543 2.543 0 0 1-.14-.157l-.024-.026a2.883 2.883 0 0 1-.135-.184l-.025-.04c-.016-.025-.034-.047-.047-.075l-.002-.001-.052-.092a2.11 2.11 0 0 1-.121-.252l-.018-.044c-.025-.06-.045-.121-.066-.183a2.69 2.69 0 0 1-.074-.282c-.003-.012-.003-.023-.007-.033a2.086 2.086 0 0 1-.03-.209 2.358 2.358 0 0 1-.018-.31v-2.932h6.662a1.365 1.365 0 0 0 1.38-1.381v-4.24a3.398 3.398 0 0 0-.003-.28zm11.259-4.75a6.223 6.223 0 0 0-.77-.265l-.012-.003a4.74 4.74 0 0 0-.152-.038l-.018-.004c-.046-.01-.092-.021-.14-.03a6.472 6.472 0 0 0-1.207-.12h-.008c-.098 0-.194.004-.293.009-.026 0-.053.003-.081.005-.068.005-.135.009-.203.017-.036.002-.071.007-.106.01a8.938 8.938 0 0 0-.283.04c-.059.01-.116.02-.174.032l-.07.013-.029.007c-.066.014-.132.03-.197.047l-.07.017c-.087.023-.17.048-.255.075l-.014.004c-.008.003-.018.008-.026.01-.119.04-.235.081-.348.128l-.039.015c-.114.047-.228.099-.339.154-.011.007-.024.011-.037.017a.453.453 0 0 1-.03.017c-.077.04-.154.08-.23.124l-.003.002-.03.018a8.11 8.11 0 0 0-.22.135l-.052.035c-.008.007-.016.011-.025.017-.054.036-.106.074-.16.111l-.037.028-.038.027c-.068.05-.134.102-.198.156a1.49 1.49 0 0 0-.034.028h-.001a6.203 6.203 0 0 0-.187.166c-.024.021-.045.044-.07.066-.045.042-.09.087-.135.132l-.031.033-.033.035-.057.061c-.038.041-.076.081-.11.124h-.001a.495.495 0 0 0-.03.033l-.002.001c-.052.064-.105.127-.155.192l-.058.075a8.764 8.764 0 0 0-.084.117c-.01.012-.02.024-.027.036a.812.812 0 0 0-.026.039l-.026.038c-.047.07-.094.14-.138.21v.002c-.008.01-.014.022-.02.033-.028.044-.054.091-.079.136-.015.027-.033.054-.047.081-.004.006-.008.011-.009.016-.01.022-.022.043-.034.065l-.088.17v.002c-.009.017-.018.033-.025.05l-.015.03a2.24 2.24 0 0 0-.058.133l-.048.105-.004.012c-.002.004-.006.008-.006.014a.946.946 0 0 0-.027.071 3.603 3.603 0 0 0-.066.169l-.029.084c-.023.062-.041.124-.061.187a2.654 2.654 0 0 0-.013.044l-.012.04c-.025.088-.05.176-.072.265v.006c-.033.136-.06.273-.083.41l-.003.012a7.934 7.934 0 0 0-.024.16l-.012.088-.004.041c-.01.092-.02.184-.025.277l-.001.015-.002.01a7.663 7.663 0 0 0-.01.347v13.463h2.76V14.014c0-.773.35-1.585.904-2.166a3.089 3.089 0 0 1 .284-.26 2.375 2.375 0 0 1 1.1-.514c.11-.018.223-.027.336-.028l3.002.069c.025-.447.05-.932.075-1.477.001-.039.004-.076.006-.115v-.029c.004-.08.009-.16.01-.243l.002-.017v-.018c.004-.08.008-.16.01-.242a8.145 8.145 0 0 0-.513-.232zM81.288 27.476h2.762V.517h-2.762v26.96zm6.305-9.695l-.124-.224-.072-.126 4.995-8.468.162-.277.056-.092h-3.142l-.182.303.07-.117-.07.117-3.026 5.012-1.417 2.348c-.076.13-.143.246-.198.351-.009.012-.015.025-.021.036l-.058.11c-.009.015-.016.031-.024.046-.011.023-.023.043-.032.067a.061.061 0 0 0-.01.02l-.021.047-.032.076c-.006.014-.01.03-.017.044a.734.734 0 0 0-.022.068l-.013.043c-.007.021-.01.043-.014.062l-.008.042a.528.528 0 0 0-.01.1c-.001.021 0 .042.001.063 0 .011 0 .024.002.034l.01.071c.002.009.002.018.005.027.006.029.014.059.024.088l.005.012c.043.137.117.285.22.471l.016.029c.03.05.06.105.092.16l5.247 9.148h3.037l-5.429-9.69z"/>
</svg>
