<?xml version="1.0" encoding="UTF-8"?>
<svg width="32px" height="32px" viewBox="0 0 32 32" version="1.1" xmlns="http://www.w3.org/2000/svg" xmlns:xlink="http://www.w3.org/1999/xlink">
    <!-- Generator: sketchtool 40.3 (33839) - http://www.bohemiancoding.com/sketch -->
    <title>3FDC9D95-73E9-4C8D-990F-8CC8EC415CCD</title>
    <desc>Created with sketchtool.</desc>
    <defs></defs>
    <g id="Navigation" stroke="none" stroke-width="1" fill="none" fill-rule="evenodd">
        <g id="Navigation---Desktop-HD" transform="translate(-1324.000000, -12.000000)" fill="#D5C8FF">
            <g id="Navigation">
                <g id="Notifications" transform="translate(1324.000000, 12.000000)">
                    <path d="M26,4 L6,4 C4.3,4 3,5.3 3,7 L3,21 C3,22.7 4.3,24 6,24 L11,24 L13.9,27.1 C15.1,28.3 17,28.3 18.1,27.1 L21,24 L26,24 C27.7,24 29,22.7 29,21 L29,7 C29,5.3 27.7,4 26,4 L26,4 Z M27,21 C27,21.6 26.6,22 26,22 L20.1,22 L16.6,25.7 C16.4,25.9 16.2,26 16,26 C15.8,26 15.6,25.9 15.3,25.7 L11.9,22 L6,22 C5.4,22 5,21.6 5,21 L5,7 C5,6.4 5.4,6 6,6 L26,6 C26.6,6 27,6.4 27,7 L27,21 L27,21 Z M24,11 L8,11 L8,9 L24,9 L24,11 L24,11 Z M24,15 L8,15 L8,13 L24,13 L24,15 L24,15 Z M24,19 L8,19 L8,17 L24,17 L24,19 L24,19 Z"></path>
                </g>
            </g>
        </g>
    </g>
</svg>