<svg xmlns="http://www.w3.org/2000/svg" xmlns:xlink="http://www.w3.org/1999/xlink" width="419" height="232" viewBox="0 0 419 232">
    <defs>
        <rect id="b" width="411" height="124" rx="2"/>
        <filter id="a" width="104.1%" height="113.7%" x="-2.1%" y="-4.4%" filterUnits="objectBoundingBox">
            <feOffset dy="2" in="SourceAlpha" result="shadowOffsetOuter1"/>
            <feGaussianBlur in="shadowOffsetOuter1" result="shadowBlurOuter1" stdDeviation="1"/>
            <feColorMatrix in="shadowBlurOuter1" result="shadowMatrixOuter1" values="0 0 0 0 0.101960784 0 0 0 0 0.0941176471 0 0 0 0 0.11372549 0 0 0 0.16 0"/>
            <feOffset dy="1" in="SourceAlpha" result="shadowOffsetOuter2"/>
            <feGaussianBlur in="shadowOffsetOuter2" result="shadowBlurOuter2" stdDeviation="2"/>
            <feColorMatrix in="shadowBlurOuter2" result="shadowMatrixOuter2" values="0 0 0 0 0.101960784 0 0 0 0 0.0941176471 0 0 0 0 0.11372549 0 0 0 0.12 0"/>
            <feMerge>
                <feMergeNode in="shadowMatrixOuter1"/>
                <feMergeNode in="shadowMatrixOuter2"/>
            </feMerge>
        </filter>
        <rect id="d" width="411" height="92" rx="2"/>
        <filter id="c" width="104.1%" height="118.5%" x="-2.1%" y="-6%" filterUnits="objectBoundingBox">
            <feOffset dy="2" in="SourceAlpha" result="shadowOffsetOuter1"/>
            <feGaussianBlur in="shadowOffsetOuter1" result="shadowBlurOuter1" stdDeviation="1"/>
            <feColorMatrix in="shadowBlurOuter1" result="shadowMatrixOuter1" values="0 0 0 0 0.101960784 0 0 0 0 0.0941176471 0 0 0 0 0.11372549 0 0 0 0.16 0"/>
            <feOffset dy="1" in="SourceAlpha" result="shadowOffsetOuter2"/>
            <feGaussianBlur in="shadowOffsetOuter2" result="shadowBlurOuter2" stdDeviation="2"/>
            <feColorMatrix in="shadowBlurOuter2" result="shadowMatrixOuter2" values="0 0 0 0 0.101960784 0 0 0 0 0.0941176471 0 0 0 0 0.11372549 0 0 0 0.12 0"/>
            <feMerge>
                <feMergeNode in="shadowMatrixOuter1"/>
                <feMergeNode in="shadowMatrixOuter2"/>
            </feMerge>
        </filter>
    </defs>
    <g fill="none" fill-rule="evenodd">
        <g transform="translate(4 3)">
            <use fill="#000" filter="url(#a)" xlink:href="#b"/>
            <use fill="#FFF" xlink:href="#b"/>
        </g>
        <path fill="#F9F9F9" d="M4 95h411v30a2 2 0 0 1-2 2H6a2 2 0 0 1-2-2V95z"/>
        <path fill="#EDECEE" d="M209 95h1v32h-1z"/>
        <text fill="#878190" font-family="Roboto-Regular, Roboto" font-size="12" transform="translate(4 3)">
            <tspan x="70.086" y="111">Needs Work</tspan>
        </text>
        <text fill="#1CA372" font-family="Roboto-Regular, Roboto" font-size="12" transform="translate(4 3)">
            <tspan x="271.353" y="111">Approve Task</tspan>
        </text>
        <text fill="#4E4A57" font-family="RobotoCondensed-Regular, Roboto Condensed" font-size="16" font-style="condensed" transform="translate(4 3)">
            <tspan x="48" y="55">Add notes to project card</tspan>
        </text>
        <path fill="#24CC8F" d="M6 3h407a2 2 0 0 1 2 2v30H4V5a2 2 0 0 1 2-2z"/>
        <text fill="#FFF" font-family="Roboto-Bold, Roboto" font-size="12" font-weight="bold" transform="translate(4 3)">
            <tspan x="134.244" y="19">Thomas</tspan> <tspan x="178.16" y="19" font-family="Roboto-Regular, Roboto" font-weight="normal"> requests approval</tspan>
        </text>
        <text fill="#878190" font-family="Roboto-Regular, Roboto" font-size="12" transform="translate(4 3)">
            <tspan x="48" y="75">Share with the rest of the team during stand-up</tspan>
        </text>
        <g transform="translate(4 35)">
            <path fill="#3BCAD7" d="M0 0h40v60H0z"/>
            <rect width="28" height="28" x="6" y="16" fill="#000" fill-opacity=".24" rx="2"/>
            <path fill="#FFF" d="M18.662 34.832c-.312 0-.61-.123-.831-.344L14 30.657l1.662-1.662 2.934 2.934L24.534 25l1.785 1.529-6.764 7.893a1.182 1.182 0 0 1-.848.409l-.045.001"/>
        </g>
        <g>
            <g transform="translate(4 135)">
                <use fill="#000" filter="url(#c)" xlink:href="#d"/>
                <use fill="#FFF" xlink:href="#d"/>
            </g>
            <path fill="#A5A1AC" d="M6 135h407a2 2 0 0 1 2 2v30H4v-30a2 2 0 0 1 2-2z"/>
            <text fill="#FFF" font-family="Roboto-Regular, Roboto" font-size="12" transform="translate(4 135)">
                <tspan x="142.4" y="19">You requested approval</tspan>
            </text>
            <text fill="#4E4A57" font-family="RobotoCondensed-Regular, Roboto Condensed" font-size="16" font-style="condensed" transform="translate(4 135)">
                <tspan x="48" y="55">Send stand-up email</tspan>
            </text>
            <text fill="#878190" font-family="Roboto-Regular, Roboto" font-size="12" transform="translate(4 135)">
                <tspan x="48" y="75">Before 11:00AM Monday morning</tspan>
            </text>
            <g transform="translate(4 167)">
                <path fill="#46A7D9" d="M0 0h40v60H2a2 2 0 0 1-2-2V0z"/>
                <rect width="28" height="28" x="6" y="16" fill="#000" fill-opacity=".24" rx="2"/>
                <path fill="#FFF" d="M18.662 34.832c-.312 0-.61-.123-.831-.344L14 30.657l1.662-1.662 2.934 2.934L24.534 25l1.785 1.529-6.764 7.893a1.182 1.182 0 0 1-.848.409l-.045.001"/>
            </g>
        </g>
    </g>
</svg>
