<svg xmlns="http://www.w3.org/2000/svg" width="386" height="200" viewBox="0 0 386 200">
    <g fill="none" fill-rule="evenodd">
        <g fill="#34313A" opacity=".12">
            <path d="M10.811 125.405h86.486v10.811H10.811z"/>
            <path d="M21.622 114.595h64.865v10.811H21.622zM0 136.216h108.108v10.811H0z"/>
            <path d="M10.811 147.027h86.486v10.811H10.811zM21.622 157.838h64.865v10.811H21.622zM299.459 137.297h64.865v10.811h-64.865zM288.649 148.108h86.486v10.811h-86.486zM299.459 158.919h64.865v10.811h-64.865zM116.014 156.757h156.081v10.811H116.014zM127.162 145.946h133.784v10.811H127.162zM104.865 167.568h178.378v10.811H104.865z"/>
            <path d="M116.014 178.378h156.081v10.811H116.014zM138.311 189.189h111.486V200H138.311z"/>
        </g>
        <path fill="#260F10" d="M32.432 43.243h5.405v5.405h-5.405z"/>
        <path fill="#551717" d="M27.027 37.837h5.405v5.405h-5.405zM43.243 43.243h5.405v5.405h-5.405zM43.243 59.46h5.405v5.404h-5.405zM37.838 48.648h5.405V59.46h-5.405zM48.649 48.648H59.46v5.405H48.649zM48.649 64.864H59.46v5.405H48.649z"/>
        <path fill="#260F10" d="M37.838 37.837h5.405v5.405h-5.405z"/>
        <path fill="#D1B8CB" d="M43.243 37.837h5.405v5.405h-5.405z"/>
        <path fill="#EDE4ED" d="M48.649 37.837H59.46v5.405H48.649z"/>
        <path fill="#FFF" d="M48.649 43.243H59.46v5.405H48.649z"/>
        <path fill="#EDE4ED" d="M37.838 43.243h5.405v5.405h-5.405zM32.432 48.648h5.405v5.405h-5.405zM27.027 54.054h5.405v5.405h-5.405z"/>
        <path fill="#D1B8CB" d="M32.432 54.054h5.405v5.405h-5.405z"/>
        <path fill="#DFCEDD" d="M32.432 59.46h5.405v5.404h-5.405z"/>
        <path fill="#D1C4CE" d="M21.622 70.27h5.405v10.811h-5.405z"/>
        <path fill="#DFCEDD" d="M37.838 64.864h5.405v5.405h-5.405z"/>
        <path fill="#D1C4CE" d="M32.432 86.486h5.405v5.405h-5.405z"/>
        <path fill="#7D4327" d="M37.838 86.486h10.811v5.405H37.838zM43.243 91.891h21.622v5.405H43.243z"/>
        <path fill="#5A311D" d="M37.838 81.081h10.811v5.405H37.838zM48.649 86.486H59.46v5.405H48.649z"/>
        <path fill="#7D4327" d="M48.649 81.081H59.46v5.405H48.649z"/>
        <path fill="#D1C4CE" d="M37.838 91.891h5.405v5.405h-5.405zM32.432 97.297h5.405v5.405h-5.405zM37.838 102.702h5.405v5.405h-5.405z"/>
        <path fill="#EDE4ED" d="M48.649 108.108H59.46v5.405H48.649z"/>
        <path fill="#FFF" d="M32.432 118.918h5.405v5.405h-5.405zM21.622 118.918h5.405v5.405h-5.405zM16.216 113.513h5.405v5.405h-5.405z"/>
        <path fill="#F2E7FE" d="M43.243 113.513h5.405v5.405h-5.405z"/>
        <path fill="#EDE4ED" d="M16.216 124.324h-5.405v-5.405h10.81v5.405h16.217v5.406h-5.406v5.405h-5.405v-5.405h-10.81z"/>
        <path fill="#F2E7FE" d="M43.243 124.324h21.622v5.405H43.243z"/>
        <path fill="#515050" d="M48.649 118.918H59.46v5.405H48.649z"/>
        <path fill="#D1B8CB" d="M43.243 102.702h21.622v5.405H43.243z"/>
        <path fill="#400702" d="M32.432 91.891h5.405v5.405h-5.405z"/>
        <path fill="#5A311D" d="M27.027 113.513h5.405v5.405h-5.405z"/>
        <path fill="#400702" d="M37.838 108.108h5.405v5.405h-5.405z"/>
        <path fill="#7D4327" d="M27.027 102.703h5.405v5.405h5.406v5.406H27.027z"/>
        <path fill="#400702" d="M48.649 113.513H59.46v5.405H48.649z"/>
        <path fill="#260F10" d="M27.027 97.297h5.405v5.405h-5.405zM16.216 108.108h5.405v5.405h-5.405zM10.811 113.513h5.405v5.405h-5.405zM5.405 118.918h5.405v5.405H5.405zM10.811 140.54h5.405v5.405h-5.405zM21.622 140.54h5.405v5.405h-5.405zM27.027 145.946h5.405v5.405h-5.405zM48.649 145.946H59.46v5.405H48.649z"/>
        <path fill="#A21A16" d="M48.649 140.54H59.46v5.405H48.649zM27.027 140.54h5.405v5.405h-5.405zM10.811 135.135h5.405v5.405h-5.405zM5.405 124.324h5.405v5.405H5.405z"/>
        <path fill="#ED3838" d="M10.811 124.324h5.405v5.405h-5.405zM27.027 135.135h5.405v5.405h-5.405z"/>
        <path fill="#D82C34" d="M21.622 135.135h5.405v5.405h-5.405zM10.811 129.73h5.405v5.404h-5.405z"/>
        <path fill="#ED3838" d="M16.216 129.73h10.811v5.404H16.216z"/>
        <path fill="#594D66" d="M48.649 135.135H59.46v5.405H48.649z"/>
        <path fill="#D5B9F5" d="M48.649 129.73H59.46v5.404H48.649z"/>
        <path fill="#E2D0F6" d="M43.243 129.73h5.405v5.404h-5.405zM37.838 135.135h5.405v5.405h-5.405z"/>
        <path fill="#F2E7FE" d="M37.838 129.73h5.405v5.404h-5.405z"/>
        <path fill="#D5B9F5" d="M43.243 135.135h5.405v5.405h-5.405z"/>
        <path fill="#551717" d="M16.216 135.135h5.405v5.405h-5.405z"/>
        <path fill="#260F10" d="M0 124.324h5.405v5.405H0zM5.405 129.73h5.405v10.81H5.405z"/>
        <path fill="#373737" d="M27.027 118.918h5.405v5.405h-5.405zM32.432 129.73h5.406v10.81h10.81v5.406h-5.405v5.405h-5.405v-5.405h-5.406zM21.622 102.702h5.405v16.216h-5.405zM37.838 113.514h5.405v5.405h5.406v5.405h-5.406v5.406h-5.405v-10.811h-5.406v-5.405z"/>
        <path fill="#260F10" d="M32.432 102.702h5.405v5.405h-5.405zM43.243 108.108h5.405v5.405h-5.405z"/>
        <path fill="#400702" d="M37.838 97.297H70.27v5.405H37.838zM27.027 86.486h5.405v5.405h-5.405zM21.622 81.081h5.405v5.405h-5.405zM16.216 70.27h5.405v10.811h-5.405z"/>
        <path fill="#EDE4ED" d="M27.027 75.675h5.405v10.811h-5.405z"/>
        <path fill="#7D4327" d="M32.432 75.675h5.405v10.811h-5.405z"/>
        <path fill="#A21A16" d="M48.649 59.46H59.46v5.404H48.649z"/>
        <path fill="#ED3838" d="M48.649 54.054H59.46v5.405H48.649z"/>
        <path fill="#D82C34" d="M43.243 54.054h5.405v5.405h-5.405z"/>
        <path fill="#A21A16" d="M43.243 48.648h5.405v5.405h-5.405z"/>
        <path fill="#D1B8CB" d="M37.838 70.27h5.405v-5.405h5.406v10.811H37.838z"/>
        <path fill="#FFF" d="M37.838 59.46h5.405v5.404h-5.405z"/>
        <path fill="#D1B8CB" d="M21.622 59.46h10.81v5.405h5.406v5.405H27.027v-5.405h-5.405z"/>
        <path fill="#260F10" d="M21.622 54.054h5.405v5.405h-5.405zM27.027 70.27h10.811v5.405H27.027zM37.838 75.675H70.27v5.405H37.838zM16.216 59.46h5.406v5.405h5.405v5.405h-10.81z"/>
        <path fill="#551717" d="M16.216 48.648h5.405v5.405h-5.405z"/>
        <path fill="#260F10" d="M27.027 48.648h5.405v5.405h-5.405z"/>
        <path fill="#551717" d="M21.622 43.243h5.405v5.405h-5.405z"/>
        <path fill="#A21A16" d="M21.622 48.648h5.405v5.405h-5.405z"/>
        <path fill="#ED3838" d="M27.027 43.243h5.405v5.405h-5.405z"/>
        <path fill="#260F10" d="M75.676 43.243H70.27v5.405h5.405z"/>
        <path fill="#551717" d="M81.08 37.837h-5.404v5.405h5.405zM64.865 43.243H59.46v5.405h5.405zM64.865 59.46H59.46v5.404h5.405zM70.27 48.648h-5.405V59.46h5.405z"/>
        <path fill="#260F10" d="M70.27 37.837h-5.405v5.405h5.405z"/>
        <path fill="#D1B8CB" d="M64.865 37.837H59.46v5.405h5.405z"/>
        <path fill="#EDE4ED" d="M70.27 43.243h-5.405v5.405h5.405zM75.676 48.648H70.27v5.405h5.405zM81.08 54.054h-5.404v5.405h5.405z"/>
        <path fill="#D1B8CB" d="M75.676 54.054H70.27v5.405h5.405z"/>
        <path fill="#DFCEDD" d="M75.676 59.46H70.27v5.404h5.405z"/>
        <path fill="#D1C4CE" d="M86.487 70.27h-5.405v10.811h5.405z"/>
        <path fill="#DFCEDD" d="M70.27 64.864h-5.405v5.405h5.405z"/>
        <path fill="#D1C4CE" d="M75.676 86.486H70.27v5.405h5.405z"/>
        <path fill="#7D4327" d="M70.27 86.486H59.46v5.405h10.81z"/>
        <path fill="#5A311D" d="M70.27 81.081H59.46v5.405h10.81z"/>
        <path fill="#D1C4CE" d="M70.27 91.891h-5.405v5.405h5.405zM75.676 97.297H70.27v5.405h5.405zM70.27 102.702h-5.405v5.405h5.405z"/>
        <path fill="#FFF" d="M75.676 118.918H70.27v5.405h5.405zM86.487 118.918h-5.405v5.405h5.405zM91.892 113.513h-5.405v5.405h5.405z"/>
        <path fill="#F2E7FE" d="M64.865 113.513H59.46v5.405h5.405z"/>
        <path fill="#EDE4ED" d="M91.892 124.324h5.405v-5.405h-10.81v5.405H70.27v5.406h5.406v5.405h5.405v-5.405h10.81z"/>
        <path fill="#400702" d="M75.676 91.891H70.27v5.405h5.405z"/>
        <path fill="#5A311D" d="M81.08 113.513h-5.404v5.405h5.405z"/>
        <path fill="#400702" d="M70.27 108.108h-5.405v5.405h5.405z"/>
        <path fill="#7D4327" d="M81.081 102.703h-5.405v5.405H70.27v5.406h10.811z"/>
        <path fill="#260F10" d="M81.08 97.297h-5.404v5.405h5.405zM91.892 108.108h-5.405v5.405h5.405zM97.297 113.513h-5.405v5.405h5.405zM102.703 118.918h-5.405v5.405h5.405zM97.297 140.54h-5.405v5.405h5.405zM86.487 140.54h-5.405v5.405h5.405zM81.08 145.946h-5.404v5.405h5.405z"/>
        <path fill="#A21A16" d="M81.08 140.54h-5.404v5.405h5.405zM97.297 135.135h-5.405v5.405h5.405zM102.703 124.324h-5.405v5.405h5.405z"/>
        <path fill="#ED3838" d="M97.297 124.324h-5.405v5.405h5.405zM81.08 135.135h-5.404v5.405h5.405z"/>
        <path fill="#D82C34" d="M86.487 135.135h-5.405v5.405h5.405zM97.297 129.73h-5.405v5.404h5.405z"/>
        <path fill="#ED3838" d="M91.892 129.73H81.081v5.404h10.811z"/>
        <path fill="#E2D0F6" d="M64.865 129.73H59.46v5.404h5.405zM70.27 135.135h-5.405v5.405h5.405z"/>
        <path fill="#F2E7FE" d="M70.27 129.73h-5.405v5.404h5.405z"/>
        <path fill="#D5B9F5" d="M64.865 135.135H59.46v5.405h5.405z"/>
        <path fill="#551717" d="M91.892 135.135h-5.405v5.405h5.405z"/>
        <path fill="#260F10" d="M108.108 124.324h-5.405v5.405h5.405zM102.703 129.73h-5.405v10.81h5.405z"/>
        <path fill="#373737" d="M81.08 118.918h-5.404v5.405h5.405zM75.676 129.73H70.27v10.81H59.46v5.406h5.405v5.405h5.405v-5.405h5.406zM86.487 102.702h-5.405v16.216h5.405zM70.27 113.514h-5.405v5.405h-5.406v5.405h5.406v5.406h5.405v-10.811h5.406v-5.405z"/>
        <path fill="#260F10" d="M75.676 102.702H70.27v5.405h5.405zM64.865 108.108H59.46v5.405h5.405z"/>
        <path fill="#400702" d="M81.08 86.486h-5.404v5.405h5.405zM86.487 81.081h-5.405v5.405h5.405zM91.892 70.27h-5.405v10.811h5.405z"/>
        <path fill="#EDE4ED" d="M81.08 75.675h-5.404v10.811h5.405z"/>
        <path fill="#7D4327" d="M75.676 75.675H70.27v10.811h5.405z"/>
        <path fill="#DFCEDD" d="M59.46 70.27H48.647v5.405H59.46z"/>
        <path fill="#D82C34" d="M64.865 54.054H59.46v5.405h5.405z"/>
        <path fill="#A21A16" d="M64.865 48.648H59.46v5.405h5.405z"/>
        <path fill="#D1B8CB" d="M70.27 70.27h-5.405v-5.405h-5.406v10.811H70.27z"/>
        <path fill="#FFF" d="M70.27 59.46h-5.405v5.404h5.405z"/>
        <path fill="#D1B8CB" d="M86.486 59.46h-10.81v5.405H70.27v5.405h10.811v-5.405h5.405z"/>
        <path fill="#260F10" d="M86.487 54.054h-5.405v5.405h5.405zM81.081 70.27h-10.81v5.405h10.81zM91.892 59.46h-5.406v5.405h-5.405v5.405h10.81z"/>
        <path fill="#551717" d="M91.892 48.648h-5.405v5.405h5.405z"/>
        <path fill="#260F10" d="M81.08 48.648h-5.404v5.405h5.405z"/>
        <path fill="#551717" d="M86.487 43.243h-5.405v5.405h5.405z"/>
        <path fill="#A21A16" d="M86.487 48.648h-5.405v5.405h5.405z"/>
        <path fill="#ED3838" d="M81.08 43.243h-5.404v5.405h5.405z"/>
        <path fill="#260F10" d="M43.243 32.432h21.622v5.405H43.243z"/>
        <g>
            <path fill="#4F4001" d="M183.784 0h10.81v5.405h-10.81z"/>
            <path fill="#0E3A00" d="M183.784 5.405h10.81v5.405h-10.81zM178.379 10.811h5.405v16.216h-5.405zM194.595 10.811H200v16.216h-5.405z"/>
            <path fill="#2B2B2B" d="M172.973 5.405h10.81v5.405h-10.81zM167.568 10.811h5.405v5.405h-5.405zM162.163 48.649h5.405V59.46h-5.405zM210.81 48.649h5.406V59.46h-5.405z"/>
            <path fill="#2B2B2B" d="M162.163 48.649h5.405V59.46h-5.405zM145.946 54.054h5.405v10.811h-5.405zM227.028 54.054h5.405v10.811h-5.405zM221.622 48.649h5.405v5.405h-5.405zM221.622 64.865h5.405v5.405h-5.405z"/>
            <path fill="#373737" d="M221.622 70.27h5.405v5.405h-5.405zM205.406 81.081h5.405v5.405h-5.405zM216.217 75.676h5.405v10.811h-5.405zM210.81 86.486h5.406v10.811h-5.405z"/>
            <path fill="#2B2B2B" d="M194.595 108.108H200v10.81h-10.81v-5.404h5.405z"/>
            <path fill="#373737" d="M205.405 97.297h5.406v10.811h5.405v5.406h-10.811v5.405H200v-10.81h5.405zM200 86.486h5.405v10.811H200z"/>
            <path fill="#2B2B2B" d="M151.352 64.865h5.405v5.405h-5.405zM156.757 70.27h5.405v5.405h-5.405zM151.352 48.649h5.405v5.405h-5.405zM216.217 59.459h5.405v5.405h-5.405zM156.757 59.459h5.405v5.405h-5.405z"/>
            <path fill="#373737" d="M210.81 59.459h5.406v5.405h-5.405z"/>
            <path fill="#C6D3D6" d="M205.406 59.459h5.405v5.405h-5.405zM167.568 59.459h5.405v5.405h-5.405z"/>
            <path fill="#DAB700" d="M210.81 64.865h5.406v5.405h-5.405zM162.163 64.865h5.405v5.405h-5.405z"/>
            <path fill="#BE9501" d="M205.406 64.865h5.405v5.405h-5.405zM167.568 64.865h5.405v5.405h-5.405zM194.595 75.676H200v5.405h-5.405z"/>
            <path fill="#9D7A00" d="M194.595 81.081H200v5.405h-5.405z"/>
            <path fill="#403100" d="M194.595 86.486H200v5.405h-5.405zM156.757 64.865h5.405v5.405h-5.405zM162.163 70.27h10.81v5.405h-10.81zM205.405 70.27h10.811v-5.405h5.406v10.811h-16.217z"/>
            <path fill="#9D7A00" d="M189.19 86.486h5.405v5.405h-5.405z"/>
            <path fill="#F4CD00" d="M194.595 70.27H200v5.405h-5.405z"/>
            <path fill="#339100" d="M189.19 70.27h5.405v5.405h-5.405z"/>
            <path fill="#195D00" d="M189.19 75.676h5.405v5.405h-5.405z"/>
            <path fill="#BE9501" d="M189.19 81.081h5.405v5.405h-5.405z"/>
            <path fill="#9D7A00" d="M200 64.865h5.405v10.811H200z"/>
            <path fill="#403100" d="M200 75.676h5.405v10.811H200z"/>
            <path fill="#373737" d="M205.406 54.054h5.405v5.405h-5.405zM200 59.459h5.405v5.405H200zM172.973 59.459h5.405v5.405h-5.405z"/>
            <path fill="#40190F" d="M178.379 59.459h5.405v5.405h-5.405zM216.217 86.486h5.405v5.405h-5.405zM232.433 97.297h5.405v5.405h-5.405zM264.865 124.324h5.405v5.405h-5.405zM259.46 129.73h5.405v5.405h-5.405z"/>
            <path fill="#32130B" d="M227.028 135.135h5.405v5.405h-5.405zM189.19 140.541h5.405v5.405h-5.405zM194.595 124.324H200v5.405h-5.405zM183.784 145.946h5.405v5.405h-5.405zM162.163 167.568h5.405v5.405h-5.405zM135.136 162.162h5.405v5.405h-5.405z"/>
            <path fill="#5A3B26" d="M135.136 167.568h5.405v5.405h-5.405z"/>
            <path fill="#5A3D26" d="M162.163 172.973h5.405v5.405h-5.405zM210.81 167.568h5.406v5.405h-5.405zM227.028 156.757h5.405v5.405h-5.405z"/>
            <path fill="#A08163" d="M221.622 156.757h5.405v5.405h-5.405zM227.028 151.351h5.405v5.405h-5.405zM216.217 129.73h5.405v5.405h-5.405zM232.433 108.108h5.405v21.622h-5.405z"/>
            <path fill="#8A7053" d="M216.217 135.135h5.405v5.405h-5.405z"/>
            <path fill="#7C644A" d="M227.028 108.108h5.405v5.405h-5.405z"/>
            <path fill="#8A6F52" d="M232.433 129.73h5.405v5.405h-5.405zM237.838 140.541h5.405v10.811h-5.405zM243.244 151.351h5.405v5.405h-5.405z"/>
            <path fill="#7C6449" d="M232.433 135.135h5.405v5.405h-5.405zM237.838 151.351h5.405v5.405h-5.405z"/>
            <path fill="#C4DBDE" d="M259.46 145.946h5.405v-5.405h5.405v10.81h-5.405v5.406h-5.406v-5.406z"/>
            <path fill="#E6E6E6" d="M259.46 135.135h5.405v-5.405h5.405v10.811h-5.405v5.405h-5.406v5.405h-5.405v-10.81h5.405z"/>
            <path fill="#7C6449" d="M243.244 156.757h16.216v5.405h-16.216z"/>
            <path fill="#A08163" d="M237.838 135.135h5.405v5.405h-5.405zM243.244 145.946h5.405v5.405h-5.405zM248.649 151.351h10.81v5.405h-10.81z"/>
            <path fill="#B7A07C" d="M221.622 97.297h10.81v5.406h5.406v5.405h-10.811v32.433h5.405v10.81h-5.405v5.406h-5.405V129.73h-5.406v-5.406h-10.81v-10.81h10.81v-5.406h-5.405v-10.81h5.405v5.405h5.406z"/>
            <path fill="#8A7053" d="M200 124.324h5.405v5.405H200zM205.406 129.73h10.81v5.405h-10.81z"/>
            <path fill="#A08163" d="M200 118.919h5.405v5.405H200zM205.406 124.324h10.81v5.405h-10.81z"/>
            <path fill="#49301E" d="M200 156.757h5.405v5.405H200z"/>
            <path fill="#7C644A" d="M205.406 140.541h5.405v16.216h-5.405z"/>
            <path fill="#3A2618" d="M194.595 162.162h10.81v5.405h-10.81z"/>
            <path fill="#896F52" d="M145.946 145.946h5.405v5.405h-5.405z"/>
            <path fill="#B7A07C" d="M140.54 129.73h5.406v5.405h-5.405z"/>
            <path fill="#A08164" d="M140.54 124.324h5.406v5.405h-5.405z"/>
            <path fill="#A08163" d="M167.568 145.946h5.405v10.811h-5.405zM172.973 156.757h5.405v10.811h-5.405z"/>
            <path fill="#B7A07C" d="M172.973 124.324h5.405v-5.405h5.406v-5.405h5.405v5.405h5.406v16.216h-10.811v5.406h-5.406v16.216h-5.405v-10.811h-5.405v-5.405h-5.406v-5.406h5.406v-5.405h5.405z"/>
            <path fill="#A08164" d="M140.54 135.135h5.406v5.405h-5.405z"/>
            <path fill="#A08163" d="M178.379 140.541h5.405v5.405h-5.405z"/>
            <path fill="#A08164" d="M167.568 124.324h5.405v5.405h-5.405zM145.946 129.73h21.622v5.405h-21.622zM172.973 118.919h5.405v5.405h-5.405zM178.379 113.514h5.405v5.405h-5.405z"/>
            <path fill="#B7A07C" d="M216.217 91.892h5.405v5.405h-5.405zM237.838 124.324h5.405v10.811h-5.405zM243.243 135.135h5.406v5.406h5.405v10.81h-5.405v-5.405h-5.406z"/>
            <path fill="#896F52" d="M140.54 140.541h5.406v5.405h-5.405z"/>
            <path fill="#B7A07C" d="M145.946 135.135h5.405v10.811h-5.405z"/>
            <path fill="#49301E" d="M140.54 167.568h5.406v5.405h-5.405zM167.568 172.973h10.81v5.405h-10.81zM216.217 167.568h10.81v5.405h-10.81z"/>
            <path fill="#7C644A" d="M145.946 151.351h5.405v10.811h-5.405z"/>
            <path fill="#5A3B26" d="M140.54 162.162h10.812v5.405H140.54z"/>
            <path fill="#5A3D26" d="M167.568 167.568h10.81v5.405h-10.81zM216.217 162.162h10.81v5.405h-10.81z"/>
            <path fill="#32130B" d="M140.54 145.946h5.406v16.216h-5.405zM135.136 118.919h5.405v27.027h-5.405zM156.757 178.378v-5.405h5.405v5.405h16.216v5.406h-21.621zM129.73 172.973v-5.405h5.405v5.405h10.81v-5.405h5.406v10.81H129.73zM178.379 167.568h5.405v10.811h-5.405zM167.568 156.757h5.405v10.811h-5.405zM162.163 145.946h5.405v10.811h-5.405zM151.352 145.946h5.405v21.622h-5.405zM194.595 135.135h16.216v5.405h-16.216zM194.595 156.757H200v5.405h-5.405zM210.81 140.541h5.406v16.216h-5.405zM200 140.541h5.405v16.216H200zM210.81 172.973h16.217v5.405H210.81z"/>
            <path fill="#32130B" d="M189.19 167.568v-5.406h5.405v5.406h10.81v-10.811h5.406v5.405h5.405v5.406h-5.405v5.405h-21.622zM227.028 162.162h5.405v10.811h-5.405zM243.244 162.162h16.216v5.405h-16.216zM232.432 151.351h5.406v5.406h5.405v5.405h-10.81z"/>
            <path fill="#40190F" d="M248.649 135.135h10.81v5.405h-10.81zM259.46 156.757h5.405v-5.406h5.405v10.811h-10.81zM243.244 124.324h5.405v10.811h-5.405zM232.433 140.541h5.405v10.811h-5.405zM210.81 135.135h5.406v5.405h-5.405zM183.784 140.541h5.405v5.405h-5.405zM156.757 145.946h5.405v5.405h-5.405zM151.352 140.541h5.405v5.405h-5.405zM178.379 145.946h5.405v21.622h-5.405zM200 129.73h5.405v5.405H200zM194.595 118.919H200v5.405h-5.405zM216.217 140.541h5.405v21.622h-5.405zM270.27 129.73h5.406v21.622h-5.405zM227.028 113.514h5.405v21.622h-5.405zM237.838 102.703h5.405v21.622h-5.405zM221.622 91.892h10.81v5.405h-10.81z"/>
            <path fill="#1C0800" d="M172.973 64.865h5.405v5.405h-5.405zM135.136 64.865h5.405v5.405h-5.405zM135.136 113.514h5.405v5.405h-5.405zM140.54 118.919h5.406v5.405h-5.405zM167.568 118.919h5.405v5.405h-5.405zM172.973 113.514h5.405v5.405h-5.405z"/>
            <path fill="#1C0800" d="M178.378 108.108h5.406v-5.405h5.405v-5.406h5.406v5.406H200v5.405h-10.81v5.406h-10.812z"/>
            <path fill="#000" d="M151.352 118.919h10.81v5.405h-10.81z"/>
            <path fill="#1C0800" d="M145.946 124.324h21.622v5.405h-21.622z"/>
            <path fill="#000" d="M135.135 102.703v-5.406h5.406v5.406h5.405v5.405h-10.81zM178.378 102.703v-5.406h-5.405v5.406h-5.405v5.405h10.81z"/>
            <path fill="#5A3B26" d="M178.379 64.865h5.405v5.405h-5.405zM172.973 70.27h5.405v5.405h-5.405zM167.568 75.676h5.405v5.405h-5.405z"/>
            <path fill="#F6CCBE" d="M135.136 75.676h5.405v5.405h-5.405z"/>
            <path fill="#C0AC8D" d="M129.73 81.081h5.405v5.405h-5.405z"/>
            <path fill="#8A7053" d="M124.325 97.297h5.405v5.405h-5.405zM183.784 97.297h5.405v5.405h-5.405zM140.54 108.108h5.406v5.405h-5.405zM167.568 108.108h5.405v5.405h-5.405z"/>
            <path fill="#A08264" d="M162.162 97.297h5.406v-5.405h5.405v10.81h-5.405v16.217h-5.406zM151.351 97.297h-5.405v-5.405h-5.405v10.81h5.405v16.217h5.405z"/>
            <path fill="#C0AC8D" d="M178.379 81.081h5.405v5.405h-5.405z"/>
            <path fill="#F6CCBE" d="M172.973 75.676h5.405v5.405h-5.405z"/>
            <path fill="#F6BAA6" d="M129.73 75.676h5.405v5.405h-5.405zM178.379 75.676h5.405v5.405h-5.405z"/>
            <path fill="#E6E6E6" d="M129.73 70.27h5.405v5.405h-5.405zM178.379 70.27h5.405v5.405h-5.405zM162.163 81.081h5.405v5.405h-5.405zM145.946 81.081h5.405v5.405h-5.405zM135.136 108.108h5.405v5.405h-5.405zM140.54 113.514h5.406v5.405h-5.405zM167.568 113.514h5.405v5.405h-5.405zM162.163 140.541h5.405v5.405h-5.405zM151.352 135.135h10.81v5.405h-10.81zM183.784 135.135h10.81v5.405h-10.81zM172.973 108.108h5.405v5.405h-5.405z"/>
            <path fill="#C4DBDE" d="M129.73 102.703h5.405v5.405h-5.405zM145.946 118.919h5.405v5.405h-5.405zM162.163 118.919h5.405v5.405h-5.405zM156.757 140.541h5.405v5.405h-5.405zM194.595 129.73H200v5.405h-5.405zM216.217 97.297h5.405v5.405h-5.405zM210.81 156.757h5.406v5.405h-5.405zM178.379 102.703h5.405v5.405h-5.405z"/>
            <path fill="#E6E6E6" d="M151.352 86.486h10.81v5.405h-10.81z"/>
            <path fill="#B7A07C" d="M151.352 81.081h10.81v5.405h-10.81zM135.135 81.081h10.81v5.405h5.406v10.811h-5.405v-5.405h-5.405v5.405h-5.406v5.406h-5.405V86.486h5.405z"/>
            <path fill="#B7A07C" d="M178.378 81.081h-10.81v5.405h-5.406v10.811h5.406v-5.405h5.405v5.405h5.405v5.406h5.406V86.486h-5.406z"/>
            <path fill="#C4DBDE" d="M151.352 91.892h10.81v5.405h-10.81z"/>
            <path fill="#B7A07C" d="M151.352 97.297h10.81v21.622h-10.81z"/>
            <path fill="#5A3B26" d="M140.54 75.676h5.406v5.405h-5.405zM135.136 70.27h5.405v5.405h-5.405zM129.73 64.865h5.405v5.405h-5.405z"/>
            <path fill="#40190F" d="M145.946 75.676h21.622v5.405h-21.622z"/>
            <path fill="#1C0800" d="M183.784 64.865h5.405v32.432h-5.405zM124.325 64.865h5.405v32.432h-5.405zM118.919 97.297h5.405v5.406h5.406v5.405h5.405v5.406h-10.81v-5.406h-10.811v-5.405h5.405z"/>
            <path fill="#373737" d="M167.568 54.054h5.405v5.405h-5.405zM162.163 59.459h5.405v5.405h-5.405zM189.19 64.865H200v5.405h-10.81z"/>
            <path fill="#2B2B2B" d="M156.757 21.622h5.405v27.027h-5.405zM216.217 21.622h5.405v27.027h-5.405zM205.406 10.811h5.405v5.405h-5.405z"/>
            <path fill="#792E00" d="M200 10.811h5.405v5.405H200zM172.973 10.811h5.405v5.405h-5.405z"/>
            <path fill="#8D3B00" d="M172.973 16.216h5.405v5.405h-5.405zM200 16.216h5.405v5.405H200z"/>
            <path fill="#9D7A00" d="M205.406 16.216h5.405v5.405h-5.405zM200 21.622h5.405v5.405H200zM172.973 21.622h5.405v5.405h-5.405zM167.568 16.216h5.405v5.405h-5.405z"/>
            <path fill="#695500" d="M167.568 21.622h5.405v5.405h-5.405zM205.406 21.622h5.405v5.405h-5.405z"/>
            <path fill="#61D60A" d="M183.784 10.811h5.405v5.405h-5.405z"/>
            <path fill="#359200" d="M189.19 16.216h5.405v5.405h-5.405zM183.784 21.622h5.405v5.405h-5.405zM162.163 10.811h5.405v5.405h-5.405zM156.757 16.216h5.405v5.405h-5.405z"/>
            <path fill="#195C00" d="M189.19 21.622h5.405v5.405h-5.405zM162.163 16.216h5.405v5.405h-5.405z"/>
            <path fill="#622900" d="M162.163 21.622h5.405v5.405h-5.405z"/>
            <path fill="#672600" d="M178.379 27.027h5.405v5.405h-5.405zM172.973 32.432h5.405v5.405h-5.405zM205.406 37.838h5.405v5.405h-5.405z"/>
            <path fill="#682600" d="M210.81 43.243h5.406v5.405h-5.405zM216.217 48.649h5.405v5.405h-5.405z"/>
            <path fill="#622900" d="M210.81 32.432h5.406v10.811h-5.405z"/>
            <path fill="#772C00" d="M210.81 21.622h5.406v10.81h-5.405v5.406h-5.406v-5.406h-10.81v-5.405h16.216z"/>
            <path fill="#682600" d="M205.406 48.649h5.405v5.405h-5.405zM167.568 48.649h5.405v5.405h-5.405z"/>
            <path fill="#752E00" d="M216.217 48.649h5.405v5.405h-5.405z"/>
            <path fill="#A75A14" d="M210.81 81.081h5.406v5.405h-5.405z"/>
            <path fill="#D9F7D1" d="M205.406 86.486h5.405v5.405h-5.405zM200 97.297h5.405v5.405H200z"/>
            <path fill="#B9F0A7" d="M205.406 91.892h5.405v5.405h-5.405zM194.595 97.297H200v5.405h-5.405zM200 102.703h5.405v5.405H200z"/>
            <path fill="#707070" d="M189.19 108.108h5.405v5.405h-5.405z"/>
            <path fill="#D9F7D1" d="M205.406 75.676h10.81v5.405h-10.81zM189.19 91.892H200v5.405h-10.81z"/>
            <path fill="#752E00" d="M156.757 48.649h5.405v5.405h-5.405z"/>
            <path fill="#662700" d="M216.217 54.054h5.405v5.405h-5.405zM156.757 54.054h5.405v5.405h-5.405zM151.352 59.459h5.405v5.405h-5.405zM221.622 59.459h5.405v5.405h-5.405z"/>
            <path fill="#602C00" d="M221.622 54.054h5.405v5.405h-5.405zM151.352 54.054h5.405v5.405h-5.405z"/>
            <path fill="#A85B12" d="M178.379 32.432h10.81v5.405h-10.81z"/>
            <path fill="#682600" d="M189.19 32.432h16.216v5.405H189.19z"/>
            <path fill="#A85B12" d="M167.568 43.243h5.405v5.405h-5.405zM205.406 43.243h5.405v5.405h-5.405z"/>
            <path fill="#373737" d="M178.379 43.243h5.405v5.405h-5.405zM194.595 43.243H200v5.405h-5.405z"/>
            <path fill="#FFF" d="M194.595 37.838h10.81v10.811H200v-5.406h-5.405zM183.784 37.838h-10.811v10.811h5.405v-5.406h5.406z"/>
            <path fill="#A85B12" d="M172.973 48.649h10.81v5.405h-10.81zM194.595 48.649h10.81v5.405h-10.81z"/>
            <path fill="#9F550F" d="M183.784 54.054h10.81v5.405h-10.81z"/>
            <path fill="#CA7938" d="M172.973 54.054h10.81v5.405h-10.81zM183.784 59.46h10.81v-5.406h10.811v5.405H200v5.406h-16.216zM183.784 37.838h10.81v16.216h-10.81z"/>
            <path fill="#672600" d="M167.568 37.838h5.405v5.405h-5.405z"/>
            <path fill="#4E1E00" d="M162.163 43.243h5.405v5.405h-5.405z"/>
            <path fill="#622900" d="M162.163 32.432h5.405v10.811h-5.405z"/>
            <path fill="#792D00" d="M167.568 27.027h10.81v5.405h-5.405v5.406h-5.405v-5.406h-5.406v-5.405z"/>
            <path fill="#0E3A00" d="M162.163 5.405h5.405v5.405h-5.405zM156.757 10.811h5.405v5.405h-5.405zM151.352 16.216h5.405v5.405h-5.405z"/>
            <path fill="#359200" d="M216.216 10.81h-5.405v5.405h5.405zM221.622 16.216h-5.405v5.405h5.405z"/>
            <path fill="#195C00" d="M216.216 16.216h-5.405v5.405h5.405z"/>
            <path fill="#0E3A00" d="M216.216 5.405h-5.405v5.405h5.405zM221.622 10.81h-5.405v5.405h5.405zM227.027 16.216h-5.405v5.405h5.405z"/>
            <path fill="#45BC00" d="M183.784 16.216h5.405v5.405h-5.405zM189.19 10.811h5.405v5.405h-5.405z"/>
            <path fill="#2B2B2B" d="M194.595 5.405h10.81v5.405h-10.81z"/>
            <path fill="#0E3A00" d="M183.784 27.027h10.81v5.405h-10.81z"/>
        </g>
        <g>
            <path fill="#212121" d="M299.46 57.297h5.405v5.405h-5.405z"/>
            <path fill="#0C2B68" d="M283.243 62.702h5.405v5.405h-5.405z"/>
            <path fill="#1E5CDA" d="M337.297 14.054h10.81v5.405h-10.81z"/>
            <path fill="#1A4DB6" d="M337.297 19.46h5.405v5.404h-5.405zM348.108 19.46h5.405v5.404h-5.405z"/>
            <path fill="#2366EE" d="M337.297 8.648h5.405v5.405h-5.405zM326.486 19.46h5.406v-5.406h5.405v27.027h5.406v10.81H321.08v-10.81h5.405z"/>
            <path fill="#1E5CDA" d="M310.27 51.892h5.406v-10.81h5.405v16.215h-10.81zM353.514 51.892h-5.406v-10.81h-5.405v16.215h10.81z"/>
            <path fill="#0C2B68" d="M294.054 68.108h5.405v5.405h-5.405zM299.46 62.702h5.405v5.405h-5.405zM304.865 57.297h5.405v5.405h-5.405z"/>
            <path fill="#1E5CDA" d="M321.08 30.27h5.406v10.811h-5.405zM337.297 30.27h5.405v10.811h-5.405z"/>
            <path fill="#0F347B" d="M310.27 57.297h43.243v5.405H310.27z"/>
            <path fill="#0E3074" d="M304.865 62.703h54.054v5.405h5.405v5.406h-16.216v-5.406h-32.432v5.406h-16.217v-5.406h5.406z"/>
            <path fill="#0C2B68" d="M299.46 73.513h10.81v5.405h-10.81z"/>
            <path fill="#1C4DB2" d="M315.676 68.108h32.432v5.405h-32.432zM321.08 51.892h21.623v5.405H321.08z"/>
            <path fill="#0C2B68" d="M380.54 62.702h-5.404v5.405h5.405zM369.73 68.108h-5.406v5.405h5.405zM364.324 62.702h-5.405v5.405h5.405zM358.919 57.297h-5.405v5.405h5.405zM364.324 73.513h-10.811v5.405h10.811z"/>
            <path fill="#212121" d="M283.243 51.892h10.811v5.405h-5.405v5.406h-5.406v5.405h-5.405v-10.81h5.405zM380.54 51.892h-10.81v5.405h5.405v5.406h5.406v5.405h5.405v-10.81h-5.405zM294.054 73.513h5.405v5.405h-5.405zM315.676 105.946h5.405v5.405h-5.405zM364.324 100.54h5.406v16.217h-5.406v10.81h-5.405v-16.216h5.405z"/>
            <path fill="#212121" d="M358.919 78.919h5.405v21.622h-10.81V89.73h5.405zM342.703 105.946h5.405v-5.405h5.406v5.405h5.405v5.405h-16.216zM321.08 111.351h21.623v5.405H321.08zM315.676 116.757h5.405v10.811h-5.405zM299.46 78.919h5.405v10.81h5.405v10.812h-10.81z"/>
            <path fill="#000" d="M267.027 73.513h5.405v5.405h-5.405zM283.243 89.73h5.405v5.404h-5.405zM272.433 78.92h5.405v5.404h-5.405zM288.649 95.135h5.405v5.405h-5.405zM277.838 84.324h5.405v5.405h-5.405z"/>
            <path fill="#61AEF2" d="M261.622 73.513h5.405v5.405h-5.405zM272.433 84.324h5.405v5.405h-5.405zM283.243 95.135h5.405v5.405h-5.405zM267.027 78.92h5.405v5.404h-5.405zM277.838 89.73h5.405v5.404h-5.405zM288.649 100.54h5.405v5.405h-5.405zM294.054 105.946h5.405v5.405h-5.405zM256.216 78.92h5.405v5.404h-5.405zM267.027 89.73h5.405v5.404h-5.405zM277.838 100.54h5.405v5.405h-5.405zM261.622 84.324h5.405v5.405h-5.405zM272.433 95.135h5.405v5.405h-5.405zM283.243 105.946h5.405v5.405h-5.405zM288.649 111.351h5.405v5.405h-5.405z"/>
            <path fill="#AED8FF" d="M294.054 111.351h5.405v5.405h-5.405z"/>
            <path fill="#F9D624" d="M288.649 122.162h5.405v5.405h-5.405zM294.054 116.757h5.405v5.405h-5.405zM299.46 111.351h5.405v5.405h-5.405zM304.865 105.946h5.405v5.405h-5.405z"/>
            <path fill="#B3B3B3" d="M310.27 73.513h5.405v5.405h-5.405zM304.865 78.92h5.405v5.404h-5.405z"/>
            <path fill="#B9B9B9" d="M348.108 73.513h5.405v5.405h-5.405zM353.514 84.324h5.405v5.405h-5.405z"/>
            <path fill="#B3B3B3" d="M337.297 95.135h10.81v5.405h-10.81zM315.676 95.135h10.81v5.405h-10.81z"/>
            <path fill="#FFF" d="M315.676 78.919h10.81v5.405h-5.405v5.406h-5.405zM348.108 78.919h-10.81v5.405h5.405v5.406h5.405z"/>
            <path fill="#D39062" d="M315.676 89.73h10.81v5.404h-10.81z"/>
            <path fill="#F1965C" d="M326.486 78.919h5.406v-5.405h5.405V89.73h-10.81z"/>
            <path fill="#D39062" d="M315.676 73.513h16.216v5.405h-16.216zM337.297 89.73h10.81v5.404h-10.81zM337.297 73.513h10.81v5.405h-10.81zM348.108 78.92h5.405v10.81h-5.405zM310.27 78.92h5.405v10.81h-5.405z"/>
            <path fill="#CACACA" d="M326.487 89.73h10.81v5.404h-10.81z"/>
            <path fill="#B46E3F" d="M326.487 95.135h10.81v5.405h-10.81z"/>
            <path fill="#E8E8E8" d="M326.487 105.946h10.81v5.405h-10.81z"/>
            <path fill="#CACACA" d="M321.08 100.54h21.623v5.405H321.08z"/>
            <path fill="#B9B9B9" d="M348.108 95.135h5.405v5.405h-5.405zM342.703 100.54h5.405v5.405h-5.405zM315.676 100.54h5.405v5.405h-5.405zM310.27 95.135h5.405v5.405h-5.405z"/>
            <path fill="#B3B3B3" d="M304.865 78.92h5.405v5.404h-5.405zM310.27 73.513h5.405v5.405h-5.405z"/>
            <path fill="#9F9F9F" d="M304.865 84.324h5.405v5.405h-5.405z"/>
            <path fill="#2366EE" d="M315.676 111.351h5.405v5.405h-5.405zM321.08 116.757h5.406v10.811h-5.405z"/>
            <path fill="#1E5CDA" d="M310.27 111.351h5.405v5.405h-5.405zM348.108 111.351h5.405v5.405h-5.405z"/>
            <path fill="#1C4DB2" d="M342.703 111.351h5.405v5.405h-5.405zM337.297 122.162h5.405v5.405h-5.405z"/>
            <path fill="#0F347B" d="M342.703 138.378h5.405v5.405h-5.405z"/>
            <path fill="#0C2B68" d="M348.108 143.784h5.405v5.405h-5.405z"/>
            <path fill="#0E3074" d="M353.514 111.351h5.405v5.405h-5.405zM348.108 116.757h5.405v5.405h-5.405zM331.892 132.973h5.405v10.81h10.811v5.406h-21.622v-5.405h5.406z"/>
            <path fill="#103886" d="M337.297 127.567h5.405v16.216h-5.405z"/>
            <path fill="#0E3074" d="M310.27 116.757h5.405v5.405h-5.405z"/>
            <path fill="#1C4DB2" d="M326.487 116.757h5.405v5.405h-5.405z"/>
            <path fill="#F1965C" d="M310.27 89.73h5.405v5.404h-5.405zM348.108 89.73h5.405v5.404h-5.405z"/>
            <path fill="#B3B3B3" d="M321.08 105.946h5.406v5.405h-5.405zM337.297 105.946h5.405v5.405h-5.405z"/>
            <path fill="#A8B4CC" d="M331.892 116.757h5.405v5.405h-5.405zM326.487 122.162h5.405v5.405h-5.405zM321.08 127.567h5.406v5.405h-5.405z"/>
            <path fill="#8A9AB9" d="M337.297 116.757h5.405v5.405h-5.405zM331.892 122.162h5.405v5.405h-5.405zM326.487 127.567h5.405v5.405h-5.405z"/>
            <path fill="#808EAB" d="M331.892 127.567h5.405v5.405h-5.405z"/>
            <path fill="#8A9AB9" d="M321.08 132.973h5.406v5.405h-5.405zM315.676 138.378h5.405v5.405h-5.405z"/>
            <path fill="#727E96" d="M310.27 143.784h5.405v5.405h-5.405z"/>
            <path fill="#808EAB" d="M315.676 143.784h5.405v-5.406h5.405v-5.405h5.406v10.81h-5.406v5.406h-10.81z"/>
            <path fill="#B9B9B9" d="M353.514 100.54h5.405v5.405h-5.405z"/>
            <path fill="#B3B3B3" d="M353.514 78.92h5.405v5.404h-5.405z"/>
            <path fill="#9F9F9F" d="M358.919 105.946h5.405v5.405h-5.405z"/>
            <path fill="#DEDEDE" d="M358.919 100.54h5.405v5.405h-5.405z"/>
            <path fill="#D3B100" d="M299.46 116.757h5.405v5.405h-5.405z"/>
            <path fill="#AED8FF" d="M283.243 100.54h5.405v5.405h-5.405zM272.433 89.73h5.405v5.404h-5.405zM261.622 78.92h5.405v5.404h-5.405zM288.649 105.946h5.405v5.405h-5.405zM277.838 95.135h5.405v5.405h-5.405zM267.027 84.324h5.405v5.405h-5.405zM256.216 73.513h5.405v5.405h-5.405z"/>
            <path fill="#000" d="M294.054 100.54h5.405v5.405h-5.405zM299.46 105.946h5.405v5.405h-5.405zM304.865 111.351h5.405v10.811h-5.405zM256.216 89.73h5.405v-5.405h-5.405zM272.433 105.946h5.405v-5.405h-5.405zM283.243 132.973h10.811v-5.405h-5.405v-5.406h-5.406z"/>
            <path fill="#000" d="M315.676 100.54h-10.811v5.406h5.405v5.405h5.406zM250.81 68.108h16.217v5.406h-10.81v10.81h-5.406zM261.622 95.136h5.405V89.73h-5.405zM277.838 111.351h5.405v-5.405h-5.405zM267.027 100.54h5.405v-5.405h-5.405zM283.243 116.757h5.405v-5.405h-5.405zM288.649 122.162h5.405v-5.405h-5.405zM310.27 127.567h5.405v-5.405h-5.405zM315.676 132.973h5.405v-5.405h-5.405zM304.865 132.973h5.405v-5.405h-5.405zM310.27 138.378h5.405v-5.405h-5.405z"/>
            <path fill="#000" d="M315.676 138.378h5.405v-5.405h-5.405zM294.054 127.567h10.81v-5.405h-10.81z"/>
            <path fill="#212121" d="M283.243 68.108h5.406v-5.405h10.81v5.405h-5.405v5.406h-10.81zM380.54 68.108h-5.405v-5.405h-10.81v5.405h5.405v5.406h10.81zM304.865 51.892h5.405v5.405h-5.405zM326.487 14.054h5.405v5.405h-5.405zM331.892 8.648h5.405v5.405h-5.405zM337.297 3.243h5.405v5.405h-5.405zM342.703 8.648h5.405v5.405h-5.405zM348.108 14.054h5.405v5.405h-5.405zM353.514 19.46h5.405v5.404h-5.405zM348.108 24.865h5.405v5.405h-5.405zM353.514 51.892h5.405v5.405h-5.405zM358.919 57.297h5.405v5.405h-5.405z"/>
            <path fill="#212121" d="M364.325 73.513h5.405v5.405h-5.405zM353.514 127.567h5.405v5.405h-5.405zM310.27 138.378h5.405v5.405h-5.405zM342.703 116.757h5.405v5.405h5.406v5.406h-5.406v5.405h5.406v10.81h-5.406v-5.405h-5.405zM304.865 143.784h5.405v5.405h43.244v-5.405h5.405v10.81h-54.054z"/>
            <path fill="#000" d="M337.297 84.324h5.405v5.405h-5.405zM321.08 84.324h5.406v5.405h-5.405z"/>
            <path fill="#212121" d="M342.703 19.46h5.405v5.404h-5.405zM337.297 24.865h5.405v5.405h-5.405zM342.703 30.27h5.405v10.811h-5.405zM348.108 41.081h5.405v10.811h-5.405zM310.27 41.081h5.405v10.811h-5.405zM315.676 30.27h5.405v10.811h-5.405zM321.08 19.46h5.406v10.81h-5.405z"/>
            <path fill="#603913" d="M310.27 127.567h5.405v5.405h-5.405z"/>
            <path fill="#B36E3F" d="M304.865 122.162h5.405v5.405h-5.405zM353.514 122.162h5.405v5.405h-5.405z"/>
            <path fill="#F1965C" d="M353.514 116.757h5.405v5.405h-5.405z"/>
        </g>
    </g>
</svg>
