<svg xmlns="http://www.w3.org/2000/svg" xmlns:xlink="http://www.w3.org/1999/xlink" width="419" height="300" viewBox="0 0 419 300">
    <defs>
        <rect id="b" width="411" height="92" rx="2"/>
        <filter id="a" width="104.1%" height="118.5%" x="-2.1%" y="-6%" filterUnits="objectBoundingBox">
            <feOffset dy="2" in="SourceAlpha" result="shadowOffsetOuter1"/>
            <feGaussianBlur in="shadowOffsetOuter1" result="shadowBlurOuter1" stdDeviation="1"/>
            <feColorMatrix in="shadowBlurOuter1" result="shadowMatrixOuter1" values="0 0 0 0 0.101960784 0 0 0 0 0.0941176471 0 0 0 0 0.11372549 0 0 0 0.16 0"/>
            <feOffset dy="1" in="SourceAlpha" result="shadowOffsetOuter2"/>
            <feGaussianBlur in="shadowOffsetOuter2" result="shadowBlurOuter2" stdDeviation="2"/>
            <feColorMatrix in="shadowBlurOuter2" result="shadowMatrixOuter2" values="0 0 0 0 0.101960784 0 0 0 0 0.0941176471 0 0 0 0 0.11372549 0 0 0 0.12 0"/>
            <feMerge>
                <feMergeNode in="shadowMatrixOuter1"/>
                <feMergeNode in="shadowMatrixOuter2"/>
            </feMerge>
        </filter>
        <rect id="d" width="411" height="92" rx="2"/>
        <filter id="c" width="104.1%" height="118.5%" x="-2.1%" y="-6%" filterUnits="objectBoundingBox">
            <feOffset dy="2" in="SourceAlpha" result="shadowOffsetOuter1"/>
            <feGaussianBlur in="shadowOffsetOuter1" result="shadowBlurOuter1" stdDeviation="1"/>
            <feColorMatrix in="shadowBlurOuter1" result="shadowMatrixOuter1" values="0 0 0 0 0.101960784 0 0 0 0 0.0941176471 0 0 0 0 0.11372549 0 0 0 0.16 0"/>
            <feOffset dy="1" in="SourceAlpha" result="shadowOffsetOuter2"/>
            <feGaussianBlur in="shadowOffsetOuter2" result="shadowBlurOuter2" stdDeviation="2"/>
            <feColorMatrix in="shadowBlurOuter2" result="shadowMatrixOuter2" values="0 0 0 0 0.101960784 0 0 0 0 0.0941176471 0 0 0 0 0.11372549 0 0 0 0.12 0"/>
            <feMerge>
                <feMergeNode in="shadowMatrixOuter1"/>
                <feMergeNode in="shadowMatrixOuter2"/>
            </feMerge>
        </filter>
        <rect id="f" width="411" height="92" rx="2"/>
        <filter id="e" width="104.1%" height="118.5%" x="-2.1%" y="-6%" filterUnits="objectBoundingBox">
            <feOffset dy="2" in="SourceAlpha" result="shadowOffsetOuter1"/>
            <feGaussianBlur in="shadowOffsetOuter1" result="shadowBlurOuter1" stdDeviation="1"/>
            <feColorMatrix in="shadowBlurOuter1" result="shadowMatrixOuter1" values="0 0 0 0 0.101960784 0 0 0 0 0.0941176471 0 0 0 0 0.11372549 0 0 0 0.16 0"/>
            <feOffset dy="1" in="SourceAlpha" result="shadowOffsetOuter2"/>
            <feGaussianBlur in="shadowOffsetOuter2" result="shadowBlurOuter2" stdDeviation="2"/>
            <feColorMatrix in="shadowBlurOuter2" result="shadowMatrixOuter2" values="0 0 0 0 0.101960784 0 0 0 0 0.0941176471 0 0 0 0 0.11372549 0 0 0 0.12 0"/>
            <feMerge>
                <feMergeNode in="shadowMatrixOuter1"/>
                <feMergeNode in="shadowMatrixOuter2"/>
            </feMerge>
        </filter>
    </defs>
    <g fill="none" fill-rule="evenodd">
        <g transform="translate(4 203)">
            <use fill="#000" filter="url(#a)" xlink:href="#b"/>
            <use fill="#FFF" xlink:href="#b"/>
        </g>
        <path fill="#F9F9F9" d="M4 263h411v30a2 2 0 0 1-2 2H6a2 2 0 0 1-2-2v-30z"/>
        <text fill="#878190" font-family="Roboto-Regular, Roboto" font-size="12" transform="translate(4 203)">
            <tspan x="119.391" y="79">Assigned to you and </tspan> <tspan x="230.684" y="79" font-family="Roboto-Bold, Roboto" font-weight="bold">3 members</tspan>
        </text>
        <g transform="translate(375 203)">
            <path fill="#24CC8F" d="M0 0h38a2 2 0 0 1 2 2v58H0V0z"/>
            <circle cx="20" cy="30" r="14" fill="#000" fill-opacity=".24"/>
            <path fill="#FFF" d="M19 25h2v10h-2z"/>
        </g>
        <text fill="#4E4A57" font-family="RobotoCondensed-Regular, Roboto Condensed" font-size="16" font-style="condensed" transform="translate(4 203)">
            <tspan x="48" y="23">Fix a design problem without needing to </tspan> <tspan x="48" y="43">schedule a meeting</tspan>
        </text>
        <g transform="translate(4 203)">
            <path fill="#24CC8F" d="M2 0h38v60H0V2a2 2 0 0 1 2-2z"/>
            <circle cx="20" cy="30" r="14" fill="#000" fill-opacity=".24"/>
            <path fill="#FFF" d="M21 29h4v2h-4v4h-2v-4h-4v-2h4v-4h2v4z"/>
        </g>
        <g>
            <g transform="translate(4 103)">
                <use fill="#000" filter="url(#c)" xlink:href="#d"/>
                <use fill="#FFF" xlink:href="#d"/>
            </g>
            <path fill="#F9F9F9" d="M4 163h411v30a2 2 0 0 1-2 2H6a2 2 0 0 1-2-2v-30z"/>
            <text fill="#878190" font-family="Roboto-Regular, Roboto" font-size="12" transform="translate(4 103)">
                <tspan x="150.393" y="79">Assigned to </tspan> <tspan x="216.691" y="79" font-family="Roboto-Bold, Roboto" font-weight="bold">Thomas</tspan>
            </text>
            <text fill="#4E4A57" font-family="RobotoCondensed-Regular, Roboto Condensed" font-size="16" font-style="condensed" transform="translate(4 103)">
                <tspan x="48" y="23">Add notes to project card</tspan>
            </text>
            <text fill="#878190" font-family="Roboto-Regular, Roboto" font-size="12" transform="translate(4 103)">
                <tspan x="48" y="43">Share with the rest of the team during stand-up</tspan>
            </text>
            <g transform="translate(4 103)">
                <path fill="#3BCAD7" d="M2 0h38v60H0V2a2 2 0 0 1 2-2z"/>
                <rect width="28" height="28" x="6" y="16" fill="#000" fill-opacity=".24" rx="2"/>
            </g>
        </g>
        <g>
            <g transform="translate(4 3)">
                <use fill="#000" filter="url(#e)" xlink:href="#f"/>
                <use fill="#FFF" xlink:href="#f"/>
            </g>
            <path fill="#F9F9F9" d="M4 63h411v30a2 2 0 0 1-2 2H6a2 2 0 0 1-2-2V63z"/>
            <text fill="#F74E52" font-family="Roboto-Regular, Roboto" font-size="12" transform="translate(4 3)">
                <tspan x="326.072" y="79">Remove Claim</tspan>
            </text>
            <text fill="#878190" font-family="Roboto-Regular, Roboto" font-size="12" transform="translate(4 3)">
                <tspan x="8" y="79">You claimed this task</tspan>
            </text>
            <text fill="#4E4A57" font-family="RobotoCondensed-Regular, Roboto Condensed" font-size="16" font-style="condensed" transform="translate(4 3)">
                <tspan x="48" y="23">Send stand-up email</tspan>
            </text>
            <text fill="#878190" font-family="Roboto-Regular, Roboto" font-size="12" transform="translate(4 3)">
                <tspan x="48" y="43">Before 11:00AM Monday morning</tspan>
            </text>
            <g transform="translate(4 3)">
                <path fill="#46A7D9" d="M2 0h38v60H0V2a2 2 0 0 1 2-2z"/>
                <rect width="28" height="28" x="6" y="16" fill="#000" fill-opacity=".24" rx="2"/>
            </g>
        </g>
    </g>
</svg>
