<svg xmlns="http://www.w3.org/2000/svg" width="1440" height="480" viewBox="0 0 1440 480">
    <g fill="none" fill-rule="nonzero">
        <path fill="#FEFEFE" d="M1002.873 423.48c98.309-13.08 200.935-19.32 301.582-11.64 46.05 3.42 91.473 9.96 135.545 20.04V480H681.054c104.245-19.92 207.59-40.86 312.645-55.32 3.058-.42 6.116-.78 9.174-1.2z"/>
        <path fill="#FDFDFD" d="M.9 0H1440v431.88c-44.072-10.08-89.494-16.68-135.545-20.1-100.647-7.62-203.273-1.44-301.582 11.64-3.058.42-6.116.84-9.174 1.2-105.054 14.4-208.4 35.4-312.645 55.32H.9V0z"/>
        <path fill="#FBFBFB" d="M1009.709 348.6c-2.878.48-5.756 1.02-8.545 1.5-176.47 31.5-349.611 80.1-533.816 105.96-156.682 21.96-314.354 17.52-466.449-6.12V0H1440v344.94c-47.04-10.56-95.79-16.62-144.9-18.54-96.51-3.96-193.019 6.12-285.391 22.2z"/>
        <path fill="#FAFAFA" d="M1440 0v257.64c-50.009-11.04-102.086-16.38-154.164-16.62-92.462-.48-182.765 13.62-269.201 32.7-2.699.6-5.307 1.2-8.005 1.8-165.137 37.2-328.925 87.66-505.844 115.26C334.86 417 164.327 411.42.989 383.22V0H1440z"/>
        <path fill="#F9F9F9" d="M1276.482 155.64c-88.325 3.6-172.602 21.12-253.012 43.26-2.518.66-4.947 1.38-7.465 2.04-153.804 42.96-308.237 95.1-477.871 124.62C359.325 356.64 175.3 350.04.899 316.68V0H1440v169.92c-53.067-11.76-108.472-16.5-163.518-14.28z"/>
        <path fill="#F7F6F7" d="M.9 0H1440v81.78c-56.035-12.54-114.858-16.5-172.872-11.52-84.187 7.26-162.348 28.62-236.822 53.76-2.338.78-4.587 1.56-6.926 2.34-142.47 48.66-287.55 102.54-449.988 133.92-189.332 36.6-387.478 29.4-572.583-9.96V0H.9z"/>
        <path fill="#F4F4F5" d="M1030.846 51.78C899.708 106.2 763.983 161.58 608.829 195c-187.622 40.44-387.927 36.48-573.75-3.18-11.514-2.46-22.847-5.04-34.27-7.74V0h1180.063c-50.369 12.78-97.769 30.36-143.64 49.2-2.159.84-4.228 1.74-6.386 2.58z"/>
        <path fill="#F2F1F2" d="M.9 0h991.18C885.856 51.48 773.067 98.7 644.177 129.72c-172.512 41.52-359.775 44.82-535.165 12.66A1201.872 1201.872 0 0 1 .809 117.36V0H.9z"/>
        <path fill="#EFEFF0" d="M183.036 92.88C140.582 86.52 98.848 77.7 58.374 66.6 38.856 61.26 19.698 55.32.899 48.9V0h860.403c-56.575 25.02-116.657 46.92-181.777 64.44-157.311 42.42-331.622 53.22-496.49 28.44z"/>
        <path fill="#EDECEE" d="M256.97 43.44C189.241 35.88 123.042 21.18 61.97 0h650.294C570.423 42.6 410.413 60.6 256.969 43.44z"/>
    </g>
</svg>
