<?xml version="1.0" encoding="UTF-8"?>
<svg width="104px" height="56px" viewBox="0 0 104 56" version="1.1" xmlns="http://www.w3.org/2000/svg" xmlns:xlink="http://www.w3.org/1999/xlink">
    <!-- Generator: sketchtool 40.3 (33839) - http://www.bohemiancoding.com/sketch -->
    <title>5E629D7C-1B16-4B17-8A09-5769348D3BB0</title>
    <desc>Created with sketchtool.</desc>
    <defs></defs>
    <g id="Navigation" stroke="none" stroke-width="1" fill="none" fill-rule="evenodd">
        <g id="Navigation---Desktop-HD" transform="translate(-1336.000000, 0.000000)">
            <g id="Navigation">
                <g id="Bits" transform="translate(1336.000000, 0.000000)">
                    <rect id="Rectangle" fill="#6133B4" x="24" y="0" width="8" height="8"></rect>
                    <rect id="Rectangle-Copy" fill="#4F2A93" x="16" y="0" width="8" height="8"></rect>
                    <rect id="Rectangle-Copy-40" fill="#4F2A93" x="24" y="8" width="8" height="8"></rect>
                    <rect id="Rectangle-Copy-100" fill="#432476" x="16" y="8" width="8" height="8"></rect>
                    <rect id="Rectangle-Copy-21" fill="#432476" x="32" y="0" width="8" height="8"></rect>
                    <rect id="Rectangle-Copy-41" fill="#432476" x="32" y="8" width="8" height="8"></rect>
                    <rect id="Rectangle-Copy-24" fill="#4F2A93" x="40" y="0" width="8" height="8"></rect>
                    <rect id="Rectangle-Copy-42" fill="#432476" x="40" y="8" width="8" height="8"></rect>
                    <rect id="Rectangle-Copy-28" fill="#432476" x="48" y="0" width="8" height="8"></rect>
                    <rect id="Rectangle-Copy-43" fill="#6133B4" x="48" y="8" width="8" height="8"></rect>
                    <rect id="Rectangle-Copy-29" fill="#6133B4" x="56" y="0" width="8" height="8"></rect>
                    <rect id="Rectangle-Copy-44" fill="#4F2A93" x="56" y="8" width="8" height="8"></rect>
                    <rect id="Rectangle-Copy-34" fill="#6133B4" x="64" y="0" width="8" height="8"></rect>
                    <rect id="Rectangle-Copy-45" fill="#4F2A93" x="64" y="8" width="8" height="8"></rect>
                    <rect id="Rectangle-Copy-35" fill="#4F2A93" x="72" y="0" width="8" height="8"></rect>
                    <rect id="Rectangle-Copy-46" fill="#6133B4" x="72" y="8" width="8" height="8"></rect>
                    <rect id="Rectangle-Copy-37" fill="#6133B4" x="80" y="0" width="8" height="8"></rect>
                    <rect id="Rectangle-Copy-47" fill="#4F2A93" x="80" y="8" width="8" height="8"></rect>
                    <rect id="Rectangle-Copy-38" fill="#6133B4" x="88" y="0" width="8" height="8"></rect>
                    <rect id="Rectangle-Copy-48" fill="#4F2A93" x="88" y="8" width="8" height="8"></rect>
                    <rect id="Rectangle-Copy-39" fill="#432476" x="96" y="0" width="8" height="8"></rect>
                    <rect id="Rectangle-Copy-49" fill="#6133B4" x="96" y="8" width="8" height="8"></rect>
                    <rect id="Rectangle-Copy-59" fill="#432476" x="24" y="16" width="8" height="8"></rect>
                    <rect id="Rectangle-Copy-101" fill="#432476" x="16" y="16" width="8" height="8"></rect>
                    <rect id="Rectangle-Copy-109" fill="#4F2A93" x="8" y="16" width="8" height="8"></rect>
                    <rect id="Rectangle-Copy-58" fill="#6133B4" x="32" y="16" width="8" height="8"></rect>
                    <rect id="Rectangle-Copy-57" fill="#4F2A93" x="40" y="16" width="8" height="8"></rect>
                    <rect id="Rectangle-Copy-56" fill="#4F2A93" x="48" y="16" width="8" height="8"></rect>
                    <rect id="Rectangle-Copy-55" fill="#4F2A93" x="56" y="16" width="8" height="8"></rect>
                    <rect id="Rectangle-Copy-54" fill="#6133B4" x="64" y="16" width="8" height="8"></rect>
                    <rect id="Rectangle-Copy-53" fill="#4F2A93" x="72" y="16" width="8" height="8"></rect>
                    <rect id="Rectangle-Copy-52" fill="#432476" x="80" y="16" width="8" height="8"></rect>
                    <rect id="Rectangle-Copy-51" fill="#4F2A93" x="88" y="16" width="8" height="8"></rect>
                    <rect id="Rectangle-Copy-50" fill="#4F2A93" x="96" y="16" width="8" height="8"></rect>
                    <rect id="Rectangle-Copy-69" fill="#432476" x="24" y="24" width="8" height="8"></rect>
                    <rect id="Rectangle-Copy-102" fill="#6133B4" x="16" y="24" width="8" height="8"></rect>
                    <rect id="Rectangle-Copy-68" fill="#4F2A93" x="32" y="24" width="8" height="8"></rect>
                    <rect id="Rectangle-Copy-67" fill="#432476" x="40" y="24" width="8" height="8"></rect>
                    <rect id="Rectangle-Copy-66" fill="#432476" x="48" y="24" width="8" height="8"></rect>
                    <rect id="Rectangle-Copy-65" fill="#4F2A93" x="56" y="24" width="8" height="8"></rect>
                    <rect id="Rectangle-Copy-64" fill="#432476" x="64" y="24" width="8" height="8"></rect>
                    <rect id="Rectangle-Copy-63" fill="#4F2A93" x="72" y="24" width="8" height="8"></rect>
                    <rect id="Rectangle-Copy-62" fill="#4F2A93" x="80" y="24" width="8" height="8"></rect>
                    <rect id="Rectangle-Copy-61" fill="#432476" x="88" y="24" width="8" height="8"></rect>
                    <rect id="Rectangle-Copy-60" fill="#4F2A93" x="96" y="24" width="8" height="8"></rect>
                    <rect id="Rectangle-Copy-79" fill="#432476" x="24" y="32" width="8" height="8"></rect>
                    <rect id="Rectangle-Copy-103" fill="#432476" x="16" y="32" width="8" height="8"></rect>
                    <rect id="Rectangle-Copy-106" fill="#432476" x="8" y="32" width="8" height="8"></rect>
                    <rect id="Rectangle-Copy-78" fill="#6133B4" x="32" y="32" width="8" height="8"></rect>
                    <rect id="Rectangle-Copy-77" fill="#4F2A93" x="40" y="32" width="8" height="8"></rect>
                    <rect id="Rectangle-Copy-76" fill="#6133B4" x="48" y="32" width="8" height="8"></rect>
                    <rect id="Rectangle-Copy-75" fill="#432476" x="56" y="32" width="8" height="8"></rect>
                    <rect id="Rectangle-Copy-74" fill="#4F2A93" x="64" y="32" width="8" height="8"></rect>
                    <rect id="Rectangle-Copy-73" fill="#6133B4" x="72" y="32" width="8" height="8"></rect>
                    <rect id="Rectangle-Copy-72" fill="#4F2A93" x="80" y="32" width="8" height="8"></rect>
                    <rect id="Rectangle-Copy-71" fill="#6133B4" x="88" y="32" width="8" height="8"></rect>
                    <rect id="Rectangle-Copy-70" fill="#4F2A93" x="96" y="32" width="8" height="8"></rect>
                    <rect id="Rectangle-Copy-89" fill="#4F2A93" x="24" y="40" width="8" height="8"></rect>
                    <rect id="Rectangle-Copy-104" fill="#432476" x="16" y="40" width="8" height="8"></rect>
                    <rect id="Rectangle-Copy-107" fill="#432476" x="8" y="40" width="8" height="8"></rect>
                    <rect id="Rectangle-Copy-108" fill="#4F2A93" x="0" y="40" width="8" height="8"></rect>
                    <rect id="Rectangle-Copy-88" fill="#432476" x="32" y="40" width="8" height="8"></rect>
                    <rect id="Rectangle-Copy-87" fill="#432476" x="40" y="40" width="8" height="8"></rect>
                    <rect id="Rectangle-Copy-86" fill="#6133B4" x="48" y="40" width="8" height="8"></rect>
                    <rect id="Rectangle-Copy-85" fill="#6133B4" x="56" y="40" width="8" height="8"></rect>
                    <rect id="Rectangle-Copy-84" fill="#6133B4" x="64" y="40" width="8" height="8"></rect>
                    <rect id="Rectangle-Copy-83" fill="#432476" x="72" y="40" width="8" height="8"></rect>
                    <rect id="Rectangle-Copy-82" fill="#432476" x="80" y="40" width="8" height="8"></rect>
                    <rect id="Rectangle-Copy-81" fill="#6133B4" x="88" y="40" width="8" height="8"></rect>
                    <rect id="Rectangle-Copy-80" fill="#432476" x="96" y="40" width="8" height="8"></rect>
                    <rect id="Rectangle-Copy-99" fill="#6133B4" x="24" y="48" width="8" height="8"></rect>
                    <rect id="Rectangle-Copy-105" fill="#4F2A93" x="16" y="48" width="8" height="8"></rect>
                    <rect id="Rectangle-Copy-98" fill="#4F2A93" x="32" y="48" width="8" height="8"></rect>
                    <rect id="Rectangle-Copy-97" fill="#432476" x="40" y="48" width="8" height="8"></rect>
                    <rect id="Rectangle-Copy-96" fill="#4F2A93" x="48" y="48" width="8" height="8"></rect>
                    <rect id="Rectangle-Copy-95" fill="#432476" x="56" y="48" width="8" height="8"></rect>
                    <rect id="Rectangle-Copy-94" fill="#4F2A93" x="64" y="48" width="8" height="8"></rect>
                    <rect id="Rectangle-Copy-93" fill="#4F2A93" x="72" y="48" width="8" height="8"></rect>
                    <rect id="Rectangle-Copy-92" fill="#6133B4" x="80" y="48" width="8" height="8"></rect>
                    <rect id="Rectangle-Copy-91" fill="#432476" x="88" y="48" width="8" height="8"></rect>
                    <rect id="Rectangle-Copy-90" fill="#6133B4" x="96" y="48" width="8" height="8"></rect>
                </g>
            </g>
        </g>
    </g>
</svg>