<?xml version="1.0" encoding="UTF-8"?>
<svg width="12px" height="12px" viewBox="0 0 12 12" version="1.1" xmlns="http://www.w3.org/2000/svg" xmlns:xlink="http://www.w3.org/1999/xlink">
    <!-- Generator: sketchtool 40.3 (33839) - http://www.bohemiancoding.com/sketch -->
    <title>EEA09955-0BD9-4FA6-B404-275F69C78BA0</title>
    <desc>Created with sketchtool.</desc>
    <defs></defs>
    <g id="Header" stroke="none" stroke-width="1" fill="none" fill-rule="evenodd">
        <g id="Header---Desktop-HD" transform="translate(-180.000000, -172.000000)">
            <g id="Header" transform="translate(0.000000, 56.000000)">
                <g id="Experience" transform="translate(180.000000, 116.000000)">
                    <g id="-g-Experience">
                        <polygon id="Shape" fill="#FFA623" points="8 8 12 6 8 4 6 0 4 4 0 6 4 8 6 12"></polygon>
                        <polygon id="Shape" fill="#FFFFFF" opacity="0.25" points="2.25 6 4.75 4.75 6 6"></polygon>
                        <polygon id="Shape" fill="#FFFFFF" opacity="0.25" points="6 9.75 4.75 7.25 6 6"></polygon>
                        <polygon id="Shape" fill="#FFFFFF" opacity="0.25" points="9.75 6 7.25 7.25 6 6"></polygon>
                        <polygon id="Shape" fill="#FFFFFF" opacity="0.25" points="6 2.25 7.25 4.75 6 6"></polygon>
                        <polygon id="Shape" fill="#BF7D1A" opacity="0.25" points="9.75 6 7.25 4.75 6 6"></polygon>
                        <polygon id="Shape" fill="#BF7D1A" opacity="0.5" points="6 9.75 7.25 7.25 6 6"></polygon>
                        <polygon id="Shape" fill="#FFFFFF" opacity="0.5" points="2.25 6 4.75 7.25 6 6"></polygon>
                        <polygon id="Shape" fill="#FFFFFF" opacity="0.5" points="6 2.25 4.75 4.75 6 6"></polygon>
                        <polygon id="Shape" fill="#FFFFFF" opacity="0.5" points="5.4 6.6 4.25 6 5.4 5.4 6 4.25 6.6 5.4 7.75 6 6.6 6.6 6 7.75"></polygon>
                    </g>
                </g>
            </g>
        </g>
    </g>
</svg>