<?xml version="1.0" encoding="UTF-8"?>
<svg width="128px" height="28px" viewBox="0 0 128 28" version="1.1" xmlns="http://www.w3.org/2000/svg" xmlns:xlink="http://www.w3.org/1999/xlink">
    <!-- Generator: sketchtool 40.3 (33839) - http://www.bohemiancoding.com/sketch -->
    <title>3FAFE54A-3179-4DDB-A979-179E451CC634</title>
    <desc>Created with sketchtool.</desc>
    <defs>
        <polygon id="path-1" points="0 27.7962154 127.812615 27.7962154 127.812615 -9.23076923e-05 0 -9.23076923e-05"></polygon>
    </defs>
    <g id="Navigation" stroke="none" stroke-width="1" fill="none" fill-rule="evenodd">
        <g id="Navigation---Desktop-HD" transform="translate(-20.000000, -14.000000)">
            <g id="Navigation">
                <g id="Logo" transform="translate(20.000000, 14.000000)">
                    <g>
                        <path d="M24.0521231,26.2991385 C23.2204308,26.2099077 23.2108923,25.8382154 23.2201231,20.8788308 C23.2201231,20.8788308 23.1367385,20.5674462 23.6145846,20.2972923 C24.0921231,20.0277538 25.5453538,17.6182154 24.6524308,15.5631385 C23.7601231,13.5074462 24.4035077,13.6114462 24.7770462,13.8191385 C25.1508923,14.0268308 25.3312,13.7637538 25.1090462,12.6357538 C24.6524308,10.3105231 23.9382769,9.52344615 22.2579692,8.47390769 C21.1539692,7.78436923 21.5536615,6.53390769 23.1235077,6.62621538 C23.8896615,6.67083077 23.8896615,6.67175385 23.9856615,6.07113846 C24.1382769,5.12406154 23.8352,3.50590769 22.6592,3.28252308 C21.8490462,3.12898462 20.8419692,3.99575385 19.6441231,3.39175385 C18.4462769,2.78775385 16.4656615,4.29575385 15.6555077,4.64621538 C14.8456615,4.99667692 14.1770462,4.99975385 13.2530462,4.97729231 C12.3284308,4.95544615 13.7425846,6.50836923 15.1588923,6.85821538 C16.3748923,7.15852308 15.9022769,7.37390769 15.8327385,8.36867692 C15.7552,9.48129231 16.0730462,9.95790769 15.5539692,10.0748308 C14.7576615,10.2532923 13.8684308,8.1136 12.5022769,7.21821538 C9.3992,5.18344615 7.56043077,6.15236923 2.14904615,0.201292308 C1.21089231,-0.831015385 1.59212308,2.35883077 2.17027692,4.06283077 C3.71273846,8.61206154 6.70227692,9.21636923 8.11243077,9.35390769 C9.29150769,9.46929231 10.0955077,9.19483077 10.0955077,9.65021538 C10.0955077,9.97944615 8.70473846,10.1305231 8.16596923,10.1320615 C7.65212308,10.1336 7.06750769,10.0825231 6.40443077,9.95883077 C5.33089231,9.75821538 6.97273846,12.4936 8.02750769,13.3609846 C9.80781538,14.8259077 11.8459692,15.3745231 13.4835077,15.5409846 C13.9567385,15.5889846 14.6296615,15.5803692 14.6296615,15.9517538 C14.6296615,16.3031385 14.2758154,16.3889846 13.8573538,16.3923692 C11.5625846,16.4089846 10.2450462,18.2409846 9.8712,20.3588308 C9.63396923,21.7052923 9.81150769,23.2268308 9.83643077,24.3643692 L9.92535385,25.1763692 C10.1053538,26.6016 4.97766154,27.1514462 4.29858462,24.8542154 C3.55643077,22.3434462 7.60750769,21.0166769 7.68227692,18.6216 C7.72904615,17.1132923 6.34873846,16.4283692 6.34873846,16.4283692 L6.34873846,15.8111385 L6.34873846,14.2240615 L4.76135385,14.2240615 L4.76135385,12.6369846 L3.17427692,12.6369846 L3.17427692,11.0496 L1.58689231,11.0496 L1.58689231,12.6369846 L1.58689231,14.2240615 L1.58689231,15.8111385 L3.17427692,15.8111385 L3.17427692,17.3985231 L4.76135385,17.3985231 L5.78658462,17.3985231 C6.38073846,17.3985231 6.85673846,17.7908308 6.80166154,18.6382154 C6.66504615,20.7317538 2.21335385,22.0176 3.43673846,25.3545231 C4.32104615,27.7659077 8.13335385,27.7960615 11.9496615,27.7960615 L19.0681231,27.7896 C19.2902769,27.7896 19.6022769,27.6831385 19.1481231,26.5348308 C18.7810462,25.6077538 17.5158154,26.2585231 16.4416615,26.2585231 C15.3050462,26.2585231 15.2656615,25.2991385 15.9955077,24.2862154 C16.4416615,23.6677538 17.0096615,23.2080615 17.9745846,22.7585231 C19.4607385,22.0662154 20.5918154,22.9569846 21.1490462,23.7219077 C21.9493538,24.8206769 22.2028923,26.0766769 21.4970462,26.2742154 C20.6459692,26.5117538 20.3841231,26.5434462 20.3555077,27.3539077 C20.3342769,27.9351385 20.6121231,27.7763692 21.9512,27.7763692 L26.3961231,27.7763692 C27.0835077,27.7763692 27.0330462,27.2456 26.3413538,26.3259077 C25.8499692,25.6726769 25.3133538,26.4351385 24.0521231,26.2991385 Z" id="Fill-1" fill="#FFFFFF"></path>
                        <mask id="mask-2" fill="white">
                            <use xlink:href="#path-1"></use>
                        </mask>
                        <g id="Clip-4"></g>
                        <polygon id="Fill-3" fill="#FFFFFF" mask="url(#mask-2)" points="0 10.8272923 1.58707692 10.8272923 1.58707692 9.24021538 0 9.24021538"></polygon>
                        <path d="M113.986,19.8937538 C113.381077,19.4272923 112.511538,19.5389846 112.043846,20.1445231 C111.504769,20.8439077 110.689692,21.2451385 109.808462,21.2451385 C108.316462,21.2451385 107.083538,20.0848308 106.993077,18.5996 C106.99,18.3854462 106.987846,16.8519077 106.987846,16.6525231 C106.987846,15.0971385 108.253077,13.8319077 109.808462,13.8319077 C110.589385,13.8319077 111.315846,14.1439077 111.854308,14.7106769 C112.381077,15.2651385 113.257385,15.2879077 113.811846,14.7611385 C114.366308,14.2346769 114.389077,13.3583692 113.862308,12.8039077 C112.811538,11.6971385 111.333692,11.0626769 109.808462,11.0626769 C106.726,11.0626769 104.218615,13.5700615 104.218615,16.6525231 C104.218615,16.6716 104.219231,18.5900615 104.226923,18.7312923 C104.387846,21.6937538 106.839231,24.0143692 109.808462,24.0143692 C111.555231,24.0143692 113.169077,23.2205231 114.236769,21.8359077 C114.703846,21.2303692 114.591538,20.3608308 113.986,19.8937538" id="Fill-5" fill="#FFFFFF" mask="url(#mask-2)"></path>
                        <path d="M122.222769,21.2450154 C120.731077,21.2450154 119.498462,20.0850154 119.407692,18.6007077 C119.404615,18.3853231 119.402462,16.8450154 119.402462,16.6524 C119.402462,15.0973231 120.667692,13.8317846 122.222769,13.8317846 C123.778154,13.8317846 125.043385,15.0973231 125.043385,16.6524 C125.043385,16.8520923 125.041231,18.3856308 125.037846,18.5979385 C124.948308,20.0840923 123.715385,21.2450154 122.222769,21.2450154 M126.428,10.8231692 C125.782769,10.8231692 125.245231,11.2665538 125.091692,11.8637846 C124.251692,11.3588615 123.272308,11.0625538 122.222769,11.0625538 C119.140615,11.0625538 116.633231,13.5702462 116.633231,16.6524 C116.633231,16.6717846 116.634154,18.5893231 116.641231,18.7311692 C116.802154,21.6936308 119.253846,24.0142462 122.222769,24.0142462 C123.297538,24.0142462 124.302462,23.7068615 125.157538,23.1782462 C125.370154,23.6699385 125.858462,24.0142462 126.428,24.0142462 C127.192615,24.0142462 127.812615,23.3942462 127.812615,22.6296308 L127.812615,16.6773231 L127.812615,16.6524 L127.812615,12.2077846 C127.812615,11.4431692 127.192615,10.8231692 126.428,10.8231692" id="Fill-6" fill="#FFFFFF" mask="url(#mask-2)"></path>
                        <path d="M58.8612923,21.2450154 C57.3692923,21.2450154 56.1366769,20.0847077 56.0462154,18.5994769 C56.0428308,18.3856308 56.0406769,16.8520923 56.0406769,16.6524 C56.0406769,15.0973231 57.3059077,13.8317846 58.8612923,13.8317846 C60.4166769,13.8317846 61.6819077,15.0973231 61.6819077,16.6524 C61.6819077,16.8520923 61.6797538,18.3856308 61.6763692,18.5979385 C61.5868308,20.0840923 60.3539077,21.2450154 58.8612923,21.2450154 M63.0665231,10.8231692 C62.4212923,10.8231692 61.8837538,11.2665538 61.7302154,11.8637846 C60.8902154,11.3588615 59.9108308,11.0625538 58.8612923,11.0625538 C55.7788308,11.0625538 53.2714462,13.5702462 53.2714462,16.6524 C53.2714462,16.6717846 53.2720615,18.5899385 53.2797538,18.7311692 C53.4406769,21.6936308 55.8923692,24.0142462 58.8612923,24.0142462 C59.9360615,24.0142462 60.9409846,23.7068615 61.7960615,23.1782462 C62.0086769,23.6699385 62.4969846,24.0142462 63.0665231,24.0142462 C63.8311385,24.0142462 64.4511385,23.3942462 64.4511385,22.6296308 L64.4511385,16.6773231 L64.4511385,16.6524 L64.4511385,12.2077846 C64.4511385,11.4431692 63.8311385,10.8231692 63.0665231,10.8231692" id="Fill-7" fill="#FFFFFF" mask="url(#mask-2)"></path>
                        <path d="M83.4511385,10.8231385 C82.6865231,10.8231385 82.0665231,11.4431385 82.0665231,12.2077538 L82.0665231,22.6296 C82.0665231,23.3942154 82.6865231,24.0142154 83.4511385,24.0142154 C84.2157538,24.0142154 84.8357538,23.3942154 84.8357538,22.6296 L84.8357538,12.2077538 C84.8357538,11.4431385 84.2157538,10.8231385 83.4511385,10.8231385" id="Fill-8" fill="#FFFFFF" mask="url(#mask-2)"></path>
                        <path d="M99.7588308,10.8231385 C98.9942154,10.8231385 98.3742154,11.4431385 98.3742154,12.2077538 L98.3742154,22.6296 C98.3742154,23.3942154 98.9942154,24.0142154 99.7588308,24.0142154 C100.523446,24.0142154 101.143446,23.3942154 101.143446,22.6296 L101.143446,12.2077538 C101.143446,11.4431385 100.523446,10.8231385 99.7588308,10.8231385" id="Fill-9" fill="#FFFFFF" mask="url(#mask-2)"></path>
                        <path d="M76.2663385,18.6008 C76.1752615,20.0851077 74.9426462,21.2451077 73.4512615,21.2451077 C71.9589538,21.2451077 70.7263385,20.0848 70.6358769,18.5977231 C70.6324923,18.3841846 70.6306462,16.8518769 70.6306462,16.6524923 C70.6306462,15.0971077 71.8958769,13.8318769 73.4512615,13.8318769 C75.0060308,13.8318769 76.2715692,15.0971077 76.2715692,16.6524923 C76.2715692,16.8451077 76.2694154,18.3854154 76.2663385,18.6008 M73.4512615,11.0626462 C72.4217231,11.0626462 71.4595692,11.3472615 70.6306462,11.8346462 L70.6306462,6.66510769 C70.6306462,5.90049231 70.0106462,5.28049231 69.2460308,5.28049231 C68.4811077,5.28049231 67.8614154,5.90049231 67.8614154,6.66510769 L67.8614154,16.6524923 L67.8614154,16.6774154 L67.8614154,22.6297231 C67.8614154,23.3943385 68.4811077,24.0143385 69.2460308,24.0143385 C69.8155692,24.0143385 70.3038769,23.6697231 70.5164923,23.1783385 C71.3715692,23.7069538 72.3761846,24.0143385 73.4512615,24.0143385 C76.4201846,24.0143385 78.8718769,21.6937231 79.0328,18.7263385 C79.0398769,18.5894154 79.0408,16.6715692 79.0408,16.6524923 C79.0408,13.5700308 76.5331077,11.0626462 73.4512615,11.0626462" id="Fill-10" fill="#FFFFFF" mask="url(#mask-2)"></path>
                        <path d="M45.6635692,11.0626462 C44.7088,11.0626462 43.7949538,11.3017231 42.9900308,11.7398769 L42.9900308,6.66510769 C42.9900308,5.90049231 42.3700308,5.28049231 41.6054154,5.28049231 C40.8404923,5.28049231 40.2208,5.90049231 40.2208,6.66510769 L40.2208,22.6297231 C40.2208,23.3943385 40.8404923,24.0143385 41.6054154,24.0143385 C42.3700308,24.0143385 42.9900308,23.3943385 42.9900308,22.6297231 L42.9900308,15.4731077 C43.0955692,15.3832615 43.1931077,15.2817231 43.2709538,15.1580308 C43.7909538,14.3275692 44.6854154,13.8318769 45.6635692,13.8318769 C47.2186462,13.8318769 48.4838769,15.0971077 48.4838769,16.6524923 C48.4838769,16.9060308 48.4817231,22.2869538 48.4780308,22.5955692 C48.4595692,23.3435692 49.0404923,23.9743385 49.7918769,24.0124923 C49.8158769,24.0137231 49.8398769,24.0143385 49.8635692,24.0143385 C50.5958769,24.0143385 51.2078769,23.4398769 51.2454154,22.7001846 C51.2521846,22.5632615 51.2531077,16.7112615 51.2531077,16.6524923 C51.2531077,13.5700308 48.7457231,11.0626462 45.6635692,11.0626462" id="Fill-11" fill="#FFFFFF" mask="url(#mask-2)"></path>
                        <path d="M94.5025231,10.8231385 L92.8871385,10.8231385 L92.8871385,6.66498462 C92.8871385,5.90036923 92.2671385,5.28036923 91.5025231,5.28036923 C90.7379077,5.28036923 90.1179077,5.90036923 90.1179077,6.66498462 L90.1179077,10.8231385 L88.5025231,10.8231385 C87.7379077,10.8231385 87.1179077,11.4431385 87.1179077,12.2077538 C87.1179077,12.9723692 87.7379077,13.5923692 88.5025231,13.5923692 L90.1179077,13.5923692 L90.1179077,22.6296 C90.1179077,23.3942154 90.7379077,24.0142154 91.5025231,24.0142154 C92.2671385,24.0142154 92.8871385,23.3942154 92.8871385,22.6296 L92.8871385,13.5923692 L94.5025231,13.5923692 C95.2671385,13.5923692 95.8871385,12.9723692 95.8871385,12.2077538 C95.8871385,11.4431385 95.2671385,10.8231385 94.5025231,10.8231385" id="Fill-12" fill="#FFFFFF" mask="url(#mask-2)"></path>
                        <path d="M84.7845538,6.66495385 C84.7845538,7.42956923 84.1645538,8.04956923 83.3999385,8.04956923 C82.6353231,8.04956923 82.0153231,7.42956923 82.0153231,6.66495385 C82.0153231,5.90033846 82.6353231,5.28033846 83.3999385,5.28033846 C84.1645538,5.28033846 84.7845538,5.90033846 84.7845538,6.66495385" id="Fill-13" fill="#FF6066" mask="url(#mask-2)"></path>
                        <path d="M101.092246,6.66495385 C101.092246,7.42956923 100.472246,8.04956923 99.7076308,8.04956923 C98.9430154,8.04956923 98.3230154,7.42956923 98.3230154,6.66495385 C98.3230154,5.90033846 98.9430154,5.28033846 99.7076308,5.28033846 C100.472246,5.28033846 101.092246,5.90033846 101.092246,6.66495385" id="Fill-14" fill="#4FB5E8" mask="url(#mask-2)"></path>
                    </g>
                </g>
            </g>
        </g>
    </g>
</svg>