<?xml version="1.0" encoding="UTF-8"?>
<svg width="32px" height="32px" viewBox="0 0 32 32" version="1.1" xmlns="http://www.w3.org/2000/svg" xmlns:xlink="http://www.w3.org/1999/xlink">
    <!-- Generator: sketchtool 40.3 (33839) - http://www.bohemiancoding.com/sketch -->
    <title>E4029491-6F2E-4C6A-9D7A-E4F780C314B9</title>
    <desc>Created with sketchtool.</desc>
    <defs></defs>
    <g id="Navigation" stroke="none" stroke-width="1" fill="none" fill-rule="evenodd">
        <g id="Navigation---Desktop-HD" transform="translate(-1376.000000, -12.000000)" fill="#FFFFFF">
            <g id="Navigation">
                <g id="User" transform="translate(1376.000000, 12.000000)">
                    <path d="M20,17 L19.6,17 C21.5,15.8 22.9,13.7 23,11.2 C23.1,7.4 19.9,4 16.1,4 C12.1,4 9,7.1 9,11 C9,13.6 10.3,15.8 12.4,17 L12,17 C8.1,17 5,20.1 5,24 L5,25 C5,26.7 6.3,28 8,28 L24,28 C25.7,28 27,26.7 27,25 L27,24 C27,20.1 23.9,17 20,17 L20,17 Z M11,11 C11,8.2 13.2,6 16,6 C18.8,6 21,8.2 21,11 C21,13.8 18.8,16 16,16 C13.2,16 11,13.8 11,11 L11,11 Z M24,26 L8,26 C7.4,26 7,25.6 7,25 L7,24 C7,21.2 9.2,19 12,19 L20,19 C22.8,19 25,21.2 25,24 L25,25 C25,25.6 24.6,26 24,26 L24,26 Z"></path>
                </g>
            </g>
        </g>
    </g>
</svg>