<svg xmlns="http://www.w3.org/2000/svg" width="319" height="86" viewBox="0 0 319 86">
    <g fill="none" fill-rule="evenodd">
        <path fill="#BDA8FF" d="M32.772 28.281l-5.886 1.607 4.35 4.364 4.351 4.365 1.536-5.972 1.536-5.971zM50.432 23.46l-5.886 1.608-5.887 1.606 4.35 4.365 4.351 4.364 1.536-5.97z"/>
        <path fill="#E7E0FF" d="M50.432 23.46l-1.536 5.972-1.536 5.971 5.887-1.607 5.886-1.606-4.35-4.365z"/>
        <path fill="#CDBEFF" d="M37.123 32.646l-1.536 5.97 5.887-1.606 5.886-1.606-4.35-4.365-4.351-4.365z"/>
        <path fill="#C8B6FF" d="M25.35 35.859l-1.536 5.971 5.886-1.607 5.887-1.606-4.35-4.365-4.352-4.364z"/>
        <path fill="#CDBEFF" d="M23.814 41.83l22.32 12.609-10.547-15.822z"/>
        <path fill="#BDA8FF" d="M47.374 35.4l-1.24 19.038 13.013-22.251z"/>
        <path fill="#E7E0FF" d="M35.587 38.617l10.547 15.822 1.226-19.036z"/>
        <g>
            <path fill="#CDC2FF" d="M40.85 1.097L39.314.75l.462 1.522.463 1.521 1.073-1.174 1.074-1.175z"/>
            <path fill="#CDC2FF" d="M45.458 2.139l-1.536-.348-1.536-.347.463 1.522.462 1.522 1.074-1.175z"/>
            <path fill="#EDE9FF" d="M45.458 2.139l-1.073 1.174-1.074 1.175 1.536.347 1.537.347-.463-1.522z"/>
            <path fill="#D9D1FF" d="M41.312 2.619L40.24 3.793l1.536.347 1.536.348-.462-1.522-.463-1.522z"/>
            <path fill="#D5CCFF" d="M38.24 1.924L37.167 3.1l1.536.347 1.536.347-.463-1.521L39.314.75z"/>
            <path fill="#D9D1FF" d="M37.167 3.099l3.559 5.577-.487-4.883z"/>
            <path fill="#CDC2FF" d="M43.315 4.488l-2.59 4.188 5.662-3.493z"/>
            <path fill="#EDE9FF" d="M40.239 3.793l.486 4.883 2.586-4.188z"/>
        </g>
        <g>
            <path fill="#9A62FF" d="M32.47 28.036l-5.994 1.638 4.443 4.493 4.442 4.493 1.551-6.13 1.552-6.132zM50.452 23.124l-5.994 1.637-5.994 1.637 4.443 4.495 4.442 4.493 1.551-6.131z"/>
            <path fill="#DBC6FF" d="M50.452 23.124L48.9 29.255l-1.551 6.131 5.994-1.638 5.994-1.636-4.443-4.495z"/>
            <path fill="#B389FF" d="M36.912 32.53l-1.55 6.13 5.993-1.637 5.993-1.637-4.442-4.494-4.442-4.493z"/>
            <path fill="#AA7BFF" d="M24.925 35.804l-1.552 6.131 5.994-1.637 5.994-1.637-4.442-4.494-4.443-4.494z"/>
            <path fill="#B389FF" d="M23.373 41.935l22.77 13.004L35.36 38.66z"/>
            <path fill="#9A62FF" d="M47.363 35.382l-1.22 19.557L59.35 32.108z"/>
            <path fill="#DBC6FF" d="M35.361 38.66L46.142 54.94l1.207-19.553z"/>
        </g>
        <g>
            <path fill="#9A62FF" d="M67.006 79.1l-1.25-.575.104 1.416.104 1.416 1.146-.84 1.147-.841z"/>
            <path fill="#9A62FF" d="M70.758 80.826l-1.25-.575-1.251-.575.104 1.416.104 1.415 1.146-.84z"/>
            <path fill="#DBC6FF" d="M70.758 80.826l-1.147.84-1.146.841 1.25.575 1.25.576-.103-1.416z"/>
            <path fill="#B389FF" d="M67.11 80.516l-1.146.841 1.25.575 1.25.575-.103-1.416-.104-1.415z"/>
            <path fill="#AA7BFF" d="M64.609 79.366l-1.147.84 1.25.576 1.251.575-.103-1.416-.104-1.416z"/>
            <path fill="#B389FF" d="M63.462 80.207l1.979 5.518.522-4.368z"/>
            <path fill="#9A62FF" d="M68.468 82.509l-3.027 3.216 5.528-2.066z"/>
            <path fill="#DBC6FF" d="M65.963 81.357l-.522 4.368 3.024-3.218z"/>
        </g>
        <g>
            <path fill="#BDA8FF" d="M89.04 45.436l-3.876-2.038.147 4.42.147 4.419 3.728-2.382 3.729-2.382z"/>
            <path fill="#BDA8FF" d="M100.666 51.548l-3.876-2.037-3.875-2.038.147 4.42.147 4.42 3.728-2.383z"/>
            <path fill="#E7E0FF" d="M100.666 51.548l-3.729 2.382-3.728 2.382 3.876 2.037 3.875 2.038-.147-4.42z"/>
            <path fill="#CDBEFF" d="M89.186 49.855l-3.728 2.382 3.876 2.037 3.875 2.038-.147-4.42-.147-4.419z"/>
            <path fill="#C8B6FF" d="M81.436 45.78l-3.729 2.382 3.876 2.037 3.875 2.038-.147-4.42-.147-4.42z"/>
            <path fill="#CDBEFF" d="M77.707 48.162l5.544 17.54 2.207-13.465z"/>
            <path fill="#BDA8FF" d="M93.218 56.317L83.251 65.7l17.718-5.309z"/>
            <path fill="#E7E0FF" d="M85.458 52.237L83.25 65.701l9.96-9.389z"/>
        </g>
        <g>
            <path fill="#6133B4" d="M3.54 59.3L.42 60.913l3.015 2.026 3.015 2.026.104-3.637.105-3.637zM12.899 54.469l-3.12 1.61-3.12 1.611 3.015 2.027 3.014 2.026.105-3.637z"/>
            <path fill="#C6B6E4" d="M12.899 54.469l-.106 3.637-.105 3.637 3.12-1.611 3.12-1.61-3.015-2.027z"/>
            <path fill="#8966C7" d="M6.554 61.327l-.104 3.637 3.119-1.611 3.12-1.61-3.015-2.027-3.015-2.026z"/>
            <path fill="#7A54C0" d="M.316 64.548L.21 68.185l3.12-1.61 3.12-1.611-3.015-2.026L.42 60.912z"/>
            <path fill="#8966C7" d="M.21 68.185l14.217 4.727-7.978-7.948z"/>
            <path fill="#6133B4" d="M12.696 61.739l1.73 11.173 4.509-14.394z"/>
            <path fill="#C6B6E4" d="M6.45 64.964l7.977 7.948-1.738-11.17z"/>
        </g>
        <g>
            <path fill="#CDC2FF" d="M314 60.13l-.957.627 1.006.49 1.006.49-.048-1.117-.05-1.117zM316.873 58.249l-.957.627-.958.627 1.006.49 1.007.49-.05-1.117z"/>
            <path fill="#EDE9FF" d="M316.873 58.249l.049 1.117.049 1.117.957-.627.958-.627-1.006-.49z"/>
            <path fill="#D9D1FF" d="M315.007 60.62l.048 1.117.958-.627.958-.627-1.007-.49-1.006-.49z"/>
            <path fill="#D5CCFF" d="M313.091 61.874l.049 1.117.958-.627.957-.627-1.006-.49-1.007-.49z"/>
            <path fill="#D9D1FF" d="M313.14 62.99l4.637.834-2.722-2.087z"/>
            <path fill="#CDC2FF" d="M316.973 60.481l.804 3.343 1.111-4.597z"/>
            <path fill="#EDE9FF" d="M315.055 61.737l2.722 2.087-.806-3.341z"/>
            <g>
                <path fill="#CDC2FF" d="M219.597 71.759l-1.136.247.79.905.79.904.345-1.152.346-1.152zM223.002 71.016l-1.135.247-1.135.248.79.904.79.905.345-1.152z"/>
                <path fill="#EDE9FF" d="M223.002 71.016l-.345 1.152-.346 1.152 1.136-.248 1.135-.248-.79-.904z"/>
                <path fill="#D9D1FF" d="M220.386 72.663l-.345 1.152 1.135-.248 1.135-.247-.79-.905-.79-.904z"/>
                <path fill="#D5CCFF" d="M218.116 73.158l-.346 1.152 1.136-.247 1.135-.248-.79-.904-.79-.905z"/>
                <path fill="#D9D1FF" d="M217.77 74.31l4.14 2.723-1.87-3.218z"/>
                <path fill="#CDC2FF" d="M222.314 73.32l-.405 3.713 2.676-4.21z"/>
                <path fill="#EDE9FF" d="M220.04 73.815l1.87 3.218.401-3.713z"/>
            </g>
            <g>
                <path fill="#9A62FF" d="M236.787 31.737l-5.608 3.681 6.05 3.112 6.048 3.113-.441-6.793-.44-6.794z"/>
                <path fill="#9A62FF" d="M253.614 20.695l-5.609 3.681-5.609 3.68 6.05 3.114 6.048 3.113-.44-6.794z"/>
                <path fill="#DBC6FF" d="M253.614 20.695l.44 6.794.44 6.794 5.608-3.681 5.61-3.68-6.05-3.114z"/>
                <path fill="#B389FF" d="M242.836 34.85l.44 6.793 5.61-3.68 5.608-3.68-6.05-3.114-6.048-3.112z"/>
                <path fill="#AA7BFF" d="M231.62 42.211l.44 6.794 5.608-3.681 5.609-3.68-6.05-3.114-6.049-3.112z"/>
                <path fill="#B389FF" d="M232.06 49.005l27.678 5.691-16.462-13.052z"/>
                <path fill="#9A62FF" d="M254.507 34.274l5.23 20.422 5.987-27.783z"/>
                <path fill="#DBC6FF" d="M243.277 41.643l16.46 13.053-5.243-20.414z"/>
            </g>
            <g>
                <path fill="#6133B4" d="M276.012 56.987l-5.04-.954 1.671 4.94 1.67 4.938 3.37-3.985 3.369-3.985z"/>
                <path fill="#6133B4" d="M291.131 59.85l-5.04-.954-5.039-.955 1.67 4.94 1.67 4.939 3.37-3.985z"/>
                <path fill="#C6B6E4" d="M291.131 59.85l-3.37 3.985-3.368 3.985 5.04.954 5.039.954-1.67-4.94z"/>
                <path fill="#8966C7" d="M277.682 61.926l-3.368 3.985 5.04.954 5.038.955-1.67-4.94-1.67-4.939z"/>
                <path fill="#7A54C0" d="M267.603 60.018l-3.369 3.984 5.04.955 5.04.954-1.67-4.94-1.672-4.938z"/>
                <path fill="#8966C7" d="M264.234 64.002l12.19 17.88-2.11-15.971z"/>
                <path fill="#6133B4" d="M284.404 67.822l-7.98 14.059 18.06-12.15z"/>
                <path fill="#C6B6E4" d="M274.314 65.911l2.11 15.97 7.969-14.061z"/>
            </g>
            <g>
                <path fill="#6133B4" d="M276.468 8.001l-1.219-.23.401 1.211.4 1.211.819-.98.818-.981zM280.126 8.692l-1.22-.23-1.218-.23.4 1.211.4 1.211.819-.98z"/>
                <path fill="#C6B6E4" d="M280.126 8.692l-.82.981-.818.981 1.22.23 1.218.231-.4-1.211z"/>
                <path fill="#8966C7" d="M276.869 9.213l-.819.98 1.22.23 1.218.231-.4-1.211-.4-1.211z"/>
                <path fill="#7A54C0" d="M274.431 8.752l-.819.98 1.22.231 1.218.23-.4-1.21-.4-1.212z"/>
                <path fill="#8966C7" d="M273.612 9.733l2.937 4.38-.499-3.92z"/>
                <path fill="#6133B4" d="M278.491 10.655l-1.942 3.458 4.38-2.997z"/>
                <path fill="#C6B6E4" d="M276.05 10.193l.499 3.92 1.94-3.459z"/>
            </g>
            <g>
                <path fill="#BDA8FF" d="M298.634 21.087l-2.861-1.025.518 3.051.517 3.05 2.343-2.025 2.344-2.025zM307.216 24.164l-2.86-1.026-2.861-1.025.517 3.05.518 3.052 2.343-2.026z"/>
                <path fill="#E7E0FF" d="M307.216 24.164l-2.343 2.025-2.343 2.026 2.86 1.025 2.861 1.026-.517-3.052z"/>
                <path fill="#CDBEFF" d="M299.151 24.138l-2.343 2.026 2.861 1.025 2.86 1.026-.517-3.051-.517-3.051z"/>
                <path fill="#C8B6FF" d="M293.43 22.088l-2.344 2.025 2.861 1.025 2.861 1.026-.517-3.051-.518-3.051z"/>
                <path fill="#CDBEFF" d="M291.086 24.113l5.47 11.612.252-9.561z"/>
                <path fill="#BDA8FF" d="M302.536 28.217l-5.98 7.508 11.702-5.457z"/>
                <path fill="#E7E0FF" d="M296.808 26.164l-.252 9.56 5.974-7.51z"/>
            </g>
        </g>
    </g>
</svg>
