<svg id="Layer_1" data-name="Layer 1" xmlns="http://www.w3.org/2000/svg" viewBox="0 0 38.5 21.85"><defs><style>.cls-1{}</style></defs><title>extras</title><path class="cls-1" d="M38.84,13.59l-8.29-7.2c-2.39-2.08-5.74-1.64-8.16,1.06A1.2,1.2,0,0,0,24.17,9c1.17-1.3,3.12-2.31,4.8-.85l6.22,5.41H4.81L11,8.19c1.68-1.46,3.63-.45,4.8.85a1.2,1.2,0,1,0,1.79-1.6c-2.42-2.7-5.77-3.14-8.16-1.06l-8.29,7.2a1.2,1.2,0,0,0-.41.91v5a7.52,7.52,0,0,0,7.56,7.47H9.63a8.35,8.35,0,0,0,8.05-6.08A7,7,0,0,1,20,20.4a6.41,6.41,0,0,1,2.26.44,8.35,8.35,0,0,0,8.05,6.09h1.32a7.52,7.52,0,0,0,7.56-7.47v-5A1.2,1.2,0,0,0,38.84,13.59ZM9.63,24.53H8.31a5.12,5.12,0,0,1-5.16-5.07V16H15.59v2.68A5.91,5.91,0,0,1,9.63,24.53ZM18,18.25V16h4v2.24A8.39,8.39,0,0,0,20,18,8.83,8.83,0,0,0,18,18.25Zm13.7,6.28H30.37a5.91,5.91,0,0,1-6-5.85V16H36.85v3.46A5.12,5.12,0,0,1,31.69,24.53Z" transform="translate(-0.75 -5.08)"/></svg>
