<svg id="Layer_1" data-name="Layer 1" xmlns="http://www.w3.org/2000/svg" viewBox="0 0 32 32"><defs><style>.cls-1{fill-rule:evenodd;}</style></defs><title>background</title><path class="cls-1" d="M28,0H4A4,4,0,0,0,0,4V28a4,4,0,0,0,4,4H28a4,4,0,0,0,4-4V4A4,4,0,0,0,28,0Zm1.6,28A1.6,1.6,0,0,1,28,29.6H4A1.6,1.6,0,0,1,2.4,28V4A1.6,1.6,0,0,1,4,2.4H28A1.6,1.6,0,0,1,29.6,4V28ZM10,13L9,11,7,10,9,9l1-2,1,2,2,1-2,1Zm13-1,2,1-2,1-1,2-1-2-2-1,2-1,1-2Zm-7.67,7.67L18,21l-2.67,1.33L14,25l-1.33-2.67L10,21l2.67-1.33L14,17Z"/></svg>
