<svg xmlns="http://www.w3.org/2000/svg" width="40" height="40" viewBox="0 0 40 40">
    <path  fill-rule="evenodd" d="M35.907 26.51v-1.424s-.771-.01-1.182-.006c-.522.006-.973-.241-1.01-.975l.004-7.688-.005-.014h1.852V15.01h-1.858l.011-.022v-2.982h-1.938v11.946c.06 1.035.386 1.964 1.246 2.35l-.003-.001c-.02-.01-.02-.008 0 0l.012.005c-.003 0-.006-.002-.009-.004.097.04.56.22 1.034.215.316-.008 1.846-.006 1.846-.006zm-5.688-2.527V22.61h-1.926v1.466c0 1.423-2.477 1.444-2.503 0v-3.053l4.07.002a.353.353 0 0 0 .352-.353v-3.14c.12-3.802-6.393-3.797-6.342-.094v6.545c-.05 3.703 6.468 3.797 6.349 0zm-6.953 1.103h-1.22v-7.748c-.062-1.038-.39-1.969-1.257-2.351.156.067-.92-.54-2.02.07-.868.48-1.2.971-1.2.971l-.007-1.041h-2.715v1.416l1.06.007v8.676l-.894-.003v1.425h2.816V17.25c.088-1.311 2.297-1.332 2.297-.002l.002 9.26h3.138v-1.422zm-10.813 6.858h1.393V9.236h-1.393v22.708zm-1.285-7.96V22.61H9.241v1.466c0 1.423-2.476 1.444-2.501 0v-6.638l-.003.07c.024-1.447 2.504-1.489 2.504-.07l.023 1.23h1.896v-1.136c.123-3.803-6.394-3.797-6.343-.094v6.545c-.05 3.703 6.468 3.797 6.351 0zm28.83-3.982c0 11.046-8.954 19.998-20 19.998S0 31.047 0 20.002C0 8.954 8.952 0 19.998 0c11.046 0 20 8.954 20 20.002zm-11.71-.423l-2.498.001v-2.152c.033-1.42 2.503-1.409 2.503.01l-.005 2.14z"/>
</svg>
