<svg xmlns="http://www.w3.org/2000/svg" width="144" height="31" viewBox="0 0 144 31">
    <g fill="none" fill-rule="evenodd">
        <path fill="#FFF" d="M120.876 24.007a2.27 2.27 0 0 0-3.183.41 4.595 4.595 0 0 1-3.663 1.804 4.62 4.62 0 0 1-4.613-4.335c-.005-.35-.009-2.864-.009-3.19a4.627 4.627 0 0 1 4.622-4.622c1.28 0 2.47.51 3.353 1.44a2.269 2.269 0 0 0 3.29-3.125 9.2 9.2 0 0 0-6.643-2.853c-5.05 0-9.16 4.109-9.16 9.16 0 .03.002 3.175.014 3.406a9.158 9.158 0 0 0 9.146 8.657 9.1 9.1 0 0 0 7.257-3.57 2.27 2.27 0 0 0-.411-3.182M134.373 26.221a4.62 4.62 0 0 1-4.613-4.333c-.005-.353-.008-2.877-.008-3.193a4.627 4.627 0 0 1 4.621-4.622 4.627 4.627 0 0 1 4.622 4.622c0 .328-.003 2.84-.009 3.189a4.618 4.618 0 0 1-4.613 4.337m6.891-17.078a2.264 2.264 0 0 0-2.19 1.706 9.095 9.095 0 0 0-4.7-1.313c-5.051 0-9.16 4.109-9.16 9.16 0 .031.001 3.173.013 3.406a9.158 9.158 0 0 0 9.146 8.657 9.118 9.118 0 0 0 4.81-1.37 2.268 2.268 0 0 0 4.35-.899V11.412a2.27 2.27 0 0 0-2.269-2.269M30.546 26.221a4.62 4.62 0 0 1-4.613-4.335c-.006-.35-.01-2.863-.01-3.19a4.627 4.627 0 0 1 4.623-4.623 4.627 4.627 0 0 1 4.622 4.622c0 .328-.004 2.84-.01 3.189a4.618 4.618 0 0 1-4.612 4.337m6.89-17.078a2.264 2.264 0 0 0-2.19 1.706 9.095 9.095 0 0 0-4.7-1.313c-5.052 0-9.16 4.109-9.16 9.16 0 .031 0 3.174.013 3.406a9.158 9.158 0 0 0 9.147 8.657 9.118 9.118 0 0 0 4.809-1.37 2.268 2.268 0 0 0 4.35-.899V11.412a2.27 2.27 0 0 0-2.269-2.269M70.84 9.143a2.27 2.27 0 0 0-2.27 2.27V28.49a2.27 2.27 0 0 0 4.539 0V11.412a2.27 2.27 0 0 0-2.27-2.269M97.563 9.143a2.27 2.27 0 0 0-2.27 2.27V28.49a2.27 2.27 0 0 0 4.538 0V11.412a2.27 2.27 0 0 0-2.268-2.269M59.066 21.888a4.62 4.62 0 0 1-4.613 4.333 4.62 4.62 0 0 1-4.613-4.338c-.006-.35-.009-2.86-.009-3.187a4.627 4.627 0 0 1 4.622-4.622 4.627 4.627 0 0 1 4.622 4.622c0 .315-.004 2.84-.009 3.192M54.453 9.536a9.089 9.089 0 0 0-4.622 1.265V2.33a2.27 2.27 0 0 0-4.537 0V28.49a2.269 2.269 0 0 0 4.35.9 9.117 9.117 0 0 0 4.81 1.37 9.16 9.16 0 0 0 9.146-8.666c.011-.224.013-3.367.013-3.398 0-5.052-4.11-9.16-9.16-9.16M8.92 9.536a9.143 9.143 0 0 0-4.382 1.11V2.33A2.27 2.27 0 0 0 0 2.33v26.16a2.269 2.269 0 1 0 4.538 0V16.763c.173-.147.333-.314.46-.516a4.601 4.601 0 0 1 3.921-2.173 4.627 4.627 0 0 1 4.622 4.622c0 .415-.004 9.233-.01 9.738a2.27 2.27 0 0 0 4.535.172c.01-.225.012-9.814.012-9.91 0-5.052-4.108-9.16-9.159-9.16M88.95 9.143h-2.648V2.33a2.27 2.27 0 0 0-4.538 0v6.813h-2.647a2.27 2.27 0 0 0 0 4.538h2.647V28.49a2.27 2.27 0 0 0 4.538 0V13.681h2.647a2.27 2.27 0 0 0 0-4.538"/>
        <path fill="#FF6066" d="M73.025 2.33a2.27 2.27 0 1 1-4.538 0 2.27 2.27 0 0 1 4.538 0"/>
        <path fill="#4FB5E8" d="M99.748 2.33a2.27 2.27 0 1 1-4.539 0 2.27 2.27 0 0 1 4.539 0"/>
    </g>
</svg>
