<svg xmlns="http://www.w3.org/2000/svg" width="48" height="48" viewBox="0 0 48 48">
    <g fill="none" fill-rule="evenodd">
        <path fill="#CF8229" d="M24.61 47.604s-1.789-.735-2.585-1.138l-.183-.09c-5.13-2.58-10.54-5.782-13.881-12.108-3.777-7.15-3.05-18.565-2.955-19.843.075-1.003.378-3.464.378-3.464s1.941-.858 2.901-1.311l13.864-7.012c.764-.363 2.462-1.114 2.462-1.114s1.697.75 2.463 1.114l13.86 7.01c.966.457 3.05 1.315 3.05 1.315s.157 2.467.232 3.465c.094 1.275.822 12.69-2.955 19.84-3.343 6.33-8.755 9.53-13.876 12.103l-.19.096c-.795.402-2.584 1.137-2.584 1.137"/>
        <path fill="#E29E45" d="M12.694 16.147l11.059-5.695c.27-.129.564-.192.858-.192V5.829c-.294 0-.588.063-.858.192L9.888 13.032a1.985 1.985 0 0 0-.727.603l3.533 2.523v-.011M24.612 10.259V5.827z"/>
        <path fill="#FDC67E" d="M23.752 6.008L9.89 13.02c-.655.31-1.09.945-1.145 1.665-.034.466-.81 11.487 2.531 17.814 2.782 5.266 7.36 8.048 12.242 10.504l.19.096c.284.142.593.213.902.213V5.816c-.293 0-.585.064-.858.192"/>
        <path fill="#FFA623" d="M25.512 43.099l.19-.096c4.885-2.454 9.462-5.238 12.244-10.505 3.341-6.326 2.565-17.347 2.53-17.813a2.009 2.009 0 0 0-1.143-1.665L25.468 6.008a1.999 1.999 0 0 0-.858-.192v37.496c.31 0 .618-.071.902-.213"/>
        <path fill="#FFDDB5" d="M12.694 16.134l11.059-5.694c.27-.129.564-.192.858-.192V5.816c-.294 0-.587.064-.858.192L9.889 13.02a1.985 1.985 0 0 0-.728.603l3.533 2.523v-.012"/>
        <path fill="#FDC67E" d="M39.333 13.02L25.468 6.008a1.999 1.999 0 0 0-.858-.192v4.431c.294 0 .588.065.858.192l11.065 5.702 3.527-2.519a1.973 1.973 0 0 0-.727-.602"/>
        <path fill="#FFA623" d="M24.214 38.858c-4.197-2.128-7.383-4.438-9.389-8.235-2.239-4.238-2.229-11.63-2.131-14.477L9.16 13.623a2 2 0 0 0-.417 1.062c-.015.207-.174 2.498-.057 5.531.148 3.798.731 8.765 2.59 12.282 2.782 5.267 7.357 8.05 12.242 10.505l.19.096c.284.142.593.213.902.213v-4.33c-.098 0-.197-.04-.397-.124"/>
        <path fill="#E59025" d="M34.395 30.623c-2.008 3.804-5.203 6.113-9.406 8.243-.188.078-.282.117-.378.117v4.33c.31 0 .618-.072.9-.214l.19-.096c4.885-2.455 9.462-5.238 12.244-10.504 1.857-3.518 2.443-8.485 2.59-12.282.118-3.034-.044-5.325-.06-5.532a1.995 1.995 0 0 0-.414-1.064l-3.527 2.521c.129 3.53-.07 10.566-2.139 14.481"/>
        <path fill="#FFE4C9" d="M16.076 24.564l5.69-2.845 2.845 2.845zM24.61 33.098l-2.845-5.688 2.846-2.846z"/>
        <path fill="#E59025" d="M33.145 24.564l-5.689 2.846-2.845-2.846zM24.61 16.03l2.846 5.689-2.845 2.845z"/>
        <path fill="#E59025" d="M33.145 24.564l-5.689-2.845-2.845 2.845zM24.61 33.098l2.846-5.688-2.845-2.846z"/>
        <path fill="#FFE4C9" d="M16.076 24.564l5.69 2.846 2.845-2.846zM24.61 16.03l-2.845 5.689 2.846 2.845z"/>
    </g>
</svg>
