<?xml version="1.0" encoding="utf-8"?>
<!-- Generator: Adobe Illustrator 19.1.0, SVG Export Plug-In . SVG Version: 6.00 Build 0)  -->
<svg version="1.1" id="Layer_1" xmlns="http://www.w3.org/2000/svg" xmlns:xlink="http://www.w3.org/1999/xlink" x="0px" y="0px"
	 viewBox="206.8 158.6 1132.2 280" style="enable-background:new 206.8 158.6 1132.2 280;" xml:space="preserve">
<style type="text/css">
	.st0{fill:#30ABE9;}
</style>
<path class="st0" d="M500.9,182.9c-0.3-0.1-0.6-0.2-0.8-0.2H500c-1.3-0.3-2.5-0.6-3.7-0.9l0,0h-0.1l0,0l-0.3-0.1l-0.6-0.1l0,0l0,0
	l0,0h-0.1l0,0l0,0l0,0h-0.1l0,0l0,0l-0.5-0.1l0,0c-10.4-2.4-21.1-4.4-31.8-5.7c-11.1-1.4-22.5-2.3-33.8-2.5c-2.2,0-4.5-0.1-6.7-0.1
	c-7.1,0-14.2,0.2-21.2,0.7h-0.5l0.1,0.5c1.1,9.2-1.8,18.4-8,25.3c-5.4,6-13.1,9.8-21.1,10.4c-0.8,0.1-1.6,0.1-2.5,0.1
	c-8,0-15.7-3-21.6-8.4c-4.8-4.4-8.3-10.4-9.7-16.7l-0.1-0.5l-0.4,0.1c-10.6,3-21.2,6.5-31.5,10.6c-10,4-19.9,8.5-29.4,13.5
	c-4.8,2.5-9.5,5.1-14.1,7.8c-2.4,1.4-4.9,2.9-7.3,4.4c-0.1,0-0.2,0.1-0.4,0.2c-0.5,0.3-1.2,0.8-1.9,1.2c-1.3,0.8-1.5,0.9-1.3,1.3
	l27.3,60l0.2,0.4l0.4-0.2c9.8-5.7,20-10.9,30.3-15.5c0.7-0.3,1.3-0.6,2-0.9l21.4,89.2l0.1,0.6l0.5-0.3c5.7-3.1,10.4-5.4,15-7.3
	c5.7-2.3,11-4.2,16.1-5.6c9.5-2.7,19.2-4,29.1-4c1.5,0,3.1,0,4.6,0.1c4.7,0.2,10.7,0.7,16.3,2.9c2.6,1,4.6,2.2,6.1,3.7
	c1.7,1.7,2.6,4,2.5,6.5c0,5.2-4.1,9.4-7.4,12.1c-2.2,1.7-4.6,3.1-6.4,4.1c-2.3,1.3-4.8,2.4-7.3,3.4c-4.9,2-10.1,3.5-16,4.7
	c-5.8,1.2-11.5,1.9-16.9,2.1c-0.5,0-1,0-1.6,0c-0.7,0-1.3,0-2,0h-0.5c-1.4,0-2.8-0.1-4.2-0.3c-1.5-0.2-2.7-0.3-4-0.7h-0.1
	c-1.3-0.3-1.7-0.6-1.9-0.7c0.6-0.9,1.6-1.6,2.5-2.2c1-0.6,2.1-1.3,3.4-1.9c2.2-1.1,4.7-2.1,7.7-3c5.1-1.6,10.6-2.7,16.5-3.2
	c2.8-0.3,5.6-0.4,8.4-0.4c0.3,0,0.7,0,1,0c0.9,0,2.1,0,3.2,0.1c0.2,0,0.5,0,0.7,0.1c0.4,0,0.8,0.1,1.2,0.1h0.1h0.1
	c3-1,13.1-4.9,15.9-11.4l0.2-0.4l-0.4-0.2c-0.1-0.1-0.3-0.1-0.5-0.2c-0.1,0-0.1,0-0.2-0.1c-1.1-0.3-2.5-0.8-4-1.1
	c-2.6-0.6-5.4-1.1-8.4-1.5c-3.1-0.4-6.3-0.5-9.5-0.5c-2.6,0-5.2,0.1-7.8,0.4c-6.3,0.6-11.8,1.5-16.7,2.8c-6,1.5-11.1,3.4-15.5,5.8
	c-5.5,2.9-9.3,6.4-11.5,10.4c-2.4,4.4-2.5,9.6-0.3,13.7c2.1,4,6.3,6.8,12.3,8.4c4,1,8.5,1.6,13.7,1.6c0.9,0,1.9,0,2.9,0
	c5.4-0.2,11.1-0.8,16.9-1.9c5.6-1.1,11.1-2.5,16.3-4.3c5.7-2,10.7-4.2,15.1-6.7c0.7-0.4,1.2-0.7,1.7-1l1.3-0.8c0,0.2,0,0.4,0,0.6
	c0,0.6,0,1.1-0.2,1.8c-0.4,2.3-1.3,4.5-2.9,6.6c-2.5,3.4-6.3,6.3-11.6,9c-4.4,2.2-9.4,4.1-15.2,5.8c-5.3,1.5-10.9,2.7-16.4,3.5
	c-1.2,0.2-2.4,0.3-3.5,0.5l-0.7,0.1c-0.3,0-0.7,0.1-1,0.1c-0.3,0-0.8,0.1-0.8,0.1h-0.4v0.4l0.8,14.4v0.5h0.5l2.3-0.2
	c2.7-0.3,5.6-0.7,8.5-1.2c12.6-2.2,23-5.4,31.8-9.7c11.4-5.7,18.9-13,22.2-21.7c2-5.4,2.5-11.4,1.3-16.7c-0.3-1.3-0.7-2.6-1.2-3.8
	c-0.1-0.2-0.2-0.4-0.3-0.7c-0.2-0.3-0.4-0.7-0.4-1c-0.1-0.2,0.2-0.7,0.5-1c0.1-0.1,0.2-0.3,0.3-0.4c1.4-2.3,2.5-4.8,3.2-7.5
	c1.3-5.2,1-10.8-0.8-15.6c-1.8-4.7-5.2-8.8-9.9-11.8c-4.2-2.7-9.2-4.7-15.4-6c-5.2-1.1-10.7-1.6-16.9-1.6c-11.7,0-23.2,1.5-34,4.6
	c-5.6,1.6-11.4,3.6-18.4,6.4l-20.9-86.8l-0.1-0.5l-0.5,0.2c-10.6,4-21.1,8.5-31.3,13.6c-1.5,0.7-2.9,1.5-4.4,2.2l-16.3-35.7
	c0.3-0.2,0.7-0.4,1.4-0.8c0.1-0.1,0.2-0.1,0.2-0.1c4.7-2.7,9.5-5.3,14.3-7.8c9.6-4.9,19.5-9.3,29.6-13.2c4.9-1.9,9.9-3.6,14.9-5.3
	c2.1,3.6,4.7,6.8,7.7,9.7c6.3,6,14.1,10.1,22.6,11.9c3,0.6,6,0.9,9.1,0.9c5.6,0,11-1,16.1-2.9c7.5-2.8,14.2-7.6,19.3-13.8
	c2.6-3.1,4.7-6.5,6.4-10.1c0.8-1.8,1.6-3.7,2.2-5.7c0.3-1,0.6-2,0.8-3c0.1-0.5,0.2-1,0.3-1.4l0,0h0.2c0.4,0,0.8,0,1.2,0
	c2.3-0.1,4.6-0.1,6.9-0.1c9.1,0,18.3,0.4,27.3,1.2c11.3,1,22.6,2.7,33.7,4.9h0.2c1,0.2,1.6,0.3,1.9,0.4l-7.9,38.7
	c-0.9-0.1-3.2-0.4-4.9-0.7c-1.2-0.2-2.1-0.3-2.4-0.3c-2.8-0.4-5.7-0.7-8.6-0.9c-5.7-0.6-11.5-1-17.3-1.2c-2.9-0.1-5.8-0.2-8.7-0.2
	c-0.1,0-0.7,0-0.7,0h-0.4v0.4l-3.6,85.5c0,0.2,0.1,0.5,0.5,0.6c0,0,0,0,0.1,0c1.2,0.6,2.4,1.2,3.6,1.8c2.5,1.4,4.7,3,6.5,4.7
	c0.5,0.4,0.9,0.9,1.3,1.3c0.2,0.2,0.4,0.5,0.6,0.7c0.1,0.1,0.2,0.3,0.3,0.4l0.7,1.4l0.1-1.6l3.8-80.9c11.2,0.6,22.2,1.9,33.6,3.8
	c1.4,0.2,2.8,0.5,4.3,0.8l0.5,0.1c1.4,0.3,1.4,0.3,1.4,0.3h0.4l0.1-0.4l13.1-64.5C501.9,183.1,501.5,183,500.9,182.9z"/>
<g>
	<path class="st0" d="M522.4,339.3v-53h-15.2V269h15.2v-25.1h20V269H561v17.3h-18.6v48.1c0,6.3,3,11,8.7,11c3.8,0,7.2-1.7,8.7-3.4
		l4.8,15.2c-3.6,3.2-9.5,5.9-18.6,5.9C530.4,363.1,522.4,354.7,522.4,339.3z"/>
	<path class="st0" d="M573.3,314.8c0-26.6,19.4-48.1,46.6-48.1c27.5,0,45,20.9,45,49.8v4.9h-70.7c1.5,13.7,11.8,25.3,29.1,25.3
		c9.1,0,19.6-3.6,26.2-10.3l9.1,13.1c-9.3,8.7-22.8,13.5-37.2,13.5C593.6,363.1,573.3,343.9,573.3,314.8z M619.7,283.1
		c-16.9,0-24.9,13.1-25.7,24.1h51.7C645.1,296.4,637.7,283.1,619.7,283.1z"/>
	<path class="st0" d="M679.1,314.8c0-26.6,19.4-48.1,46.6-48.1c27.5,0,45,20.9,45,49.8v4.9H700c1.5,13.7,11.8,25.3,29.1,25.3
		c9.1,0,19.6-3.6,26.2-10.3l9.1,13.1c-9.3,8.7-22.8,13.5-37.2,13.5C699.5,363.1,679.1,343.9,679.1,314.8z M725.5,283.1
		c-16.9,0-24.9,13.1-25.7,24.1h51.7C751,296.4,743.5,283.1,725.5,283.1z"/>
	<path class="st0" d="M782.7,348.6l9.1-14.2c6.5,6.6,19.2,12.7,31,12.7c12,0,18.2-4.9,18.2-12.2c0-18.1-55.5-5.1-55.5-40.5
		c0-15,12.9-27.7,36.1-27.7c15.6,0,27.4,5.5,35.5,12.7l-8.4,14.1c-5.5-6.1-15.6-11-27.2-11c-10.4,0-16.9,4.9-16.9,11.4
		c0,16.2,55.5,4,55.5,40.5c0,16.3-13.5,28.7-38.2,28.7C806.2,363.1,792.2,357.9,782.7,348.6z"/>
	<path class="st0" d="M900.1,348.1v47.7h-20V269h20v12.5c6.8-9.1,17.5-14.8,29.5-14.8c23.8,0,40.7,17.9,40.7,48.1
		s-16.9,48.3-40.7,48.3C918,363.1,907.7,357.8,900.1,348.1z M949.7,314.8c0-17.9-10.3-30.4-26-30.4c-9.3,0-19,5.3-23.6,12.2v36.3
		c4.4,6.8,14.3,12.5,23.6,12.5C939.4,345.4,949.7,332.7,949.7,314.8z"/>
	<path class="st0" d="M990.2,360.8V269h20v13.3c7-8.7,18.1-15.6,29.8-15.6v19.8c-1.7-0.4-3.6-0.6-6.1-0.6c-8.6,0-19.8,5.7-23.8,12.4
		v62.5H990.2z"/>
	<path class="st0" d="M1053.8,245.5c0-6.8,5.5-12.4,12.3-12.4c6.8,0,12.4,5.5,12.4,12.4c0,6.8-5.5,12.4-12.4,12.4
		S1053.8,252.3,1053.8,245.5z M1056.1,360.8V269h20v91.8H1056.1z"/>
	<path class="st0" d="M1164,360.8v-57.4c0-14.4-7.4-19-18.6-19c-10.1,0-18.8,6.1-23.6,12.2v64.2h-20V269h20v12.4
		c6.1-7.2,18.1-14.6,32.5-14.6c19.8,0,29.6,10.6,29.6,29.5v64.6L1164,360.8L1164,360.8z"/>
	<path class="st0" d="M1208.7,384.4l9.3-14.4c7.6,8.6,17.1,11.8,29.3,11.8c13.1,0,27.2-6.1,27.2-25.7v-10.5
		c-7,9.3-17.5,15.4-29.5,15.4c-23.4,0-40.7-16.9-40.7-47.1c0-29.8,16.9-47.1,40.7-47.1c11.6,0,22,5.1,29.5,15v-12.7h20v87
		c0,33.1-24.7,42-47.1,42C1231.6,398,1220.1,394.6,1208.7,384.4z M1274.4,331v-34.4c-4.6-6.7-14.2-12.2-23.6-12.2
		c-16,0-26,11.8-26,29.5c0,17.7,10.1,29.3,26,29.3C1260.1,343.1,1269.8,337.6,1274.4,331z"/>
</g>
</svg>
