<svg xmlns="http://www.w3.org/2000/svg" width="150" height="25" viewBox="0 0 150 25"><path fill="#fff" d="M29.938 21.406c-2.123 0-4.04-.233-5.748-1.942l2.2-2.2c1.114 1.112 2.565 1.268 3.6 1.268 1.165 0 2.382-.388 2.382-1.398 0-.673-.363-1.14-1.424-1.243l-2.124-.2c-2.434-.23-3.935-1.29-3.935-3.78 0-2.79 2.46-4.3 5.2-4.3 2.1 0 3.86.37 5.15 1.58l-2.07 2.1c-.78-.7-1.97-.9-3.14-.9-1.35 0-1.92.62-1.92 1.3 0 .5.2 1.07 1.4 1.17l2.12.21c2.67.26 4.01 1.69 4.01 3.96 0 2.98-2.54 4.4-5.73 4.4zm11.6-.156c-2.746 0-3.91-1.94-3.91-3.857v-6.68h-1.425V8.15h1.424V4.16h3.366v3.99h2.382v2.562h-2.382v6.474c0 .777.363 1.217 1.165 1.217h1.217v2.848h-1.838zM44.87 5.455V2.71h3.445v2.745H44.87zm.053 15.796V7.76h3.366v13.49h-3.37zm10.973.16c-2.693 0-6.033-1.45-6.033-6.91s3.34-6.89 6.033-6.89c1.864 0 3.262.57 4.454 1.82l-2.278 2.28c-.7-.75-1.295-1.06-2.175-1.06-.803 0-1.424.29-1.916.88-.51.65-.75 1.56-.75 2.98s.24 2.36.75 3.01c.5.6 1.12.88 1.92.88.88 0 1.48-.31 2.18-1.06l2.28 2.25c-1.19 1.24-2.59 1.84-4.45 1.84zm13.74-.15l-3.313-5.61-1.423 1.6v4.02h-3.37V2.82h3.37v10.46l4.48-5.517h4.063l-4.816 5.44 5.18 8.06h-4.17zm6.98-5.69c0 1.74 1.06 3.01 2.953 3.01 1.47 0 2.2-.41 3.05-1.27l2.04 2c-1.38 1.37-2.7 2.13-5.13 2.13-3.19 0-6.24-1.45-6.24-6.91 0-4.4 2.38-6.89 5.87-6.89 3.75 0 5.87 2.75 5.87 6.45v1.51H76.6zm4.816-3.75c-.362-.8-1.113-1.4-2.252-1.4-1.14 0-1.89.6-2.253 1.4-.207.5-.285.86-.31 1.45h5.125c-.025-.59-.102-.95-.31-1.45zm12.553-.36c-.518-.51-.958-.8-1.786-.8-1.04 0-2.18.78-2.18 2.49v8.13h-3.37V7.76h3.29v1.295c.64-.777 1.94-1.45 3.39-1.45 1.32 0 2.25.336 3.18 1.27l-2.54 2.562z"/><path fill="#F26922" d="M111.65 7.605c-1.683 0-2.9.518-4.04 1.71-.854-1.166-2.07-1.71-3.573-1.71-1.243 0-2.486.492-3.366 1.398V7.76h-3.28v13.49h3.37v-8.156c0-1.84 1.19-2.46 2.25-2.46 1.07 0 2.23.62 2.23 2.46v8.156h3.37v-8.234c0-1.76 1.22-2.382 2.25-2.382 1.06 0 2.23.62 2.23 2.46v8.156h3.37v-8.622c0-1.476-.39-2.745-1.48-3.832-.75-.75-1.96-1.19-3.31-1.19zm14.63 8.312c0 1.838-1.19 2.46-2.252 2.46-1.06 0-2.227-.622-2.227-2.46V7.76h-3.36v8.623c0 1.475.29 2.744 1.37 3.832.75.75 1.84 1.19 3.19 1.19 1.25 0 2.49-.465 3.37-1.397v1.243h3.29V7.76h-3.36v8.157zm8.876 1.27V2.813h-3.366V17.39c0 1.917 1.165 3.86 3.935 3.86h1.916V18.4h-1.29c-.85 0-1.19-.413-1.19-1.215zM150 14.05c0-3.703-2.123-6.447-5.878-6.447-3.496 0-5.878 2.486-5.878 6.888 0 5.47 3.055 6.92 6.24 6.92 2.434 0 3.755-.75 5.127-2.12l-2.04-1.99c-.85.86-1.58 1.27-3.05 1.27-1.89 0-2.95-1.27-2.95-3H150v-1.51zm-8.44-.803c.025-.597.102-.96.31-1.45.362-.805 1.113-1.4 2.252-1.4 1.14 0 1.89.595 2.252 1.4.208.49.285.852.31 1.45h-5.125z"/><path fill-rule="evenodd" clip-rule="evenodd" fill="#fff" d="M13.82 22.744c-.195.093-.46.072-.733.08-.235.007-.565.012-.702-.11-.075-.065-.096-.207-.1-.29-.007-.1.018-.22.04-.332.024-.13.05-.3 0-.37-.06-.085-.27-.05-.382-.112-.118-.066-.152-.224-.19-.4-.013-.057-.046-.108-.05-.152-.034-.27.057-.634.12-.913.066-.295.152-.57.2-.843.074-.413.1-.88.07-1.305-.013-.22-.043-.396-.01-.58.033-.175.106-.32.14-.493.012-.055.003-.12.01-.18.008-.054.04-.097.04-.14.007-.116-.03-.258-.04-.402-.023-.387.007-.933.032-1.264.008-.116.062-.248-.02-.3-.403-.007-.77.07-1.145.12-1.01.13-2.278.146-3.25-.05-.093-.02-.186-.02-.272-.04-.69-.16-1.326-.455-1.817-.843-.07-.06-.16-.124-.25-.19-.08-.066-.17-.155-.25-.192-.39-.183-.91.028-1.07.28-.06.102-.11.232-.17.352-.06.115-.11.236-.16.35-.26.594-.55 1.16-.81 1.757-.15.344-.32.727-.43 1.114-.24.82-.01 1.918.17 2.69.02.07.06.14.08.22.06.186.19.434.33.56.08.067.21.107.29.182.11.092.19.275.27.43.04.066.09.14.13.22.1.174.14.33-.06.433-.14.08-.36.1-.57.11-.09.03-.06.15-.12.22-.03.04-.17.09-.24.11-.27.08-.72.08-.93 0-.1-.03-.22-.11-.25-.2-.05-.16.08-.37-.04-.5-.05-.05-.16-.04-.26-.09-.14-.06-.27-.19-.34-.36-.16-.4-.06-1.04-.08-1.53 0-.14-.02-.3-.03-.46-.01-.29-.08-.58-.11-.87-.01-.14-.06-.26-.09-.39-.04-.2-.08-.43-.14-.64-.06-.23-.07-.45.01-.65.02-.05.08-.1.11-.18.05-.11.07-.25.06-.35-.03-.05-.17-.01-.21-.07-.08-.63-.18-1.27-.23-1.93-.02-.22-.02-.45-.04-.68-.04-.45-.01-.92-.05-1.35-.02-.21-.07-.41-.1-.62C.1 11-.06 10.25.06 9.65c.08-.39.218-.708.44-.995.16-.2.33-.39.51-.57.18-.17.38-.34.59-.49.14-.1.28-.214.43-.284.34-.16.78-.29 1.24-.31.46-.02.988-.03 1.447.06.44.08.876.15 1.306.24.42.08.836.2 1.235.3.05.01.096.04.15.06.127.03.27.04.41.08.37.1.86.15 1.318.15.495 0 .94-.01 1.347-.11.06-.02.1-.05.17-.07.06-.03.14-.02.2-.04.04-.02.08-.06.13-.08.23-.11.43-.23.64-.37.162-.12.3-.22.52-.3.1-.03.195-.09.29-.12.21-.06.434-.12.593-.23.25-.16.437-.39.645-.57.22-.19.44-.37.66-.55.47-.36.93-.7 1.37-1.05.22-.18.47-.34.73-.49.51-.29 1.02-.63 1.75-.68.29-.02.59-.03.88.01.08.01.19.06.26.04.08-.02.14-.14.19-.23.11-.19.19-.32.28-.55.06-.14.03-.29.18-.28.15.01.12.39.13.53.01.18-.02.41.01.53.02.09.13.21.25.21.08 0 .14-.06.21-.11.08-.04.15-.07.2-.11.12-.09.26-.23.38-.36.1-.1.26-.34.43-.32.29.03 0 .46-.06.59-.15.33-.29.58-.46.89-.07.12-.23.3-.23.43 0 .09.08.15.12.25.02.045.03.09.05.14.1.23.18.55.25.81.07.226.12.46.21.68.08.22.2.42.28.636.03.06.03.127.05.18.19.47.36 1.007.58 1.46.09.185.22.41.21.685 0 .3-.15.44-.29.66-.07.12-.17.297-.28.33-.08.03-.17 0-.25.01-.11.02-.19.09-.29.1-.27.03-.51-.18-.59-.38-.02-.07-.01-.16-.03-.24-.06-.327-.22-.484-.45-.69-.14-.136-.26-.24-.44-.334-.26-.132-.54-.214-.81-.36-.1-.054-.223-.107-.31-.09-.143.027-.29.263-.4.41-.704.934-1.33 1.893-2.024 2.81-.46.607-.95 1.223-1.315 1.917-.09.178-.15.38-.22.58-.07.2-.11.42-.18.64-.27.76-.35 1.69-.59 2.49-.03.08-.04.18-.06.27-.11.41-.23.87-.35 1.31-.1.32-.13.76-.147 1.185-.01.397-.03.963.11 1.215.08.13.35.18.457.32.07.095.12.284.19.41.05.09.19.275.18.41-.01.103-.09.175-.17.21-.08.043-.21.02-.29.06-.09.05-.05.16-.14.22z"/></svg>