<svg xmlns="http://www.w3.org/2000/svg" width="120" height="24" viewBox="0 0 120 24">
    <path fill="#D5C8FF" fill-rule="evenodd" d="M117.548 23.1c.124-.046.213-.074.295-.115.011-.006 0-.104-.017-.11-.086-.032-.178-.046-.278-.07v.295zm.479.465c-.083-.059-.175-.109-.247-.178-.068-.065-.117-.151-.174-.228l-.056.018c-.004.082-.001.165-.014.246-.007.04-.041.077-.063.116-.025-.037-.07-.073-.07-.11-.007-.232-.004-.463-.004-.726.211.02.433-.083.574.118.109.154.003.284-.134.377l.181.374.007-.007zm-.007.007c.042-.04.093-.072.123-.118a.602.602 0 0 0-.147-.816c-.244-.182-.556-.14-.756.1-.197.238-.18.6.039.814.238.232.498.236.748.013l-.007.007zm.355-.45c0 .413-.285.706-.69.708-.426.002-.717-.282-.718-.703-.002-.41.287-.707.692-.708.425-.002.716.283.716.703zM68.921 2.502H67.73l-.03.065c.058.031.114.086.172.088.179.008.235.094.233.266a117.72 117.72 0 0 0 0 2.137c.002.182-.057.27-.244.28-.054.002-.105.062-.157.096l.034.067c.355 0 .71.002 1.065-.003.045 0 .089-.043.133-.066-.043-.033-.084-.093-.128-.095-.192-.009-.243-.11-.242-.285.005-.706.005-1.411 0-2.116 0-.175.05-.278.244-.28.048-.001.096-.055.143-.084l-.03-.07zm40.18 2.99h1.173l.037-.054c-.045-.035-.089-.099-.134-.1-.202-.005-.257-.11-.255-.295.006-.698.005-1.396 0-2.094-.001-.182.045-.294.253-.295.044 0 .088-.065.132-.1l-.037-.047h-1.187l-.027.065c.053.03.105.082.159.083.189.003.248.092.246.275-.007.705-.007 1.41 0 2.116.003.189-.053.287-.254.291-.051.001-.102.057-.153.088l.047.067zM92.93 3.186c.002.007 0 .017.004.02.023.022.053.064.07.059.033-.009.082-.044.082-.07.007-.23.004-.46.004-.684h-2.503v.75l.064.03c.03-.052.078-.1.09-.156.087-.383.189-.469.582-.473h.27c.005.095.011.167.011.238v2.076c0 .311-.02.327-.325.36-.055.006-.106.061-.158.093l.032.062h1.369c.049-.186-.081-.159-.175-.157-.213.006-.302-.089-.292-.305.011-.262.002-.524.002-.786v-1.56c.598-.076.71-.009.873.503zM67.286 4.61c-.042.063-.1.122-.124.192-.128.357-.365.575-.751.597-.357.02-.671-.09-.858-.41-.366-.626-.36-1.278-.046-1.918.173-.353.502-.497.887-.482.387.014.632.22.738.596.013.047.085.077.129.115.046-.22.04-.394.049-.568.006-.115-.033-.187-.146-.197-.388-.034-.78-.108-1.163-.078-.603.047-1.027.405-1.148.997-.076.373-.055.78-.003 1.161.05.369.298.65.65.794.554.226 1.122.2 1.684.021a.22.22 0 0 0 .126-.145c.03-.207.04-.417.058-.626l-.082-.05zm9.72-2.174a1.887 1.887 0 0 0-.283-.021c-.76 0-1.26.3-1.48.92-.173.488-.162.987.028 1.472.117.299.336.512.636.622.539.198 1.084.175 1.625.007.056-.017.13-.084.137-.137.032-.213.042-.43.06-.646l-.073-.04c-.046.065-.11.124-.136.196-.126.347-.357.562-.734.589-.357.024-.655-.09-.867-.395-.334-.482-.36-1.445-.053-1.941a.939.939 0 0 1 .875-.474c.395.01.649.216.754.604.012.045.084.074.154.131.021-.848.173-.763-.643-.887zm25.742 2.177c-.046.066-.109.126-.135.199-.127.348-.36.561-.736.586-.357.023-.655-.092-.866-.398-.333-.482-.356-1.447-.05-1.941a.939.939 0 0 1 .877-.47c.396.01.647.219.752.607.012.043.085.07.172.137 0-.242-.009-.417.003-.59.009-.125-.04-.181-.156-.214a2.626 2.626 0 0 0-1.313-.049c-.54.122-.89.463-.991.984-.072.367-.057.766-.003 1.14.055.385.31.674.683.818.543.21 1.096.183 1.644.013.056-.017.127-.086.134-.14.032-.213.042-.43.06-.645l-.075-.037zm-40.337.007c.008.166.027.332.022.498-.005.207.108.325.287.347.32.04.65.091.966.052.407-.05.65-.344.69-.71.048-.423-.106-.702-.503-.897-.123-.061-.255-.104-.38-.162-.131-.061-.268-.117-.385-.2-.256-.183-.313-.408-.193-.666.108-.231.366-.337.646-.27.282.065.386.28.466.525.015.044.065.076.1.114.025-.043.07-.084.073-.128.048-.561-.003-.622-.564-.69-.043-.005-.086-.012-.13-.015-.517-.036-.948.207-1.026.617-.087.458-.021.821.611 1.07.175.07.353.138.516.232.262.15.372.38.321.612-.095.43-.632.614-.986.31-.15-.129-.233-.34-.347-.513l-.108-.165-.076.04zm54.646.004c.009.166.027.332.025.498-.004.193.099.286.267.343a1.76 1.76 0 0 0 1.051.04.853.853 0 0 0 .546-1.212c-.136-.279-.41-.373-.667-.494a4.354 4.354 0 0 1-.608-.328c-.146-.099-.196-.266-.155-.448.053-.237.193-.382.438-.424.231-.04.467.047.586.245.063.104.092.228.144.339.015.03.063.064.093.062.026-.002.063-.05.07-.083.107-.514-.001-.662-.524-.724-.065-.007-.13-.022-.195-.02-.36.007-.702.061-.913.401a.83.83 0 0 0 .33 1.195c.22.11.456.19.673.305.291.154.412.389.356.634-.098.43-.636.61-.988.304-.15-.13-.232-.341-.345-.515-.036-.055-.074-.108-.11-.161l-.074.043zM82.338 3.21c0-.553 0-.553.552-.55.43.001.508.06.643.463.016.048.081.079.154.146v-.778c-.704 0-1.394 0-2.084.003-.038 0-.075.045-.112.069.038.031.078.09.115.09.233-.008.272.119.27.319a87.254 87.254 0 0 0 0 2.074c.002.19-.056.286-.256.291-.048.001-.094.068-.14.104l.037.06h1.259l.026-.084c-.063-.028-.128-.053-.188-.087-.09-.05-.252-.103-.256-.163-.025-.352-.012-.706-.012-1.076.198 0 .372.005.545 0 .225-.007.38.066.425.31.008.044.08.076.122.114.045-.316.049-.585.041-.853-.001-.05-.05-.098-.076-.146-.032.039-.078.074-.092.118-.041.133-.095.252-.255.256-.23.005-.461.001-.718.001v-.681zm-13.11-.643c.052.03.104.086.156.087.208 0 .253.108.25.293-.006.7-.007 1.398 0 2.097.003.189-.05.29-.253.293-.048.001-.094.067-.141.102l.036.045h2.264l.087-.765-.066-.039c-.043.058-.107.11-.127.175-.058.193-.151.374-.351.41a3.295 3.295 0 0 1-.754.031c-.076-.004-.204-.113-.207-.18-.021-.358-.01-.718-.01-1.092.221 0 .41-.006.598.001.186.007.317.088.357.288.008.04.065.072.099.108.023-.04.064-.078.064-.118.006-.276.004-.552.004-.828l-.058-.038c-.038.043-.095.08-.109.13-.04.15-.12.259-.277.267-.222.013-.445.004-.684.004 0-.358-.007-.692.007-1.026.002-.052.096-.14.154-.145a3.45 3.45 0 0 1 .546-.003c.26.015.374.115.447.367.012.042.015.088.034.126.013.026.053.063.07.058.033-.01.082-.045.082-.071.007-.214.004-.429.004-.646h-2.176l-.046.07zm8.788 0c.051.03.103.086.155.086.207.001.253.108.25.294-.006.699-.006 1.398.001 2.097.002.187-.05.29-.253.293-.048.001-.095.066-.142.102l.036.046h2.264l.087-.766-.065-.039c-.044.058-.108.11-.127.175-.059.192-.151.374-.351.41a3.295 3.295 0 0 1-.755.032c-.075-.004-.203-.113-.207-.18-.02-.358-.01-.719-.01-1.095h.51c.223-.001.405.05.45.312.005.033.061.058.094.087.022-.032.064-.063.064-.095.005-.288.003-.576.003-.863l-.079-.03c-.032.052-.056.11-.097.153-.084.088-.167.223-.268.24-.216.037-.443.011-.683.011 0-.357-.007-.69.007-1.024.002-.053.096-.14.154-.146a3.46 3.46 0 0 1 .545-.003c.26.015.376.114.448.367.012.042.013.09.035.125.018.029.059.054.092.058.019.002.06-.044.06-.07.005-.214.003-.428.003-.646h-2.175l-.046.068zm20.149 1.458c.185.007.316.089.357.288.008.04.064.072.099.108.022-.04.063-.078.064-.118.006-.276.003-.552.003-.828l-.058-.038c-.037.043-.094.08-.108.13-.04.15-.12.259-.277.268-.222.012-.445.003-.685.003 0-.358-.007-.692.008-1.026.002-.053.096-.14.154-.145a3.45 3.45 0 0 1 .545-.003c.262.015.375.114.448.367.011.042.015.088.034.126.013.026.053.063.07.058.033-.01.081-.045.082-.071.007-.214.004-.429.004-.64h-2.193l-.029.063c.052.03.104.086.156.087.207 0 .252.108.25.293a99.781 99.781 0 0 0 0 2.097c.003.189-.05.29-.253.293-.048.001-.094.067-.141.102l.036.045h2.264l.086-.765-.065-.039c-.044.058-.107.11-.127.175-.059.193-.151.374-.351.41a3.121 3.121 0 0 1-.755.03c-.077-.005-.205-.126-.21-.2-.023-.346-.01-.695-.01-1.071.225 0 .414-.006.602.001zm-11.75-.022c-.054-.275-.082-.543-.16-.797-.118-.39-.441-.623-.801-.623-.361-.001-.68.233-.807.62a2.482 2.482 0 0 0 .007 1.603c.127.374.44.6.797.6a.831.831 0 0 0 .796-.599c.082-.26.113-.535.167-.804zM86.918 4c-.027.193-.035.391-.082.58-.145.575-.57.924-1.169.973-.47.039-.915-.01-1.27-.373a1.328 1.328 0 0 1-.363-.799c-.064-.543-.067-1.092.33-1.525.47-.515 1.076-.535 1.69-.334.568.186.777.658.838 1.213.01.087.001.175.001.262L86.92 4zm24.153-.006L111.1 4c.012.145.015.29.038.433.021.128.054.256.098.378.133.367.423.585.78.596.34.01.67-.205.801-.563a2.412 2.412 0 0 0 .004-1.685.837.837 0 0 0-.793-.576c-.357.003-.671.224-.791.605-.082.26-.112.536-.165.805zm2.428.013c-.028.193-.037.391-.086.58-.148.576-.569.918-1.172.967-.496.04-.959-.025-1.313-.427-.469-.53-.468-1.766.019-2.279.481-.506 1.081-.526 1.693-.323.569.188.773.663.832 1.218.01.086.002.174.002.261l.025.003zm-41.615 1.48h1.04l.03-.063c-.052-.03-.101-.084-.154-.087-.216-.014-.314-.129-.317-.336-.005-.451-.009-.903-.012-1.354v-.644c.086.041.13.095.169.15.5.717 1.006 1.429 1.496 2.152.121.18.249.243.471.165v-.228c.002-.735.002-1.471.005-2.207 0-.197.04-.364.29-.382.04-.003.075-.075.141-.145h-1.119l-.025.072c.06.027.119.071.18.078.18.018.285.1.29.287.007.276.017.553.02.83.004.33.001.66.001.99a.424.424 0 0 1-.17-.153c-.461-.655-.919-1.312-1.383-1.965-.045-.064-.123-.143-.19-.148-.252-.017-.507-.007-.76-.007-.012.023-.023.046-.033.07.054.032.106.086.164.093.125.017.236.034.235.194-.002.722-.002 1.443-.008 2.164-.001.18-.078.304-.28.325-.046.005-.085.068-.128.104l.047.046zm33.085-2.93c.047.034.093.097.14.097.21-.001.252.11.25.293-.01.48.002.96-.007 1.441-.003.173-.022.35-.066.516-.083.313-.357.502-.686.504a.657.657 0 0 1-.654-.48 1.774 1.774 0 0 1-.082-.47c-.012-.48-.002-.96-.012-1.44-.005-.218.023-.382.298-.365.03.002.062-.056.094-.086-.03-.024-.058-.07-.087-.07-.376-.006-.751-.004-1.127-.004l-.028.064c.043.034.087.097.13.097.222-.004.262.116.259.307-.009.495-.007.99-.002 1.485.007.655.303 1.037.859 1.095.216.023.437.023.653.004.54-.048.858-.358.886-.897.03-.574.024-1.15.024-1.724 0-.168.048-.26.23-.27.052-.003.102-.066.153-.102l-.037-.051h-1.153l-.035.055zm10.623-.002c.047.035.093.1.14.099.208-.001.253.108.25.292-.009.488.002.976-.006 1.463a2.063 2.063 0 0 1-.067.494c-.083.313-.355.503-.685.505a.657.657 0 0 1-.655-.48 1.762 1.762 0 0 1-.082-.47c-.012-.494-.003-.989-.012-1.484-.003-.197.043-.328.275-.32.038.002.078-.056.117-.086-.043-.025-.086-.072-.13-.073a28.095 28.095 0 0 0-.982 0c-.037.001-.074.043-.111.066.037.033.075.094.11.093.222-.006.264.115.26.307-.008.494-.007.99-.001 1.484.007.655.302 1.037.858 1.096.215.023.436.023.653.004.54-.048.859-.357.887-.897.03-.573.023-1.149.023-1.723 0-.168.047-.261.23-.27.052-.004.102-.067.153-.102l-.036-.052h-1.153l-.036.054zm-8.414 1.333c.175 0 .32.01.463-.002.183-.016.343-.095.41-.276.094-.252.116-.517-.053-.746-.168-.228-.43-.215-.676-.19-.053.004-.136.096-.138.15-.013.346-.006.692-.006 1.064zm.782.099c.36.119.514.35.572.657.055.288.045.615.432.702.018.004.039.063.032.09-.006.025-.043.054-.072.062-.43.119-.744-.082-.822-.524-.018-.1-.035-.2-.055-.3-.106-.538-.27-.656-.867-.595 0 .364-.009.733.01 1.1.002.054.127.105.2.151.052.034.112.058.168.086-.063.029-.125.08-.188.081-.342.008-.683.004-1.025.004l-.038-.06c.049-.036.097-.102.147-.103.202-.006.254-.107.252-.295a96.952 96.952 0 0 1 0-2.097c.002-.187-.047-.291-.253-.292-.05 0-.102-.057-.123-.125.557 0 1.117-.026 1.672.009.39.024.57.242.61.595.042.353-.127.64-.462.782-.045.019-.091.034-.19.072zm-20.106-.1c.18 0 .338.028.48-.008a.727.727 0 0 0 .357-.212c.154-.18.13-.611-.01-.802-.117-.16-.471-.267-.698-.19-.055.018-.121.107-.123.166-.012.34-.006.679-.006 1.046zm-.839-1.36c.551 0 1.104-.027 1.653.01.406.027.585.244.623.607.038.363-.137.639-.494.782-.038.015-.076.032-.146.062.385.132.525.405.574.753.037.26.076.53.405.601.021.005.052.063.044.082-.014.032-.054.072-.084.073-.467.015-.747.028-.816-.555-.012-.101-.037-.2-.058-.3-.106-.506-.309-.641-.86-.554 0 .357-.01.72.01 1.08.003.058.136.111.211.163.05.035.105.065.157.097-.051.024-.103.069-.155.07-.356.006-.711.003-1.067.003l-.034-.066c.047-.034.094-.097.142-.097.214 0 .266-.11.263-.306a97.394 97.394 0 0 1 0-2.097c.002-.178-.048-.276-.242-.28-.055 0-.109-.05-.163-.078l.037-.05zm8.594 2.545c.004.175-.061.254-.236.265-.052.004-.099.066-.148.101l.037.05h1.193l.03-.062c-.05-.031-.1-.087-.15-.089-.2-.005-.261-.102-.26-.292a94.12 94.12 0 0 0 0-2.055c-.002-.204.03-.347.28-.335.034.001.071-.048.107-.073-.038-.03-.076-.085-.115-.086-.364-.006-.727-.004-1.09-.004l-.034.068.157.1c.073.045.208.086.211.134.018.345.01.691.01 1.03H94.15c0-.31.007-.601-.003-.892-.006-.183.06-.27.248-.278.05-.001.098-.065.148-.1l-.038-.052h-1.196l-.033.06c.055.032.108.09.165.093.176.008.24.087.238.262-.006.714-.007 1.428 0 2.142.002.182-.06.27-.247.278-.052.003-.102.064-.153.099l.035.065c.356 0 .712.003 1.068-.004.05 0 .1-.05.149-.076l-.143-.089c-.078-.049-.222-.095-.224-.148-.02-.382-.01-.766-.01-1.158h1.453c0 .363-.006.705.003 1.046zM28.486 0c-1.241 0-2.124.877-2.127 2.113-.003 1.232.861 2.077 2.123 2.073 1.214-.003 2.02-.837 2.021-2.088C30.503.858 29.679 0 28.486 0zm3.762 22.424c-.488-.07-.98-.124-1.463-.22-.36-.071-.587-.322-.636-.691a7.315 7.315 0 0 1-.07-.956c-.005-3.336-.003-6.672-.003-10.009V7.227c0-.248-.166-.38-.405-.34-1.26.212-2.522.421-3.783.632-.441.074-.882.152-1.32.227V8.7c.098.014.191.025.284.04.466.071.934.13 1.396.22.3.059.488.275.534.57.051.337.084.68.085 1.02.006 3.278.004 6.556.001 9.834 0 .327-.016.654-.04.98-.035.493-.256.767-.73.884-.267.066-.543.1-.816.132-.294.035-.59.052-.884.077v1.082h8.152v-1.091c-.115-.008-.21-.01-.302-.023zm84.285 1.118v-1.088c-.175-.01-.335-.012-.493-.03-.599-.068-1.203-.109-1.793-.222-.543-.105-.77-.415-.811-.965-.02-.26-.032-.523-.033-.785-.002-2.448-.004-4.896.002-7.343.001-.392.023-.787.077-1.175.105-.764.345-1.476.937-2.015.367-.335.794-.466 1.29-.364.578.12 1.062.425 1.537.75.474.325 1.023.326 1.485-.014.47-.346.717-.832.824-1.394.094-.49.044-.963-.25-1.38-.432-.613-1.068-.736-1.76-.68-.589.047-1.115.288-1.581.632-.597.441-1.17.915-1.745 1.383-.269.217-.52.455-.81.71l-.39-2.703-5.126.849v.99c.098.014.19.028.283.04.44.06.881.105 1.318.18.35.061.574.286.621.643.044.33.077.665.078.998.005 3.264.004 6.527.001 9.791 0 .32-.017.64-.04.96-.035.507-.264.789-.752.923-.181.05-.37.08-.556.103-.374.047-.749.082-1.129.123v1.083h8.816zM88.448 8.455c.247.022.493.048.74.063.51.031.761.372.63.865-.021.077-.053.15-.076.227-1.105 3.617-2.407 7.166-3.715 10.713-.018.048-.05.09-.094.169-.042-.106-.07-.171-.093-.237l-3.005-8.424c-.278-.78-.55-1.563-.828-2.344-.22-.619-.01-.934.65-.968h.021l1.35-.134V7.266h-7.683v1.108c.306.036.595.067.883.103.589.072 1.045.341 1.307.892.085.177.17.354.239.538 1.093 2.92 2.189 5.84 3.273 8.764.579 1.561 1.137 3.13 1.705 4.694.033.09.04.195.189.194.772-.006 1.543-.003 2.322-.003.04-.102.075-.196.11-.29 1.443-3.768 2.877-7.54 4.335-11.303.344-.887.758-1.747 1.159-2.61.246-.53.69-.81 1.267-.88l.865-.107v-1.1h-6.306v1.119l.755.07zM58.911 19.656c-.362.638-.792 1.22-1.387 1.667-.88.662-1.889.867-2.962.84-1.279-.033-2.346-.518-3.15-1.526-.806-1.008-1.168-2.201-1.369-3.45A14.496 14.496 0 0 1 50 12.945c.138-1.031.392-2.028.917-2.938.413-.716.956-1.308 1.73-1.637 1.027-.435 2.038-.461 2.98.223.577.418.936 1.011 1.229 1.645.134.29.246.59.355.89.141.387.392.612.817.644.512.038.98-.087 1.42-.337.592-.338.883-.982.756-1.653-.119-.626-.48-1.098-.95-1.499-.65-.552-1.41-.89-2.224-1.115-1.551-.428-3.12-.45-4.692-.155-1.527.286-2.862.948-3.924 2.11-.87.951-1.406 2.078-1.733 3.312-.348 1.313-.435 2.651-.362 4.004.053.963.194 1.91.49 2.83.606 1.88 1.749 3.295 3.598 4.058 1.591.656 3.257.81 4.948.52 1.57-.27 2.91-.987 3.926-2.245a6.316 6.316 0 0 0 1.194-2.409l-1.053-.528c-.177.347-.332.676-.511.991zm-25.478-.783c.09 1.14.177 2.278.275 3.417a.344.344 0 0 0 .132.228c.363.24.719.502 1.11.687 1.331.63 2.757.784 4.21.763.945-.015 1.869-.156 2.755-.496 2.746-1.056 3.693-3.514 3.026-6.075-.292-1.122-1.084-1.85-2.057-2.406-1.02-.583-2.125-.97-3.23-1.352-.843-.292-1.645-.659-2.339-1.237-1.463-1.219-.955-3.348.522-4.007 1.157-.516 2.314-.468 3.397.22.809.514 1.24 1.313 1.505 2.207.11.366.175.745.261 1.122h1.05v-.256c0-1.202-.004-2.404.004-3.606.001-.176-.053-.269-.21-.35-.944-.486-1.957-.722-3.004-.84-1.272-.145-2.53-.078-3.76.29-1.041.31-1.95.842-2.6 1.74-.723 1.001-.905 2.139-.808 3.341.093 1.163.556 2.147 1.492 2.85a8.72 8.72 0 0 0 1.632.953c.865.391 1.769.698 2.65 1.057.75.307 1.468.679 2.039 1.275a2.47 2.47 0 0 1-.31 3.692c-.865.64-1.843.746-2.869.572-1.382-.234-2.33-1.055-2.995-2.25-.385-.69-.636-1.433-.837-2.195-.018-.07-.087-.176-.136-.179-.311-.016-.624-.008-.97-.008l.065.843zm63.38-5.326h6.153c.065 0 .131.001.196-.005.65-.06.943-.33.961-.905a6.434 6.434 0 0 0-.27-2.091c-.243-.799-.632-1.507-1.349-1.98-1.215-.803-3.036-.624-4.084.388a4.28 4.28 0 0 0-.919 1.318c-.47 1.028-.659 2.116-.687 3.275zm-.038 1.38c.002 1.797.114 3.534.998 5.116.722 1.291 1.838 1.983 3.306 2.126 1.354.131 2.592-.137 3.642-1.048.61-.528 1.041-1.192 1.417-1.896.082-.154.16-.31.254-.492l1.066.566a7.912 7.912 0 0 1-1.006 2.037c-1.015 1.455-2.418 2.281-4.161 2.531-1.488.214-2.962.132-4.407-.294-2.097-.62-3.442-2.008-4.123-4.067-.364-1.102-.502-2.237-.543-3.392-.047-1.325.054-2.632.413-3.911.425-1.515 1.166-2.837 2.406-3.84.926-.748 1.993-1.186 3.16-1.39 1.41-.245 2.815-.227 4.194.17 2.235.644 3.524 2.18 4.05 4.405.17.726.245 1.463.218 2.21-.025.696-.4 1.093-1.088 1.148-.152.013-.305.02-.458.02h-9.338zm-22.942.16c-.03-.398-.065-1.133-.144-1.862-.11-1.025-.356-2.017-.819-2.948-1.105-2.22-3.307-2.575-4.995-1.924-1.018.391-1.646 1.195-2.084 2.159-.52 1.143-.708 2.363-.795 3.602a18.097 18.097 0 0 0 .084 3.487c.118.957.326 1.893.743 2.769.627 1.316 1.6 2.187 3.103 2.337 1.053.105 2.025-.111 2.862-.798.747-.614 1.175-1.433 1.473-2.329.449-1.349.546-2.748.572-4.492zM69.373 24c-1.353-.026-2.672-.21-3.914-.774-2.002-.91-3.146-2.52-3.697-4.597-.398-1.502-.452-3.03-.32-4.571.093-1.096.322-2.159.769-3.166.825-1.86 2.221-3.096 4.174-3.658a10.655 10.655 0 0 1 6.027.004c2.186.637 3.622 2.08 4.38 4.215.39 1.1.55 2.24.59 3.404.046 1.28-.04 2.546-.369 3.787-.425 1.611-1.22 2.987-2.607 3.964-1.021.72-2.171 1.105-3.402 1.253-.542.065-1.087.094-1.63.139zM6.47 11.45c0 2.55-.004 5.1.003 7.65.001.509.03 1.019.073 1.526.075.893.484 1.35 1.361 1.55a2.6 2.6 0 0 0 .386.068c1.774.13 3.536.087 5.262-.395 1.805-.504 3.246-1.507 4.223-3.13.561-.933.911-1.947 1.14-3.005.222-1.02.322-2.053.366-3.095.075-1.793-.029-3.566-.55-5.293-.848-2.814-2.688-4.594-5.558-5.289-1.408-.341-2.839-.376-4.275-.312-.5.022-1.003.06-1.494.15-.621.114-.86.42-.905 1.053-.022.304-.03.61-.031.916-.002 2.535-.001 5.07-.001 7.606zM0 23.556v-1.1c.42-.04.832-.072 1.242-.12.281-.032.564-.07.839-.135.554-.133.794-.428.831-1 .019-.29.032-.581.032-.872.002-5.559.003-11.118-.001-16.676 0-.356-.026-.713-.064-1.066-.046-.438-.318-.71-.733-.789-.541-.103-1.092-.157-1.639-.229-.165-.021-.331-.03-.506-.046V.48C.083.476.154.47.225.47c4 .002 8-.016 11.999.02 1.884.017 3.741.286 5.503 1.008 2.618 1.073 4.22 3.039 4.987 5.726.374 1.31.524 2.65.546 4.01.024 1.5-.104 2.98-.498 4.43-.513 1.89-1.434 3.54-2.895 4.866-1.315 1.194-2.868 1.943-4.566 2.415-1.545.43-3.127.602-4.725.608-3.46.012-6.921.003-10.382.003H0z"/>
</svg>
