<svg xmlns="http://www.w3.org/2000/svg" width="60" height="32" viewBox="0 0 60 32">
    <path fill="#D5C8FF" fill-rule="evenodd" d="M2.516 0l2.59 3.082L0 32h57.191l-2.569-3.057L59.733 0H2.516zm42.095 3.117H56.052l-4.553 25.784H40.058l4.553-25.784zM33.657 23.938l3.675-20.821h4.164l-4.553 25.784H25.494l4.551-25.784h4.165l-3.675 20.821h3.122zM26.929 3.117l-4.552 25.784h-4.162L21.89 8.078h-3.117l-3.677 20.823h-4.17l3.678-20.823h-3.112L7.814 28.901H3.652L8.205 3.117h-.001 18.725zm20.965 4.96l-2.801 15.861h3.128l2.8-15.861h-3.127z"/>
</svg>
