<svg xmlns="http://www.w3.org/2000/svg" xmlns:xlink="http://www.w3.org/1999/xlink" width="48" height="55" viewBox="0 0 48 55">
    <defs>
        <path id="a" d="M3.42.25H.24v11.463h3.18V.25z"/>
    </defs>
    <g fill="none" fill-rule="evenodd">
        <path fill="#2995CD" d="M14.61 19.602l6.297-1.158-2.144 6.017-2.143 6.017-4.154-4.86-4.153-4.859z"/>
        <path fill="#2995CD" d="M27.203 17.287l6.297-1.158-2.143 6.017-2.143 6.017-4.154-4.86-4.154-4.859z"/>
        <path fill="#A9DCF6" d="M35.51 27.006l-6.296 1.157 2.143-6.017L33.5 16.13l4.154 4.86 4.153 4.86z"/>
        <path fill="#50B5E9" d="M22.917 29.32l-6.297 1.158 2.143-6.017 2.144-6.017 4.153 4.86 4.154 4.86z"/>
        <path fill="#46A7D9" d="M10.323 31.636l-6.297 1.157 2.144-6.017 2.143-6.017 4.154 4.86 4.153 4.86z"/>
        <path fill="#50B5E9" d="M4.027 32.793l22.19 14.86-9.597-17.175z"/>
        <path fill="#2995CD" d="M41.821 25.846L26.217 47.654l3.01-19.493z"/>
        <path fill="#A9DCF6" d="M16.62 30.478l9.598 17.176 2.996-19.49z"/>
        <g transform="translate(20.668 .112)">
            <mask id="b" fill="#fff">
                <use xlink:href="#a"/>
            </mask>
            <path fill="#50B5E9" d="M1.83 11.713c-.878 0-1.59-.71-1.59-1.586V1.836C.24.959.951.249 1.83.249c.878 0 1.59.71 1.59 1.587v8.29c0 .877-.712 1.587-1.59 1.587" mask="url(#b)"/>
        </g>
        <path fill="#A9DCF6" d="M37.147 14.07a1.583 1.583 0 0 1-.723-2.65l5.852-5.89a1.594 1.594 0 0 1 2.25-.01c.623.617.628 1.622.01 2.244l-5.853 5.889c-.415.417-1.005.557-1.536.417"/>
        <path fill="#2995CD" d="M7.85 14.07a1.583 1.583 0 0 0 .723-2.65L2.72 5.53a1.594 1.594 0 0 0-2.25-.01 1.583 1.583 0 0 0-.009 2.244l5.852 5.889c.415.417 1.005.557 1.536.417"/>
        <path fill="#53C9E5" d="M42.34 37.184l-3.032-.715.896 2.976.895 2.975 2.136-2.261 2.136-2.261zM36.277 35.755l-3.032-.714.896 2.976.895 2.975 2.136-2.261 2.136-2.261z"/>
        <path fill="#C1ECF6" d="M32.005 40.278l3.031.714-.896-2.975-.895-2.976-2.136 2.261-2.136 2.261z"/>
        <path fill="#7ED7EC" d="M38.068 41.706l3.031.714-.896-2.975-.895-2.975-2.136 2.26-2.136 2.262z"/>
        <path fill="#6FD2E9" d="M44.13 43.134l3.032.714-.895-2.975-.896-2.975-2.136 2.26L41.1 42.42z"/>
        <path fill="#7ED7EC" d="M47.162 43.848L36.02 50.534l5.08-8.114z"/>
        <path fill="#53C9E5" d="M28.966 39.562l7.054 10.972-.99-9.544z"/>
        <path fill="#C1ECF6" d="M41.1 42.42l-5.08 8.114-.984-9.542z"/>
        <path fill="#5296E8" d="M14.629 34.179l-4.017 1.57 3.371 2.684 3.372 2.684.646-4.254.645-4.254zM6.595 37.318l-4.018 1.57 3.372 2.684 3.372 2.685.645-4.255.646-4.254z"/>
        <path fill="#C1D9F7" d="M5.304 45.826l4.017-1.57-3.372-2.684-3.371-2.684-.646 4.254-.646 4.254z"/>
        <path fill="#7DB0EE" d="M13.338 42.687l4.017-1.57-3.372-2.684-3.371-2.685-.646 4.255-.645 4.254z"/>
        <path fill="#6EA7EC" d="M21.372 39.548l4.017-1.57-3.371-2.684-3.372-2.685L18 36.863l-.645 4.255z"/>
        <path fill="#7DB0EE" d="M25.39 37.978l-7.407 16.374-.628-13.235z"/>
        <path fill="#5296E8" d="M1.277 47.4l16.706 6.952L9.312 44.26z"/>
        <path fill="#C1D9F7" d="M17.355 41.117l.628 13.235-8.662-10.096z"/>
    </g>
</svg>
