<svg xmlns="http://www.w3.org/2000/svg" xmlns:xlink="http://www.w3.org/1999/xlink" width="50" height="53" viewBox="0 0 50 53">
    <defs>
        <path id="a" d="M3.736.266H.261V12.89h3.475V.266z"/>
        <path id="c" d="M.36 20.706h21.324V.351H.36v20.355z"/>
    </defs>
    <g fill="none" fill-rule="evenodd">
        <g transform="translate(22.572 .132)">
            <mask id="b" fill="#fff">
                <use xlink:href="#a"/>
            </mask>
            <path fill="#50B5E9" d="M1.999 12.89c-.96 0-1.738-.782-1.738-1.747v-9.13C.261 1.048 1.04.266 2 .266s1.737.782 1.737 1.747v9.13c0 .965-.778 1.747-1.737 1.747" mask="url(#b)"/>
        </g>
        <path fill="#A9DCF6" d="M40.57 15.494a1.725 1.725 0 0 1-.78-.448 1.754 1.754 0 0 1-.01-2.47l6.39-6.485a1.73 1.73 0 0 1 2.457-.012c.681.68.687 1.786.011 2.47l-6.391 6.486c-.453.46-1.097.613-1.678.46"/>
        <path fill="#2995CD" d="M18.038 20.163l6.991-.153-3.363 6.164-3.363 6.165-3.628-6.011-3.628-6.012zM32.02 19.856l6.991-.153-3.363 6.164-3.363 6.165-3.628-6.01-3.628-6.012z"/>
        <path fill="#A9DCF6" d="M39.276 31.879l-6.991.153 3.363-6.164 3.364-6.165 3.627 6.011 3.628 6.012z"/>
        <path fill="#50B5E9" d="M25.294 32.186l-6.991.153 3.363-6.164 3.363-6.165 3.628 6.01 3.628 6.012z"/>
        <path fill="#46A7D9" d="M11.311 32.492l-6.99.154 3.363-6.165 3.363-6.165 3.628 6.011 3.627 6.012z"/>
        <g transform="translate(3.96 31.988)">
            <mask id="d" fill="#fff">
                <use xlink:href="#c"/>
            </mask>
            <path fill="#50B5E9" d="M.36.658l21.324 20.049L14.342.35z" mask="url(#d)"/>
        </g>
        <path fill="#2995CD" d="M46.283 31.725l-20.639 20.97 6.657-20.663z"/>
        <path fill="#A9DCF6" d="M18.303 32.34l7.341 20.354 6.64-20.662z"/>
        <path fill="#2995CD" d="M8.572 15.494c.285-.075.555-.225.78-.448a1.754 1.754 0 0 0 .01-2.47L2.971 6.09a1.73 1.73 0 0 0-2.457-.012 1.754 1.754 0 0 0-.01 2.47l6.39 6.486a1.73 1.73 0 0 0 1.678.46"/>
    </g>
</svg>
