<svg xmlns="http://www.w3.org/2000/svg" width="40" height="23" viewBox="0 0 40 23">
    <g fill="none" fill-rule="evenodd" stroke="#A5A1AC" stroke-width="2.4">
        <path d="M23.324 10.53h14.621M2.248 10.53h21.946M16.804 15.667s1.501-.742 3.293-.742a7.57 7.57 0 0 1 3.197.742"/>
        <path stroke-linecap="round" stroke-linejoin="round" d="M16.838 10.53v3.878c0 3.879-3.22 7.052-7.154 7.052H8.359c-3.497 0-6.36-2.822-6.36-6.269v-4.968l8.289-7.205c2.02-1.756 4.63-1.113 6.482.958M23.26 10.53v3.878c0 3.879 3.219 7.052 7.154 7.052h1.325c3.497 0 6.359-2.822 6.359-6.269v-4.968L29.81 3.018c-2.02-1.756-4.63-1.113-6.482.958"/>
    </g>
</svg>
