<svg xmlns="http://www.w3.org/2000/svg" width="32" height="34" viewBox="0 0 32 34">
    <g fill="none" fill-rule="evenodd">
        <path class='path' stroke="#6133B4" stroke-linecap="round" stroke-linejoin="round" stroke-width="2.4" d="M2.124 20.456S2.854 2 15.734 2c12.88 0 13.61 18.456 13.61 18.456"/>
        <path class='path' stroke="#6133B4" stroke-linecap="round" stroke-linejoin="round" stroke-width="2.4" d="M10.29 32.388s-1.725-7.96-1.725-14.681c0-6.722 2.382-14.682 2.382-14.682M21.064 32.388s1.724-7.96 1.724-14.681c0-6.722-2.382-14.682-2.382-14.682"/>
        <path class='path' stroke="#6133B4" stroke-linecap="round" stroke-linejoin="round" stroke-width="2.4" d="M8.957 22.65s3.372-.64 6.933-.64c3.563 0 6.54.64 6.54.64M7.003 32.388h3.29M21.144 32.388h3.289"/>
        <path fill="#6133B4" d="M3.784 21.533a1.893 1.893 0 1 1-3.785 0 1.893 1.893 0 0 1 3.785 0M31.237 21.533a1.893 1.893 0 1 1-3.786 0 1.893 1.893 0 0 1 3.786 0"/>
    </g>
</svg>
