<svg xmlns="http://www.w3.org/2000/svg" width="24" height="20" viewBox="0 0 24 20">
    <path fill="#C3C0C7" fill-rule="evenodd" d="M16.985 11.46L3.496 13.708a.983.983 0 0 1-1.147-.97V3.335a.984.984 0 0 1 1.147-.97l13.489 2.248v6.847zm3.571-8.635l-.04-.006c-.012-.003-.021-.013-.033-.016-.029-.007-.058.002-.087-.004L3.883.046A3.335 3.335 0 0 0 0 3.336v9.402a3.334 3.334 0 0 0 3.883 3.289l11.765-1.961-.875 3.5A1.96 1.96 0 0 0 16.675 20c.877 0 1.677-.592 1.898-1.483l1.288-5.153.695-.116a3.334 3.334 0 0 0 2.786-3.289V6.115a3.335 3.335 0 0 0-2.786-3.29z"/>
</svg>
