<svg xmlns="http://www.w3.org/2000/svg" width="158" height="52" viewBox="0 0 158 52">
    <g fill="none" fill-rule="evenodd" opacity=".64">
        <g fill="#A5A1AC">
            <path d="M79.337 48.628h-1.16l.898-2.216-1.787-4.509h1.226l1.122 3.069 1.132-3.069h1.226l-2.657 6.725zm-4.453-1.936c-.402 0-.815-.149-1.188-.44v.328h-1.197v-6.726h1.197v2.367c.373-.28.786-.43 1.188-.43 1.253 0 2.113 1.01 2.113 2.45 0 1.44-.86 2.451-2.113 2.451zm-.253-3.872c-.327 0-.655.14-.935.42v2.003c.28.28.608.42.935.42.674 0 1.141-.58 1.141-1.421 0-.842-.467-1.422-1.14-1.422zm-6.98 3.432c-.364.291-.775.44-1.187.44-1.244 0-2.114-1.01-2.114-2.45 0-1.441.87-2.45 2.114-2.45.412 0 .823.148 1.188.43v-2.368h1.207v6.726h-1.207v-.328zm0-3.011c-.27-.281-.598-.421-.925-.421-.683 0-1.15.58-1.15 1.422s.467 1.421 1.15 1.421c.327 0 .654-.14.926-.42V43.24zm-7.127 1.328c.074.711.636 1.197 1.42 1.197.432 0 .908-.159 1.395-.44v1.002a3.82 3.82 0 0 1-1.59.364c-1.413 0-2.404-1.029-2.404-2.488 0-1.412.972-2.413 2.31-2.413 1.226 0 2.058.964 2.058 2.338 0 .131 0 .28-.019.44h-3.17zm1.085-1.853c-.58 0-1.03.432-1.085 1.077h2.039c-.038-.637-.42-1.077-.954-1.077zm-4.238.74v3.124h-1.198v-4.677h1.198v.468c.337-.375.748-.58 1.15-.58.131 0 .262.009.393.046v1.067a1.573 1.573 0 0 0-.42-.056c-.394 0-.815.215-1.123.608zm-5.342 1.113c.075.711.636 1.197 1.422 1.197.43 0 .907-.159 1.393-.44v1.002a3.827 3.827 0 0 1-1.59.364c-1.412 0-2.403-1.029-2.403-2.488 0-1.412.972-2.413 2.31-2.413 1.225 0 2.058.964 2.058 2.338 0 .131 0 .28-.019.44h-3.17zm1.085-1.853c-.58 0-1.029.432-1.085 1.077h2.04c-.038-.637-.422-1.077-.955-1.077zm-5.267 3.864l-.955-3.18-.944 3.18h-1.076l-1.609-4.677h1.197l.945 3.18.945-3.18h1.085l.945 3.18.944-3.18h1.198l-1.6 4.677h-1.075zm-7.316.112c-1.413 0-2.414-1.02-2.414-2.45 0-1.441 1.001-2.45 2.414-2.45 1.412 0 2.404 1.009 2.404 2.45 0 1.43-.992 2.45-2.404 2.45zm0-3.9c-.702 0-1.188.59-1.188 1.45s.486 1.45 1.188 1.45c.692 0 1.178-.59 1.178-1.45s-.486-1.45-1.178-1.45zm-5.258 1.477h-1.076v2.311H33v-6.436h2.273c1.31 0 2.245.852 2.245 2.068 0 1.216-.935 2.057-2.245 2.057zm-.168-3.152h-.908v2.18h.908c.692 0 1.179-.44 1.179-1.085 0-.655-.487-1.095-1.18-1.095zM124.151 44.73h-4.941c.113 1.183.98 1.531 1.963 1.531 1.002 0 1.791-.211 2.48-.558v2.033c-.686.38-1.592.654-2.798.654-2.459 0-4.181-1.54-4.181-4.583 0-2.57 1.461-4.611 3.862-4.611 2.397 0 3.649 2.04 3.649 4.624 0 .245-.022.774-.034.91zm-3.631-3.477c-.631 0-1.332.477-1.332 1.614h2.61c0-1.136-.658-1.614-1.278-1.614zm-7.932 7.137c-.883 0-1.423-.372-1.785-.638l-.006 2.856-2.523.537-.001-11.781h2.222l.132.623a2.827 2.827 0 0 1 1.977-.791c1.772 0 3.441 1.596 3.441 4.535 0 3.207-1.651 4.66-3.457 4.66zM112 41.431c-.579 0-.942.212-1.205.5l.015 3.75c.245.267.598.48 1.19.48.933 0 1.56-1.016 1.56-2.375 0-1.32-.636-2.355-1.56-2.355zm-7.375-2.067h2.533v8.846h-2.533v-8.846zm0-2.825l2.533-.539v2.056l-2.533.539v-2.056zm-2.701 5.673v5.998H99.4v-8.846h2.182l.158.745c.591-1.086 1.771-.865 2.107-.745v2.32c-.32-.104-1.328-.255-1.924.528zm-5.41 2.895c0 1.487 1.593 1.024 1.915.895v2.054c-.336.185-.945.334-1.77.334-1.498 0-2.623-1.103-2.623-2.597l.012-8.097 2.464-.524.002 2.192h1.916v2.152h-1.916v3.59zm-3.146.43c0 1.817-1.446 2.853-3.545 2.853-.87 0-1.821-.169-2.76-.572v-2.41c.847.46 1.926.806 2.763.806.562 0 .968-.15.968-.618 0-1.204-3.837-.75-3.837-3.544 0-1.787 1.365-2.856 3.412-2.856.836 0 1.672.128 2.508.46v2.379c-.768-.415-1.743-.65-2.51-.65-.529 0-.858.153-.858.547 0 1.136 3.859.595 3.859 3.605z"/>
        </g>
        <g fill="#4E4A57">
            <text font-family="RobotoCondensed-Bold, Roboto Condensed" font-size="24" font-style="condensed" font-weight="bold" transform="translate(0 -4)">
                <tspan x="50.096" y="22">Credit Card</tspan>
            </text>
            <g fill-rule="nonzero">
                <path d="M0 20.776c0 1.646 1.182 2.98 2.641 2.98H31.11c1.459 0 2.641-1.333 2.641-2.98V8.818H0v11.958zM31.109.244H2.64C1.182.244 0 1.577 0 3.224v.892h33.75v-.892c0-1.647-1.182-2.98-2.641-2.98z"/>
            </g>
        </g>
    </g>
</svg>
