<svg xmlns="http://www.w3.org/2000/svg" width="16" height="16" viewBox="0 0 16 16">
    <path fill-rule="evenodd" d="M2.723 11.859l1.418 1.419-2.219.788.8-2.207zm2.762.686l-2.03-2.03 7.386-7.385 2.03 2.03-7.386 7.385zm8.704-10.731c.56.56.56 1.468 0 2.03l-.285.284-2.03-2.03.286-.284a1.438 1.438 0 0 1 2.027 0h.002zM11.125.782l-.8.8-8.417 8.415a.731.731 0 0 0-.098.122s-.012.024-.02.036a.713.713 0 0 0-.048.1v.012L.044 15.022a.73.73 0 0 0 .934.935l4.755-1.704a.728.728 0 0 0 .102-.05l.034-.018a.731.731 0 0 0 .122-.097l9.227-9.213A2.896 2.896 0 0 0 11.125.782z"/>
</svg>
