<svg xmlns="http://www.w3.org/2000/svg" width="73" height="27" viewBox="0 0 73 27">
    <g fill="none" fill-rule="evenodd">
        <path fill="#8EEDF6" d="M4.333 9.757l2.166-.554-1.742-1.401-.554-2.166-1.401 1.742-2.166.554 1.742 1.4.554 2.167zM70.333 5.757l2.166-.554-1.742-1.401-.554-2.166-1.401 1.742-2.166.554 1.742 1.4.554 2.167zM37.147 5.518l2.573.428-1.202-2.315.428-2.574-2.315 1.202-2.574-.427 1.202 2.315-.427 2.573zM68.735 22.132l2.367 1.812.03-2.981 1.812-2.368-2.981-.03-2.368-1.812-.03 2.982-1.812 2.367zM33.676 23.656l1.839.305-.859-1.653.305-1.839-1.653.859-1.839-.305.859 1.653-.305 1.839zM10.695 25.362l.805 1.68.862-1.651 1.68-.804-1.651-.862-.804-1.681-.862 1.652-1.681.804z"/>
        <path fill="#F8F9F9" d="M21.862 9.542l5.914-1.585 2.219 8.28-5.914 1.584z"/>
        <path fill="#DDF3F3" d="M15.949 11.126l5.913-1.584 2.219 8.28-5.914 1.584z"/>
        <path fill="#FFA624" d="M20.68 9.859l1.182-.317 2.219 8.28-1.183.316z"/>
        <path fill="#FFBE5D" d="M21.862 9.542l1.183-.317 2.219 8.28-1.183.316z"/>
        <path fill="#EE9109" d="M22.581 16.955l1.183-.317.317 1.183-1.183.317zM20.68 9.859l1.182-.317.317 1.183-1.182.317z"/>
        <path fill="#C1E9E9" d="M15.949 11.126l4.73-1.267.318 1.183-4.732 1.267zM17.85 18.223l4.731-1.268.317 1.183-4.731 1.268z"/>
        <path fill="#DDF3F3" d="M23.045 9.225l4.731-1.268.317 1.183-4.73 1.268zM24.947 16.322l4.73-1.268.318 1.183-4.731 1.267z"/>
        <path fill="#FFA624" d="M23.764 16.638l1.183-.316.317 1.182-1.183.317zM21.862 9.542l1.183-.317.317 1.183-1.183.317z"/>
        <g>
            <path stroke="#FFA624" stroke-width="1.5" d="M21.737 3.348c-.295-1.038-1.009-2.02-2.008-2.204-1-.184-1.69.542-1.495 1.297.195.755.88.984 3.075 1.916.623.264.723.03.428-1.009z"/>
            <path stroke="#FFBE5D" stroke-width="1.5" d="M24.307 3.71c.57-.918 1.527-1.664 2.538-1.565 1.012.098 1.475.986 1.08 1.658-.396.671-1.117.703-3.484.994-.672.083-.703-.17-.134-1.088z"/>
            <path fill="#EE9109" d="M23.129 2.769c-1.968-.277-1.106 2.141-.317 2.252.79.111 2.285-1.976.317-2.252z"/>
            <path fill="#F8F9F9" d="M22.862 4.665l7.276 1.022-.511 3.638-7.276-1.022z"/>
            <path fill="#DDF3F3" d="M15.587 3.642l7.275 1.023-.51 3.638-7.276-1.023z"/>
            <path fill="#FFBE5D" d="M20.437 4.324l4.85.682-.51 3.638-4.85-.682z"/>
            <path fill="#FFA624" d="M20.437 4.324l2.425.341-.51 3.638-2.426-.341z"/>
            <path fill="#FFA624" d="M22.862 4.665l2.426.34-.17 1.213-2.426-.34z"/>
            <path fill="#EE9109" d="M20.437 4.324l2.425.341-.17 1.213-2.425-.341z"/>
            <path fill="#C1E9E9" d="M15.246 6.068l4.85.681-.17 1.213-4.85-.682z"/>
            <path fill="#DDF3F3" d="M24.947 7.431l4.85.682-.17 1.212-4.85-.681z"/>
        </g>
        <g>
            <path stroke="#FFA624" stroke-width="1.5" d="M49.696 7.04c-.549-1.24-1.609-2.337-2.885-2.391-1.276-.054-2.007.969-1.632 1.874.374.905 1.266 1.071 4.16 1.847.822.22.905-.09.357-1.33z"/>
            <path stroke="#FFBE5D" stroke-width="1.5" d="M52.956 7.04c.548-1.24 1.609-2.337 2.885-2.391 1.276-.054 2.007.969 1.632 1.874-.374.905-1.266 1.071-4.16 1.847-.822.22-.905-.09-.357-1.33z"/>
            <path fill="#EE9109" d="M51.326 6.075c-2.497 0-1.002 2.858 0 2.858s2.497-2.858 0-2.858z"/>
            <path fill="#F8F9F9" d="M51.326 8.481h9.23v4.616h-9.23z"/>
            <path fill="#DDF3F3" d="M42.095 8.481h9.23v4.616h-9.23z"/>
            <path fill="#FFBE5D" d="M48.249 8.481h6.154v4.616h-6.154z"/>
            <path fill="#FFA624" d="M48.249 8.481h3.077v4.616h-3.077zM51.326 8.481h3.077v1.539h-3.077z"/>
            <path fill="#EE9109" d="M48.249 8.481h3.077v1.539h-3.077z"/>
            <path fill="#F8F9F9" d="M51.326 13.097h7.692v10.769h-7.692z"/>
            <path fill="#DDF3F3" d="M43.634 13.097h7.692v10.769h-7.692z"/>
            <path fill="#FFA624" d="M49.787 13.097h1.538v10.769h-1.538z"/>
            <path fill="#FFBE5D" d="M51.326 13.097h1.538v10.769h-1.538z"/>
            <path fill="#EE9109" d="M49.787 22.327h1.539v1.539h-1.539zM49.787 13.097h1.539v1.538h-1.539z"/>
            <path fill="#C1E9E9" d="M43.634 13.097h6.153v1.538h-6.153zM42.095 11.558h6.154v1.539h-6.154zM43.634 22.327h6.153v1.539h-6.153z"/>
            <path fill="#DDF3F3" d="M52.864 13.097h6.154v1.538h-6.154zM54.403 11.558h6.154v1.539h-6.154zM52.864 22.327h6.154v1.539h-6.154z"/>
            <path fill="#FFA624" d="M51.326 22.327h1.538v1.539h-1.538zM51.326 13.097h1.538v1.538h-1.538z"/>
        </g>
    </g>
</svg>
