<svg xmlns="http://www.w3.org/2000/svg" width="65" height="70" viewBox="0 0 65 70">
    <path fill-rule="evenodd" d="M62.749 65.754c1.728 2.297 1.853 3.623.136 3.623H51.783c-3.344 0-4.038.396-3.985-1.056.072-2.024.725-2.103 2.851-2.696 1.763-.493 1.13-3.63-.869-6.376-1.392-1.91-4.216-4.134-7.929-2.405-2.41 1.122-3.828 2.27-4.943 3.815-1.823 2.53-1.724 4.927 1.115 4.927 2.683 0 5.843-1.626 6.76.69 1.134 2.867.355 3.133-.2 3.133H26.79l.012.017c-9.532 0-19.054-.075-21.262-6.099-3.056-8.334 8.063-11.546 8.404-16.775.138-2.116-1.051-3.096-2.536-3.096H4.885V39.49H.921V27.6h3.964v3.964H8.85v3.964h3.965v5.506s3.447 1.71 3.33 5.478c-.186 5.982-10.304 9.296-8.45 15.567 1.695 5.738 14.502 4.364 14.053.804l-.222-2.028c-.063-2.84-.506-6.64.087-10.005.934-5.289 4.224-9.865 9.956-9.907 1.045-.008 1.929-.222 1.929-1.1 0-.927-1.68-.906-2.863-1.025-4.09-.417-9.18-1.787-13.627-5.445-2.634-2.167-6.736-8.999-4.054-8.498 1.656.31 3.116.437 4.4.433 1.346-.004 4.82-.382 4.82-1.203 0-1.138-2.01-.453-4.955-.741-3.521-.344-10.988-1.853-14.84-13.215C.932 5.89-.02-2.075 2.324.503 15.84 15.367 20.433 12.947 28.184 18.029c3.412 2.237 5.633 7.58 7.622 7.135 1.296-.292.502-1.483.696-4.262.173-2.484 1.354-3.022-1.683-3.773-3.538-.873-7.07-4.752-4.76-4.697 2.307.056 3.977.048 6-.828 2.024-.875 6.97-4.641 9.962-3.133 2.992 1.509 5.507-.656 7.531-.272 2.938.557 3.694 4.6 3.313 6.965-.24 1.5-.24 1.498-2.153 1.386-3.921-.23-4.92 2.893-2.162 4.615 4.197 2.621 5.98 4.588 7.121 10.395.555 2.817.105 3.474-.83 2.956-.933-.519-2.539-.778-.31 4.356 2.23 5.133-1.4 11.15-2.592 11.825-1.194.674-.986 1.452-.986 1.452-.023 12.387 0 13.315 2.078 13.538 3.15.34 4.49-1.565 5.718.067z"/>
</svg>
