<svg id="Layer_1" data-name="Layer 1" xmlns="http://www.w3.org/2000/svg" viewBox="0 0 31.24 31.25"><defs><style>.cls-1{}</style></defs><title>hair</title><path class="cls-1" d="M26.14,6.55l4,4,1.7-1.7L27,4l0,0-0.85-.85-1-1a5.49,5.49,0,0,0-7.76,0L2.21,17.38a5.49,5.49,0,0,0,0,7.76l1,1L4,27l0,0,4.86,4.86,1.7-1.7-4-4,0,0L8.5,24.19l4,4,1.7-1.7-4-4,1.8-1.8,4,4L17.7,23l-4-4,1.8-1.8,4,4,1.7-1.7-4-4,1.8-1.8,4,4L24.7,16l-4-4,1.8-1.8,4,4,1.7-1.7-4-4,1.92-1.92ZM4.88,24.42l-1-1a3.09,3.09,0,0,1,0-4.37L19.08,3.9a3.09,3.09,0,0,1,4.37,0l1,1Z" transform="translate(-0.6 -0.6)"/></svg>
