<svg xmlns="http://www.w3.org/2000/svg" width="35" height="35" viewBox="0 0 35 35">
    <g fill="none" fill-rule="evenodd">
        <path fill="#A5A1AC" d="M22.688 0a7.222 7.222 0 0 0-5.12 2.12L2.12 17.569a7.241 7.241 0 0 0 0 10.24l2.538 2.538L30.346 4.66 27.809 2.12A7.222 7.222 0 0 0 22.688 0m0 2.414c1.289 0 2.502.502 3.413 1.414l.832.83L4.659 26.934l-.831-.831a4.793 4.793 0 0 1-1.415-3.414c0-1.29.502-2.501 1.415-3.414L19.275 3.828a4.793 4.793 0 0 1 3.413-1.414"/>
        <path stroke="#A5A1AC" stroke-width="2.4" d="M4.385 28.385l5.746 5.747M28.36 4.41l5.746 5.746M16.372 16.398l5.746 5.746M7.382 25.389l5.746 5.746M10.379 22.392l5.746 5.746M13.376 19.395l5.746 5.746M19.37 13.4l5.745 5.747M22.366 10.404l5.746 5.746M25.363 7.407l5.746 5.746"/>
    </g>
</svg>
