<svg xmlns="http://www.w3.org/2000/svg" width="24" height="24" viewBox="0 0 24 24">
    <g fill="none" fill-rule="evenodd">
        <path fill="#F74E52" d="M2 4.5L6.167 2 12 5.167 17.833 2 22 4.5V12l-4.167 5.833L12 22l-5.833-4.167L2 12z"/>
        <path fill="#FF6165" d="M7.333 16.667L3.667 11.5V5.417l2.5-1.5L12 7.083l5.833-3.166 2.5 1.5V11.5l-3.666 5.167L12 19.917z"/>
        <path fill="#FFF" d="M12 14.083l4.667 2.584L12 19.917z" opacity=".5"/>
        <path fill="#B52428" d="M12 14.083l-4.667 2.584L12 19.917z" opacity=".35"/>
        <path fill="#FFF" d="M7.333 16.667L3.667 11.5 12 14.083z" opacity=".25"/>
        <path fill="#B52428" d="M16.667 16.667l3.666-5.167L12 14.083z" opacity=".5"/>
        <path fill="#B52428" d="M12 14.083l5.833-10.166 2.5 1.5V11.5z" opacity=".35"/>
        <path fill="#B52428" d="M12 14.083L6.167 3.917l-2.5 1.5V11.5z" opacity=".5"/>
        <path fill="#FFF" d="M12 14.083L6.167 3.917 12 7.083z" opacity=".5"/>
        <path fill="#FFF" d="M12 14.083l5.833-10.166L12 7.083z" opacity=".25"/>
        <path fill="#FFF" d="M9.167 14.833l-3-4.166V6.833h.083L12 9.917l5.75-3.084h.083v3.834l-3 4.166L12 16.917z" opacity=".5"/>
    </g>
</svg>
