<svg xmlns="http://www.w3.org/2000/svg" xmlns:xlink="http://www.w3.org/1999/xlink" width="256" height="104" viewBox="0 0 256 104">
    <defs>
        <rect id="b" width="96" height="56" rx="6"/>
        <filter id="a" width="112.5%" height="128.6%" x="-6.2%" y="-10.7%" filterUnits="objectBoundingBox">
            <feMorphology in="SourceAlpha" operator="dilate" radius="4" result="shadowSpreadOuter1"/>
            <feOffset dy="4" in="shadowSpreadOuter1" result="shadowOffsetOuter1"/>
            <feComposite in="shadowOffsetOuter1" in2="SourceAlpha" operator="out" result="shadowOffsetOuter1"/>
            <feColorMatrix in="shadowOffsetOuter1" values="0 0 0 0 0.407843137 0 0 0 0 0.384313725 0 0 0 0 0.454901961 0 0 0 0.24 0"/>
        </filter>
    </defs>
    <g fill="none" fill-rule="evenodd">
        <g opacity=".64">
            <path fill="#3FDAA2" d="M194.359 74.179l3.074-1.341-2.917-1.655-1.341-3.075-1.655 2.918-3.075 1.34 2.918 1.656 1.34 3.074z" opacity=".96"/>
            <path fill="#FF6165" d="M127.439 4.105l-.023 2.982 2.399-1.771 2.981.023-1.77-2.4.022-2.98-2.399 1.77-2.98-.022z" opacity=".84"/>
            <path fill="#3FDAA2" d="M70.501 38.126l2.574.428-1.202-2.315.428-2.574-2.316 1.202-2.573-.427 1.202 2.315-.428 2.573z" opacity=".83"/>
            <path fill="#50B5E9" d="M240.929 73.34l.173 6.333 4.962-3.939 6.334-.173-3.939-4.962-.173-6.334-4.962 3.939-6.334.173z" opacity=".73"/>
            <path fill="#FFBE5D" d="M198.881 41.724l-3.984 5.397 6.708-.05 5.397 3.983-.05-6.708 3.983-5.397-6.708.051-5.397-3.984z" opacity=".82"/>
            <path fill="#50B5E9" d="M81.165 96.829l-.589-4.433-3.193 3.13-4.433.59 3.13 3.193.59 4.433 3.193-3.13 4.433-.59z" opacity=".99"/>
            <path fill="#50B5E9" d="M119.702 40.186l-3.901 5.91 7.068-.425 5.91 3.902-.425-7.069 3.901-5.909-7.068.425-5.909-3.902z"/>
            <path fill="#FF6165" d="M162.14 91.367l3.404 2.9.278-4.463 2.9-3.404-4.463-.278-3.404-2.9-.278 4.463-2.9 3.404z" opacity=".84"/>
            <path fill="#FF944C" d="M6.708 37.066l.62 3.675 2.568-2.7 3.675-.62-2.7-2.568-.62-3.675-2.568 2.7-3.675.62zM253.486 43.18l-.037-3.727-2.96 2.265-3.726.037 2.265 2.959.037 3.727 2.96-2.266 3.726-.037z" opacity=".93"/>
            <path fill="#9A62FF" d="M51.481 70.952l5.13-.957-3.843-3.53-.957-5.128-3.53 3.842-5.128.957 3.843 3.53.956 5.128z" opacity=".99"/>
            <path fill="#FFBE5D" d="M78.061 8.656l-.952 3.987 3.761-1.63 3.987.952-1.63-3.761.953-3.988-3.762 1.63-3.987-.952z"/>
            <path fill="#3FDAA2" d="M5.863 70.74l4.692 1.207-1.849-4.478 1.208-4.692-4.478 1.849-4.692-1.208 1.849 4.478-1.208 4.692z" opacity=".96"/>
            <path fill="#9A62FF" d="M182.63 14.447l5.026-1.4-4.135-3.18-1.4-5.027-3.181 4.136-5.026 1.4 4.135 3.18 1.4 5.027z" opacity=".99"/>
        </g>
        <g transform="translate(79 24)">
            <use fill="#000" filter="url(#a)" xlink:href="#b"/>
            <rect width="100" height="60" x="-2" y="-2" fill="#6133B4" stroke="#4F2A93" stroke-width="4" rx="6"/>
        </g>
        <path fill="#FFF" d="M99.91 39v-9.8h3.024v3.528h2.366V29.2h3.024V39H105.3v-3.584h-2.366V39H99.91zm12.138 0v-9.8h7.182v2.576h-4.186v1.12h3.878v2.352h-3.878v1.176h4.256V39h-7.252zm10.794 0v-9.8h3.024v7.14h3.738V39h-6.762zm10.178 0v-9.8h3.024v7.14h3.738V39h-6.762zm14.14.21c-2.688 0-4.634-2.03-4.634-4.97v-.252c0-2.94 1.96-4.998 4.648-4.998 2.702 0 4.648 2.03 4.648 4.97v.252c0 2.94-1.974 4.998-4.662 4.998zm.014-2.702c.98 0 1.582-.84 1.582-2.296v-.21c0-1.456-.616-2.31-1.596-2.31-.966 0-1.582.84-1.582 2.296v.21c0 1.456.616 2.31 1.596 2.31zM79 44h96v28H79z"/>
        <path fill="#4E4A57" d="M102.99 64.82c.04-1.6.04-3.34-.12-4.96-.8-.18-1.76-.26-2.88-.1v5.18c0 .18-.38.28-.5.28-.24 0-.5-.14-.54-.4l-.24-14.22c0-.42.06-.76.52-.76.1 0 .72.1.72.28l.02 8.54c.74.1 2.34.06 2.98.14v-.84c0-2.74-.16-5.1-.16-7.48 0-.24.04-.64.34-.64.3 0 .74.14.78.52l.26 14.36c0 .34-.3.62-.68.62h-.1c-.14-.02-.36-.4-.4-.52zm7.64-3.18h-2.96l-.12.12-.34 2.26c-.04.3-.02 1.16-.6 1.16-.26 0-.44-.52-.44-.72 2.08-14.5 2.1-14.54 2.1-14.54.1-.38.24-.94.74-.94.22 0 .5.1.62.3l.16.42c1.16 4.58 1.7 9.28 2.24 14l.12 1.3c0 .02-.02.02-.02.04-.14.38-.22.54-.6.54h-.06c-.12 0-.32 0-.34-.14l-.5-3.8zm-1.5-10.52l-1.16 9.28 2.5.06-1.34-9.34zm4.3-.68c1.3-1.48 4.24-1.06 4.24 1.4 0 1.04-.4 1.98-1.08 2.74 2.28 1.42 3.18 3.12 3.18 5.8 0 2.86-1.58 5.3-4.72 5.3-.14 0-.54-.02-.7-.3-.22-3.08-.22-6.14-.52-9.76l-.4-4.76v-.42zm1.98 14.02c.12.02.24.02.36.02 2.12 0 2.82-2.18 2.82-4.1 0-2.22-1.02-4.92-3.64-4.92 0 3.02.22 6 .46 9zm-.82-13.58l.3 3.3c1.02 0 1.7-1.16 1.7-2.26 0-1.14-.94-1.54-2-1.04zm6.54 14.74l.54-14.84c.14-.4.24-.42.66-.42.58 0 .58.26.58.84 0 .06-.02.32-.02.36l-.6 13.68c-.04.88-1.16.96-1.16.38zm5.08-1.86l-.4-12.66c-1.24.08-1.8.06-1.84-.28.04-.68.04-.92 2.12-.8h1.68c.44.02 1.18.08 1.18.66 0 .18-.22.38-.4.38h-1.68l.38 12.7c0 .18-.4.28-.52.28s-.52-.1-.52-.28zm4.12 1.86l.54-14.84c.14-.4.24-.42.66-.42.58 0 .58.26.58.84 0 .06-.02.32-.02.36l-.6 13.68c-.04.88-1.16.96-1.16.38zm7.66-15.56c.42 0 .94.28.94.74 0 .7-1.16.56-1.44.56h-.12c-1.94 0-2.8 4.02-2.8 6.28 0 2.56.16 4.38 1.92 5.84.86.72 2.18-.02 2.48.52.4.7-.34.94-.98.94-4.54-.1-5.24-6.12-4.32-10.02.48-2.08 1.72-4.86 4.32-4.86zm7.4 11.58h-2.96l-.12.12-.34 2.26c-.04.3-.02 1.16-.6 1.16-.26 0-.44-.52-.44-.72 2.08-14.5 2.1-14.54 2.1-14.54.1-.38.24-.94.74-.94.22 0 .5.1.62.3l.16.42c1.16 4.58 1.7 9.28 2.24 14l.12 1.3c0 .02-.02.02-.02.04-.14.38-.22.54-.6.54h-.06c-.12 0-.32 0-.34-.14l-.5-3.8zm-1.5-10.52l-1.16 9.28 2.5.06-1.34-9.34zm5.02 14.24l.24-14.08c-.04-.8 1.06-1.28 1.48-.12l4.08 11.06c.02-.88.18-5.8.3-7.76.06-1.2-.02-2.42.24-3.54 0-.22.22-.22.52-.22.48.02.52.04.5.48-.06 2.08-.36 4.16-.44 6.24-.04 1.16-.24 6.7-.24 7.86-.14.42-.76.18-.92-.16-.2-.42-.36-.82-4.6-12.16l-.14 12.28c0 .6-1.02.54-1.02.12z"/>
    </g>
</svg>
