<svg xmlns="http://www.w3.org/2000/svg" width="25" height="24" viewBox="0 0 25 24">
    <g fill="none" fill-rule="evenodd">
        <path fill="#A9DCF6" fill-opacity=".8" d="M5.105 18.122v2.555c0 .3.134.586.377.763 2.647 1.935 9.952 1.935 12.6 0a.941.941 0 0 0 .376-.763v-2.555c0-2.331-1.196-4.568-3.007-5.9a.957.957 0 0 1 0-1.553c1.81-1.333 3.007-3.57 3.007-5.9V2.213c0-.3-.134-.586-.375-.761-2.649-1.936-9.954-1.936-12.601 0a.935.935 0 0 0-.377.761V4.77c0 2.33 1.196 4.567 3.008 5.9a.957.957 0 0 1 0 1.552c-1.812 1.333-3.008 3.57-3.008 5.9"/>
        <path fill="#FFF" fill-opacity=".9" d="M11.782 1.907c2.169 0 3.857.394 4.768.844v2.017c0 1.68-.854 3.353-2.23 4.365a2.883 2.883 0 0 0-1.174 2.312c0 .907.438 1.771 1.173 2.312 1.377 1.013 2.231 2.685 2.231 4.364v2.019c-.91.45-2.6.843-4.768.843-2.17 0-3.858-.394-4.769-.843V18.12c0-1.679.854-3.351 2.23-4.363a2.883 2.883 0 0 0 1.174-2.313c0-.907-.438-1.77-1.173-2.312-1.377-1.012-2.23-2.685-2.23-4.365V2.751c.91-.45 2.599-.844 4.768-.844"/>
        <path fill="#9A62FF" d="M12 3.34c-1.626 0-3.35.151-3.367.554-.015.325-.007.955 1.314 1.624 1.283.652 1.524 1.843 2.222 1.843.81 0 .857-.685 1.846-1.366 1.02-.701 1.183-1.649 1.171-2.024-.016-.522-1.558-.63-3.185-.63"/>
        <path fill="#4F2A93" d="M14.016 5.995c1.019-.701 1.182-1.648 1.17-2.024-.012-.413-.982-.567-2.194-.614.34.175.781.542.672 1.266-.112.754-1.3 1.588-1.107 2.254.036.13.1.233.179.318.355-.244.586-.723 1.28-1.2"/>
        <path fill="#9A62FF" d="M11.782 13.181c-.495 0-.623.903-1.342 1.464-.881.687-1.719 1.534-1.949 2.751-.19 1.003-.018 1.128.212 1.2.229.07 1.992.37 3.72 0 1.73-.37 2.69-1.06 2.523-1.764-.16-.67-.644-1.243-1.535-1.905-.852-.633-1.134-1.746-1.63-1.746"/>
        <path fill="#4F2A93" d="M8.703 18.595c.23.071 1.993.37 3.721 0 1.374-.294 2.262-.789 2.485-1.335a.138.138 0 0 0-.007-.033c-.097-.368-1.543-.59-3.342-.298-1.714.277-3.102.843-3.096 1.48.053.116.14.156.239.186"/>
    </g>
</svg>
