<svg xmlns="http://www.w3.org/2000/svg" width="16" height="16" viewBox="0 0 16 16">
    <path fill="#E1E0E3" fill-rule="evenodd" d="M8 0c2.173 0 2.445.01 3.298.048.852.04 1.433.174 1.942.372.526.205.973.478 1.418.922.444.445.717.892.922 1.418.198.509.333 1.09.372 1.942C15.99 5.555 16 5.827 16 8s-.01 2.445-.048 3.298c-.04.852-.174 1.433-.372 1.942a3.924 3.924 0 0 1-.922 1.418 3.924 3.924 0 0 1-1.418.922c-.509.198-1.09.333-1.942.372-.853.04-1.125.048-3.298.048s-2.445-.009-3.298-.048c-.852-.04-1.433-.174-1.942-.372a3.924 3.924 0 0 1-1.418-.922A3.924 3.924 0 0 1 .42 13.24c-.198-.509-.333-1.09-.372-1.942C.01 10.445 0 10.173 0 8s.01-2.445.048-3.298C.088 3.85.222 3.269.42 2.76c.205-.526.478-.973.922-1.418A3.924 3.924 0 0 1 2.76.42C3.269.222 3.85.087 4.702.048 5.555.01 5.827 0 8 0zm0 3.892a4.108 4.108 0 1 0 0 8.216 4.108 4.108 0 0 0 0-8.216zm5.23-.162a.96.96 0 1 0-1.92 0 .96.96 0 0 0 1.92 0zM8 10.667a2.666 2.666 0 1 1 0-5.333 2.666 2.666 0 0 1 0 5.333z"/>
</svg>
