<svg xmlns="http://www.w3.org/2000/svg" xmlns:xlink="http://www.w3.org/1999/xlink" width="191" height="42" viewBox="0 0 191 42">
    <defs>
        <path id="a" d="M.666 28.718h22.448V.606H.666v28.112z"/>
        <path id="c" d="M.558 40.74h24.35V.077H.557z"/>
        <path id="e" d="M0 40.74h24.03V.077H0V40.74z"/>
        <path id="g" d="M19.379.077H.279v40.662h19.1z"/>
        <path id="i" d="M6.59.077H.558v6.01H6.59V.077z"/>
        <path id="k" d="M6.59.077H.558v6.01H6.59V.077z"/>
    </defs>
    <g fill="none" fill-rule="evenodd">
        <g transform="translate(138.726 12.613)">
            <mask id="b" fill="#fff">
                <use xlink:href="#a"/>
            </mask>
            <path fill="#4F2A93" d="M21.94 19.774a3.025 3.025 0 0 0-4.23.545 6.115 6.115 0 0 1-4.87 2.389c-3.249 0-5.934-2.519-6.131-5.743-.007-.465-.012-3.793-.012-4.226 0-3.376 2.756-6.122 6.144-6.122a6.1 6.1 0 0 1 4.456 1.907 3.023 3.023 0 0 0 4.263.11 2.997 2.997 0 0 0 .11-4.249A12.248 12.248 0 0 0 12.84.606C6.128.606.667 6.048.667 12.739c0 .041.001 4.206.018 4.512.35 6.43 5.69 11.467 12.157 11.467a12.11 12.11 0 0 0 9.645-4.728 2.999 2.999 0 0 0-.546-4.216" mask="url(#b)"/>
        </g>
        <path fill="#4F2A93" d="M178.606 35.32c-3.249 0-5.933-2.518-6.131-5.74-.007-.467-.012-3.81-.012-4.229 0-3.375 2.756-6.122 6.143-6.122 3.388 0 6.144 2.747 6.144 6.122 0 .434-.005 3.763-.012 4.223-.195 3.226-2.88 5.746-6.132 5.746m9.16-22.621a3.007 3.007 0 0 0-2.911 2.259 12.12 12.12 0 0 0-6.249-1.74c-6.713 0-12.174 5.444-12.174 12.133 0 .043.002 4.205.017 4.513.35 6.43 5.69 11.467 12.157 11.467 2.341 0 4.53-.667 6.392-1.815a3.014 3.014 0 0 0 2.768 1.815 3.01 3.01 0 0 0 3.015-3.006V15.704a3.01 3.01 0 0 0-3.015-3.005M40.6 35.32c-3.25 0-5.934-2.519-6.13-5.742-.008-.464-.013-3.793-.013-4.227 0-3.375 2.756-6.122 6.144-6.122 3.387 0 6.143 2.747 6.143 6.122 0 .434-.005 3.763-.012 4.223-.195 3.226-2.88 5.746-6.131 5.746m9.159-22.621a3.007 3.007 0 0 0-2.91 2.259 12.12 12.12 0 0 0-6.25-1.74c-6.713 0-12.175 5.444-12.175 12.133 0 .043.002 4.206.019 4.513.35 6.43 5.69 11.467 12.157 11.467 2.34 0 4.53-.667 6.392-1.815a3.014 3.014 0 0 0 2.767 1.815 3.01 3.01 0 0 0 3.016-3.006V15.704A3.01 3.01 0 0 0 49.76 12.7M94.159 12.699a3.01 3.01 0 0 0-3.016 3.005v22.621a3.01 3.01 0 0 0 3.016 3.006 3.01 3.01 0 0 0 3.016-3.006v-22.62a3.01 3.01 0 0 0-3.016-3.006M129.678 12.699a3.01 3.01 0 0 0-3.016 3.005v22.621a3.01 3.01 0 0 0 3.016 3.006 3.01 3.01 0 0 0 3.016-3.006v-22.62a3.01 3.01 0 0 0-3.016-3.006"/>
        <g transform="translate(59.646 .591)">
            <mask id="d" fill="#fff">
                <use xlink:href="#c"/>
            </mask>
            <path fill="#4F2A93" d="M18.864 28.99c-.198 3.221-2.883 5.739-6.131 5.739-3.25 0-5.935-2.519-6.132-5.746-.008-.464-.012-3.79-.012-4.223 0-3.376 2.756-6.122 6.144-6.122 3.386 0 6.143 2.746 6.143 6.122 0 .419-.005 3.762-.012 4.23m-6.131-16.363c-2.242 0-4.338.618-6.144 1.676V3.083A3.01 3.01 0 0 0 3.574.076 3.01 3.01 0 0 0 .558 3.082v34.653a3.01 3.01 0 0 0 3.016 3.005c1.24 0 2.304-.748 2.767-1.815a12.149 12.149 0 0 0 6.392 1.815c6.466 0 11.806-5.037 12.157-11.478.015-.297.017-4.46.017-4.502 0-6.69-5.462-12.133-12.174-12.133" mask="url(#d)"/>
        </g>
        <g transform="translate(0 .591)">
            <mask id="f" fill="#fff">
                <use xlink:href="#e"/>
            </mask>
            <path fill="#4F2A93" d="M11.855 12.627c-2.08 0-4.07.52-5.823 1.47V3.082A3.01 3.01 0 0 0 3.016.077 3.01 3.01 0 0 0 0 3.082v34.652a3.01 3.01 0 0 0 3.016 3.006 3.01 3.01 0 0 0 3.016-3.006V22.201c.23-.196.442-.416.612-.684a6.12 6.12 0 0 1 5.211-2.879c3.387 0 6.143 2.746 6.143 6.122 0 .55-.005 12.23-.013 12.9a3.01 3.01 0 0 0 3.018 3.08 3.012 3.012 0 0 0 3.01-2.853c.014-.297.016-12.999.016-13.127 0-6.69-5.46-12.133-12.174-12.133" mask="url(#f)"/>
        </g>
        <g transform="translate(101.867 .591)">
            <mask id="h" fill="#fff">
                <use xlink:href="#g"/>
            </mask>
            <path fill="#4F2A93" d="M16.363 12.108h-3.518V3.082A3.01 3.01 0 0 0 9.829.077a3.01 3.01 0 0 0-3.016 3.005v9.026H3.295a3.01 3.01 0 0 0-3.016 3.005 3.01 3.01 0 0 0 3.016 3.005h3.518v19.616a3.01 3.01 0 0 0 3.016 3.005 3.01 3.01 0 0 0 3.016-3.005V18.118h3.518a3.01 3.01 0 0 0 3.016-3.005 3.01 3.01 0 0 0-3.016-3.005" mask="url(#h)"/>
        </g>
        <g transform="translate(90.474 .591)">
            <mask id="j" fill="#fff">
                <use xlink:href="#i"/>
            </mask>
            <path fill="#FF6066" d="M6.59 3.082a3.01 3.01 0 0 1-3.016 3.005A3.01 3.01 0 0 1 .558 3.082 3.01 3.01 0 0 1 3.574.077 3.01 3.01 0 0 1 6.59 3.082" mask="url(#j)"/>
        </g>
        <g transform="translate(125.993 .591)">
            <mask id="l" fill="#fff">
                <use xlink:href="#k"/>
            </mask>
            <path fill="#4FB5E8" d="M6.59 3.082a3.01 3.01 0 0 1-3.016 3.005A3.01 3.01 0 0 1 .558 3.082 3.01 3.01 0 0 1 3.574.077 3.01 3.01 0 0 1 6.59 3.082" mask="url(#l)"/>
        </g>
    </g>
</svg>
