<svg xmlns="http://www.w3.org/2000/svg" width="20" height="16" viewBox="0 0 20 16">
    <path fill="#A5A1AC" fill-rule="evenodd" d="M14 14a5.968 5.968 0 0 0-1.537-4H14c2.206 0 4 1.794 4 4h-4zM2 14c0-2.206 1.794-4 4-4h2c2.206 0 4 1.794 4 4H2zM7 2a3 3 0 1 1 0 6 3 3 0 0 1 0-6zm4.315.519a3 3 0 1 1 0 4.962A4.94 4.94 0 0 0 12 5a4.94 4.94 0 0 0-.685-2.481zm5.193 6.036A4.983 4.983 0 0 0 18 5c0-2.757-2.243-5-5-5-1.13 0-2.162.391-3 1.026A4.948 4.948 0 0 0 7 0C4.243 0 2 2.243 2 5c0 1.39.573 2.648 1.492 3.555A5.994 5.994 0 0 0 0 14a2 2 0 0 0 2 2h16a2 2 0 0 0 2-2 5.994 5.994 0 0 0-3.492-5.445z"/>
</svg>
