<svg xmlns="http://www.w3.org/2000/svg" width="20" height="20" viewBox="0 0 20 20">
    <g fill="none" fill-rule="evenodd">
        <path fill="#6133B4" d="M10 18.5l-3.09 1.01-1.906-2.633-3.094-1 .006-3.25L0 10l1.916-2.627-.006-3.25 3.094-1L6.91.49 10 1.5 13.09.49l1.906 2.633 3.094 1-.006 3.25L20 10l-1.916 2.627.006 3.25-3.094 1-1.906 2.634z"/>
        <path fill="#FFF" d="M8.994 13.333a.795.795 0 0 1-.563-.233l-2.598-2.598L6.96 9.376l1.99 1.989 4.026-4.698 1.21 1.036L9.6 13.055a.801.801 0 0 1-.575.278h-.03"/>
    </g>
</svg>
