<svg xmlns="http://www.w3.org/2000/svg" width="12" height="12" viewBox="0 0 12 12">
    <path fill="#FFF" fill-rule="evenodd" d="M6.252 8.46l-2.71-2.712 4.602-3.58 1.688 1.689-3.58 4.602zm5.554-4.497l-.626-.627-.001-.001L8.666.822 8.037.194a.66.66 0 1 0-.934.934l.1.1L2.6 4.806l-.216-.216a.66.66 0 1 0-.934.934l.627.627v.001l1.418 1.418-3.301 3.302a.66.66 0 1 0 .934.934L4.43 8.505l1.417 1.417.001.002.628.627a.658.658 0 0 0 .934 0 .66.66 0 0 0 0-.934L7.194 9.4l3.58-4.602.098.099a.659.659 0 0 0 .934 0 .66.66 0 0 0 0-.934z"/>
</svg>
