<svg xmlns="http://www.w3.org/2000/svg" width="14" height="16" viewBox="0 0 14 16">
    <g fill="none" fill-rule="nonzero">
        <path fill="#24CC8F" d="M0 6l6.667-6 6.666 6-6.666 10z"/>
        <path fill="#24CC8F" d="M0 6l6.667-6 6.666 6-6.666 10z"/>
        <path fill="#FFF" d="M11.6 6.2l-4.933-1V1.8z" opacity=".25"/>
        <path fill="#FFF" d="M6.667 5.2l-4.934 1 4.934-4.4z" opacity=".5"/>
        <path fill="#5AE4B2" d="M6.667 5.2v8.4L1.733 6.2z"/>
        <path fill="#1B996B" d="M11.6 6.2l-4.933 7.4V5.2z" opacity=".35"/>
        <path fill="#F47825" d="M13.333 6L6.667 0 0 6l1.333 2L0 10l6.667 6 6.666-6L12 8z"/>
        <path fill="#FFF" d="M11.6 6.2l-4.933-1V1.8z" opacity=".25"/>
        <path fill="#FFF" d="M6.667 5.2l-4.934 1 4.934-4.4z" opacity=".5"/>
        <path fill="#FFF" d="M6.667 5.2v8.4L5.37 11.653 1.733 6.2zM6.667 10.8V2.4l1.296 1.947L11.6 9.8z" opacity=".25"/>
        <path fill="#B4591B" d="M11.6 6.2l-4.933 7.4V5.2zM1.733 9.8l4.934 1v3.4z" opacity=".35"/>
        <path fill="#FFF" d="M6.667 10.8l4.933-1-4.933 4.4z" opacity=".5"/>
        <path fill="#FFF" d="M1.733 9.8l4.934-7.4v8.4z" opacity=".25"/>
        <path fill="#FFF" d="M3.5 9.533L4.54 8 3.5 6.467l3.167-2.8 3.166 2.8L8.793 8l1.04 1.533-3.166 2.8z" opacity=".5"/>
    </g>
</svg>
