<svg style="position: absolute; width: 0; height: 0; overflow: hidden;" version="1.1" xmlns="http://www.w3.org/2000/svg">
<defs>
<symbol id="icon-buff" viewBox="0 0 32 32">
<title>buff</title>
<path fill="#bda8ff" style="fill: var(--color1, #bda8ff)" d="M16 0l13.333 16h-8v5.333h-10.667v-5.333h-8l13.333-16zM10.667 24h10.667v2.667h-10.667v-2.667zM10.667 29.333h10.667v2.667h-10.667v-2.667z"></path>
</symbol>
<symbol id="icon-experience" viewBox="0 0 32 32">
<title>experience</title>
<path fill="#ffa623" style="fill: var(--color2, #ffa623)" d="M21.333 21.333l10.667-5.333-10.667-5.333-5.333-10.667-5.333 10.667-10.667 5.333 10.667 5.333 5.333 10.667z"></path>
<path fill="#fff" opacity="0.25" style="fill: var(--color3, #fff)" d="M6 16l6.667-3.333 3.333 3.333zM16 26l-3.333-6.667 3.333-3.333zM26 16l-6.667 3.333-3.333-3.333zM16 6l3.333 6.667-3.333 3.333z"></path>
<path fill="#bf7d1a" opacity="0.25" style="fill: var(--color4, #bf7d1a)" d="M26 16l-6.667-3.333-3.333 3.333z"></path>
<path fill="#bf7d1a" opacity="0.5" style="fill: var(--color4, #bf7d1a)" d="M16 26l3.333-6.667-3.333-3.333z"></path>
<path fill="#fff" opacity="0.5" style="fill: var(--color3, #fff)" d="M6 16l6.667 3.333 3.333-3.333zM16 6l-3.333 6.667 3.333 3.333z"></path>
<path fill="#fff" opacity="0.5" style="fill: var(--color3, #fff)" d="M14.4 17.6l-3.067-1.6 3.067-1.6 1.6-3.067 1.6 3.067 3.067 1.6-3.067 1.6-1.6 3.067z"></path>
</symbol>
<symbol id="icon-gem" viewBox="0 0 32 32">
<title>gem</title>
<path fill="#24cc8f" style="fill: var(--color5, #24cc8f)" d="M0 12l6.667-9.333h18.667l6.667 9.333-16 17.333z"></path>
<path fill="#fff" opacity="0.25" style="fill: var(--color3, #fff)" d="M9.333 11.733l-1.333-6.4h8zM22.667 11.733l1.333-6.4h-8z"></path>
<path fill="#fff" opacity="0.5" style="fill: var(--color3, #fff)" d="M9.333 11.733l6.667-6.4 6.667 6.4zM3.467 11.733l4.533-6.4 1.333 6.4z"></path>
<path fill="#1b996b" opacity="0.35" style="fill: var(--color6, #1b996b)" d="M28.533 11.733l-4.533-6.4-1.333 6.4zM3.467 11.733h5.867l6.667 13.733z"></path>
<path fill="#fff" opacity="0.5" style="fill: var(--color3, #fff)" d="M28.533 11.733h-5.867l-6.667 13.733z"></path>
<path fill="#fff" opacity="0.25" style="fill: var(--color3, #fff)" d="M9.333 11.733h13.333l-6.667 13.733z"></path>
</symbol>
<symbol id="icon-gold" viewBox="0 0 32 32">
<title>gold</title>
<path fill="#ffa623" style="fill: var(--color2, #ffa623)" d="M32 16c0 8.837-7.163 16-16 16s-16-7.163-16-16c0-8.837 7.163-16 16-16s16 7.163 16 16z"></path>
<path fill="#fff" opacity="0.5" style="fill: var(--color3, #fff)" d="M8.4 23.6c-4.133-4.133-4.133-10.933 0-15.067s10.933-4.133 15.067 0z"></path>
<path fill="#fff" opacity="0.25" style="fill: var(--color3, #fff)" d="M23.6 8.4c4.133 4.133 4.133 10.933 0 15.067s-10.933 4.133-15.067 0z"></path>
<path fill="#bf7d1a" opacity="0.5" style="fill: var(--color4, #bf7d1a)" d="M16 2.667c-7.333 0-13.333 6-13.333 13.333s6 13.333 13.333 13.333 13.333-6 13.333-13.333-6-13.333-13.333-13.333zM16 26.667c-5.867 0-10.667-4.8-10.667-10.667s4.8-10.667 10.667-10.667 10.667 4.8 10.667 10.667-4.8 10.667-10.667 10.667z"></path>
<path fill="#bf7d1a" opacity="0.75" style="fill: var(--color4, #bf7d1a)" d="M17.333 12v2.667h-2.667v-2.667h-2.667v8h2.667v-2.667h2.667v2.667h2.667v-8z"></path>
</symbol>
<symbol id="icon-health" viewBox="0 0 32 32">
<title>health</title>
<path fill="#f74e52" style="fill: var(--color7, #f74e52)" d="M2.667 6l5.556-3.333 7.777 4.223 7.777-4.223 5.556 3.333v10l-5.556 7.777-7.777 5.556-7.777-5.556-5.556-7.777z"></path>
<path fill="#ff6165" style="fill: var(--color8, #ff6165)" d="M9.777 22.223l-4.888-6.889v-8.111l3.333-2 7.777 4.221 7.777-4.221 3.333 2v8.111l-4.888 6.889-6.223 4.333z"></path>
<path fill="#fff" opacity="0.5" style="fill: var(--color3, #fff)" d="M16 18.777l6.223 3.445-6.223 4.333z"></path>
<path fill="#b52428" opacity="0.35" style="fill: var(--color9, #b52428)" d="M16 18.777l-6.223 3.445 6.223 4.333z"></path>
<path fill="#fff" opacity="0.25" style="fill: var(--color3, #fff)" d="M9.777 22.223l-4.888-6.889 11.111 3.444z"></path>
<path fill="#b52428" opacity="0.5" style="fill: var(--color9, #b52428)" d="M22.223 22.223l4.888-6.889-11.111 3.444z"></path>
<path fill="#b52428" opacity="0.35" style="fill: var(--color9, #b52428)" d="M16 18.777l7.777-13.555 3.333 2v8.111z"></path>
<path fill="#b52428" opacity="0.5" style="fill: var(--color9, #b52428)" d="M16 18.777l-7.777-13.555-3.333 2v8.111z"></path>
<path fill="#fff" opacity="0.5" style="fill: var(--color3, #fff)" d="M16 18.777l-7.777-13.555 7.777 4.221z"></path>
<path fill="#fff" opacity="0.25" style="fill: var(--color3, #fff)" d="M16 18.777l7.777-13.555-7.777 4.221z"></path>
<path fill="#fff" opacity="0.5" style="fill: var(--color3, #fff)" d="M12.223 19.777l-4-5.555v-5.112h0.111l7.667 4.112 7.667-4.112h0.111v5.112l-4 5.555-3.777 2.779z"></path>
</symbol>
<symbol id="icon-mana" viewBox="0 0 32 32">
<title>mana</title>
<path fill="#2995cd" style="fill: var(--color10, #2995cd)" d="M29.333 20l-13.333 12-13.333-12 13.333-20z"></path>
<path fill="#50b5e9" style="fill: var(--color11, #50b5e9)" d="M6.133 19.6l9.867-4v12.8z"></path>
<path fill="#1f709a" opacity="0.25" style="fill: var(--color12, #1f709a)" d="M16 15.6l9.867 4-9.867 8.8z"></path>
<path fill="#fff" opacity="0.25" style="fill: var(--color3, #fff)" d="M16 15.6v-10.8l9.867 14.8z"></path>
<path fill="#fff" opacity="0.5" style="fill: var(--color3, #fff)" d="M6.133 19.6l9.867-14.8v10.8z"></path>
<path fill="#fff" opacity="0.5" style="fill: var(--color3, #fff)" d="M9.6 19.067l6.4-9.467 6.4 9.467-6.4 5.733z"></path>
</symbol>
<symbol id="icon-notifications" viewBox="0 0 32 32">
<title>notifications</title>
<path d="M26 4h-20c-1.7 0-3 1.3-3 3v14c0 1.7 1.3 3 3 3h5l2.9 3.1c1.2 1.2 3.1 1.2 4.2 0l2.9-3.1h5c1.7 0 3-1.3 3-3v-14c0-1.7-1.3-3-3-3v0zM27 21c0 0.6-0.4 1-1 1h-5.9l-3.5 3.7c-0.2 0.2-0.4 0.3-0.6 0.3s-0.4-0.1-0.7-0.3l-3.4-3.7h-5.9c-0.6 0-1-0.4-1-1v-14c0-0.6 0.4-1 1-1h20c0.6 0 1 0.4 1 1v14zM24 11h-16v-2h16v2zM24 15h-16v-2h16v2zM24 19h-16v-2h16v2z"></path>
</symbol>
<symbol id="icon-user" viewBox="0 0 32 32">
<title>user</title>
<path d="M20 17h-0.4c1.9-1.2 3.3-3.3 3.4-5.8 0.1-3.8-3.1-7.2-6.9-7.2-4 0-7.1 3.1-7.1 7 0 2.6 1.3 4.8 3.4 6h-0.4c-3.9 0-7 3.1-7 7v1c0 1.7 1.3 3 3 3h16c1.7 0 3-1.3 3-3v-1c0-3.9-3.1-7-7-7v0zM11 11c0-2.8 2.2-5 5-5s5 2.2 5 5c0 2.8-2.2 5-5 5s-5-2.2-5-5v0zM24 26h-16c-0.6 0-1-0.4-1-1v-1c0-2.8 2.2-5 5-5h8c2.8 0 5 2.2 5 5v1c0 0.6-0.4 1-1 1v0z"></path>
</symbol>
</defs>
</svg>
