<svg xmlns="http://www.w3.org/2000/svg" width="37" height="33" viewBox="0 0 37 33">
    <g fill="none" fill-rule="evenodd" stroke="#A5A1AC" stroke-linejoin="round" stroke-width="2.4">
        <path stroke-linecap="round" d="M13.782 21.846s1.794 3.682 0 5.454c-1.793 1.773-5.957 0-8.327.938C3.085 29.175 2 31.65 2 31.65M23.744 21.846s-1.794 3.682 0 5.454c1.793 1.773 5.957 0 8.327.938 2.37.937 3.455 3.412 3.455 3.412"/>
        <path d="M27.939 12.642c0 6.321-5.755 11.445-9.277 11.445-2.98 0-9.277-5.124-9.277-11.445C9.385 6.32 13.089 2 18.662 2c5.572 0 9.277 4.32 9.277 10.642z"/>
    </g>
</svg>
