<svg xmlns="http://www.w3.org/2000/svg" width="256" height="104" viewBox="0 0 256 104">
    <g fill="none" fill-rule="evenodd">
        <g opacity=".64" transform="translate(-44 -16)">
            <rect width="346" height="136" rx="2"/>
            <path fill="#3FDAA2" d="M232.359 84.179l3.074-1.341-2.917-1.655-1.341-3.075-1.655 2.918-3.075 1.34 2.918 1.656 1.34 3.074z" opacity=".96"/>
            <path fill="#FF6165" d="M171.439 20.105l-.023 2.982 2.399-1.771 2.981.023-1.77-2.4.022-2.98-2.399 1.77-2.98-.022z" opacity=".84"/>
            <path fill="#3FDAA2" d="M114.501 54.126l2.574.428-1.202-2.315.428-2.574-2.316 1.202-2.573-.427 1.202 2.315-.428 2.573z" opacity=".83"/>
            <path fill="#50B5E9" d="M284.929 89.34l.173 6.333 4.962-3.939 6.334-.173-3.939-4.962-.173-6.334-4.962 3.939-6.334.173z" opacity=".73"/>
            <path fill="#FFBE5D" d="M242.881 57.724l-3.984 5.397 6.708-.05 5.397 3.983-.05-6.708 3.983-5.397-6.708.051-5.397-3.984z" opacity=".82"/>
            <path fill="#50B5E9" d="M125.165 110.829l-.589-4.433-3.193 3.13-4.433.59 3.13 3.193.59 4.433 3.193-3.13 4.433-.59z" opacity=".99"/>
            <path fill="#50B5E9" d="M163.702 56.186l-3.901 5.91 7.068-.425 5.91 3.902-.425-7.069 3.901-5.909-7.068.425-5.909-3.902z"/>
            <path fill="#FF6165" d="M206.14 107.367l3.404 2.9.278-4.463 2.9-3.404-4.463-.278-3.404-2.9-.278 4.463-2.9 3.404z" opacity=".84"/>
            <path fill="#FF944C" d="M50.708 53.066l.62 3.675 2.568-2.7 3.675-.62-2.7-2.568-.62-3.675-2.568 2.7-3.675.62zM297.486 59.18l-.037-3.727-2.96 2.265-3.726.037 2.265 2.959.037 3.727 2.96-2.266 3.726-.037z" opacity=".93"/>
            <path fill="#9A62FF" d="M95.481 86.952l5.13-.957-3.843-3.53-.957-5.128-3.53 3.842-5.128.957 3.843 3.53.956 5.128z" opacity=".99"/>
            <path fill="#FFBE5D" d="M122.061 24.656l-.952 3.987 3.761-1.63 3.987.952-1.63-3.761.953-3.988-3.762 1.63-3.987-.952z"/>
            <path fill="#3FDAA2" d="M49.863 86.74l4.692 1.207-1.849-4.478 1.208-4.692-4.478 1.849-4.692-1.208 1.849 4.478-1.208 4.692z" opacity=".96"/>
            <path fill="#9A62FF" d="M226.63 30.447l5.026-1.4-4.135-3.18-1.4-5.027-3.181 4.136-5.026 1.4 4.135 3.18 1.4 5.027z" opacity=".99"/>
        </g>
        <path fill="#3FDAA2" d="M119.347 104c-2.031 0-3.971-.8-5.41-2.24L89 76.824l10.819-10.818 19.098 19.098L157.57 40l11.619 9.953-44.03 51.378a7.694 7.694 0 0 1-5.52 2.662c-.097.007-.195.007-.292.007"/>
    </g>
</svg>
