<svg xmlns="http://www.w3.org/2000/svg" width="16" height="13" viewBox="0 0 16 13">
    <path fill-rule="evenodd" d="M14.362 3.238c.007.141.01.281.01.424 0 4.338-3.302 9.34-9.34 9.34A9.284 9.284 0 0 1 0 11.527c.257.029.518.045.783.045a6.576 6.576 0 0 0 4.076-1.404 3.288 3.288 0 0 1-3.065-2.28 3.312 3.312 0 0 0 1.481-.056A3.288 3.288 0 0 1 .642 4.613v-.041c.444.246.949.393 1.488.41A3.28 3.28 0 0 1 .67 2.25c0-.602.162-1.166.444-1.651a9.315 9.315 0 0 0 6.766 3.43A3.28 3.28 0 0 1 11.078 0c.943 0 1.797.398 2.395 1.035a6.565 6.565 0 0 0 2.085-.797 3.289 3.289 0 0 1-1.443 1.816A6.543 6.543 0 0 0 16 1.539a6.665 6.665 0 0 1-1.638 1.699"/>
</svg>
