<svg xmlns="http://www.w3.org/2000/svg" xmlns:xlink="http://www.w3.org/1999/xlink" width="48" height="48" viewBox="0 0 48 48">
    <defs>
        <path id="a" d="M31.392 9.115l-6.791 7.124v6.314l6.791-6.791V9.115z"/>
    </defs>
    <g fill="none" fill-rule="evenodd" transform="translate(0 1)">
        <path fill="#F06166" d="M18.39 28.762l6.334 2.92c.526.243.868.732.999 1.297.219.948.883 3.156.937 4.33a.88.88 0 0 1-1.24.844l-10.588-5.07a1.781 1.781 0 0 1-.762-.763L9 21.733a.88.88 0 0 1 .844-1.24c1.173.054 3.335.683 4.33.937.56.142 1.054.472 1.296.998l2.92 6.334z"/>
        <path fill="#C82B2B" d="M3.073 44.085l2.732 2.733 7.085-.557.364-4.656 4.069-4.067 7.401 3.522 5.536-1.49-2.322-9.99 15.514-14.477L46.422.741l-.007.002.003-.003V.734L32.057 3.702 17.58 19.218l-9.99-2.322L6.1 22.43l3.522 7.403L5.555 33.9l-4.654.367-.559 7.084 2.732 2.733z"/>
        <path fill="#F06166" d="M8.927 41.769l-3.544-3.544 8.767-8.765 3.542 3.544z"/>
        <path fill="#F06166" d="M3.377 40.231l.255-3.235 3.236-.255 3.544 3.546-.255 3.233-3.234.258z"/>
        <path fill="#FFB6B8" d="M33.935 6.526l.3 6.391 8.108-8.108c-.15-.14-6.26.565-8.408 1.717"/>
        <path fill="#F27B86" d="M33.787 6.602L16.66 24.568l4.39 1.538 13.186-13.189-.3-6.392c-.048.027-.148.077-.148.077"/>
        <path fill="#F27B86" d="M16.66 24.567l-.148.164 1.864 4.045 2.67-2.67-4.386-1.539zM40.624 13.22l-6.392-.3 8.109-8.108c.14.15-.565 6.259-1.717 8.408"/>
        <path fill="#E5414D" d="M40.548 13.368L22.582 30.496l-1.538-4.39L34.233 12.92l6.391.3a5.032 5.032 0 0 0-.076.148"/>
        <path fill="#E5414D" d="M22.582 30.495l-.163.148-4.045-1.864 2.67-2.67 1.538 4.386z"/>
        <path fill="#FFB6B8" d="M6.867 36.742l-.75 2.742-2.486-2.487zM10.406 40.28l-2.742.75 2.486 2.486z"/>
        <path fill="#FFB6B8" d="M6.867 36.742l3.546 3.546-2.748.741-1.547-1.545z"/>
        <path fill="#F27B86" d="M3.382 40.237l2.742-.75-2.486-2.486zM6.921 43.776l.75-2.742 2.486 2.486z"/>
        <path fill="#F27B86" d="M3.382 40.237l3.547 3.546.74-2.748-1.545-1.547z"/>
        <path fill="#E5414D" d="M14.701 36.01l-3.552-3.553 2.143-2.14 3.552 3.55z"/>
        <path fill="#F06166" d="M12.56 38.151L9.008 34.6l2.142-2.14 3.552 3.55z"/>
        <path fill="#E5414D" d="M10.418 40.293L6.866 36.74l2.142-2.14 3.552 3.55z"/>
        <path fill="#FFB6B8" d="M18.395 28.764l-2.92-6.334a1.629 1.629 0 0 0-.46-.576 2.12 2.12 0 0 0-.836-.422c-.995-.254-3.157-.883-4.33-.937a.871.871 0 0 0-.727.336l4.258 3.634 3.13 6.192 1.89-1.89-.005-.003z"/>
        <path fill="#F06166" d="M13.38 24.466L9.12 20.83a.871.871 0 0 0-.117.904l5.07 10.587c.085.165.197.313.327.444l2.109-2.108-3.13-6.192z"/>
        <path fill="#F27B86" d="M26.674 37.312c-.054-1.173-.684-3.337-.937-4.33a2.12 2.12 0 0 0-.423-.836 1.629 1.629 0 0 0-.576-.46l-6.334-2.92-.002-.005-1.891 1.891 6.192 3.13 3.635 4.258a.874.874 0 0 0 .336-.728"/>
        <path fill="#E5414D" d="M22.703 33.781l3.634 4.259a.871.871 0 0 1-.904.117l-10.587-5.07a1.766 1.766 0 0 1-.444-.327l2.109-2.108 6.192 3.13z"/>
        <mask id="b" fill="#fff">
            <use xlink:href="#a"/>
        </mask>
        <path fill="#FFB6B8" d="M29.472 23.28h.987V5.828h-.987zM24.601 27.692h2.92V10.24h-2.92z" mask="url(#b)"/>
    </g>
</svg>
